<svg width="48" height="48" viewBox="0 0 48 48" fill="none" xmlns="http://www.w3.org/2000/svg">
<circle cx="24" cy="24" r="23.5" fill="white" stroke="#158CEA"/>
<g clip-path="url(#clip0_786_9990)">
<path d="M12.2911 20.5521C12.0757 20.1524 11.9758 19.7006 12.0029 19.2473C12.0299 18.794 12.1827 18.3573 12.4441 17.9861C12.8714 17.3592 13.4436 16.8446 14.1121 16.4861L21.6131 12.5821C22.3504 12.1987 23.1692 11.9985 24.0001 11.9985C24.8311 11.9985 25.6499 12.1987 26.3871 12.5821L33.8871 16.4891C34.5557 16.8476 35.1279 17.3622 35.5551 17.9891C35.8166 18.3603 35.9694 18.797 35.9964 19.2503C36.0235 19.7036 35.9236 20.1554 35.7081 20.5551C35.4762 20.9939 35.1282 21.3607 34.7022 21.6154C34.2762 21.8702 33.7885 22.0033 33.2921 22.0001H14.7081C14.2113 22.0032 13.7232 21.8698 13.2969 21.6144C12.8707 21.3591 12.5228 20.9916 12.2911 20.5521ZM35.0001 34.0001C35.0001 33.4696 34.7894 32.9609 34.4144 32.5858C34.0393 32.2108 33.5306 32.0001 33.0001 32.0001V24.0001H31.0001V32.0001H28.0001V24.0001H26.0001V32.0001H22.0001V24.0001H20.0001V32.0001H17.0001V24.0001H15.0001V32.0001C14.4697 32.0001 13.961 32.2108 13.5859 32.5858C13.2109 32.9609 13.0001 33.4696 13.0001 34.0001C12.7349 34.0001 12.4806 34.1054 12.293 34.2929C12.1055 34.4805 12.0001 34.7348 12.0001 35.0001C12.0001 35.2653 12.1055 35.5196 12.293 35.7072C12.4806 35.8947 12.7349 36.0001 13.0001 36.0001H35.0001C35.2654 36.0001 35.5197 35.8947 35.7073 35.7072C35.8948 35.5196 36.0001 35.2653 36.0001 35.0001C36.0001 34.7348 35.8948 34.4805 35.7073 34.2929C35.5197 34.1054 35.2654 34.0001 35.0001 34.0001Z" fill="#158CEA"/>
</g>
<defs>
<clipPath id="clip0_786_9990">
<rect width="24" height="24" fill="white" transform="translate(12 12)"/>
</clipPath>
</defs>
</svg>
