<svg width="38" height="38" viewBox="0 0 38 38" fill="none" xmlns="http://www.w3.org/2000/svg">
<circle cx="19" cy="19" r="19" fill="#158CEA" fill-opacity="0.1"/>
<g clip-path="url(#clip0_786_9795)">
<path d="M11.1941 16.7014C11.0504 16.4349 10.9839 16.1337 11.0019 15.8315C11.0199 15.5294 11.1218 15.2382 11.2961 14.9907C11.5809 14.5728 11.9624 14.2297 12.4081 13.9907L17.4088 11.388C17.9003 11.1325 18.4461 10.999 19.0001 10.999C19.5541 10.999 20.0999 11.1325 20.5914 11.388L25.5914 13.9927C26.0371 14.2317 26.4186 14.5748 26.7034 14.9927C26.8777 15.2402 26.9796 15.5314 26.9976 15.8335C27.0156 16.1357 26.9491 16.4369 26.8054 16.7034C26.6508 16.9959 26.4188 17.2404 26.1348 17.4103C25.8508 17.5802 25.5257 17.6688 25.1948 17.6667H12.8054C12.4742 17.6688 12.1488 17.5798 11.8646 17.4096C11.5805 17.2394 11.3485 16.9944 11.1941 16.7014ZM26.3334 25.6667C26.3334 25.3131 26.193 24.9739 25.9429 24.7239C25.6929 24.4738 25.3537 24.3334 25.0001 24.3334V19H23.6668V24.3334H21.6668V19H20.3334V24.3334H17.6668V19H16.3334V24.3334H14.3334V19H13.0001V24.3334C12.6465 24.3334 12.3073 24.4738 12.0573 24.7239C11.8072 24.9739 11.6668 25.3131 11.6668 25.6667C11.49 25.6667 11.3204 25.7369 11.1954 25.862C11.0703 25.987 11.0001 26.1566 11.0001 26.3334C11.0001 26.5102 11.0703 26.6798 11.1954 26.8048C11.3204 26.9298 11.49 27 11.6668 27H26.3334C26.5102 27 26.6798 26.9298 26.8048 26.8048C26.9299 26.6798 27.0001 26.5102 27.0001 26.3334C27.0001 26.1566 26.9299 25.987 26.8048 25.862C26.6798 25.7369 26.5102 25.6667 26.3334 25.6667Z" fill="#158CEA"/>
</g>
<defs>
<clipPath id="clip0_786_9795">
<rect width="16" height="16" fill="white" transform="translate(11 11)"/>
</clipPath>
</defs>
</svg>
