<svg width="42" height="42" viewBox="0 0 42 42" fill="none" xmlns="http://www.w3.org/2000/svg">
<path d="M0.823381 13.8843C2.34354 7.40368 7.40369 2.34353 13.8843 0.823379C18.5646 -0.274459 23.4354 -0.27446 28.1157 0.823378C34.5963 2.34353 39.6565 7.40369 41.1766 13.8843C42.2745 18.5646 42.2745 23.4354 41.1766 28.1157C39.6565 34.5963 34.5963 39.6565 28.1157 41.1766C23.4354 42.2745 18.5646 42.2745 13.8843 41.1766C7.40369 39.6565 2.34354 34.5963 0.823381 28.1157C-0.27446 23.4354 -0.27446 18.5646 0.823381 13.8843Z" fill="#2F24B1" fill-opacity="0.2"/>
<path d="M20.9504 9.12915C22.3012 9.69534 23.5234 10.4951 24.7844 11.2209C25.8972 11.861 26.478 12.8567 26.484 14.1472C26.4899 15.4274 26.4937 16.7076 26.4787 17.9878C26.475 18.2768 26.5528 18.4454 26.8192 18.5924C27.9373 19.2104 29.0412 19.8534 30.148 20.4906C31.3462 21.1802 31.9606 22.2054 31.9584 23.5832C31.9561 24.6416 31.9591 25.7001 31.9576 26.7593C31.9554 28.1326 31.3492 29.1637 30.1488 29.8526C29.2126 30.3892 28.2748 30.9236 27.3349 31.4529C26.1554 32.1166 24.9662 32.1248 23.7845 31.4647C22.6582 30.8357 21.5356 30.2008 20.4228 29.5488C20.1788 29.4054 20.0022 29.4003 19.7567 29.5436C18.6544 30.1889 17.5408 30.8157 16.4287 31.444C15.2238 32.1248 14.0159 32.1218 12.8118 31.4373C11.8628 30.8978 10.9094 30.3671 9.96715 29.8157C8.82737 29.1475 8.2339 28.1526 8.22417 26.8369C8.21594 25.7289 8.21968 24.6209 8.22342 23.5137C8.22716 22.1951 8.82213 21.2002 9.95817 20.5305C11.0905 19.863 12.2355 19.217 13.3828 18.574C13.6028 18.4505 13.6933 18.3153 13.6904 18.0566C13.6754 16.7889 13.6836 15.5206 13.6836 14.2529C13.6836 12.8788 14.2868 11.847 15.488 11.1574C16.413 10.6267 17.3462 10.1085 18.266 9.56968C18.5743 9.38859 18.9223 9.30433 19.2306 9.12915H20.9512H20.9504ZM15.5651 21.6281C15.5651 22.2187 15.5651 22.81 15.5651 23.4006C15.5658 24.1915 15.9018 24.8079 16.5881 25.2108C17.6792 25.8509 18.7846 26.4658 19.8802 27.0993C20.0254 27.1836 20.1347 27.1939 20.2844 27.1074C21.389 26.4666 22.5041 25.842 23.6057 25.196C24.268 24.8072 24.6018 24.2048 24.6108 23.4501C24.6257 22.2069 24.613 20.9636 24.6175 19.7204C24.6175 19.5733 24.5913 19.4757 24.4461 19.3944C23.3093 18.7588 22.186 18.1009 21.044 17.4749C20.3981 17.1208 19.7216 17.1437 19.0802 17.5C17.9741 18.1135 16.8822 18.7521 15.7776 19.3686C15.6122 19.4609 15.5583 19.5629 15.5613 19.744C15.5718 20.3716 15.5651 20.9998 15.5651 21.6274V21.6281ZM15.568 17.3389C16.4249 16.8503 17.2205 16.3972 18.016 15.9433C18.4942 15.6706 18.9986 15.474 19.5509 15.4052C20.4999 15.2862 21.377 15.4792 22.198 15.9603C22.9845 16.4208 23.7808 16.8658 24.61 17.3396C24.61 16.2146 24.6287 15.1465 24.6025 14.08C24.5898 13.5456 24.3181 13.1132 23.8444 12.8382C22.858 12.2661 21.8679 11.7014 20.8726 11.1448C20.3562 10.8558 19.8189 10.858 19.3047 11.1448C18.3079 11.6992 17.3163 12.2631 16.3314 12.8375C15.8756 13.1035 15.5875 13.5167 15.5755 14.0415C15.5501 15.1207 15.568 16.2013 15.568 17.3403V17.3389ZM26.4854 20.5527C26.4854 21.3221 26.4884 22.0221 26.4847 22.7221C26.4825 23.1522 26.5184 23.5891 26.454 24.0111C26.2632 25.2625 25.6039 26.219 24.4895 26.8591C23.6663 27.3314 22.8431 27.8037 21.9937 28.2901C22.9486 28.8348 23.8594 29.364 24.7799 29.874C25.2963 30.1608 25.8336 30.1468 26.3477 29.8593C27.3319 29.3079 28.3108 28.7491 29.2859 28.1836C29.797 27.8872 30.0672 27.4304 30.0724 26.845C30.0829 25.726 30.0799 24.6069 30.0732 23.4878C30.0702 22.9615 29.8569 22.5129 29.4034 22.2387C28.4627 21.6695 27.4995 21.1359 26.4847 20.5527H26.4854ZM18.1874 28.293C17.32 27.7956 16.5005 27.3336 15.6908 26.8576C14.3744 26.0844 13.6993 24.938 13.6844 23.4228C13.6761 22.5742 13.6844 21.725 13.6799 20.8757C13.6799 20.7892 13.736 20.6791 13.6043 20.6029C12.6748 21.1359 11.7311 21.6592 10.8068 22.2128C10.3398 22.4929 10.1086 22.9386 10.1064 23.4826C10.1019 24.5899 10.1078 25.6971 10.1041 26.8044C10.1026 27.3964 10.3533 27.8621 10.8585 28.16C11.8621 28.7513 12.8791 29.3204 13.8969 29.8888C14.3242 30.1276 14.801 30.169 15.226 29.9465C16.2102 29.4306 17.1681 28.8659 18.1881 28.2923L18.1874 28.293Z" fill="#2F24B1"/>
</svg>
