<svg width="20" height="24" viewBox="0 0 20 24" fill="none" xmlns="http://www.w3.org/2000/svg">
<path d="M19.976 10H13C12.2044 10 11.4413 9.68393 10.8787 9.12132C10.3161 8.55871 10 7.79565 10 7V0.024C9.839 0.013 9.678 0 9.515 0H5C3.67441 0.00158786 2.40356 0.528882 1.46622 1.46622C0.528882 2.40356 0.00158786 3.67441 0 5V19C0.00158786 20.3256 0.528882 21.5964 1.46622 22.5338C2.40356 23.4711 3.67441 23.9984 5 24H15C16.3256 23.9984 17.5964 23.4711 18.5338 22.5338C19.4711 21.5964 19.9984 20.3256 20 19V10.485C20 10.322 19.987 10.161 19.976 10Z" fill="#262626"/>
</svg>
