<svg width="309" height="230" viewBox="0 0 309 230" fill="none" xmlns="http://www.w3.org/2000/svg">
<g id="Wallet-rafiki">
<g id="freepik--background-complete--inject-8">
<rect id="Rectangle" y="202.121" width="308.4" height="0.154338" fill="#EBEBEB"/>
<rect id="Rectangle_2" x="92.5449" y="206.06" width="14.2974" height="0.154338" fill="#EBEBEB"/>
<rect id="Rectangle_3" x="248.014" y="209.369" width="34.9541" height="0.154338" fill="#EBEBEB"/>
<rect id="Rectangle_4" x="26.3496" y="209.369" width="34.9541" height="0.154338" fill="#EBEBEB"/>
<path id="Shape" fill-rule="evenodd" clip-rule="evenodd" d="M27.0841 174.587H146.182C148.127 174.587 149.704 173.009 149.704 171.062V3.52508C149.704 1.57823 148.127 0 146.182 0H27.0841C25.1534 0.00331027 23.5853 1.56183 23.5684 3.49421V171.062C23.5684 173.007 25.1414 174.584 27.0841 174.587ZM23.7233 3.49384C23.7233 1.63464 25.2274 0.126499 27.0849 0.123094H146.183C148.04 0.129866 149.544 1.63504 149.551 3.49384V171.062C149.544 172.921 148.04 174.426 146.183 174.432H27.0849C25.2274 174.429 23.7233 172.921 23.7233 171.062V3.49384Z" fill="#EBEBEB"/>
<path id="Shape_2" fill-rule="evenodd" clip-rule="evenodd" d="M160.497 174.587H279.601C280.533 174.586 281.427 174.213 282.085 173.552C282.743 172.891 283.112 171.995 283.11 171.062V3.49421C283.094 1.56423 281.529 0.00668636 279.601 0H160.497C158.565 0.00327387 156.995 1.56084 156.975 3.49421V171.062C156.981 173.006 158.554 174.58 160.497 174.587ZM157.13 3.49384C157.136 1.63504 158.64 0.129866 160.497 0.123094H279.602C281.459 0.129866 282.963 1.63504 282.969 3.49384V171.062C282.963 172.921 281.459 174.426 279.602 174.432H160.497C158.64 174.426 157.136 172.921 157.13 171.062V3.49384Z" fill="#EBEBEB"/>
<rect id="Rectangle_5" x="180.094" y="153.122" width="14.2419" height="49.3326" fill="#E6E6E6"/>
<rect id="Rectangle_6" x="170.01" y="153.122" width="14.2419" height="49.3326" fill="#E6E6E6"/>
<path id="Path" d="M181.549 202.455H184.25V194.75H178.705L181.549 202.455V202.455Z" fill="#F0F0F0"/>
<rect id="Rectangle_7" x="98.416" y="153.122" width="14.2419" height="49.3326" fill="#E6E6E6"/>
<rect id="Rectangle_8" x="110.305" y="153.122" width="73.9544" height="45.5421" fill="#F0F0F0"/>
<path id="Shape_3" fill-rule="evenodd" clip-rule="evenodd" d="M150.661 188.416H179.65C181.192 188.392 182.432 187.138 182.438 185.595V157.869C182.435 156.314 181.174 155.054 179.619 155.054H150.661C149.106 155.054 147.845 156.314 147.842 157.869V185.595C147.849 187.15 149.107 188.409 150.661 188.416ZM148.464 157.882C148.471 156.673 149.452 155.696 150.66 155.696L179.643 155.684C180.223 155.682 180.78 155.912 181.191 156.322C181.602 156.732 181.833 157.289 181.833 157.869V185.65C181.823 186.862 180.835 187.836 179.625 187.829H150.635C150.053 187.823 149.497 187.585 149.089 187.168C148.682 186.751 148.457 186.19 148.464 185.607V157.882Z" fill="#E0E0E0"/>
<path id="Shape_4" fill-rule="evenodd" clip-rule="evenodd" d="M114.872 188.416H143.861C145.417 188.413 146.677 187.152 146.68 185.595V157.87C146.677 156.314 145.416 155.055 143.861 155.055H114.872C113.317 155.055 112.056 156.314 112.053 157.87V185.595C112.059 187.15 113.318 188.41 114.872 188.416ZM113.324 156.335C113.735 155.925 114.292 155.695 114.872 155.697L143.862 155.684C145.07 155.684 146.051 156.661 146.058 157.87V185.607C146.051 186.817 145.071 187.796 143.862 187.799H114.872C114.291 187.799 113.734 187.568 113.324 187.157C112.913 186.746 112.682 186.189 112.682 185.607V157.882C112.682 157.301 112.913 156.745 113.324 156.335Z" fill="#E0E0E0"/>
<path id="Path_2" d="M141.171 163.815C139.67 163.815 138.452 162.597 138.451 161.094C138.45 159.591 139.666 158.372 141.167 158.37C142.669 158.367 143.888 159.583 143.891 161.086V161.086C143.891 162.591 142.675 163.811 141.171 163.815Z" fill="#FAFAFA"/>
<path id="Path_3" d="M153.373 163.815C151.871 163.825 150.645 162.614 150.635 161.111C150.625 159.607 151.834 158.38 153.336 158.37C154.839 158.359 156.065 159.57 156.075 161.074V161.129C156.058 162.612 154.855 163.808 153.373 163.815Z" fill="#FAFAFA"/>
<path id="Path_4" d="M113.005 202.455H110.297V194.75H115.842L113.005 202.455V202.455Z" fill="#F0F0F0"/>
<rect id="Rectangle_9" x="93.8828" y="153.122" width="14.2419" height="49.3326" fill="#E6E6E6"/>
<path id="Path_5" d="M105.417 202.455H108.125V194.75H102.58L105.417 202.455V202.455Z" fill="#F0F0F0"/>
<rect id="Rectangle_10" x="34.1719" y="153.122" width="73.9544" height="45.5421" fill="#F0F0F0"/>
<path id="Shape_5" fill-rule="evenodd" clip-rule="evenodd" d="M74.5278 188.416H103.517C105.062 188.399 106.305 187.141 106.305 185.595V157.869C106.302 156.314 105.041 155.054 103.487 155.054H74.5278C72.9734 155.054 71.7124 156.314 71.709 157.869V185.595C71.709 187.153 72.971 188.416 74.5278 188.416ZM72.9805 156.334C73.3913 155.924 73.9483 155.695 74.5285 155.696L103.524 155.684C104.73 155.687 105.707 156.663 105.714 157.869V185.65C105.7 186.863 104.711 187.836 103.5 187.829H74.51C73.9276 187.823 73.3716 187.585 72.9645 187.168C72.5573 186.751 72.3322 186.19 72.3388 185.607V157.882C72.3388 157.301 72.5697 156.744 72.9805 156.334Z" fill="#E0E0E0"/>
<path id="Shape_6" fill-rule="evenodd" clip-rule="evenodd" d="M38.7778 188.415H67.7304C69.2858 188.412 70.5458 187.151 70.5492 185.594V157.869C70.5492 157.121 70.252 156.404 69.7232 155.876C69.1944 155.348 68.4774 155.052 67.7304 155.054H38.7778C38.0307 155.052 37.3138 155.348 36.785 155.876C36.2562 156.404 35.959 157.121 35.959 157.869V185.594C35.959 187.152 37.221 188.415 38.7778 188.415ZM37.225 156.332C37.6371 155.921 38.1957 155.693 38.7769 155.696L67.7419 155.671C68.3231 155.668 68.8817 155.897 69.2938 156.307C69.706 156.717 69.9377 157.275 69.9377 157.857V185.637C69.9377 186.22 69.7062 186.778 69.2942 187.189C68.8822 187.601 68.3237 187.831 67.7419 187.829H38.7522C38.1699 187.823 37.6139 187.585 37.2068 187.168C36.7996 186.751 36.5745 186.19 36.5811 185.607V157.881C36.5811 157.3 36.8128 156.742 37.225 156.332Z" fill="#E0E0E0"/>
<path id="Path_6" d="M65.0466 163.815C63.5443 163.818 62.3237 162.602 62.3203 161.098C62.3169 159.595 63.532 158.373 65.0342 158.37C66.5365 158.366 67.7571 159.582 67.7605 161.086V161.086C67.7638 161.809 67.4793 162.503 66.97 163.015C66.4607 163.527 65.7685 163.815 65.0466 163.815Z" fill="#FAFAFA"/>
<path id="Path_7" d="M77.2483 163.815C75.7461 163.825 74.52 162.614 74.5098 161.111C74.4996 159.607 75.7091 158.38 77.2113 158.37C78.7135 158.359 79.9396 159.57 79.9499 161.074V161.129C79.9331 162.612 78.7304 163.808 77.2483 163.815Z" fill="#FAFAFA"/>
<path id="Path_8" d="M36.8735 202.455H34.1719V194.75H39.7107L36.8735 202.455V202.455Z" fill="#F0F0F0"/>
<rect id="Rectangle_11" x="138.359" y="16.3721" width="26.4978" height="26.5214" fill="#EBEBEB"/>
<rect id="Rectangle_12" x="164.863" y="16.3784" width="1.17192" height="26.5214" fill="#E0E0E0"/>
<rect id="Rectangle_13" x="141.957" y="19.9712" width="19.3182" height="19.3355" fill="white"/>
<path id="Path_9" d="M154.848 32.868V32.868C153.99 33.7279 152.826 34.2111 151.612 34.2111C150.399 34.2111 149.235 33.7279 148.377 32.868V32.868C146.596 31.08 146.596 28.1861 148.377 26.3981V26.3981C150.166 24.614 153.059 24.614 154.848 26.3981V26.3981C156.629 28.1861 156.629 31.08 154.848 32.868V32.868Z" fill="#F5F5F5"/>
<rect id="Rectangle_14" x="107.834" y="50.4751" width="31.0683" height="31.096" fill="#EBEBEB"/>
<rect id="Rectangle_15" x="138.902" y="50.4814" width="1.37547" height="31.096" fill="#E0E0E0"/>
<rect id="Rectangle_16" x="112.047" y="54.6914" width="22.6489" height="22.6692" fill="white"/>
<rect id="Rectangle_17" x="118.537" y="61.186" width="9.6591" height="9.66773" fill="#F5F5F5"/>
<rect id="Rectangle_18" x="261.049" y="40.4731" width="16.8202" height="3.93253" fill="#E6E6E6"/>
<rect id="Rectangle_19" x="191.424" y="40.4731" width="69.6245" height="3.93253" fill="#F5F5F5"/>
<rect id="Rectangle_20" x="211.387" y="19.5952" width="19.6019" height="20.885" fill="#E0E0E0"/>
<rect id="Rectangle_21" x="206.363" y="19.5952" width="5.02076" height="20.885" fill="#F0F0F0"/>
<rect id="Rectangle_22" x="221.402" y="16.3721" width="14.723" height="24.1014" fill="#E6E6E6"/>
<rect id="Rectangle_23" x="217.15" y="16.3721" width="4.25593" height="24.1014" fill="#F0F0F0"/>
<rect id="Rectangle_24" x="225.742" y="19.5952" width="12.4162" height="20.885" fill="#F0F0F0"/>
<rect id="Rectangle_25" x="222.904" y="19.5952" width="2.83728" height="20.885" fill="#FAFAFA"/>
<rect id="Rectangle_26" x="235.902" y="23.126" width="16.2835" height="17.3476" fill="#E6E6E6"/>
<rect id="Rectangle_27" x="231.734" y="23.126" width="4.16957" height="17.3476" fill="#FAFAFA"/>
<rect id="Rectangle_28" x="244.225" y="20.4526" width="12.2312" height="20.0269" fill="#E6E6E6"/>
<rect id="Rectangle_29" x="240.688" y="20.4526" width="3.53427" height="20.0269" fill="#F0F0F0"/>
<rect id="Rectangle_30" x="247.826" y="23.126" width="11.8796" height="17.3476" fill="#F0F0F0"/>
<rect id="Rectangle_31" x="245.469" y="23.126" width="2.35618" height="17.3476" fill="#FAFAFA"/>
<path id="Path_10" d="M251.092 157.067C256.36 150.177 268.899 147.615 273.236 143.269C278.91 137.571 278.885 129.02 274.05 125.934C269.855 123.254 255.94 141.367 254.38 143.405C248.983 150.374 247.422 155.542 246.411 160.548C246.528 156.295 246.639 152.381 246.732 149.368C247.022 139.534 247.385 136.367 247.558 135.398C248.175 134.916 248.829 134.367 249.223 134.07C252.591 131.558 260.055 128.563 263.786 124.915C269.239 119.581 268.357 113.185 264.532 110.821C260.542 108.351 253.473 114.21 249.729 120.032C245.985 125.853 247.583 131.434 246.534 136.231C246.312 137.182 246.084 140.781 245.874 145.775C244.986 140.854 242.266 136.452 238.263 133.459C233.1 129.335 228.641 124.31 224.385 124.958C220.129 125.606 222.442 132.255 225.785 136.922C228.783 141.077 243.58 145.226 245.757 148.566C245.498 155.357 245.27 163.907 245.109 171.895C243.944 167.771 244.746 167.426 239.965 161.092C237.128 157.338 225.47 152.696 224.089 155.289C222.707 157.881 224.811 162.746 229.208 166.16C232.755 168.914 240.594 168.907 242.451 170.617C242.877 171.013 244.301 172.544 245.079 173.426C244.887 183.168 244.807 191.768 244.9 194.707L245.665 194.737C245.628 193.978 245.714 189.021 245.868 182.458C247.78 178.97 260.671 176.902 264.625 173.297C268.782 169.5 271.768 165.067 269.985 162.098C268.499 159.629 256.798 162.987 252.005 167.086C248.835 169.815 246.898 172.735 246.01 176.649C246.115 172.179 246.244 167.389 246.362 162.851C247.336 161.746 249.513 159.135 251.092 157.067Z" fill="#E6E6E6"/>
<path id="Path_11" d="M252.217 202.325H238.857C238.123 202.325 237.494 201.374 237.352 200.053L236.402 191.41H254.666L253.722 200.053C253.568 201.374 252.945 202.325 252.217 202.325Z" fill="#F0F0F0"/>
<path id="Path_12" d="M255.048 194.749H236.019C235.563 194.749 235.18 194.132 235.131 193.28L234.742 186.884C234.681 185.903 235.094 185.032 235.631 185.032H255.442C255.973 185.032 256.386 185.89 256.324 186.884L255.936 193.28C255.893 194.12 255.504 194.749 255.048 194.749Z" fill="#F0F0F0"/>
<g id="freepik--Shadow--inject-62--inject-8">
<ellipse id="freepik--path--inject-62--inject-8" cx="154.201" cy="223.011" rx="119.592" ry="6.98843" fill="#F5F5F5"/>
</g>
</g>
<g id="freepik--Coins--inject-8">
<path id="Path_13" d="M132.296 62.1548C130.933 65.47 122.909 65.2416 114.502 61.7721C106.095 58.3025 100.377 52.8019 101.74 49.4868C102.061 48.7212 102.974 45.8505 103.886 45.4554C107.02 44.1281 112.984 47.1099 119.442 49.7769C125.456 52.2463 132.333 53.8576 133.4 57.1234C134.042 59.1113 132.685 61.2103 132.296 62.1548Z" fill="#4EC89E"/>
<path id="Path_14" opacity="0.2" d="M133.401 57.1234C133.913 59.7225 132.784 60.9695 132.297 62.1548C131.809 63.3402 130.385 64.118 128.392 64.3896C128.143 64.432 127.892 64.4609 127.64 64.4761C126.112 64.566 124.579 64.4852 123.069 64.2353C122.853 64.2353 122.638 64.1674 122.415 64.1304C120.643 63.8119 118.897 63.3621 117.191 62.7845L116.574 62.5746C115.89 62.3339 115.187 62.0684 114.483 61.7783C113.78 61.4881 113.114 61.1609 112.454 60.8707L111.887 60.5991C110.332 59.8295 108.833 58.9507 107.403 57.9692L106.897 57.6111C105.648 56.7275 104.503 55.7043 103.486 54.5614C103.332 54.3885 103.19 54.2219 103.054 54.049C101.728 52.3698 101.204 50.7647 101.728 49.4868C102.073 48.6657 102.814 45.8567 103.874 45.4493C105.179 45.0814 106.56 45.0814 107.865 45.4493L108.482 45.5975C111.566 46.3877 115.452 48.1471 119.418 49.7831C124.093 51.7154 129.626 53.7218 132.34 56.0369C132.501 56.1729 132.656 56.3171 132.802 56.469C133.019 56.6708 133.219 56.8897 133.401 57.1234V57.1234Z" fill="#4EC89E"/>
<g id="Group" opacity="0.2">
<path id="Path_15" d="M108.792 45.0668L108.509 45.5854L103.5 54.5555C103.346 54.3827 103.204 54.216 103.068 54.0431L107.879 45.4372L108.256 44.7705L108.792 45.0668Z" fill="#4EC89E"/>
</g>
<g id="Group_2" opacity="0.2">
<path id="Path_16" d="M112.577 48.7273L107.414 57.9876L106.908 57.6296L112.04 48.4434L112.577 48.7273Z" fill="#4EC89E"/>
</g>
<g id="Group_3" opacity="0.2">
<path id="Path_17" d="M122.068 54.0362L117.189 62.7841L116.572 62.5742L121.507 53.709L122.068 54.0362Z" fill="#4EC89E"/>
</g>
<g id="Group_4" opacity="0.2">
<path id="Path_18" d="M117.653 51.5669L112.466 60.8704L111.898 60.5988L117.117 51.2397L117.653 51.5669Z" fill="#4EC89E"/>
</g>
<g id="Group_5" opacity="0.2">
<path id="Path_19" d="M127.823 55.7276L123.068 64.2347C122.852 64.2347 122.636 64.1668 122.414 64.1298L127.281 55.4189L127.823 55.7276Z" fill="#4EC89E"/>
</g>
<path id="Path_20" d="M133.363 59.2648C132 62.5799 124.074 62.4503 115.661 58.9746C107.248 55.4989 101.537 50.0045 102.906 46.6893C104.275 43.3741 112.195 43.5099 120.608 46.9794C129.021 50.449 134.727 55.931 133.363 59.2648Z" fill="#4EC89E"/>
<path id="Path_21" opacity="0.2" d="M130.503 58.0616C129.541 60.4013 123.36 60.0741 116.705 57.3269C110.05 54.5797 105.436 50.4496 106.398 48.1099C107.361 45.7701 113.541 46.0973 120.202 48.8445C126.864 51.5917 131.471 55.7218 130.503 58.0616Z" fill="white"/>
<path id="Path_22" d="M174.806 32.1882C177.002 35.0218 172.82 41.8806 165.622 47.4553C158.424 53.03 150.819 55.2525 148.629 52.3941C148.123 51.7397 146.075 49.5481 146.199 48.5233C146.612 45.1464 152.157 41.4546 157.684 37.1702C162.828 33.1821 167.633 28.0087 170.994 28.7063C173.036 29.157 174.183 31.3856 174.806 32.1882Z" fill="#4EC89E"/>
<path id="Path_23" opacity="0.2" d="M170.997 28.731C173.507 29.5829 174.025 31.2004 174.809 32.1881C175.592 33.1759 175.561 34.8242 174.809 36.6948C174.722 36.9232 174.617 37.1516 174.506 37.3862C173.831 38.7587 173.003 40.0509 172.039 41.2385C171.91 41.4114 171.768 41.5781 171.626 41.7509C170.466 43.1356 169.204 44.4315 167.851 45.6279L167.376 46.0415C166.827 46.5169 166.247 46.9922 165.649 47.4552C165.051 47.9183 164.453 48.3566 163.848 48.7702C163.682 48.8937 163.503 49.011 163.336 49.1283C161.895 50.0959 160.386 50.9583 158.821 51.7088C158.63 51.8076 158.445 51.8878 158.266 51.9743C156.876 52.6181 155.417 53.1027 153.918 53.4189C153.696 53.4683 153.48 53.5053 153.264 53.5362C151.148 53.851 149.495 53.5362 148.65 52.4188C148.107 51.715 146.041 49.6715 146.22 48.5541C146.543 47.2332 147.228 46.0291 148.2 45.0784C148.336 44.9241 148.484 44.7698 148.638 44.6093C150.864 42.3004 154.312 39.8248 157.705 37.201C161.708 34.1143 166.198 30.2929 169.547 29.0952C169.75 29.0209 169.955 28.957 170.164 28.9038C170.437 28.8259 170.715 28.7682 170.997 28.731V28.731Z" fill="#4EC89E"/>
<g id="Group_6" opacity="0.2">
<path id="Path_24" d="M148.307 44.103L148.616 44.6093L153.896 53.4189C153.674 53.4683 153.458 53.5053 153.242 53.5362L148.178 45.0661L147.783 44.4487L148.307 44.103Z" fill="#4EC89E"/>
</g>
<g id="Group_7" opacity="0.2">
<path id="Path_25" d="M153.361 42.6338L158.801 51.7089C158.61 51.8076 158.424 51.8879 158.246 51.9743L152.83 42.9486L153.361 42.6338Z" fill="#4EC89E"/>
</g>
<g id="Group_8" opacity="0.2">
<path id="Path_26" d="M162.683 37.0405L167.833 45.6341L167.358 46.0477L162.152 37.3554L162.683 37.0405Z" fill="#4EC89E"/>
</g>
<g id="Group_9" opacity="0.2">
<path id="Path_27" d="M158.351 39.6396L163.828 48.7703C163.662 48.8938 163.483 49.0111 163.316 49.1284L157.814 39.9545L158.351 39.6396Z" fill="#4EC89E"/>
</g>
<g id="Group_10" opacity="0.2">
<path id="Path_28" d="M167.009 32.874L172.017 41.2391C171.888 41.412 171.746 41.5787 171.604 41.7515L166.479 33.195L167.009 32.874Z" fill="#4EC89E"/>
</g>
<ellipse id="Oval" cx="159.784" cy="39.9033" rx="16.4803" ry="6.4862" transform="rotate(-37.76 159.784 39.9033)" fill="#4EC89E"/>
<ellipse id="Oval_2" opacity="0.2" cx="160.057" cy="39.6877" rx="13.0435" ry="4.58539" transform="rotate(-37.76 160.057 39.6877)" fill="white"/>
<path id="Path_29" d="M145.034 18.9157C144.33 22.9779 135.226 24.6941 124.914 22.842C114.601 20.99 106.823 16.2178 107.544 12.1557C107.711 11.2111 108.001 7.77247 108.969 7.08721C112.17 4.8277 119.609 6.7168 127.529 8.12436C134.93 9.43932 143.029 9.54427 145.034 12.9582C146.249 15.0572 145.237 17.7551 145.034 18.9157Z" fill="#4EC89E"/>
<path id="Path_30" opacity="0.2" d="M145.032 12.9634C146.266 15.7662 145.285 17.4393 145.032 18.8962C144.779 20.3532 143.367 21.5693 141.195 22.3719C140.93 22.4768 140.653 22.5633 140.369 22.6497C138.671 23.1274 136.925 23.4152 135.163 23.5078C134.91 23.5078 134.664 23.5078 134.404 23.551C132.329 23.6274 130.251 23.5511 128.187 23.3226L127.465 23.23C126.633 23.1251 125.775 23.0016 124.918 22.8473C124.061 22.6929 123.228 22.5201 122.408 22.3287C122.173 22.2793 121.939 22.2176 121.705 22.162C119.767 21.683 117.866 21.0641 116.018 20.3099C115.789 20.2235 115.574 20.1247 115.358 20.0383C113.735 19.3471 112.196 18.4753 110.769 17.4393C110.553 17.2849 110.355 17.1306 110.152 16.9701C108.24 15.4082 107.259 13.729 107.537 12.1671C107.722 11.1546 107.87 7.8456 108.955 7.0986C110.041 6.35161 111.595 6.11701 113.446 6.11084H114.186C117.887 6.23431 122.654 7.26529 127.521 8.12958C133.257 9.15439 139.974 10.0495 143.589 11.988C143.801 12.1005 144.007 12.2241 144.205 12.3584C144.496 12.5383 144.773 12.7405 145.032 12.9634V12.9634Z" fill="#4EC89E"/>
<g id="Group_11" opacity="0.2">
<path id="Path_31" d="M114.392 5.48156L114.195 6.12978L110.765 17.452C110.549 17.2977 110.352 17.1433 110.148 16.9828L113.442 6.1236L113.701 5.27783L114.392 5.48156Z" fill="#4EC89E"/>
</g>
<g id="Group_12" opacity="0.2">
<path id="Path_32" d="M119.546 8.64283L116.012 20.3046C115.783 20.2182 115.567 20.1194 115.352 20.033L118.867 8.42676L119.546 8.64283Z" fill="#4EC89E"/>
</g>
<g id="Group_13" opacity="0.2">
<path id="Path_33" d="M131.532 12.2968L128.183 23.3412L127.461 23.2486L130.847 12.0869L131.532 12.2968Z" fill="#4EC89E"/>
</g>
<g id="Group_14" opacity="0.2">
<path id="Path_34" d="M125.963 10.6051L122.404 22.3347C122.17 22.2854 121.936 22.2236 121.701 22.1681L125.279 10.3828L125.963 10.6051Z" fill="#4EC89E"/>
</g>
<g id="Group_15" opacity="0.2">
<path id="Path_35" d="M138.422 12.7789L135.159 23.527C134.906 23.527 134.659 23.527 134.4 23.5702L137.737 12.5752L138.422 12.7789Z" fill="#4EC89E"/>
</g>
<ellipse id="Oval_3" cx="126.834" cy="12.0416" rx="7.46976" ry="18.9733" transform="rotate(-79.91 126.834 12.0416)" fill="#4EC89E"/>
<ellipse id="Oval_4" opacity="0.2" cx="127.221" cy="12.1153" rx="5.27822" ry="15.0133" transform="rotate(-79.91 127.221 12.1153)" fill="white"/>
</g>
<g id="freepik--Wallet--inject-8">
<path id="Path_36" d="M198.882 122.625L135.407 126.329C133.165 126.461 130.965 126.996 128.912 127.909L59.966 158.777C57.4731 159.874 56.085 162.565 56.6353 165.234L68.0276 219.16C68.4179 220.92 69.599 222.4 71.2273 223.17C72.8556 223.941 74.7482 223.914 76.3544 223.099L144.406 189.095L207.246 186.99C208.81 186.948 210.281 186.235 211.283 185.032C212.285 183.829 212.722 182.253 212.482 180.705L204.075 129.07C203.637 126.403 201.614 122.545 198.882 122.625Z" fill="#4EC89E"/>
<path id="Path_37" opacity="0.1" d="M198.882 122.625L135.407 126.329C133.165 126.461 130.965 126.996 128.912 127.909L59.966 158.777C57.4731 159.874 56.085 162.565 56.6353 165.234L68.0276 219.16C68.4179 220.92 69.599 222.4 71.2273 223.17C72.8556 223.941 74.7482 223.914 76.3544 223.099L144.406 189.095L207.246 186.99C208.81 186.948 210.281 186.235 211.283 185.032C212.285 183.829 212.722 182.253 212.482 180.705L204.075 129.07C203.637 126.403 201.614 122.545 198.882 122.625Z" fill="#4EC89E"/>
<path id="Rectangle_32" d="M38.1636 118.246L71.4743 87.5122L131.252 152.418L97.9409 183.152L38.1636 118.246Z" fill="#4EC89E"/>
<path id="Path_38" opacity="0.5" d="M131.242 152.424L97.9282 183.156L38.1602 118.254L60.0196 98.0847L71.4736 87.5156L73.3795 89.5899L131.242 152.424V152.424Z" fill="#FAFAFA"/>
<path id="Rectangle_33" fill-rule="evenodd" clip-rule="evenodd" d="M42.2969 118.599L71.6892 91.4804L127.604 152.192L98.2114 179.31L42.2969 118.599Z" stroke="#4EC89E"/>
<ellipse id="Oval_5" cx="84.5068" cy="134.921" rx="8.30555" ry="10.4166" transform="rotate(-42.67 84.5068 134.921)" fill="#4EC89E"/>
<path id="Path_39" opacity="0.1" d="M97.5765 156.813L85.7401 160.906L60.0195 98.0847L71.4735 87.5156L73.3794 89.5899L97.5765 156.813V156.813Z" fill="#4EC89E"/>
<path id="Rectangle_34" d="M57.2939 77.5405L99.8847 62.0838L129.948 145.072L87.3575 160.529L57.2939 77.5405Z" fill="#4EC89E"/>
<path id="Rectangle_35" opacity="0.5" d="M57.2939 77.5405L99.8847 62.0838L129.948 145.072L87.3575 160.529L57.2939 77.5405Z" fill="#FAFAFA"/>
<path id="Rectangle_36" fill-rule="evenodd" clip-rule="evenodd" d="M60.9636 79.4646L98.5444 65.8261L126.665 143.452L89.0846 157.09L60.9636 79.4646Z" stroke="#4EC89E"/>
<ellipse id="Oval_6" cx="93.5958" cy="110.844" rx="8.303" ry="10.4198" transform="rotate(-19.93 93.5958 110.844)" fill="#4EC89E"/>
<path id="Path_40" d="M199.295 124.816L136.689 128.348C134.47 128.469 132.293 129.003 130.268 129.922L62.3339 160.617C59.8688 161.732 58.5094 164.412 59.0648 167.062L70.4571 221.012C70.829 222.761 71.9898 224.239 73.6002 225.014C75.2105 225.788 77.0886 225.772 78.6853 224.97L145.732 191.157L207.708 189.194C209.26 189.145 210.716 188.429 211.703 187.229C212.69 186.029 213.113 184.462 212.864 182.928L204.432 131.299C203.995 128.607 201.996 124.742 199.295 124.816Z" fill="#4EC89E"/>
<path id="Path_41" opacity="0.2" d="M139.234 137.793L192.952 134.484" stroke="#4EC89E" stroke-width="2" stroke-linecap="round" stroke-linejoin="round"/>
<path id="Path_42" opacity="0.2" d="M132.805 139.182L142.618 184.298" stroke="#4EC89E" stroke-width="2" stroke-linecap="round" stroke-linejoin="round"/>
<path id="Path_43" opacity="0.2" d="M67.3711 179.915L74.2916 214.616C74.2916 214.616 79.5961 200.849 67.3711 179.915Z" fill="#FAFAFA"/>
<path id="Path_44" opacity="0.2" d="M68.2812 180.322C68.5218 180.939 129.752 154.64 129.752 154.64C130.09 166.799 123.564 178.114 112.876 183.903C94.4459 194.243 68.2812 180.322 68.2812 180.322Z" fill="#FAFAFA"/>
<ellipse id="Oval_7" cx="108.953" cy="178.693" rx="2.65224" ry="2.65461" fill="#4EC89E"/>
<path id="Path_45" opacity="0.2" d="M129.781 154.64C129.781 154.64 137.374 166.08 135.536 185.563Z" fill="#4EC89E"/>
<g id="Group_16" opacity="0.2">
<path id="Path_46" d="M64.4434 166.284L65.8558 165.66" stroke="#FAFAFA" stroke-linecap="round" stroke-linejoin="round"/>
<path id="Path_47" d="M68.7852 164.364L125.963 139.065" stroke="#FAFAFA" stroke-linecap="round" stroke-linejoin="round" stroke-dasharray="5.2 5.2"/>
<path id="Path_48" d="M127.43 138.416L128.836 137.793" stroke="#FAFAFA" stroke-linecap="round" stroke-linejoin="round"/>
</g>
<path id="Path_49" opacity="0.2" d="M141.037 147.936L194.754 144.621" stroke="#4EC89E" stroke-width="2" stroke-linecap="round" stroke-linejoin="round"/>
<path id="Path_50" opacity="0.2" d="M143.455 160.586L197.172 157.271" stroke="#4EC89E" stroke-width="2" stroke-linecap="round" stroke-linejoin="round"/>
</g>
<g id="freepik--Character--inject-8">
<path id="Path_51" d="M185.397 70.7236C185.397 70.7236 184.046 85.1265 178.698 86.3673C175.387 87.0833 171.934 86.7377 168.83 85.3796L164.481 82.0335L162.359 89.4417C162.359 89.4417 164.679 92.5964 169.52 90.411C169.52 90.411 178.156 94.2139 182.93 90.411C187.704 86.6081 189.233 76.1749 189.233 76.1749L185.397 70.7236Z" fill="#FFC3BD"/>
<path id="Path_52" d="M189.694 63.7474C189.694 63.7474 185.963 57.3825 187.659 45.8442C189.355 34.3059 199.02 32.8798 202.752 33.7132C206.484 34.5466 209.537 38.1334 212.078 44.9614C214.619 51.7893 215.557 53.5673 219.794 52.3696C224.032 51.1719 235.307 47.4308 238.446 50.7583C240.28 52.6042 241.074 55.2438 240.562 57.7961C240.562 57.7961 256.247 53.9809 254.89 67.9824C253.533 81.984 230.897 95.0533 209.364 81.2185C187.832 67.3836 189.694 63.7474 189.694 63.7474Z" fill="#263238"/>
<path id="Path_53" d="M189.524 97.6336C189.524 97.6336 185.262 134.323 185.404 151.528C185.546 168.734 191.652 209.282 191.652 209.282H199.183C199.183 209.282 198.19 176.858 198.332 165.765C198.474 154.671 200.46 136.317 200.46 136.317C200.46 136.317 202.872 152.813 205.715 158.64C208.559 164.468 224.33 185.094 235.272 191.496L240.385 186.798C240.385 186.798 229.018 172.722 224.756 165.752C220.494 158.782 216.663 156.807 215.097 143.842C213.53 130.878 216.238 110.141 211.692 97.6274L189.524 97.6336Z" fill="#263238"/>
<path id="Path_54" opacity="0.2" d="M200.461 136.317L197.186 113.062C197.186 113.062 194.601 127.038 199.69 144.108L200.461 136.317Z" fill="#4EC89E"/>
<path id="Path_55" d="M193.199 211.338L193.452 218.542L198.504 218.962L198.757 218.289V210.832L193.199 211.338V211.338Z" fill="#FFC3BD"/>
<path id="Path_56" d="M190.799 208.596L191.261 211.294L199.934 211.504L200.483 208.263L190.799 208.596V208.596Z" fill="#4EC89E"/>
<path id="Path_57" d="M232.896 191.996L240.933 184.501L242.704 187.323L235.802 193.644L232.896 191.996V191.996Z" fill="#4EC89E"/>
<path id="Path_58" d="M236.771 191.996L242.076 196.466L245.481 192.459L241.126 187.953L236.771 191.996V191.996Z" fill="#FFC3BD"/>
<path id="Path_59" d="M246.51 192.15L249.718 194.126C250.014 194.308 250.214 194.612 250.265 194.956C250.316 195.3 250.213 195.649 249.983 195.91C247.658 198.54 241.718 205.219 241.126 205.689C240.392 206.306 239.504 205.269 239.275 204.343C239.275 204.343 240.959 202.108 241.126 200.676C241.196 199.57 241.196 198.46 241.126 197.354C241.113 197.077 241.205 196.806 241.385 196.595L244.968 192.385C245.351 191.931 246.01 191.831 246.51 192.15V192.15Z" fill="#263238"/>
<path id="Path_60" d="M199.738 219.159L200.404 222.863C200.466 223.206 200.373 223.559 200.151 223.827C199.928 224.095 199.599 224.251 199.251 224.252C195.741 224.252 186.81 224.289 186.064 224.166C185.132 224.012 185.299 222.678 185.848 221.9C185.848 221.9 188.629 221.666 189.795 220.82C190.662 220.139 191.486 219.405 192.262 218.622C192.461 218.428 192.725 218.315 193.003 218.307L198.523 218.178C199.116 218.156 199.634 218.575 199.738 219.159Z" fill="#263238"/>
<path id="Path_61" d="M212.499 77.2859L220.196 71.8779C220.196 71.8779 218.149 63.6795 215.114 63.272C212.079 62.8646 197.017 59.9939 187.438 63.272C187.438 63.272 183.996 64.2536 182.936 73.9275L187.031 75.2363C187.031 75.2363 188.499 93.3494 189.406 96.1398H211.265C211.265 96.1398 211.512 80.564 212.499 77.2859Z" fill="#4EC89E"/>
<path id="Path_62" d="M214.158 76.1187C214.158 76.1187 217.075 84.453 217.593 88.935C217.593 88.935 210.66 86.1692 208.872 84.9036L207.515 80.0266L202.926 77.7856L201.562 81.4897L205.393 86.2433C205.393 86.2433 215.835 96.0222 221.127 93.7873C226.42 91.5525 219.036 72.7109 219.036 72.7109L214.158 76.1187Z" fill="#FFC3BD"/>
<path id="Path_63" d="M194.574 39.6275C194.574 39.6275 191.903 44.9614 192.107 49.3014C192.31 53.6414 194.5 55.4132 198.663 56.0243C198.663 56.0243 200.44 61.5805 195.777 62.1423C195.419 62.1855 195.296 63.5992 195.32 63.8277C195.444 64.729 196.338 65.2229 197.171 65.4328C198.048 65.6272 198.943 65.7265 199.841 65.7291C201.753 65.795 203.588 64.9778 204.819 63.5128C204.918 63.3955 205.855 62.1979 205.855 62.1979C205.855 62.1979 203.629 61.0928 204.412 53.8574C205.475 53.165 206.291 52.1536 206.743 50.9682C207.603 50.5117 208.243 49.7287 208.52 48.7951C208.853 47.3505 207.576 45.3503 205.245 47.3505C205.245 47.3505 200.853 45.1281 199.188 37.3433C197.953 38.6059 196.326 39.4113 194.574 39.6275V39.6275Z" fill="#FFC3BD"/>
<path id="Path_64" d="M188.643 95.1769V97.7512L212.328 97.9488L211.692 94.8867L188.643 95.1769V95.1769Z" fill="#4EC89E"/>
<path id="Path_65" opacity="0.4" d="M188.643 95.1769V97.7512L212.328 97.9488L211.692 94.8867L188.643 95.1769V95.1769Z" fill="white"/>
</g>
<g id="freepik--Card--inject-8">
<path id="Path_66" d="M188.936 82.6816L175.909 128.032C175.023 131.14 172.336 133.394 169.124 133.724C168.125 133.82 167.117 133.728 166.151 133.453L141.251 126.285C137.06 125.075 134.638 120.698 135.835 116.5L148.868 71.1371C150.08 66.9481 154.449 64.5297 158.639 65.7291L183.557 72.8904C187.739 74.1139 190.144 78.4922 188.936 82.6816V82.6816Z" fill="#4EC89E"/>
<path id="Path_67" opacity="0.2" d="M188.936 82.6816L175.909 128.032C175.023 131.14 172.336 133.394 169.124 133.724C168.125 133.82 167.117 133.728 166.151 133.453L141.251 126.285C137.06 125.075 134.638 120.698 135.835 116.5L148.868 71.1371C150.08 66.9481 154.449 64.5297 158.639 65.7291L183.557 72.8904C187.739 74.1139 190.144 78.4922 188.936 82.6816V82.6816Z" fill="#4EC89E"/>
<path id="Path_68" d="M186.771 83.2186L173.744 128.575C173.077 130.915 171.367 132.815 169.112 133.724C168.113 133.82 167.104 133.728 166.139 133.453L141.251 126.285C137.06 125.075 134.638 120.698 135.835 116.5L148.868 71.137C149.537 68.8005 151.247 66.9045 153.501 66.0006C154.5 65.8988 155.509 65.991 156.474 66.2722L181.343 73.4644C185.526 74.6669 187.952 79.0262 186.771 83.2186Z" fill="#4EC89E"/>
<path id="Path_69" opacity="0.5" d="M186.771 83.2186L173.744 128.575C173.077 130.915 171.367 132.815 169.112 133.724C168.113 133.82 167.104 133.728 166.139 133.453L141.251 126.285C137.06 125.075 134.638 120.698 135.835 116.5L148.868 71.137C149.537 68.8005 151.247 66.9045 153.501 66.0006C154.5 65.8988 155.509 65.991 156.474 66.2722L181.343 73.4644C185.526 74.6669 187.952 79.0262 186.771 83.2186Z" fill="#FAFAFA"/>
<path id="Rectangle_37" d="M149.084 86.3232L151.75 87.0752L142.155 121.147L139.49 120.395L149.084 86.3232Z" fill="#FAFAFA"/>
<path id="Path_70" d="M145.981 122.229L143.316 121.458L152.908 87.3984L155.566 88.164L145.981 122.229V122.229Z" fill="#FAFAFA"/>
<path id="Path_71" d="M149.856 123.34L147.191 122.574L156.783 88.5151L159.447 89.2807L149.856 123.34V123.34Z" fill="#FAFAFA"/>
<path id="Rectangle_38" opacity="0.5" d="M172.293 92.9932L174.959 93.7451L165.364 127.817L162.699 127.065L172.293 92.9932Z" fill="#4EC89E"/>
<path id="Path_72" d="M174.622 84.1134L173.326 88.7373L171.747 88.2928C170.155 87.8406 169.228 86.1841 169.675 84.5887L170.538 81.502L173.727 82.4156C174.442 82.6377 174.842 83.3974 174.622 84.1134Z" fill="#FAFAFA"/>
<path id="Path_73" d="M173.861 81.8489L170.672 80.9352L171.628 77.5522C171.843 76.7856 172.355 76.1363 173.049 75.7473C173.743 75.3582 174.563 75.2613 175.329 75.4779L176.969 75.9409L175.538 80.9229C175.443 81.2709 175.21 81.5654 174.895 81.7397C174.579 81.914 174.206 81.9534 173.861 81.8489V81.8489Z" fill="#FAFAFA"/>
<path id="Path_74" d="M176.881 83.3421L180.088 84.262L179.237 87.2808C179.025 88.0492 178.514 88.7006 177.819 89.0902C177.124 89.4798 176.302 89.5751 175.536 89.3551L173.871 88.8859L175.197 84.2681C175.296 83.9206 175.53 83.6272 175.846 83.4532C176.162 83.2792 176.535 83.2392 176.881 83.3421V83.3421Z" fill="#FAFAFA"/>
<path id="Path_75" d="M181.225 80.2552L180.256 83.6877L177.049 82.7678C176.334 82.5588 175.921 81.8121 176.124 81.0948L177.555 76.1128L179.152 76.5635C179.916 76.7779 180.564 77.2874 180.952 77.9797C181.341 78.6721 181.439 79.4906 181.225 80.2552V80.2552Z" fill="#FAFAFA"/>
</g>
</g>
</svg>
