<svg width="309" height="252" viewBox="0 0 309 252" fill="none" xmlns="http://www.w3.org/2000/svg">
<g id="Wallet-rafiki">
<g id="freepik--background-complete--inject-8">
<rect id="Rectangle" y="202.121" width="308.4" height="0.154338" fill="#EBEBEB"/>
<rect id="Rectangle_2" x="92.5449" y="206.06" width="14.2974" height="0.154338" fill="#EBEBEB"/>
<rect id="Rectangle_3" x="248.014" y="209.369" width="34.9541" height="0.154338" fill="#EBEBEB"/>
<rect id="Rectangle_4" x="26.3496" y="209.369" width="34.9541" height="0.154338" fill="#EBEBEB"/>
<path id="Shape" fill-rule="evenodd" clip-rule="evenodd" d="M27.0841 174.587H146.182C148.127 174.587 149.704 173.009 149.704 171.062V3.52508C149.704 1.57823 148.127 0 146.182 0H27.0841C25.1534 0.00331027 23.5853 1.56183 23.5684 3.49421V171.062C23.5684 173.007 25.1414 174.584 27.0841 174.587ZM23.7233 3.49384C23.7233 1.63464 25.2274 0.126499 27.0849 0.123094H146.183C148.04 0.129866 149.544 1.63504 149.551 3.49384V171.062C149.544 172.921 148.04 174.426 146.183 174.432H27.0849C25.2274 174.429 23.7233 172.921 23.7233 171.062V3.49384Z" fill="#EBEBEB"/>
<path id="Shape_2" fill-rule="evenodd" clip-rule="evenodd" d="M160.497 174.587H279.601C280.533 174.586 281.427 174.213 282.085 173.552C282.743 172.891 283.112 171.995 283.11 171.062V3.49421C283.094 1.56423 281.529 0.00668636 279.601 0H160.497C158.565 0.00327387 156.995 1.56084 156.975 3.49421V171.062C156.981 173.006 158.554 174.58 160.497 174.587ZM157.13 3.49384C157.136 1.63504 158.64 0.129866 160.497 0.123094H279.602C281.459 0.129866 282.963 1.63504 282.969 3.49384V171.062C282.963 172.921 281.459 174.426 279.602 174.432H160.497C158.64 174.426 157.136 172.921 157.13 171.062V3.49384Z" fill="#EBEBEB"/>
<rect id="Rectangle_5" x="180.094" y="153.122" width="14.2419" height="49.3326" fill="#E6E6E6"/>
<rect id="Rectangle_6" x="170.01" y="153.122" width="14.2419" height="49.3326" fill="#E6E6E6"/>
<path id="Path" d="M181.549 202.455H184.25V194.75H178.705L181.549 202.455Z" fill="#F0F0F0"/>
<rect id="Rectangle_7" x="98.416" y="153.122" width="14.2419" height="49.3326" fill="#E6E6E6"/>
<rect id="Rectangle_8" x="110.305" y="153.122" width="73.9544" height="45.5421" fill="#F0F0F0"/>
<path id="Shape_3" fill-rule="evenodd" clip-rule="evenodd" d="M150.661 188.416H179.65C181.192 188.392 182.432 187.138 182.438 185.595V157.869C182.435 156.314 181.174 155.054 179.619 155.054H150.661C149.106 155.054 147.845 156.314 147.842 157.869V185.595C147.849 187.15 149.107 188.409 150.661 188.416ZM148.464 157.882C148.471 156.673 149.452 155.696 150.66 155.696L179.643 155.684C180.223 155.682 180.78 155.912 181.191 156.322C181.602 156.732 181.833 157.289 181.833 157.869V185.65C181.823 186.862 180.835 187.836 179.625 187.829H150.635C150.053 187.823 149.497 187.585 149.089 187.168C148.682 186.751 148.457 186.19 148.464 185.607V157.882Z" fill="#E0E0E0"/>
<path id="Shape_4" fill-rule="evenodd" clip-rule="evenodd" d="M114.872 188.416H143.861C145.417 188.413 146.677 187.152 146.68 185.595V157.87C146.677 156.314 145.416 155.055 143.861 155.055H114.872C113.317 155.055 112.056 156.314 112.053 157.87V185.595C112.059 187.15 113.318 188.41 114.872 188.416ZM113.324 156.335C113.735 155.925 114.292 155.695 114.872 155.697L143.862 155.684C145.07 155.684 146.051 156.661 146.058 157.87V185.607C146.051 186.817 145.071 187.796 143.862 187.799H114.872C114.291 187.799 113.734 187.568 113.324 187.157C112.913 186.746 112.682 186.189 112.682 185.607V157.882C112.682 157.301 112.913 156.745 113.324 156.335Z" fill="#E0E0E0"/>
<path id="Path_2" d="M141.171 163.815C139.67 163.815 138.452 162.597 138.451 161.094C138.45 159.591 139.666 158.372 141.167 158.37C142.669 158.367 143.888 159.583 143.891 161.086C143.891 162.591 142.675 163.811 141.171 163.815Z" fill="#FAFAFA"/>
<path id="Path_3" d="M153.373 163.815C151.871 163.825 150.645 162.614 150.635 161.111C150.625 159.607 151.834 158.38 153.336 158.37C154.839 158.359 156.065 159.57 156.075 161.074V161.129C156.058 162.612 154.855 163.808 153.373 163.815Z" fill="#FAFAFA"/>
<path id="Path_4" d="M113.005 202.455H110.297V194.75H115.842L113.005 202.455Z" fill="#F0F0F0"/>
<rect id="Rectangle_9" x="93.8828" y="153.122" width="14.2419" height="49.3326" fill="#E6E6E6"/>
<path id="Path_5" d="M105.417 202.455H108.125V194.75H102.58L105.417 202.455Z" fill="#F0F0F0"/>
<rect id="Rectangle_10" x="34.1719" y="153.122" width="73.9544" height="45.5421" fill="#F0F0F0"/>
<path id="Shape_5" fill-rule="evenodd" clip-rule="evenodd" d="M74.5278 188.416H103.517C105.062 188.399 106.305 187.141 106.305 185.595V157.869C106.302 156.314 105.041 155.054 103.487 155.054H74.5278C72.9734 155.054 71.7124 156.314 71.709 157.869V185.595C71.709 187.153 72.971 188.416 74.5278 188.416ZM72.9805 156.334C73.3913 155.924 73.9483 155.695 74.5285 155.696L103.524 155.684C104.73 155.687 105.707 156.663 105.714 157.869V185.65C105.7 186.863 104.711 187.836 103.5 187.829H74.51C73.9276 187.823 73.3716 187.585 72.9645 187.168C72.5573 186.751 72.3322 186.19 72.3388 185.607V157.882C72.3388 157.301 72.5697 156.744 72.9805 156.334Z" fill="#E0E0E0"/>
<path id="Shape_6" fill-rule="evenodd" clip-rule="evenodd" d="M38.7778 188.415H67.7304C69.2858 188.412 70.5458 187.151 70.5492 185.594V157.869C70.5492 157.121 70.252 156.404 69.7232 155.876C69.1944 155.348 68.4774 155.052 67.7304 155.054H38.7778C38.0307 155.052 37.3138 155.348 36.785 155.876C36.2562 156.404 35.959 157.121 35.959 157.869V185.594C35.959 187.152 37.221 188.415 38.7778 188.415ZM37.225 156.332C37.6371 155.921 38.1957 155.693 38.7769 155.696L67.7419 155.671C68.3231 155.668 68.8817 155.897 69.2938 156.307C69.706 156.717 69.9377 157.275 69.9377 157.857V185.637C69.9377 186.22 69.7062 186.778 69.2942 187.189C68.8822 187.601 68.3237 187.831 67.7419 187.829H38.7522C38.1699 187.823 37.6139 187.585 37.2068 187.168C36.7996 186.751 36.5745 186.19 36.5811 185.607V157.881C36.5811 157.3 36.8128 156.742 37.225 156.332Z" fill="#E0E0E0"/>
<path id="Path_6" d="M65.0466 163.815C63.5443 163.818 62.3237 162.602 62.3203 161.098C62.3169 159.595 63.532 158.373 65.0342 158.37C66.5365 158.366 67.7571 159.582 67.7605 161.086C67.7638 161.809 67.4793 162.503 66.97 163.015C66.4607 163.527 65.7685 163.815 65.0466 163.815Z" fill="#FAFAFA"/>
<path id="Path_7" d="M77.2483 163.815C75.7461 163.825 74.52 162.614 74.5098 161.111C74.4996 159.607 75.7091 158.38 77.2113 158.37C78.7135 158.359 79.9396 159.57 79.9499 161.074V161.129C79.9331 162.612 78.7304 163.808 77.2483 163.815Z" fill="#FAFAFA"/>
<path id="Path_8" d="M36.8735 202.455H34.1719V194.75H39.7107L36.8735 202.455Z" fill="#F0F0F0"/>
<rect id="Rectangle_11" x="138.359" y="16.3721" width="26.4978" height="26.5214" fill="#EBEBEB"/>
<rect id="Rectangle_12" x="164.863" y="16.3784" width="1.17192" height="26.5214" fill="#E0E0E0"/>
<rect id="Rectangle_13" x="141.957" y="19.9712" width="19.3182" height="19.3355" fill="white"/>
<path id="Path_9" d="M154.848 32.868C153.99 33.7279 152.826 34.2111 151.612 34.2111C150.399 34.2111 149.235 33.7279 148.377 32.868C146.596 31.08 146.596 28.1861 148.377 26.3981C150.166 24.614 153.059 24.614 154.848 26.3981C156.629 28.1861 156.629 31.08 154.848 32.868Z" fill="#F5F5F5"/>
<rect id="Rectangle_14" x="107.834" y="50.4751" width="31.0683" height="31.096" fill="#EBEBEB"/>
<rect id="Rectangle_15" x="138.902" y="50.4814" width="1.37547" height="31.096" fill="#E0E0E0"/>
<rect id="Rectangle_16" x="112.047" y="54.6914" width="22.6489" height="22.6692" fill="white"/>
<rect id="Rectangle_17" x="118.537" y="61.186" width="9.6591" height="9.66773" fill="#F5F5F5"/>
<rect id="Rectangle_18" x="261.049" y="40.4731" width="16.8202" height="3.93253" fill="#E6E6E6"/>
<rect id="Rectangle_19" x="191.424" y="40.4731" width="69.6245" height="3.93253" fill="#F5F5F5"/>
<rect id="Rectangle_20" x="211.387" y="19.5952" width="19.6019" height="20.885" fill="#E0E0E0"/>
<rect id="Rectangle_21" x="206.363" y="19.5952" width="5.02076" height="20.885" fill="#F0F0F0"/>
<rect id="Rectangle_22" x="221.402" y="16.3721" width="14.723" height="24.1014" fill="#E6E6E6"/>
<rect id="Rectangle_23" x="217.15" y="16.3721" width="4.25593" height="24.1014" fill="#F0F0F0"/>
<rect id="Rectangle_24" x="225.742" y="19.5952" width="12.4162" height="20.885" fill="#F0F0F0"/>
<rect id="Rectangle_25" x="222.904" y="19.5952" width="2.83728" height="20.885" fill="#FAFAFA"/>
<rect id="Rectangle_26" x="235.902" y="23.126" width="16.2835" height="17.3476" fill="#E6E6E6"/>
<rect id="Rectangle_27" x="231.734" y="23.126" width="4.16957" height="17.3476" fill="#FAFAFA"/>
<rect id="Rectangle_28" x="244.225" y="20.4526" width="12.2312" height="20.0269" fill="#E6E6E6"/>
<rect id="Rectangle_29" x="240.688" y="20.4526" width="3.53427" height="20.0269" fill="#F0F0F0"/>
<rect id="Rectangle_30" x="247.826" y="23.126" width="11.8796" height="17.3476" fill="#F0F0F0"/>
<rect id="Rectangle_31" x="245.469" y="23.126" width="2.35618" height="17.3476" fill="#FAFAFA"/>
<path id="Path_10" d="M251.092 157.067C256.36 150.177 268.899 147.615 273.236 143.269C278.91 137.571 278.885 129.02 274.05 125.934C269.855 123.254 255.94 141.367 254.38 143.405C248.983 150.374 247.422 155.542 246.411 160.548C246.528 156.295 246.639 152.381 246.732 149.368C247.022 139.534 247.385 136.367 247.558 135.398C248.175 134.916 248.829 134.367 249.223 134.07C252.591 131.558 260.055 128.563 263.786 124.915C269.239 119.581 268.357 113.185 264.532 110.821C260.542 108.351 253.473 114.21 249.729 120.032C245.985 125.853 247.583 131.434 246.534 136.231C246.312 137.182 246.084 140.781 245.874 145.775C244.986 140.854 242.266 136.452 238.263 133.459C233.1 129.335 228.641 124.31 224.385 124.958C220.129 125.606 222.442 132.255 225.785 136.922C228.783 141.077 243.58 145.226 245.757 148.566C245.498 155.357 245.27 163.907 245.109 171.895C243.944 167.771 244.746 167.426 239.965 161.092C237.128 157.338 225.47 152.696 224.089 155.289C222.707 157.881 224.811 162.746 229.208 166.16C232.755 168.914 240.594 168.907 242.451 170.617C242.877 171.013 244.301 172.544 245.079 173.426C244.887 183.168 244.807 191.768 244.9 194.707L245.665 194.737C245.628 193.978 245.714 189.021 245.868 182.458C247.78 178.97 260.671 176.902 264.625 173.297C268.782 169.5 271.768 165.067 269.985 162.098C268.499 159.629 256.798 162.987 252.005 167.086C248.835 169.815 246.898 172.735 246.01 176.649C246.115 172.179 246.244 167.389 246.362 162.851C247.336 161.746 249.513 159.135 251.092 157.067Z" fill="#E6E6E6"/>
<path id="Path_11" d="M252.217 202.325H238.857C238.123 202.325 237.494 201.374 237.352 200.053L236.402 191.41H254.666L253.722 200.053C253.568 201.374 252.945 202.325 252.217 202.325Z" fill="#F0F0F0"/>
<path id="Path_12" d="M255.048 194.749H236.019C235.563 194.749 235.18 194.132 235.131 193.28L234.742 186.884C234.681 185.903 235.094 185.032 235.631 185.032H255.442C255.973 185.032 256.386 185.89 256.324 186.884L255.936 193.28C255.893 194.12 255.504 194.749 255.048 194.749Z" fill="#F0F0F0"/>
<g id="freepik--Shadow--inject-62--inject-8">
<ellipse id="freepik--path--inject-62--inject-8" cx="154.201" cy="223.011" rx="119.592" ry="6.98843" fill="#F5F5F5"/>
</g>
</g>
<g id="freepik--Card--inject-8">
<path id="Path_13" d="M148.266 159.517L69.3485 179.154C63.9468 180.509 58.2664 178.441 55.0057 173.932C54.0018 172.523 53.2704 170.939 52.8491 169.261L42.0893 125.918C40.2842 118.619 44.7294 111.232 52.0277 109.402L130.968 89.7631C138.265 87.9621 145.64 92.3994 147.46 99.6858L158.245 143.051C160.022 150.347 155.56 157.71 148.266 159.517Z" fill="#4EC89E"/>
<path id="Path_14" opacity="0.2" d="M148.266 159.517L69.3485 179.154C63.9468 180.509 58.2664 178.441 55.0057 173.932C54.0018 172.523 53.2704 170.939 52.8491 169.261L42.0893 125.918C40.2842 118.619 44.7294 111.232 52.0277 109.402L130.968 89.7631C138.265 87.9621 145.64 92.3994 147.46 99.6858L158.245 143.051C160.022 150.347 155.56 157.71 148.266 159.517Z" fill="#4EC89E"/>
<path id="Path_15" d="M145.598 156.747L66.6713 176.39C62.6037 177.41 58.2943 176.496 54.9944 173.913C53.9905 172.503 53.2591 170.919 52.8379 169.241L42.0887 125.916C40.2836 118.618 44.7287 111.231 52.0271 109.401L130.968 89.7618C135.031 88.7458 139.335 89.6641 142.626 92.2495C143.639 93.6532 144.372 95.2395 144.783 96.9211L155.479 140.239C157.289 147.519 152.873 154.896 145.598 156.747Z" fill="#4EC89E"/>
<path id="Path_16" opacity="0.5" d="M145.598 156.747L66.6713 176.39C62.6037 177.41 58.2943 176.496 54.9944 173.913C53.9905 172.503 53.2591 170.919 52.8379 169.241L42.0887 125.916C40.2836 118.618 44.7287 111.231 52.0271 109.401L130.968 89.7618C135.031 88.7458 139.335 89.6641 142.626 92.2495C143.639 93.6532 144.372 95.2395 144.783 96.9211L155.479 140.239C157.289 147.519 152.873 154.896 145.598 156.747Z" fill="#4EC89E"/>
<path id="Rectangle_32" d="M108.488 103.172L109.663 107.799L50.5394 122.84L49.3647 118.213L108.488 103.172Z" fill="#A4E1CC"/>
<path id="Path_17" d="M52.2211 129.482L51.0767 124.84L110.179 109.805L111.328 114.433L52.2211 129.482Z" fill="#A4E1CC"/>
<path id="Path_18" d="M53.9041 136.222L52.7505 131.585L111.853 116.55L113.007 121.187L53.9041 136.222Z" fill="#A4E1CC"/>
<path id="Rectangle_33" opacity="0.5" d="M118.531 143.56L119.706 148.187L60.5824 163.228L59.4076 158.601L118.531 143.56Z" fill="#4EC89E"/>
<path id="Path_19" d="M133.792 139.383L125.774 141.435L125.077 138.695C124.379 135.928 126.053 133.117 128.82 132.409L134.171 131.038L135.555 136.585C135.84 137.844 135.051 139.096 133.792 139.383Z" fill="#FAFAFA"/>
<path id="Path_20" d="M136.519 136.298L135.135 130.751L141.008 129.262C142.338 128.923 143.748 129.127 144.927 129.828C146.105 130.528 146.957 131.669 147.293 132.999L148.016 135.846L139.347 138.004C138.745 138.161 138.105 138.068 137.573 137.747C137.04 137.426 136.66 136.903 136.519 136.298Z" fill="#FAFAFA"/>
<path id="Path_21" d="M136.897 142.093L138.288 147.673L133.049 149.004C131.718 149.349 130.306 149.148 129.126 148.447C127.945 147.745 127.095 146.6 126.763 145.268L126.028 142.378L134.064 140.378C134.668 140.226 135.307 140.322 135.839 140.644C136.371 140.966 136.752 141.488 136.897 142.093Z" fill="#FAFAFA"/>
<path id="Path_22" d="M145.245 145.916L139.288 147.429L137.897 141.849C137.593 140.601 138.351 139.342 139.596 139.026L148.266 136.869L148.97 139.641C149.308 140.966 149.106 142.372 148.407 143.549C147.709 144.726 146.571 145.577 145.245 145.916Z" fill="#FAFAFA"/>
</g>
<g id="freepik--Card--inject-8_2">
<path id="Path_23" d="M205.502 190.086L97.1818 217.04C89.7675 218.9 81.9707 216.061 77.495 209.872C76.1171 207.938 75.1132 205.763 74.5349 203.46L59.7662 143.968C57.2885 133.95 63.3899 123.811 73.4075 121.299L181.761 94.3426C191.776 91.8705 201.899 97.9611 204.397 107.962L219.2 167.485C221.639 177.499 215.514 187.605 205.502 190.086Z" fill="#4EC89E"/>
<path id="Path_24" opacity="0.2" d="M205.502 190.086L97.1818 217.04C89.7675 218.9 81.9707 216.061 77.495 209.872C76.1171 207.938 75.1132 205.763 74.5349 203.46L59.7662 143.968C57.2885 133.95 63.3899 123.811 73.4075 121.299L181.761 94.3426C191.776 91.8705 201.899 97.9611 204.397 107.962L219.2 167.485C221.639 177.499 215.514 187.605 205.502 190.086Z" fill="#4EC89E"/>
<path id="Path_25" d="M201.841 186.285L93.508 213.246C87.925 214.646 82.0099 213.391 77.4805 209.846C76.1026 207.912 75.0987 205.737 74.5205 203.434L59.7663 143.967C57.2887 133.949 63.39 123.81 73.4076 121.298L181.761 94.3417C187.338 92.9471 193.245 94.2076 197.763 97.7563C199.153 99.683 200.158 101.86 200.723 104.168L215.405 163.627C217.889 173.618 211.827 183.745 201.841 186.285Z" fill="#4EC89E"/>
<path id="Path_26" opacity="0.5" d="M201.841 186.285L93.508 213.246C87.925 214.646 82.0099 213.391 77.4805 209.846C76.1026 207.912 75.0987 205.737 74.5205 203.434L59.7663 143.967C57.2887 133.949 63.39 123.81 73.4076 121.298L181.761 94.3417C187.338 92.9471 193.245 94.2076 197.763 97.7563C199.153 99.683 200.158 101.86 200.723 104.168L215.405 163.627C217.889 173.618 211.827 183.745 201.841 186.285Z" fill="#FAFAFA"/>
<path id="Rectangle_34" d="M150.904 112.748L152.517 119.099L71.3644 139.744L69.752 133.393L150.904 112.748Z" fill="#FAFAFA"/>
<path id="Path_27" d="M73.671 148.862L72.1002 142.49L153.224 121.853L154.8 128.205L73.671 148.862Z" fill="#FAFAFA"/>
<path id="Path_28" d="M75.9805 158.113L74.3971 151.748L155.521 131.111L157.104 137.476L75.9805 158.113Z" fill="#FAFAFA"/>
<path id="Rectangle_35" opacity="0.5" d="M164.691 168.185L166.304 174.535L85.1516 195.18L83.5391 188.83L164.691 168.185Z" fill="#4EC89E"/>
<path id="Path_29" d="M185.636 162.452L174.631 165.267L173.673 161.507C172.716 157.709 175.014 153.851 178.811 152.879L186.156 150.997L188.056 158.611C188.447 160.339 187.364 162.057 185.636 162.452Z" fill="#FAFAFA"/>
<path id="Path_30" d="M189.38 158.217L187.48 150.603L195.542 148.56C197.367 148.095 199.302 148.374 200.92 149.336C202.539 150.298 203.707 151.863 204.169 153.688L205.161 157.597L193.262 160.558C192.435 160.774 191.557 160.646 190.827 160.205C190.096 159.765 189.574 159.047 189.38 158.217Z" fill="#FAFAFA"/>
<path id="Path_31" d="M189.893 166.171L191.802 173.83L184.611 175.657C182.785 176.131 180.846 175.855 179.226 174.892C177.606 173.929 176.438 172.358 175.983 170.529L174.975 166.562L186.004 163.817C186.833 163.608 187.71 163.74 188.441 164.182C189.172 164.624 189.694 165.341 189.893 166.171Z" fill="#FAFAFA"/>
<path id="Path_32" d="M201.356 171.418L193.178 173.494L191.269 165.835C190.852 164.123 191.893 162.394 193.602 161.961L205.502 159L206.468 162.806C206.932 164.624 206.654 166.554 205.696 168.169C204.737 169.784 203.176 170.953 201.356 171.418Z" fill="#FAFAFA"/>
</g>
</g>
</svg>
