<svg width="309" height="230" viewBox="0 0 309 230" fill="none" xmlns="http://www.w3.org/2000/svg">
<path d="M308.634 202.122H0V202.276H308.634V202.122Z" fill="#EBEBEB"/>
<path d="M277.71 212.057H268.512V212.211H277.71V212.057Z" fill="#EBEBEB"/>
<path d="M204.452 213.732H199.086V213.887H204.452V213.732Z" fill="#EBEBEB"/>
<path d="M265.906 206.326H244.801V206.48H265.906V206.326Z" fill="#EBEBEB"/>
<path d="M67.6691 209.51H41.0078V209.664H67.6691V209.51Z" fill="#EBEBEB"/>
<path d="M82.7794 209.51H73.1641V209.664H82.7794V209.51Z" fill="#EBEBEB"/>
<path d="M157.252 207.439H99.4297V207.593H157.252V207.439Z" fill="#EBEBEB"/>
<path d="M146.301 174.593H27.1056C26.1714 174.592 25.2757 174.22 24.6151 173.559C23.9546 172.899 23.583 172.003 23.582 171.069V3.52229C23.5833 2.58831 23.955 1.69298 24.6156 1.03268C25.2761 0.372367 26.1716 0.000988457 27.1056 0H146.301C147.234 0.00131795 148.129 0.37284 148.79 1.03311C149.45 1.69338 149.822 2.58853 149.823 3.52229V171.067C149.823 172.001 149.451 172.897 148.791 173.558C148.131 174.219 147.235 174.591 146.301 174.593ZM27.1068 0.154443C26.2157 0.157072 25.3619 0.512219 24.7318 1.14231C24.1017 1.7724 23.7466 2.62623 23.7439 3.51731V171.067C23.7466 171.958 24.1017 172.811 24.7318 173.442C25.3619 174.072 26.2157 174.427 27.1068 174.429H146.302C147.193 174.427 148.047 174.072 148.677 173.442C149.307 172.811 149.662 171.958 149.665 171.067V3.52229C149.662 2.63121 149.307 1.77738 148.677 1.14729C148.047 0.517198 147.193 0.162056 146.302 0.159428L27.1068 0.154443Z" fill="#EBEBEB"/>
<path d="M279.813 174.593H160.618C159.684 174.591 158.789 174.22 158.128 173.559C157.468 172.898 157.097 172.003 157.096 171.069V3.52229C157.097 2.58842 157.468 1.69309 158.128 1.03275C158.789 0.372407 159.684 0.000989091 160.618 0H279.813C280.747 0.000988457 281.642 0.372367 282.303 1.03268C282.964 1.69298 283.335 2.58831 283.336 3.52229V171.067C283.336 172.001 282.965 172.897 282.304 173.559C281.644 174.22 280.748 174.592 279.813 174.593ZM160.618 0.154443C159.727 0.157072 158.873 0.512219 158.243 1.14231C157.613 1.7724 157.258 2.62623 157.255 3.51731V171.067C157.258 171.958 157.613 172.811 158.243 173.442C158.873 174.072 159.727 174.427 160.618 174.429H279.813C280.705 174.428 281.561 174.074 282.192 173.444C282.823 172.813 283.179 171.959 283.182 171.067V3.52229C283.179 2.63014 282.823 1.77537 282.192 1.1451C281.561 0.51483 280.705 0.160412 279.813 0.159428L160.618 0.154443Z" fill="#EBEBEB"/>
<path d="M132.39 202.121H143.885V123.19H132.39V202.121Z" fill="#E6E6E6"/>
<path d="M136.437 202.12H132.391V187.125H140.679L136.437 202.12Z" fill="#F0F0F0"/>
<path d="M253.943 202.121H265.438V123.19H253.943V202.121Z" fill="#E6E6E6"/>
<path d="M132.392 198.026L257.477 198.026V123.19L132.392 123.19V198.026Z" fill="#F0F0F0"/>
<path d="M253.435 202.12H257.481V187.125H249.188L253.435 202.12Z" fill="#F0F0F0"/>
<path d="M216.236 129.387V191.293H253.316V129.387H216.236Z" fill="#E6E6E6"/>
<path d="M231.109 131.564H238.445C241.55 131.596 244.554 130.466 246.87 128.398H222.686C225.001 130.466 228.005 131.595 231.109 131.564Z" fill="#F0F0F0"/>
<path d="M176.396 129.387V191.293H213.476V129.387H176.396Z" fill="#E6E6E6"/>
<path d="M190.893 131.564H198.229C201.334 131.595 204.338 130.466 206.653 128.398H182.469C184.784 130.466 187.789 131.596 190.893 131.564Z" fill="#F0F0F0"/>
<path d="M136.549 129.387V191.293H173.629V129.387H136.549Z" fill="#E6E6E6"/>
<path d="M151.046 131.564H158.382C161.486 131.596 164.491 130.466 166.806 128.398H142.621C144.937 130.466 147.941 131.596 151.046 131.564Z" fill="#F0F0F0"/>
<path d="M43.1935 202.12H121.623L121.623 25.8157H43.1935L43.1935 202.12Z" fill="#F0F0F0"/>
<path d="M43.1925 202.12H119.967L119.967 25.8157H43.1925L43.1925 202.12Z" fill="#F5F5F5"/>
<path d="M115.289 198.119L115.289 29.8164L47.871 29.8164L47.871 198.119H115.289Z" fill="#F0F0F0"/>
<path d="M108.667 61.1172C108.667 58.7036 108.192 56.3135 107.268 54.0835C106.344 51.8536 104.99 49.8274 103.284 48.1207C101.577 46.4139 99.5508 45.0601 97.3208 44.1364C95.0909 43.2127 92.7008 42.7373 90.2871 42.7373H72.8799C68.0053 42.7373 63.3303 44.6738 59.8834 48.1207C56.4365 51.5676 54.5 56.2426 54.5 61.1172H108.667Z" fill="#FAFAFA"/>
<path d="M108.668 187.658V147.45H54.5009V187.658H108.668Z" fill="#F5F5F5"/>
<path d="M108.664 72.4531H84.7715V142.263H108.664V72.4531Z" fill="#F5F5F5"/>
<path d="M78.3926 72.4531H54.5V142.263H78.3926V72.4531Z" fill="#F5F5F5"/>
<path d="M63.1616 107.043H53.3757C52.9733 107.042 52.5877 106.882 52.3032 106.598C52.0187 106.313 51.8584 105.927 51.8574 105.525C51.8587 105.123 52.0191 104.737 52.3036 104.453C52.588 104.169 52.9734 104.008 53.3757 104.007H63.1616C63.5639 104.008 63.9493 104.169 64.2338 104.453C64.5182 104.737 64.6786 105.123 64.6799 105.525C64.6789 105.927 64.5186 106.313 64.2341 106.598C63.9496 106.882 63.564 107.042 63.1616 107.043Z" fill="#E0E0E0"/>
<path d="M49.084 198.119L49.084 29.8164H47.8709L47.8709 198.119H49.084Z" fill="#F0F0F0"/>
<path d="M171.227 103.84L254.4 103.84V25.8163L171.227 25.8163V103.84Z" fill="#E6E6E6"/>
<path d="M169.133 103.84L252.307 103.84V25.8163L169.133 25.8163V103.84Z" fill="#F5F5F5"/>
<path d="M164.274 108.355L254.4 108.355V103.839L164.274 103.839V108.355Z" fill="#E6E6E6"/>
<path d="M161.916 108.355L247.4 108.355V103.839L161.916 103.839V108.355Z" fill="#F5F5F5"/>
<path d="M248.541 99.781V29.8745L172.894 29.8745V99.781H248.541Z" fill="white"/>
<path d="M212.812 99.781V29.8745H208.619V99.781H212.812Z" fill="#F5F5F5"/>
<path d="M174.482 99.781V29.8745H172.897V99.781H174.482Z" fill="#E6E6E6"/>
<path d="M214.398 99.781V29.8745H212.813V99.781H214.398Z" fill="#E6E6E6"/>
<path d="M182.413 105.909C180.884 90.0599 179.819 64.3415 180.646 55.74C180.66 55.5922 180.706 55.4491 180.78 55.3203C180.853 55.1914 180.954 55.0798 181.074 54.9927C181.234 54.8757 181.424 54.8059 181.621 54.7914C181.819 54.7769 182.017 54.8182 182.192 54.9107C182.367 55.0031 182.513 55.143 182.613 55.3143C182.712 55.4856 182.762 55.6814 182.756 55.8795C182.61 60.1416 182.442 70.7945 183.35 89.1719C183.802 98.3201 184.453 104.585 184.006 105.907L182.413 105.909Z" fill="#E6E6E6"/>
<path d="M176.712 69.3798C172.353 64.5435 163.461 61.1047 154.396 61.1221C150.838 61.1296 165.223 66.7481 171.21 72.9544C175.995 78.1083 179.934 83.9872 182.88 90.3729C181.724 80.9008 181.067 74.2137 176.712 69.3798Z" fill="#E6E6E6"/>
<path d="M185.345 70.8517C188.957 65.8149 197.31 61.9414 206.344 61.5029C209.89 61.3311 196.397 67.652 191.362 74.1311C187.345 79.5464 184.291 85.6137 182.335 92.0664C182.071 82.5844 181.728 75.8898 185.345 70.8517Z" fill="#E6E6E6"/>
<path d="M176.518 51.7155C172.83 47.6203 165.297 44.7083 157.621 44.7232C154.608 44.7232 166.789 49.4885 171.855 54.7383C175.906 59.1024 179.242 64.0804 181.737 69.4876C180.763 61.474 180.203 55.8107 176.518 51.7155Z" fill="#E6E6E6"/>
<path d="M183.828 57.7729C186.891 53.507 193.962 50.2276 201.61 49.8564C204.613 49.7107 193.188 55.0627 188.924 60.5491C185.521 65.137 182.935 70.2774 181.28 75.7443C181.058 67.7083 180.766 62.0362 183.828 57.7729Z" fill="#E6E6E6"/>
<path d="M183.03 123.19C180.731 123.19 178.52 122.311 176.848 120.733C175.177 119.155 174.173 116.998 174.041 114.703L173.246 100.924H192.813L192.018 114.703C191.886 116.998 190.882 119.155 189.211 120.733C187.539 122.311 185.328 123.19 183.03 123.19Z" fill="#E6E6E6"/>
<path d="M194.079 104.057H171.982L171.35 98.3276H194.717L194.079 104.057Z" fill="#E6E6E6"/>
<path d="M154.321 230C220.419 230 274.003 226.87 274.003 223.01C274.003 219.149 220.419 216.02 154.321 216.02C88.2221 216.02 34.6387 219.149 34.6387 223.01C34.6387 226.87 88.2221 230 154.321 230Z" fill="#F5F5F5"/>
<path d="M156.732 216.33L151.578 216.911L149.678 205.223L154.832 204.643L156.732 216.33Z" fill="#FFC3BD"/>
<path d="M179.805 217.457H174.659L173.377 205.539H178.523L179.805 217.457Z" fill="#FFC3BD"/>
<path d="M174.237 216.857H180.511C180.613 216.857 180.712 216.892 180.791 216.956C180.871 217.02 180.927 217.109 180.949 217.208L181.965 221.783C181.989 221.894 181.988 222.01 181.961 222.121C181.934 222.231 181.882 222.335 181.809 222.423C181.737 222.511 181.646 222.581 181.542 222.629C181.439 222.677 181.326 222.7 181.212 222.698C179.193 222.664 177.724 222.545 175.179 222.545C173.614 222.545 168.896 222.707 166.737 222.707C164.619 222.707 164.294 220.571 165.178 220.378C169.144 219.506 172.132 218.314 173.399 217.173C173.629 216.968 173.928 216.855 174.237 216.857Z" fill="#262626"/>
<path d="M151.495 216.028L157.08 215.396C157.181 215.384 157.284 215.407 157.37 215.461C157.457 215.516 157.522 215.598 157.555 215.695L159.081 220.125C159.12 220.232 159.133 220.347 159.121 220.46C159.108 220.573 159.07 220.682 159.009 220.778C158.948 220.874 158.865 220.955 158.768 221.014C158.671 221.074 158.562 221.11 158.448 221.121C156.431 221.316 153.506 221.527 150.975 221.815C148.015 222.151 147.522 222.943 144.029 222.862C141.912 222.813 141.381 220.664 142.269 220.496C146.315 219.71 147.097 219.099 150.312 216.575C150.647 216.286 151.057 216.097 151.495 216.028Z" fill="#262626"/>
<path d="M156.039 66.2325C154.31 67.6599 152.609 68.9004 150.849 70.1708C149.089 71.4412 147.292 72.6207 145.442 73.7653C143.592 74.91 141.694 76.0073 139.704 77.0037C137.669 78.0578 135.551 78.9418 133.371 79.6466C132.794 79.831 132.232 79.9829 131.585 80.1448C130.951 80.2821 130.311 80.3848 129.666 80.4525C128.507 80.577 127.416 80.6331 126.328 80.6829C124.161 80.7825 122.035 80.78 119.912 80.7651C115.664 80.714 111.453 80.5098 107.224 80.1361L107.16 76.275C111.314 75.7407 115.486 75.2786 119.615 74.814C121.679 74.5899 123.738 74.3383 125.749 74.0755C126.746 73.9397 127.742 73.7803 128.661 73.6096C129.056 73.5399 129.447 73.448 129.832 73.3344C130.195 73.2098 130.639 73.0679 131.05 72.9022C132.815 72.1856 134.529 71.3474 136.178 70.3937C137.886 69.4135 139.594 68.3611 141.273 67.2426C142.952 66.1242 144.624 64.9658 146.28 63.7839C147.937 62.6019 149.592 61.3501 151.146 60.1719L156.039 66.2325Z" fill="#FFC3BD"/>
<path d="M161.072 61.8324C160.332 66.6974 150.089 74.1393 150.089 74.1393L142.74 65.0184C145.959 61.583 149.373 58.3348 152.963 55.2898C156.27 52.587 161.876 56.539 161.072 61.8324Z" fill="#4EC89E"/>
<path d="M108.578 76.6825L105.656 74.6025L105.336 81.1738C105.778 81.175 106.213 81.068 106.604 80.8622C106.994 80.6563 107.329 80.358 107.578 79.9931L108.578 76.6825Z" fill="#FFC3BD"/>
<path d="M103.018 72.689L102.42 79.1295L105.339 81.1734L105.659 74.6021L103.018 72.689Z" fill="#FFC3BD"/>
<path opacity="0.2" d="M149.68 205.227L150.659 211.251L155.814 210.671L154.835 204.646L149.68 205.227Z" fill="#262626"/>
<path opacity="0.2" d="M178.528 205.54H173.379L174.042 211.682H179.19L178.528 205.54Z" fill="#262626"/>
<path d="M178.601 55.4462C178.985 55.5322 179.347 55.6939 179.667 55.922C179.987 56.15 180.258 56.4398 180.464 56.7741C180.67 57.1085 180.807 57.4807 180.868 57.8689C180.928 58.2571 180.91 58.6534 180.815 59.0345C179.698 63.6697 178.856 68.3668 178.294 73.1013C177.807 77.0869 177.515 80.8944 177.333 84.3457C176.906 92.4353 177.084 98.6018 176.843 100.692C172.818 100.413 157.653 99.3578 149.384 98.7799C146.593 76.9287 149.864 62.984 151.701 57.3182C151.982 56.4354 152.508 55.6506 153.218 55.0552C153.928 54.4599 154.793 54.0784 155.711 53.9554C156.765 53.8171 158.026 53.6838 159.356 53.6054C159.822 53.5755 160.294 53.5593 160.774 53.5493C164.678 53.5955 168.576 53.8667 172.449 54.3614C173.183 54.4486 173.926 54.5569 174.648 54.6728C176.092 54.9144 177.464 55.1922 178.601 55.4462Z" fill="#4EC89E"/>
<path d="M172.211 41.1431C171.214 44.8472 169.996 51.6776 172.45 54.3679C166.085 58.6487 162.023 64.6757 160.851 63.3666C160.237 62.6816 159.97 54.754 160.777 53.5533C165.035 52.8459 165.144 49.7308 164.618 46.7615L172.211 41.1431Z" fill="#FFC3BD"/>
<path d="M171.957 52.832C171.957 52.832 161.586 57.4217 160.211 67.6847C163.068 64.3766 169.379 60.7771 169.379 60.7771L166.595 59.9775C168.366 59.3056 170.199 58.8124 172.067 58.5053C171.758 57.0879 173.405 54.2606 173.405 54.2606L171.957 52.832Z" fill="#4EC89E"/>
<path d="M162.6 52.666C162.6 52.666 163.983 58.5274 160.213 67.6843C159.469 64.4883 158.45 61.3628 157.166 58.343L159.706 59.0343C159.706 59.0343 159.581 57.8523 157.525 56.2805C158.382 55.0358 159.45 53.9512 160.682 53.0758L162.6 52.666Z" fill="#4EC89E"/>
<path opacity="0.2" d="M169.117 43.4355L164.623 46.7586C164.756 47.45 164.828 48.1519 164.839 48.856C166.458 48.7314 168.774 47.1335 169.062 45.4707C169.203 44.8012 169.222 44.1117 169.117 43.4355Z" fill="#262626"/>
<path d="M159.03 30.4164C156.521 30.5247 155.136 34.8516 157.683 38.415C160.23 41.9784 162.412 30.2707 159.03 30.4164Z" fill="#262626"/>
<path d="M171.408 34.2243C171.705 39.3234 172.139 42.2914 169.894 45.1972C166.519 49.5677 159.992 48.0008 158.178 43.0935C156.545 38.677 156.332 31.0806 161.042 28.4713C162.079 27.8904 163.246 27.5841 164.434 27.5816C165.622 27.579 166.791 27.8803 167.83 28.4568C168.868 29.0333 169.742 29.8659 170.368 30.8753C170.995 31.8848 171.352 33.0376 171.408 34.2243Z" fill="#FFC3BD"/>
<path d="M172.156 38.1424C170.793 37.3431 169.602 36.2805 168.653 35.0166C167.705 33.7526 167.017 32.3126 166.63 30.7802C165.135 31.1339 157.686 34.5616 155.395 30.7802C153.105 26.9989 155.987 24.7806 160.273 27.1085C158.377 23.763 160.101 22.1264 166.057 21.982C172.013 21.8375 171.212 25.29 171.212 25.29C171.212 25.29 175.721 23.3271 177.315 26.7846C179.162 30.7578 175.754 37.5421 172.156 38.1424Z" fill="#262626"/>
<path d="M170.195 24.3772C170.25 24.3772 172.451 24.9065 174.987 22.3545C174.532 24.5316 170.594 25.9814 170.594 25.9814L170.195 24.3772Z" fill="#262626"/>
<path d="M173.152 31.8365C170.777 31.0157 167.901 34.5343 168.964 38.7827C170.026 43.0311 176.352 32.9425 173.152 31.8365Z" fill="#262626"/>
<path d="M174.496 38.4651C174.279 39.7314 173.569 40.86 172.521 41.6038C171.125 42.5778 169.867 41.4643 169.781 39.8526C169.709 38.4028 170.346 36.1485 171.974 35.8159C172.331 35.7492 172.7 35.7727 173.046 35.8845C173.391 35.9963 173.704 36.1927 173.954 36.4559C174.205 36.7191 174.386 37.0408 174.48 37.3917C174.575 37.7426 174.581 38.1116 174.496 38.4651Z" fill="#FFC3BD"/>
<path d="M157.122 156.763C158.359 141.71 167.432 100.039 167.432 100.039L149.379 98.7798C149.379 98.7798 142.418 140.144 141.885 155.843C141.329 172.165 147.894 208.442 147.894 208.442L156.552 207.456C156.552 207.456 155.881 171.879 157.122 156.763Z" fill="#4EC89E"/>
<path opacity="0.5" d="M157.122 156.763C158.359 141.71 167.432 100.039 167.432 100.039L149.379 98.7798C149.379 98.7798 142.418 140.144 141.885 155.843C141.329 172.165 147.894 208.442 147.894 208.442L156.552 207.456C156.552 207.456 155.881 171.879 157.122 156.763Z" fill="white"/>
<path opacity="0.2" d="M160.634 114.15C156.995 118.804 156.93 135.146 158.338 147.22C159.679 138.51 161.793 127.449 163.645 118.228L160.634 114.15Z" fill="#262626"/>
<path d="M159.121 99.4595C159.121 99.4595 161.069 143.519 163.242 158.44C165.621 174.78 171.663 210.493 171.663 210.493H181.089C181.089 210.493 179.539 176.856 178.294 160.803C176.878 142.518 176.84 100.695 176.84 100.695L159.121 99.4595Z" fill="#4EC89E"/>
<path opacity="0.5" d="M159.121 99.4595C159.121 99.4595 161.069 143.519 163.242 158.44C165.621 174.78 171.663 210.493 171.663 210.493H181.089C181.089 210.493 179.539 176.856 178.294 160.803C176.878 142.518 176.84 100.695 176.84 100.695L159.121 99.4595Z" fill="white"/>
<path d="M170.53 210.693H181.629V207.377L169.223 207.162L170.53 210.693Z" fill="#4EC89E"/>
<path d="M147.519 209.417L157.836 208.247L157.463 204.913L145.908 206.045L147.519 209.417Z" fill="#4EC89E"/>
<path d="M172.542 217.757C172.19 217.785 171.838 217.693 171.545 217.494C171.454 217.416 171.384 217.316 171.34 217.204C171.297 217.091 171.282 216.97 171.296 216.851C171.296 216.779 171.316 216.71 171.353 216.649C171.389 216.588 171.442 216.538 171.506 216.506C172.077 216.212 173.735 217.233 173.922 217.35C173.942 217.363 173.959 217.382 173.968 217.404C173.978 217.426 173.982 217.451 173.978 217.475C173.974 217.498 173.963 217.52 173.947 217.538C173.93 217.556 173.909 217.568 173.886 217.574C173.446 217.685 172.995 217.746 172.542 217.757ZM171.777 216.692C171.723 216.69 171.669 216.7 171.619 216.722C171.594 216.736 171.573 216.757 171.559 216.783C171.546 216.808 171.54 216.837 171.542 216.866C171.531 216.947 171.54 217.03 171.569 217.107C171.598 217.185 171.645 217.253 171.707 217.308C172.282 217.57 172.936 217.603 173.535 217.4C172.998 217.052 172.399 216.812 171.771 216.692H171.777Z" fill="#4EC89E"/>
<path d="M173.852 217.576C173.832 217.576 173.811 217.571 173.793 217.561C173.262 217.272 172.232 216.144 172.34 215.568C172.358 215.478 172.406 215.397 172.477 215.339C172.547 215.281 172.636 215.249 172.727 215.248C172.82 215.237 172.914 215.245 173.003 215.272C173.093 215.299 173.176 215.344 173.247 215.405C173.845 215.894 173.968 217.379 173.972 217.441C173.973 217.463 173.969 217.485 173.959 217.505C173.95 217.524 173.935 217.541 173.917 217.553C173.898 217.567 173.875 217.575 173.852 217.576ZM172.813 215.49H172.757C172.599 215.51 172.585 215.582 172.579 215.614C172.514 215.953 173.171 216.805 173.7 217.207C173.665 216.619 173.453 216.054 173.092 215.588C173.014 215.523 172.915 215.489 172.813 215.49Z" fill="#4EC89E"/>
<path d="M151.074 216.789L151.054 216.798C150.248 217.056 148.806 217.421 148.19 216.99C148.098 216.927 148.024 216.843 147.973 216.745C147.922 216.647 147.895 216.538 147.896 216.427C147.891 216.36 147.903 216.293 147.932 216.233C147.96 216.173 148.004 216.121 148.059 216.082C148.638 215.675 150.814 216.476 151.06 216.569C151.082 216.578 151.1 216.593 151.113 216.612C151.126 216.631 151.134 216.653 151.135 216.676C151.137 216.699 151.132 216.721 151.121 216.742C151.11 216.762 151.094 216.779 151.074 216.791V216.789ZM148.231 216.261L148.202 216.279C148.18 216.294 148.162 216.315 148.151 216.339C148.14 216.363 148.136 216.39 148.14 216.417C148.138 216.49 148.155 216.562 148.188 216.628C148.221 216.693 148.269 216.749 148.329 216.791C149.086 217.027 149.903 216.983 150.631 216.666C149.877 216.332 149.051 216.192 148.229 216.261H148.231Z" fill="#4EC89E"/>
<path d="M151.073 216.789C151.043 216.804 151.009 216.807 150.978 216.797C150.33 216.59 148.985 215.622 149.01 215.034C149.016 214.896 149.095 214.715 149.424 214.644C149.542 214.618 149.665 214.616 149.785 214.639C149.904 214.661 150.018 214.708 150.119 214.776C150.647 215.281 151.002 215.939 151.135 216.657C151.139 216.678 151.138 216.7 151.131 216.72C151.125 216.74 151.113 216.759 151.098 216.773C151.09 216.779 151.082 216.785 151.073 216.789ZM149.34 214.933C149.257 214.978 149.254 215.031 149.253 215.05C149.236 215.404 150.165 216.179 150.839 216.485C150.714 215.911 150.416 215.39 149.985 214.991C149.912 214.94 149.828 214.905 149.74 214.888C149.652 214.871 149.562 214.872 149.475 214.892C149.428 214.9 149.383 214.914 149.34 214.933Z" fill="#4EC89E"/>
<path d="M182.943 62.8682C182.812 64.8784 182.576 66.7504 182.33 68.6835C182.085 70.6165 181.755 72.5109 181.393 74.4228C180.675 78.3277 179.616 82.162 178.228 85.8814L177.616 87.3225L177.462 87.6824L177.423 87.7721L177.36 87.9091L177.18 88.2641C176.943 88.6954 176.659 89.0989 176.332 89.4672C175.795 90.0715 175.167 90.5883 174.471 90.9992C173.908 91.3347 173.316 91.6218 172.704 91.8574C170.664 92.5932 168.531 93.0385 166.367 93.1801C162.438 93.4736 158.488 93.3261 154.592 92.7404L154.733 88.8794L157.455 88.5717C158.368 88.4633 159.276 88.3226 160.179 88.198C161.981 87.9328 163.765 87.6363 165.465 87.2415C167.038 86.9214 168.566 86.4146 170.019 85.732C170.41 85.5674 170.753 85.3054 171.015 84.971C171.031 84.8825 170.834 85.2699 171.066 84.6509L171.473 83.4601C172.471 80.0466 173.234 76.569 173.758 73.0515C174.05 71.2604 174.301 69.4532 174.542 67.641C174.784 65.8288 174.983 63.9792 175.174 62.2417L182.943 62.8682Z" fill="#FFC3BD"/>
<path d="M183.393 59.137C185.913 63.363 183.767 76.6451 183.767 76.6451L170.565 74.2051C170.565 74.2051 169.85 66.6075 172.363 60.7611C175.092 54.3978 180.341 54.0167 183.393 59.137Z" fill="#4EC89E"/>
<path d="M151.033 100.825L144.027 68.2372C143.691 66.8456 142.911 65.6011 141.806 64.6912C140.701 63.7813 139.329 63.2555 137.899 63.1929H111.055C112.485 63.2552 113.857 63.781 114.962 64.6908C116.068 65.6007 116.847 66.8454 117.184 68.2372L124.19 100.825C124.526 102.216 125.306 103.461 126.411 104.371C127.516 105.28 128.887 105.806 130.318 105.869H157.161C155.731 105.806 154.359 105.28 153.254 104.371C152.149 103.461 151.369 102.216 151.033 100.825Z" fill="#262626"/>
<path opacity="0.7" d="M151.033 100.825L144.027 68.2372C143.691 66.8456 142.911 65.6011 141.806 64.6912C140.701 63.7813 139.329 63.2555 137.899 63.1929H111.055C112.485 63.2552 113.857 63.781 114.962 64.6908C116.068 65.6007 116.847 66.8454 117.184 68.2372L124.19 100.825C124.526 102.216 125.306 103.461 126.411 104.371C127.516 105.28 128.887 105.806 130.318 105.869H157.161C155.731 105.806 154.359 105.28 153.254 104.371C152.149 103.461 151.369 102.216 151.033 100.825Z" fill="#4EC89E"/>
<path d="M111.052 63.1929H137.895C136.521 63.2186 135.203 63.7454 134.19 64.6743C133.177 65.6032 132.538 66.8702 132.393 68.2372L125.429 143.964C125.284 145.331 124.645 146.598 123.631 147.527C122.618 148.455 121.301 148.982 119.926 149.008H103.172C102.526 149.02 101.886 148.894 101.293 148.639C100.701 148.383 100.169 148.004 99.7351 147.526C99.3009 147.048 98.9737 146.483 98.7755 145.869C98.5773 145.255 98.5127 144.605 98.5859 143.964L105.551 68.2372C105.696 66.8704 106.335 65.6036 107.348 64.6747C108.361 63.7459 109.678 63.2189 111.052 63.1929Z" fill="#4EC89E"/>
<path d="M115.343 143.962C115.27 144.604 115.335 145.253 115.533 145.868C115.731 146.482 116.058 147.047 116.492 147.524C116.927 148.002 117.458 148.381 118.051 148.637C118.643 148.893 119.284 149.019 119.929 149.007H93.0861C92.4406 149.019 91.8 148.893 91.2072 148.637C90.6144 148.382 90.0831 148.002 89.6488 147.525C89.2146 147.047 88.8874 146.482 88.6893 145.868C88.4912 145.253 88.4267 144.604 88.5001 143.962H115.343Z" fill="#262626"/>
<path opacity="0.7" d="M115.343 143.962C115.27 144.604 115.335 145.253 115.533 145.868C115.731 146.482 116.058 147.047 116.492 147.524C116.927 148.002 117.458 148.381 118.051 148.637C118.643 148.893 119.284 149.019 119.929 149.007H93.0861C92.4406 149.019 91.8 148.893 91.2072 148.637C90.6144 148.382 90.0831 148.002 89.6488 147.525C89.2146 147.047 88.8874 146.482 88.6893 145.868C88.4912 145.253 88.4267 144.604 88.5001 143.962H115.343Z" fill="#4EC89E"/>
<g opacity="0.5">
<path opacity="0.5" d="M127.743 71.6772H109.579C109.438 71.6791 109.299 71.6511 109.171 71.5952C109.042 71.5393 108.927 71.4566 108.833 71.3527C108.738 71.2488 108.667 71.1261 108.624 70.9926C108.581 70.8591 108.567 70.718 108.582 70.5786C108.615 70.2812 108.754 70.0058 108.974 69.8037C109.195 69.6015 109.481 69.4865 109.78 69.4801H127.942C128.083 69.4781 128.222 69.5061 128.35 69.562C128.479 69.618 128.594 69.7006 128.688 69.8045C128.783 69.9084 128.854 70.0312 128.897 70.1646C128.94 70.2981 128.954 70.4392 128.939 70.5786C128.907 70.8756 128.768 71.1507 128.548 71.3528C128.328 71.5549 128.042 71.6701 127.743 71.6772Z" fill="white"/>
<path opacity="0.5" d="M127.2 77.62H109.036C108.895 77.6219 108.756 77.594 108.628 77.5381C108.499 77.4821 108.384 77.3995 108.29 77.2956C108.195 77.1917 108.124 77.0689 108.081 76.9355C108.038 76.802 108.024 76.6609 108.039 76.5215C108.072 76.2241 108.211 75.9486 108.431 75.7465C108.652 75.5444 108.938 75.4294 109.237 75.4229H127.402C127.542 75.421 127.681 75.4489 127.81 75.5049C127.939 75.5608 128.054 75.6435 128.148 75.7474C128.242 75.8513 128.313 75.974 128.356 76.1075C128.4 76.2409 128.414 76.3821 128.398 76.5215C128.366 76.8189 128.227 77.0946 128.006 77.2968C127.786 77.4989 127.499 77.6139 127.2 77.62Z" fill="white"/>
<path opacity="0.5" d="M122.205 83.5619H108.493C108.352 83.5638 108.213 83.5359 108.085 83.48C107.956 83.424 107.841 83.3414 107.747 83.2375C107.652 83.1336 107.581 83.0108 107.538 82.8773C107.495 82.7439 107.481 82.6028 107.496 82.4634C107.529 82.166 107.668 81.8905 107.889 81.6884C108.109 81.4863 108.395 81.3713 108.695 81.3648H122.406C122.547 81.3629 122.686 81.3908 122.814 81.4468C122.943 81.5027 123.058 81.5854 123.152 81.6893C123.247 81.7932 123.318 81.9159 123.361 82.0494C123.404 82.1829 123.418 82.324 123.403 82.4634C123.37 82.7607 123.231 83.0362 123.011 83.2383C122.79 83.4405 122.504 83.5555 122.205 83.5619Z" fill="white"/>
<path opacity="0.5" d="M112.607 89.5033H107.958C107.817 89.5053 107.678 89.4773 107.55 89.4214C107.421 89.3654 107.306 89.2828 107.212 89.1789C107.117 89.075 107.046 88.9522 107.003 88.8188C106.96 88.6853 106.946 88.5442 106.961 88.4048C106.993 88.1075 107.132 87.8321 107.353 87.6299C107.573 87.4278 107.859 87.3127 108.158 87.3062H112.809C112.949 87.3043 113.088 87.3323 113.217 87.3882C113.345 87.4441 113.461 87.5268 113.555 87.6307C113.649 87.7346 113.72 87.8573 113.763 87.9908C113.807 88.1243 113.821 88.2654 113.805 88.4048C113.773 88.7022 113.634 88.9776 113.413 89.1798C113.193 89.3819 112.906 89.4969 112.607 89.5033Z" fill="white"/>
<path opacity="0.5" d="M125.576 95.4457H107.407C107.267 95.4476 107.127 95.4197 106.999 95.3638C106.87 95.3078 106.755 95.2252 106.661 95.1213C106.566 95.0174 106.495 94.8946 106.452 94.7612C106.409 94.6277 106.395 94.4866 106.41 94.3472C106.443 94.0498 106.582 93.7743 106.803 93.5722C107.023 93.37 107.31 93.255 107.609 93.2486H125.773C125.913 93.2467 126.052 93.2746 126.181 93.3306C126.31 93.3865 126.425 93.4692 126.519 93.5731C126.613 93.677 126.684 93.7997 126.728 93.9332C126.771 94.0666 126.785 94.2078 126.769 94.3472C126.737 94.6437 126.599 94.9185 126.379 95.1205C126.16 95.3225 125.874 95.4381 125.576 95.4457Z" fill="white"/>
<path opacity="0.5" d="M117.886 101.388H106.876C106.735 101.39 106.596 101.362 106.468 101.306C106.339 101.25 106.224 101.167 106.129 101.063C106.035 100.959 105.964 100.837 105.921 100.703C105.878 100.57 105.864 100.428 105.879 100.289C105.911 99.9918 106.05 99.7164 106.271 99.5142C106.491 99.312 106.777 99.197 107.076 99.1905H118.086C118.227 99.1886 118.366 99.2165 118.494 99.2725C118.623 99.3284 118.738 99.4111 118.832 99.515C118.927 99.6189 118.998 99.7416 119.041 99.8751C119.084 100.009 119.098 100.15 119.083 100.289C119.05 100.586 118.911 100.862 118.691 101.064C118.471 101.266 118.185 101.381 117.886 101.388Z" fill="white"/>
<path opacity="0.5" d="M124.499 107.329H106.335C106.194 107.331 106.055 107.303 105.927 107.247C105.798 107.191 105.683 107.108 105.588 107.005C105.494 106.901 105.423 106.778 105.38 106.644C105.337 106.511 105.323 106.37 105.338 106.23C105.37 105.933 105.51 105.658 105.73 105.455C105.951 105.253 106.237 105.138 106.536 105.132H124.702C124.842 105.13 124.981 105.158 125.11 105.214C125.239 105.27 125.354 105.352 125.448 105.456C125.542 105.56 125.613 105.683 125.657 105.816C125.7 105.95 125.714 106.091 125.698 106.23C125.666 106.528 125.527 106.804 125.306 107.006C125.085 107.208 124.798 107.323 124.499 107.329Z" fill="white"/>
<path opacity="0.5" d="M119.503 113.271H105.792C105.651 113.273 105.512 113.245 105.384 113.189C105.255 113.134 105.14 113.051 105.045 112.947C104.951 112.843 104.88 112.72 104.837 112.587C104.794 112.453 104.78 112.312 104.795 112.173C104.827 111.875 104.967 111.6 105.187 111.398C105.408 111.196 105.694 111.081 105.993 111.074H119.705C119.845 111.072 119.984 111.1 120.113 111.156C120.242 111.212 120.357 111.295 120.451 111.399C120.545 111.503 120.616 111.625 120.66 111.759C120.703 111.892 120.717 112.033 120.702 112.173C120.669 112.47 120.53 112.746 120.309 112.948C120.089 113.15 119.802 113.265 119.503 113.271Z" fill="white"/>
<path opacity="0.5" d="M109.902 119.213H105.249C105.108 119.215 104.969 119.187 104.841 119.131C104.712 119.075 104.597 118.992 104.503 118.888C104.408 118.784 104.337 118.662 104.294 118.528C104.251 118.395 104.237 118.254 104.252 118.114C104.284 117.817 104.424 117.541 104.644 117.339C104.865 117.137 105.151 117.022 105.45 117.016H110.106C110.246 117.014 110.385 117.042 110.514 117.098C110.643 117.154 110.758 117.236 110.852 117.34C110.946 117.444 111.017 117.567 111.061 117.7C111.104 117.834 111.118 117.975 111.102 118.114C111.07 118.412 110.93 118.688 110.709 118.89C110.488 119.092 110.201 119.207 109.902 119.213Z" fill="white"/>
<path opacity="0.5" d="M122.876 125.156H104.711C104.571 125.158 104.432 125.13 104.304 125.074C104.175 125.018 104.06 124.936 103.965 124.832C103.871 124.728 103.8 124.605 103.757 124.472C103.714 124.338 103.7 124.197 103.715 124.058C103.747 123.76 103.887 123.485 104.107 123.283C104.328 123.081 104.614 122.965 104.913 122.959H123.078C123.218 122.957 123.357 122.985 123.486 123.041C123.614 123.097 123.73 123.18 123.824 123.284C123.918 123.387 123.989 123.51 124.032 123.644C124.075 123.777 124.09 123.918 124.074 124.058C124.042 124.355 123.902 124.63 123.682 124.833C123.462 125.035 123.175 125.15 122.876 125.156Z" fill="white"/>
<path opacity="0.5" d="M115.185 131.097H104.174C104.034 131.099 103.895 131.071 103.766 131.015C103.638 130.959 103.523 130.876 103.428 130.772C103.334 130.668 103.263 130.545 103.22 130.412C103.177 130.279 103.162 130.137 103.178 129.998C103.21 129.701 103.349 129.425 103.57 129.223C103.79 129.021 104.077 128.906 104.376 128.9H115.385C115.525 128.898 115.665 128.926 115.793 128.981C115.922 129.037 116.037 129.12 116.131 129.224C116.226 129.328 116.297 129.451 116.34 129.584C116.383 129.718 116.397 129.859 116.382 129.998C116.349 130.295 116.21 130.571 115.99 130.773C115.77 130.975 115.484 131.09 115.185 131.097Z" fill="white"/>
<path opacity="0.5" d="M121.796 137.038H103.631C103.491 137.04 103.352 137.012 103.223 136.957C103.095 136.901 102.98 136.818 102.885 136.714C102.791 136.61 102.72 136.487 102.677 136.354C102.634 136.22 102.619 136.079 102.635 135.94C102.667 135.643 102.807 135.367 103.027 135.165C103.248 134.963 103.534 134.848 103.833 134.841H121.995C122.135 134.839 122.274 134.867 122.403 134.923C122.532 134.979 122.647 135.062 122.741 135.166C122.835 135.27 122.907 135.392 122.95 135.526C122.993 135.659 123.007 135.801 122.992 135.94C122.959 136.237 122.82 136.512 122.6 136.714C122.38 136.916 122.094 137.031 121.796 137.038Z" fill="white"/>
</g>
<path d="M156.315 89.3004L152.372 85.874L150.523 92.1813C150.523 92.1813 154.529 94.3534 155.916 92.3594L156.315 89.3004Z" fill="#FFC3BD"/>
<path d="M148.076 85.6279L146.793 90.9139L150.52 92.1843L152.368 85.8758L148.076 85.6279Z" fill="#FFC3BD"/>
</svg>
