<svg width="24" height="24" viewBox="0 0 24 24" fill="none" xmlns="http://www.w3.org/2000/svg">
<g clip-path="url(#clip0_884_10553)">
<path fill-rule="evenodd" clip-rule="evenodd" d="M15.3334 10.9888C14.3467 11.6481 13.1867 12 12 12C10.4092 11.9984 8.88399 11.3658 7.75911 10.2409C6.63424 9.11602 6.00159 7.59081 6 6C6 4.81331 6.35189 3.65328 7.01118 2.66658C7.67047 1.67989 8.60754 0.910851 9.7039 0.456726C10.8003 0.00259972 12.0067 -0.11622 13.1705 0.115291C14.3344 0.346802 15.4035 0.918247 16.2426 1.75736C17.0818 2.59648 17.6532 3.66558 17.8847 4.82946C18.1162 5.99335 17.9974 7.19975 17.5433 8.2961C17.0892 9.39246 16.3201 10.3295 15.3334 10.9888ZM14.2223 2.67412C13.5645 2.2346 12.7911 2 12 2C10.9391 2 9.92172 2.42143 9.17157 3.17158C8.42143 3.92172 8 4.93914 8 6C8 6.79113 8.2346 7.56449 8.67412 8.22228C9.11365 8.88008 9.73836 9.39277 10.4693 9.69552C11.2002 9.99827 12.0044 10.0775 12.7804 9.92314C13.5563 9.7688 14.269 9.38784 14.8284 8.82843C15.3878 8.26902 15.7688 7.55629 15.9231 6.78036C16.0775 6.00444 15.9983 5.20017 15.6955 4.46927C15.3928 3.73836 14.8801 3.11365 14.2223 2.67412ZM5.63896 16.639C7.32622 14.9517 9.61386 14.0026 12 14C14.3861 14.0026 16.6738 14.9517 18.361 16.639C20.0483 18.3262 20.9974 20.6139 21 23C21 23.2652 20.8946 23.5196 20.7071 23.7071C20.5196 23.8946 20.2652 24 20 24C19.7348 24 19.4804 23.8946 19.2929 23.7071C19.1054 23.5196 19 23.2652 19 23C19 21.1435 18.2625 19.363 16.9497 18.0503C15.637 16.7375 13.8565 16 12 16C10.1435 16 8.36301 16.7375 7.05025 18.0503C5.7375 19.363 5 21.1435 5 23C5 23.2652 4.89464 23.5196 4.70711 23.7071C4.51957 23.8946 4.26522 24 4 24C3.73478 24 3.48043 23.8946 3.29289 23.7071C3.10536 23.5196 3 23.2652 3 23C3.00265 20.6139 3.95171 18.3262 5.63896 16.639Z" fill="#5A6367"/>
</g>
<defs>
<clipPath id="clip0_884_10553">
<rect width="24" height="24" fill="white"/>
</clipPath>
</defs>
</svg>
