<svg width="24" height="24" viewBox="0 0 24 24" fill="none" xmlns="http://www.w3.org/2000/svg">
<path opacity="0.1" d="M0.470503 7.93391C1.33916 4.23068 4.23068 1.33916 7.93391 0.470502C10.6083 -0.156834 13.3917 -0.156834 16.0661 0.470502C19.7693 1.33916 22.6608 4.23068 23.5295 7.93391C24.1568 10.6083 24.1568 13.3917 23.5295 16.0661C22.6608 19.7693 19.7693 22.6608 16.0661 23.5295C13.3917 24.1568 10.6083 24.1568 7.93391 23.5295C4.23068 22.6608 1.33917 19.7693 0.470504 16.0661C-0.156835 13.3917 -0.156834 10.6083 0.470503 7.93391Z" fill="#30E0A1"/>
<g clip-path="url(#clip0_347_7901)">
<path d="M11.9999 6.94727C11.0006 6.94727 10.0237 7.2436 9.19281 7.79879C8.36191 8.35398 7.7143 9.14309 7.33188 10.0663C6.94945 10.9896 6.8494 12.0055 7.04435 12.9856C7.23931 13.9657 7.72053 14.866 8.42715 15.5726C9.13377 16.2793 10.0341 16.7605 11.0142 16.9554C11.9943 17.1504 13.0102 17.0503 13.9335 16.6679C14.8567 16.2855 15.6458 15.6379 16.201 14.807C16.7562 13.9761 17.0525 12.9992 17.0525 11.9999C17.0511 10.6603 16.5183 9.37599 15.571 8.42875C14.6238 7.48151 13.3395 6.94871 11.9999 6.94727V6.94727ZM11.9999 16.2104C11.1671 16.2104 10.3531 15.9635 9.66066 15.5008C8.96824 15.0382 8.42857 14.3806 8.10988 13.6112C7.7912 12.8418 7.70781 11.9952 7.87028 11.1785C8.03274 10.3617 8.43375 9.61146 9.02261 9.02261C9.61146 8.43375 10.3617 8.03274 11.1785 7.87028C11.9952 7.70781 12.8418 7.79119 13.6112 8.10988C14.3806 8.42856 15.0382 8.96824 15.5008 9.66065C15.9635 10.3531 16.2104 11.1671 16.2104 11.9999C16.2092 13.1162 15.7652 14.1865 14.9758 14.9758C14.1865 15.7652 13.1162 16.2092 11.9999 16.2104ZM14.1052 11.9999C14.1052 12.1116 14.0608 12.2187 13.9818 12.2976C13.9029 12.3766 13.7958 12.4209 13.6841 12.4209H12.421V13.6841C12.421 13.7958 12.3766 13.9029 12.2976 13.9818C12.2187 14.0608 12.1116 14.1052 11.9999 14.1052C11.8882 14.1052 11.7811 14.0608 11.7022 13.9818C11.6232 13.9029 11.5788 13.7958 11.5788 13.6841V12.4209H10.3157C10.204 12.4209 10.0969 12.3766 10.018 12.2976C9.939 12.2187 9.89464 12.1116 9.89464 11.9999C9.89464 11.8882 9.939 11.7811 10.018 11.7022C10.0969 11.6232 10.204 11.5788 10.3157 11.5788H11.5788V10.3157C11.5788 10.204 11.6232 10.0969 11.7022 10.018C11.7811 9.93899 11.8882 9.89463 11.9999 9.89463C12.1116 9.89463 12.2187 9.93899 12.2976 10.018C12.3766 10.0969 12.421 10.204 12.421 10.3157V11.5788H13.6841C13.7958 11.5788 13.9029 11.6232 13.9818 11.7022C14.0608 11.7811 14.1052 11.8882 14.1052 11.9999Z" fill="#30E0A1"/>
</g>
<defs>
<clipPath id="clip0_347_7901">
<rect width="10.1053" height="10.1053" fill="white" transform="translate(6.94727 6.94727)"/>
</clipPath>
</defs>
</svg>
