<svg width="24" height="24" viewBox="0 0 24 24" fill="none" xmlns="http://www.w3.org/2000/svg">
<path opacity="0.1" d="M0.470503 7.93391C1.33916 4.23068 4.23068 1.33916 7.93391 0.470502C10.6083 -0.156834 13.3917 -0.156834 16.0661 0.470502C19.7693 1.33916 22.6608 4.23068 23.5295 7.93391C24.1568 10.6083 24.1568 13.3917 23.5295 16.0661C22.6608 19.7693 19.7693 22.6608 16.0661 23.5295C13.3917 24.1568 10.6083 24.1568 7.93391 23.5295C4.23068 22.6608 1.33917 19.7693 0.470504 16.0661C-0.156835 13.3917 -0.156834 10.6083 0.470503 7.93391Z" fill="#638FFE"/>
<path d="M9.89713 13.4668C8.19187 13.32 7.49555 12.4436 7.49555 10.5252V10.4636C7.49555 8.34627 8.34345 7.49838 10.4608 7.49838L13.5445 7.49838C15.6619 7.49838 16.5098 8.34627 16.5098 10.4636V10.5252C16.5098 12.4294 15.8229 13.3057 14.1461 13.4621" stroke="#638FFE" stroke-linecap="round" stroke-linejoin="round"/>
<path d="M12 10.5763L12 15.9668" stroke="#638FFE" stroke-linecap="round" stroke-linejoin="round"/>
<path d="M10.4123 14.9107L11.9991 16.4976L13.5859 14.9107" stroke="#638FFE" stroke-linecap="round" stroke-linejoin="round"/>
</svg>
