<svg width="24" height="24" viewBox="0 0 24 24" fill="none" xmlns="http://www.w3.org/2000/svg">
<path opacity="0.1" d="M0.470503 7.93391C1.33916 4.23068 4.23068 1.33916 7.93391 0.470502C10.6083 -0.156834 13.3917 -0.156834 16.0661 0.470502C19.7693 1.33916 22.6608 4.23068 23.5295 7.93391C24.1568 10.6083 24.1568 13.3917 23.5295 16.0661C22.6608 19.7693 19.7693 22.6608 16.0661 23.5295C13.3917 24.1568 10.6083 24.1568 7.93391 23.5295C4.23068 22.6608 1.33917 19.7693 0.470504 16.0661C-0.156835 13.3917 -0.156834 10.6083 0.470503 7.93391Z" fill="#CD184F"/>
<path d="M14.1029 10.5332C15.8081 10.68 16.5044 11.5564 16.5044 13.4748V13.5364C16.5044 15.6537 15.6566 16.5016 13.5392 16.5016H10.4555C8.33813 16.5016 7.49023 15.6537 7.49023 13.5364V13.4748C7.49023 11.5706 8.17708 10.6943 9.85392 10.5379" stroke="#CD184F" stroke-linecap="round" stroke-linejoin="round"/>
<path d="M12 13.4242V8.03369" stroke="#CD184F" stroke-linecap="round" stroke-linejoin="round"/>
<path d="M13.5877 9.08928L12.0009 7.50244L10.4141 9.08928" stroke="#CD184F" stroke-linecap="round" stroke-linejoin="round"/>
</svg>
