<svg width="16" height="16" viewBox="0 0 16 16" fill="none" xmlns="http://www.w3.org/2000/svg">
<path d="M5.20086 14.2833C4.97797 14.2834 4.75724 14.2395 4.55132 14.1541C4.34541 14.0688 4.15835 13.9437 4.00086 13.7859L0.372865 10.1593C0.185394 9.97173 0.0800781 9.71742 0.0800781 9.45226C0.0800781 9.18709 0.185394 8.93279 0.372865 8.74526C0.560392 8.55779 0.8147 8.45247 1.07986 8.45247C1.34503 8.45247 1.59934 8.55779 1.78686 8.74526L5.20086 12.1593L14.2329 3.12726C14.4204 2.93979 14.6747 2.83447 14.9399 2.83447C15.205 2.83447 15.4593 2.93979 15.6469 3.12726C15.8343 3.31479 15.9397 3.5691 15.9397 3.83426C15.9397 4.09942 15.8343 4.35373 15.6469 4.54126L6.40087 13.7859C6.24338 13.9437 6.05632 14.0688 5.85041 14.1541C5.64449 14.2395 5.42376 14.2834 5.20086 14.2833Z" fill="#C7C8CD"/>
<g clip-path="url(#clip0_1_3119)">
<path d="M7.9997 0.0280762C6.23566 0.0300169 4.54442 0.731593 3.29699 1.9789C2.04957 3.2262 1.34782 4.91737 1.3457 6.68141C1.3457 8.39474 2.67237 11.0761 5.28904 14.6507C5.60054 15.0775 6.00841 15.4247 6.47944 15.664C6.95047 15.9034 7.47135 16.0281 7.9997 16.0281C8.52805 16.0281 9.04894 15.9034 9.51997 15.664C9.991 15.4247 10.3989 15.0775 10.7104 14.6507C13.327 11.0761 14.6537 8.39474 14.6537 6.68141C14.6516 4.91737 13.9498 3.2262 12.7024 1.9789C11.455 0.731593 9.76374 0.0300169 7.9997 0.0280762ZM7.9997 9.33341C7.47229 9.33341 6.95671 9.17701 6.51818 8.88399C6.07965 8.59098 5.73786 8.1745 5.53602 7.68723C5.33419 7.19996 5.28138 6.66378 5.38428 6.1465C5.48717 5.62922 5.74115 5.15406 6.11409 4.78112C6.48703 4.40818 6.96218 4.15421 7.47946 4.05132C7.99675 3.94842 8.53292 4.00123 9.02019 4.20306C9.50746 4.4049 9.92394 4.74669 10.217 5.18522C10.51 5.62375 10.6664 6.13933 10.6664 6.66674C10.6664 7.37399 10.3854 8.05226 9.88532 8.55236C9.38522 9.05246 8.70695 9.33341 7.9997 9.33341Z" fill="#C7C8CD"/>
</g>
<defs>
<clipPath id="clip0_1_3119">
<rect width="16" height="16" fill="white"/>
</clipPath>
</defs>
</svg>
