<svg width="18" height="18" viewBox="0 0 18 18" fill="none" xmlns="http://www.w3.org/2000/svg">
<path d="M17.9757 10.4746C17.6936 9.69631 17.4115 8.91801 17.1293 8.13971C16.9717 7.70191 16.676 7.31082 16.2402 7.12015C15.9814 7.0073 15.7167 6.96255 15.4366 6.96255H13.0277V6.83996C13.0277 6.52281 13.0375 6.20566 13.0316 5.8885C13.0336 5.87099 13.0336 5.85348 13.0336 5.83402C13.0258 5.40205 12.7806 4.98179 12.3798 4.80084C12.2008 4.71911 12.014 4.68604 11.8194 4.68604H7.8598C7.88704 4.78332 7.91234 4.89034 7.9318 4.99541C7.93958 5.03043 7.94542 5.0674 7.95125 5.10242C7.95709 5.13161 7.96098 5.16079 7.96487 5.18998C7.96487 5.19582 7.96682 5.19971 7.96682 5.20555C7.98238 5.30867 7.99795 5.4118 8.00574 5.51687C8.01352 5.62193 8.02714 5.72895 8.02714 5.83402V5.83986C8.02714 5.93909 8.01741 6.03832 8.00963 6.13561C8.01546 6.05389 8.01352 5.97412 8.01352 5.8924C8.01352 5.97412 8.00963 6.05389 8.00379 6.13561C7.98044 6.49753 7.91429 6.85553 7.79949 7.20381C7.78003 7.26218 7.76057 7.31861 7.73917 7.37698C7.73139 7.39644 7.7236 7.4159 7.71777 7.43341C7.70804 7.4587 7.69831 7.48205 7.68858 7.50734C7.68274 7.52291 7.67496 7.53848 7.66912 7.55404C7.66912 7.55599 7.66718 7.55599 7.66718 7.55793C7.65939 7.5735 7.65356 7.58907 7.64577 7.60658C7.63215 7.63966 7.61659 7.67273 7.60102 7.70581C7.59518 7.71943 7.58935 7.73111 7.58351 7.74473C7.58156 7.75057 7.57962 7.75446 7.57573 7.7603C7.56794 7.77392 7.56211 7.78948 7.55432 7.8031C7.55238 7.80699 7.55043 7.81088 7.54849 7.81477C7.54265 7.82839 7.53487 7.84202 7.52708 7.85563C7.51541 7.87704 7.50373 7.90039 7.49206 7.92179C7.48428 7.93541 7.47649 7.95098 7.46871 7.9646C7.46093 7.98016 7.4512 7.99573 7.44342 8.00935C7.43563 8.02297 7.42785 8.03659 7.42007 8.05021C6.9998 8.77595 6.38104 9.38109 5.63 9.76634C5.50547 9.83055 5.379 9.88697 5.25058 9.93951C5.18054 9.9687 5.11049 9.99594 5.0385 10.0212C4.18431 10.3228 3.21922 10.3423 2.35144 10.0874C2.33393 10.0816 2.31642 10.0777 2.29891 10.0718C2.17438 10.0329 2.05764 9.9901 1.93895 9.94146C1.79691 9.88309 1.6646 9.81888 1.5284 9.74494V13.0955C1.5284 13.187 1.51867 13.2784 1.52646 13.3679C1.5751 13.868 1.93313 14.3116 2.44291 14.3991C2.68418 14.44 2.93518 14.4167 3.1784 14.4167H3.23483C3.27958 14.6307 3.35546 14.8136 3.45664 14.9809C3.6376 15.2806 3.91195 15.5471 4.23106 15.695C4.62023 15.8759 5.02299 15.9187 5.44521 15.8409C6.1632 15.7067 6.70215 15.1171 6.86169 14.4166H13.2788C13.3235 14.6307 13.3994 14.8136 13.5006 14.9809C13.6815 15.2805 13.9559 15.5471 14.275 15.695C14.6642 15.8759 15.0669 15.9246 15.4892 15.8467C16.2091 15.7125 16.75 15.1152 16.9076 14.4225C17.0963 14.4069 17.2792 14.3641 17.4446 14.259C17.717 14.0858 17.9213 13.8018 17.968 13.4788C17.9836 13.3737 17.9875 13.2784 17.9875 13.1752V10.6594C18.0089 10.5991 17.9992 10.5368 17.9758 10.4745L17.9757 10.4746ZM5.67278 14.082C5.67278 14.08 5.67083 14.08 5.67083 14.0781C5.66889 14.082 5.66889 14.0859 5.66889 14.0898C5.66694 14.0976 5.66694 14.1034 5.66499 14.1112C5.65916 14.1384 5.65332 14.1657 5.65332 14.1929V14.1948H5.65527V14.1987C5.65527 14.2007 5.65527 14.2007 5.65332 14.2026C5.64943 14.2221 5.63386 14.2435 5.62413 14.2629C5.61441 14.2863 5.60468 14.3096 5.59495 14.333C5.60273 14.3116 5.61051 14.2921 5.6183 14.2707C5.59884 14.3116 5.57549 14.3505 5.55019 14.3894C5.54825 14.3933 5.5463 14.3953 5.54436 14.3991C5.5249 14.4206 5.50739 14.4439 5.48599 14.4634C5.46653 14.4828 5.44513 14.5023 5.42372 14.5198C5.38092 14.547 5.33811 14.5723 5.29336 14.5957C5.31476 14.5879 5.33616 14.5801 5.35562 14.5723C5.30892 14.5918 5.26222 14.6112 5.21747 14.6307C5.21942 14.6307 5.22331 14.6307 5.22526 14.6287C5.22136 14.6287 5.21942 14.6287 5.21553 14.6307C5.21164 14.6326 5.20969 14.6326 5.2058 14.6346C5.20774 14.6326 5.21163 14.6326 5.21553 14.6307C5.16299 14.6385 5.1124 14.6443 5.05987 14.6521C5.08516 14.6482 5.1124 14.6443 5.1377 14.6385C5.08127 14.6424 5.02484 14.6424 4.97036 14.6385C4.99566 14.6443 5.02095 14.6482 5.04819 14.6521C4.99566 14.6443 4.94507 14.6385 4.89253 14.6307C4.89448 14.6326 4.89837 14.6326 4.90226 14.6346C4.89837 14.6326 4.89643 14.6326 4.89253 14.6307C4.88864 14.6307 4.8867 14.6307 4.88281 14.6287C4.88475 14.6287 4.88864 14.6287 4.89059 14.6307C4.84389 14.6112 4.79719 14.5918 4.75244 14.5723C4.77384 14.5801 4.7933 14.5879 4.8147 14.5957C4.77385 14.5762 4.73493 14.5529 4.69602 14.5276C4.69212 14.5256 4.69018 14.5237 4.68629 14.5217C4.66488 14.5023 4.64154 14.4848 4.62208 14.4634C4.60262 14.4439 4.58316 14.4225 4.56565 14.403C4.5676 14.4069 4.57343 14.4147 4.57927 14.4225C4.55203 14.3894 4.50728 14.3388 4.55009 14.3836C4.55592 14.3894 4.55981 14.3953 4.56565 14.4011C4.53841 14.3583 4.51312 14.3155 4.48977 14.2707C4.49755 14.2921 4.50533 14.3116 4.51312 14.333C4.49366 14.2863 4.4742 14.2396 4.45475 14.1948C4.45475 14.1968 4.45475 14.2007 4.45669 14.2026C4.45669 14.1987 4.45669 14.1968 4.45475 14.1929C4.4528 14.189 4.4528 14.1871 4.45085 14.1832C4.4528 14.1851 4.4528 14.189 4.45475 14.1929C4.44696 14.1404 4.44113 14.0898 4.43334 14.0372C4.43723 14.0625 4.44113 14.0898 4.44696 14.1151C4.44502 14.0723 4.44307 14.0295 4.44502 13.9866C4.44502 13.975 4.44502 13.9613 4.44696 13.9497C4.44502 13.9555 4.44502 13.9594 4.44307 13.9652C4.43918 13.9886 4.43529 14.01 4.4314 14.0333C4.43918 13.9789 4.44696 13.9224 4.45475 13.868C4.4528 13.8874 4.45085 13.9069 4.45085 13.9283V13.9263C4.47031 13.8816 4.4742 13.8368 4.48977 13.7921V13.7901C4.48004 13.8096 4.47031 13.831 4.46058 13.8524C4.45864 13.8543 4.45864 13.8563 4.45864 13.8582C4.48004 13.8076 4.50144 13.759 4.5209 13.7084C4.50923 13.7356 4.4995 13.7629 4.48977 13.7901C4.51117 13.7473 4.53452 13.7045 4.56176 13.6656C4.56176 13.6656 4.56371 13.6637 4.56371 13.6617C4.58511 13.6384 4.60457 13.615 4.62792 13.5936C4.64737 13.5761 4.66683 13.5586 4.68629 13.5411C4.68824 13.5391 4.69018 13.5391 4.69213 13.5372C4.73104 13.5119 4.7719 13.4885 4.81276 13.4671C4.79136 13.4749 4.76996 13.4788 4.74855 13.4866C4.79525 13.4671 4.84195 13.4418 4.88864 13.4224H4.89643C4.93923 13.4224 4.9801 13.4224 5.0229 13.4029C5.03068 13.4029 5.03847 13.4049 5.04625 13.4049C5.04236 13.4049 5.04041 13.4088 5.03652 13.4088L5.03458 13.4107C5.03068 13.4107 5.02485 13.4127 5.02096 13.4146C5.01123 13.4165 5.00344 13.4224 4.99372 13.4243C4.98593 13.4263 4.9801 13.4302 4.97231 13.4321C5.02679 13.4321 5.08127 13.4263 5.13576 13.4282C5.11046 13.4224 5.08517 13.4165 5.05987 13.4127C5.07349 13.4146 5.08906 13.4165 5.10268 13.4185C5.13965 13.4243 5.17856 13.4243 5.21553 13.4282V13.4243V13.4282C5.26223 13.4477 5.30893 13.4691 5.35563 13.4885C5.33422 13.4808 5.31282 13.473 5.29142 13.4652C5.32839 13.4846 5.36535 13.506 5.40038 13.5274C5.414 13.5352 5.42567 13.545 5.43929 13.5547C5.45681 13.5722 5.47237 13.5897 5.47626 13.5917C5.49767 13.6131 5.51712 13.6345 5.53658 13.6578C5.56577 13.7026 5.59106 13.7473 5.61441 13.794C5.60468 13.7648 5.59495 13.7376 5.58328 13.7103C5.60468 13.7609 5.62609 13.8096 5.64554 13.8602C5.63582 13.8388 5.62609 13.8174 5.61441 13.796C5.62609 13.829 5.6436 13.8621 5.64749 13.8971V13.8855V13.8757V13.868C5.65138 13.903 5.65916 13.938 5.66306 13.973C5.665 13.9789 5.665 13.9828 5.66695 13.9886C5.66695 13.9866 5.66889 13.9828 5.66889 13.9808L5.67278 13.9828V14.0003V14.0061V14.0042L5.67084 14.0061V14.008V14.01C5.66889 14.0178 5.66889 14.0256 5.66889 14.0314C5.66889 14.0431 5.66889 14.0547 5.67084 14.0645V14.0684V14.0742V14.0761C5.67278 14.0723 5.67278 14.0664 5.67278 14.0625V14.082L5.67278 14.082ZM15.7108 14.0839C15.7127 14.0684 15.7166 14.0547 15.7185 14.0392C15.7166 14.0567 15.7147 14.0742 15.7108 14.0917C15.7069 14.1267 15.701 14.1618 15.6971 14.1948C15.6991 14.1929 15.6991 14.189 15.701 14.1851C15.6991 14.189 15.6991 14.191 15.6971 14.1948C15.6971 14.1987 15.6971 14.2007 15.6952 14.2046C15.6952 14.2026 15.6952 14.1987 15.6971 14.1968C15.6777 14.2435 15.6582 14.2902 15.6388 14.3349C15.6466 14.3135 15.6543 14.2941 15.6621 14.2727C15.6427 14.3135 15.6193 14.3524 15.594 14.3914C15.5921 14.3933 15.5901 14.3972 15.5882 14.3991C15.5687 14.4205 15.5493 14.4439 15.5298 14.4653C15.5104 14.4848 15.489 14.5042 15.4695 14.5217C15.4734 14.5198 15.4812 14.5139 15.489 14.5081C15.4559 14.5353 15.4053 14.5801 15.45 14.5373C15.4559 14.5315 15.4617 14.5276 15.4675 14.5217C15.4247 14.549 15.3819 14.5743 15.3372 14.5976C15.3586 14.5898 15.378 14.582 15.3994 14.5743C15.3527 14.5937 15.306 14.6132 15.2613 14.6326C15.2632 14.6326 15.2671 14.6326 15.2691 14.6307C15.2652 14.6307 15.2632 14.6307 15.2594 14.6326C15.2555 14.6346 15.2535 14.6346 15.2496 14.6365C15.2516 14.6346 15.2555 14.6346 15.2594 14.6326C15.2068 14.6404 15.1562 14.6463 15.1037 14.654C15.129 14.6501 15.1562 14.6463 15.1815 14.6404C15.1251 14.6443 15.0687 14.6443 15.0142 14.6404C15.0395 14.6463 15.0648 14.6501 15.092 14.654C15.0395 14.6463 14.9889 14.6404 14.9364 14.6326C14.9383 14.6346 14.9422 14.6346 14.9461 14.6365C14.9422 14.6346 14.9403 14.6346 14.9364 14.6326C14.9325 14.6326 14.9305 14.6326 14.9266 14.6307C14.9286 14.6307 14.9325 14.6307 14.9344 14.6326C14.8877 14.6132 14.841 14.5937 14.7963 14.5743C14.8177 14.582 14.8371 14.5898 14.8585 14.5976C14.8177 14.5762 14.7788 14.5548 14.7398 14.5295C14.7359 14.5276 14.734 14.5256 14.7301 14.5237C14.7087 14.5042 14.6854 14.4867 14.6659 14.4653C14.6464 14.4458 14.6289 14.4244 14.6095 14.405C14.6114 14.4089 14.6173 14.4167 14.6212 14.4244C14.5939 14.3914 14.5492 14.3408 14.592 14.3855C14.5978 14.3914 14.6036 14.3972 14.6095 14.405V14.403C14.5822 14.3622 14.5569 14.3174 14.5336 14.2727C14.5414 14.2941 14.5472 14.3135 14.5569 14.3349C14.5375 14.2882 14.518 14.2415 14.4986 14.1968C14.4986 14.1987 14.4986 14.2026 14.5005 14.2046C14.5005 14.2007 14.5005 14.1987 14.4986 14.1948C14.4966 14.1909 14.4966 14.189 14.4947 14.1851C14.4966 14.1871 14.4966 14.1909 14.4986 14.1948C14.4908 14.1423 14.485 14.0917 14.4772 14.0392C14.4811 14.0645 14.485 14.0898 14.4908 14.117C14.4869 14.0625 14.4869 14.0061 14.4908 13.9516C14.5025 13.8971 14.5161 13.8446 14.5336 13.794C14.555 13.7512 14.5783 13.7084 14.6056 13.6695C14.6056 13.6695 14.6075 13.6675 14.6075 13.6656C14.6289 13.6422 14.6484 13.6189 14.6717 13.5975C14.6912 13.58 14.7107 13.5625 14.7301 13.545C14.7321 13.543 14.734 13.543 14.7359 13.5411C14.7749 13.5158 14.8157 13.4924 14.8566 13.471C14.8352 13.4788 14.8138 13.4866 14.7924 13.4944C14.8391 13.4749 14.8858 13.4555 14.9325 13.434C14.9286 13.434 14.9266 13.434 14.9227 13.436C14.9266 13.436 14.9286 13.436 14.9325 13.434C14.985 13.4263 15.0356 13.4204 15.0881 13.4126C15.0628 13.4165 15.0375 13.4204 15.0122 13.4263C15.0667 13.4224 15.1212 13.4224 15.1776 13.4263C15.1523 13.4204 15.127 13.4165 15.1017 13.4126C15.1543 13.4204 15.2049 13.4263 15.2574 13.434C15.2613 13.434 15.2632 13.434 15.2671 13.436C15.2632 13.436 15.2613 13.436 15.2574 13.434C15.3041 13.4535 15.3508 13.473 15.3975 13.4944C15.3761 13.4866 15.3547 13.4788 15.3333 13.471C15.3703 13.4905 15.4072 13.5099 15.4423 13.5333C15.4559 13.5411 15.4675 13.5508 15.4812 13.5586C15.4987 13.5761 15.5162 13.5936 15.5181 13.5955C15.5395 13.617 15.559 13.6384 15.5785 13.6617C15.6057 13.7065 15.6329 13.7512 15.6563 13.7979C15.6738 13.8485 15.6874 13.901 15.6991 13.9536C15.6971 13.9263 15.6952 13.8991 15.6913 13.8718C15.6952 13.9069 15.701 13.9419 15.7049 13.9769C15.7069 13.9964 15.7108 14.0178 15.7127 14.0372C15.7108 14.0197 15.7069 14.0022 15.7049 13.9847C15.703 14.0022 15.703 14.0178 15.703 14.0353C15.7088 14.0489 15.7088 14.0664 15.7108 14.0839V14.0839ZM16.7089 10.2684C16.6914 10.3443 16.635 10.4085 16.5397 10.4182L16.5377 10.4124C16.5222 10.4143 16.5066 10.426 16.491 10.4066H13.9421C13.8292 10.4066 13.7281 10.3248 13.7281 10.212V8.29543C13.7281 8.18258 13.8312 8.09113 13.9421 8.09113H14.7496C15.0083 8.09113 15.2671 8.08529 15.524 8.08918C15.7458 8.09307 15.9442 8.18452 16.0629 8.37521C16.1174 8.46276 16.1427 8.57173 16.1777 8.66901C16.347 9.1457 16.5182 9.62439 16.6875 10.103C16.6992 10.1225 16.705 10.1458 16.7109 10.1672C16.7206 10.2023 16.7186 10.2354 16.7089 10.2684L16.7089 10.2684Z" fill="#4EC89E"/>
<path d="M7.18731 5.7793V5.76958C7.18731 5.76374 7.18536 5.75595 7.18536 5.75012V5.74039C7.18536 5.72482 7.18536 5.70731 7.18342 5.69175V5.68202C7.18342 5.6684 7.18147 5.65672 7.18147 5.6431C7.18147 5.62753 7.17953 5.61002 7.17953 5.59446C7.17758 5.575 7.17758 5.55554 7.17563 5.53608C7.17369 5.5069 7.17174 5.47771 7.16785 5.44853C7.1659 5.43102 7.16396 5.41545 7.16201 5.39988C7.16007 5.39015 7.16007 5.38237 7.15812 5.37264V5.36486V5.35902V5.36097C7.15812 5.36291 7.15812 5.36486 7.16007 5.36486C7.16396 5.38237 7.15228 5.28703 7.15812 5.3454C7.15812 5.34346 7.15812 5.33957 7.15618 5.33762C7.15618 5.34151 7.15812 5.34735 7.15812 5.35124V5.34929V5.34735C7.15618 5.33373 7.15228 5.32011 7.15034 5.30649C7.14645 5.27925 7.14256 5.25395 7.13672 5.22671C7.13672 5.22282 7.13477 5.21893 7.13477 5.21504C7.13283 5.20336 7.13088 5.19364 7.12894 5.18196C7.08808 4.96988 7.0297 4.7617 6.95576 4.55932C6.94409 4.52819 6.93242 4.499 6.92074 4.46787C6.91685 4.46009 6.91296 4.44647 6.90907 4.4348C6.91101 4.44063 6.9149 4.44842 6.91685 4.45425C6.90907 4.4309 6.90518 4.42118 6.90323 4.41923C6.90323 4.42118 6.90518 4.42701 6.90907 4.4348C6.8935 4.39783 6.87599 4.3628 6.85848 4.32778C6.81372 4.23438 6.76703 4.14293 6.71449 4.05538C6.66001 3.96198 6.60358 3.87053 6.54132 3.78103C6.51408 3.74211 6.48489 3.70125 6.45571 3.66234C6.45182 3.65845 6.44793 3.65067 6.44209 3.64483C6.44598 3.64872 6.44793 3.65261 6.45182 3.65845C6.4382 3.63705 6.43041 3.62732 6.42847 3.62343C6.43041 3.62732 6.43625 3.6351 6.44014 3.64288C6.43041 3.63121 6.42068 3.61953 6.41096 3.60786C6.27864 3.44442 6.13466 3.29265 5.97707 3.15255C5.93231 3.11363 5.88756 3.07472 5.84281 3.03775C5.83114 3.02802 5.81946 3.01829 5.80779 3.00856H5.80584V3.00273L5.8039 2.99689C5.79417 2.97743 5.77276 2.97743 5.76498 2.9716C5.67158 2.90349 5.57624 2.83928 5.47895 2.78091C5.38167 2.72059 5.28244 2.66806 5.18125 2.61747C5.13456 2.59412 5.08981 2.57272 5.04311 2.55131C5.02365 2.54353 5.00419 2.5338 4.98474 2.52602C4.99057 2.52796 4.99641 2.52991 4.99836 2.53185C4.99057 2.52991 4.97695 2.52407 4.96917 2.52018C4.97306 2.52213 4.9789 2.52407 4.98279 2.52602C4.9789 2.52407 4.97501 2.52213 4.96917 2.52018C4.75709 2.43846 4.54304 2.37036 4.32124 2.32366C4.25897 2.31004 4.19476 2.29837 4.13055 2.28864C4.12082 2.28669 4.11109 2.28475 4.09942 2.28475H4.09747H4.09553C4.09358 2.28475 4.09164 2.28475 4.08775 2.2828C4.0858 2.2828 4.08385 2.2828 4.08191 2.28085H4.0858C4.07218 2.27891 4.05467 2.27696 4.04494 2.27502C3.93209 2.2614 3.81729 2.25361 3.70444 2.25167C3.51375 2.24583 3.32306 2.25556 3.13435 2.27696C3.11489 2.27891 3.09738 2.28085 3.07792 2.28475C3.07014 2.28669 3.06625 2.28669 3.06236 2.28864C3.01955 2.29642 2.97869 2.30226 2.93783 2.31199C2.85027 2.3295 2.76466 2.34896 2.6771 2.3723C2.5876 2.39565 2.49809 2.42289 2.41053 2.45208C2.34049 2.47543 2.22374 2.49878 2.16537 2.54548C2.18094 2.53769 2.19845 2.53186 2.21402 2.52602C2.1965 2.5338 2.18094 2.54158 2.16342 2.54742C2.14591 2.5552 2.13035 2.56299 2.11283 2.57077C2.07198 2.59023 2.03111 2.60969 1.99025 2.63109C1.91632 2.66806 1.84627 2.70697 1.77428 2.74978C1.69645 2.79647 1.61862 2.84512 1.54468 2.89571C1.50771 2.921 1.47074 2.94825 1.43377 2.97354C1.4221 2.98132 1.41042 2.99105 1.39875 2.99883C1.44155 2.95992 1.31508 3.0611 1.38902 3.00662C1.39096 3.00467 1.39486 3.00272 1.39875 3.00078C1.26644 3.11752 1.13023 3.22843 1.00766 3.3549C0.945397 3.41911 0.885079 3.48722 0.826708 3.55531C0.801413 3.58645 0.776117 3.61758 0.750824 3.64871C0.75277 3.64676 0.754716 3.64482 0.756661 3.64093C0.81114 3.56699 0.709963 3.69541 0.748878 3.65066C0.741095 3.66233 0.731367 3.674 0.723584 3.68568C0.618514 3.82772 0.523172 3.97754 0.437558 4.1332C0.392806 4.21297 0.351947 4.29469 0.314976 4.37836C0.305248 4.39976 0.295519 4.41922 0.285791 4.44062C0.279953 4.45424 0.276062 4.46008 0.274116 4.46397C0.278007 4.45424 0.289682 4.42505 0.293573 4.41922C0.270225 4.44841 0.256603 4.51067 0.242983 4.54569C0.180719 4.71108 0.130129 4.88036 0.0892699 5.0516C0.0678668 5.14304 0.0503534 5.23449 0.034791 5.32789C0.0328452 5.33373 0.025062 5.37653 0.0231165 5.38237C0.0231165 5.38042 0.0250623 5.37264 0.0289537 5.35707C0.0445197 5.28703 0.0270079 5.37653 0.025062 5.38626C0.0211707 5.42907 0.0153333 5.47187 0.0133878 5.51468C-0.004124 5.72677 -0.00412398 5.94081 0.011442 6.1529C0.0153337 6.20349 0.0192251 6.25408 0.0250622 6.30272V6.30467V6.30661C0.027008 6.32023 0.0328451 6.37082 0.034791 6.37861C0.0386826 6.4039 0.0425738 6.42725 0.0464651 6.45254C0.0659228 6.5615 0.0912168 6.67047 0.118456 6.77748C0.149588 6.89617 0.186559 7.01097 0.229364 7.12577C0.242984 7.16079 0.254659 7.19387 0.268281 7.22695C0.268281 7.2289 0.270227 7.23084 0.270227 7.23279C0.270227 7.23473 0.272172 7.23668 0.272172 7.23863C0.272172 7.24057 0.272172 7.24057 0.274118 7.24252V7.24446C0.274118 7.24641 0.27801 7.24835 0.27801 7.2503C0.27801 7.25225 0.279955 7.25225 0.279955 7.25419C0.299413 7.25614 0.281901 7.25614 0.281901 7.25614L0.285793 7.25808C0.30525 7.30089 0.322763 7.34369 0.344164 7.3865C0.439506 7.58108 0.548468 7.76788 0.672995 7.94492C0.692453 7.97021 0.709966 7.99746 0.729421 8.02275C0.735258 8.03053 0.739149 8.03637 0.743041 8.04026C0.741095 8.03637 0.737204 8.03442 0.735258 8.03053C0.739149 8.03637 0.743041 8.04221 0.746932 8.0461C0.746932 8.0461 0.746932 8.04415 0.744986 8.04415C0.770281 8.07723 0.797523 8.10836 0.824762 8.13949C0.887026 8.21343 0.951236 8.28348 1.01934 8.35353C1.09328 8.42941 1.17111 8.50335 1.25283 8.5734C1.29369 8.60842 1.33455 8.64344 1.37541 8.67652C1.38125 8.68041 1.38514 8.6843 1.38903 8.68819C1.38708 8.68625 1.38708 8.68625 1.38514 8.68625C1.39097 8.69014 1.39681 8.69403 1.39876 8.69792L1.39681 8.69598C1.40849 8.70376 1.42016 8.71154 1.43184 8.72127C1.60111 8.8458 1.78012 8.95671 1.96496 9.05205C2.0136 9.07734 2.06224 9.10069 2.11089 9.12404C2.12062 9.12793 2.13035 9.13377 2.14007 9.13766C2.14202 9.1396 2.14397 9.1396 2.14591 9.1396C2.14786 9.14155 2.15175 9.14155 2.15369 9.1435C2.15759 9.14544 2.16342 9.14739 2.16731 9.14933C2.17121 9.15128 2.17704 9.15322 2.18093 9.15517C2.18288 9.15517 2.18483 9.15712 2.18483 9.15712H2.18677C2.18872 9.15712 2.18872 9.15906 2.19066 9.15906C2.19261 9.15906 2.19455 9.16101 2.19455 9.16101H2.1965H2.19845C2.20039 9.16101 2.20234 9.16295 2.20428 9.16295C2.20623 9.16295 2.20818 9.1649 2.21012 9.1649C2.2218 9.16879 2.23152 9.17268 2.2432 9.17852C2.25682 9.18436 2.26849 9.18825 2.28211 9.19409C2.30157 9.20187 2.32103 9.20965 2.34243 9.21549C2.36189 9.22327 2.3794 9.22911 2.39886 9.23495C2.40859 9.23884 2.42026 9.24273 2.42999 9.24467C2.43777 9.24662 2.44361 9.24857 2.45139 9.25246C2.4689 9.25829 2.48836 9.26413 2.50587 9.26997C2.50976 9.27191 2.51365 9.27191 2.51755 9.27386C2.52144 9.27581 2.52533 9.27581 2.52922 9.27775C2.54089 9.28164 2.55062 9.28359 2.5623 9.28748C2.58565 9.29526 2.609 9.3011 2.63235 9.30694C2.64986 9.31278 2.66737 9.31667 2.68683 9.32056C2.73352 9.33223 2.78217 9.34391 2.83081 9.35558C2.84638 9.35947 2.86 9.36142 2.87556 9.36531C2.8814 9.36726 2.88724 9.36726 2.89308 9.3692C2.91642 9.37504 2.94172 9.37893 2.96701 9.38282C2.99036 9.38671 3.01566 9.39255 3.04095 9.39644C3.04679 9.39839 3.05262 9.39839 3.05846 9.40033C3.07208 9.40228 3.08376 9.40423 3.09543 9.40617H3.09738C3.10321 9.40812 3.10711 9.40812 3.11294 9.40812H3.11489H3.11684C3.12267 9.40812 3.12656 9.40812 3.1324 9.41006H3.13824H3.14018C3.15575 9.41201 3.16937 9.41396 3.17326 9.41396C3.31919 9.42952 3.46707 9.4373 3.61299 9.43536H3.66358H3.68109H3.70249C3.71417 9.43536 3.72389 9.43536 3.73557 9.43341C3.75308 9.43341 3.76865 9.43147 3.78616 9.43147C3.79978 9.43147 3.8134 9.42952 3.82508 9.42952H3.83091C3.84064 9.42952 3.85037 9.42758 3.8601 9.42758C3.87372 9.42758 3.88539 9.42563 3.89902 9.42563C3.91847 9.42368 3.93793 9.42368 3.95544 9.42174C3.9749 9.41979 3.99436 9.41785 4.01187 9.4159C4.01381 9.4159 4.01965 9.4159 4.02354 9.41396C4.03327 9.41201 4.043 9.40812 4.05467 9.40617C4.05856 9.40617 4.0644 9.40228 4.06829 9.40228H4.07024C4.07024 9.40228 4.07024 9.40617 4.07218 9.40617V9.40423C4.07413 9.40423 4.07608 9.40228 4.07802 9.40228H4.08191C4.07802 9.40228 4.07413 9.40812 4.07024 9.40812C4.06829 9.40812 4.06829 9.41006 4.06829 9.41006C4.06635 9.41006 4.06635 9.41201 4.06635 9.41201L4.0644 9.41396H4.06246H4.0644C4.06635 9.41396 4.06829 9.41396 4.07024 9.41201C4.07218 9.41201 4.07608 9.40812 4.07802 9.40617C4.0858 9.40423 4.09553 9.40033 4.10526 9.40033C4.11888 9.40033 4.1325 9.39644 4.13834 9.3945C4.14223 9.3945 4.14612 9.3945 4.15001 9.39255C4.15196 9.39061 4.15585 9.39061 4.1578 9.39061H4.16558C4.17336 9.38866 4.1792 9.38866 4.18698 9.38671C4.20255 9.38477 4.21811 9.38088 4.23368 9.37893C4.2473 9.37699 4.26287 9.37309 4.27649 9.37115H4.28038C4.29789 9.36726 4.31735 9.36337 4.33486 9.35947C4.34653 9.35753 4.35626 9.35558 4.36793 9.35169C4.36988 9.35169 4.37183 9.35169 4.37377 9.34975C4.40296 9.34196 4.43214 9.33613 4.46327 9.32834C4.47495 9.3264 4.48468 9.3225 4.49635 9.32056C4.51192 9.31667 4.52748 9.31278 4.545 9.30694C4.57418 9.29916 4.60337 9.29137 4.63061 9.28164C4.64812 9.27581 4.66758 9.26997 4.68509 9.26608C4.70454 9.26024 4.72595 9.25246 4.7454 9.24662C4.74735 9.24662 4.7493 9.24468 4.75124 9.24468C4.76486 9.24078 4.77848 9.23495 4.7921 9.23106C4.79794 9.22911 4.80378 9.22716 4.80961 9.22522C4.81156 9.22522 4.81545 9.22327 4.8174 9.22327C4.8388 9.21549 4.8602 9.20771 4.88161 9.19992C4.90106 9.19214 4.92247 9.18436 4.94192 9.17657C4.94387 9.17657 4.94387 9.17463 4.94582 9.17463C4.95165 9.17268 4.95554 9.17074 4.96138 9.16879C4.96527 9.16685 4.96722 9.16685 4.97111 9.1649C4.97306 9.1649 4.975 9.16295 4.97695 9.16295C4.98084 9.16101 4.98473 9.16101 4.98862 9.15906H4.99057H4.99251H4.99446C4.9964 9.15906 4.99835 9.15712 5.0003 9.15712C5.00808 9.15323 5.01586 9.14933 5.02559 9.14544C5.02559 9.14544 5.02754 9.14544 5.02754 9.1435C5.03921 9.13766 5.05088 9.13377 5.06256 9.12793C5.09758 9.11237 5.13066 9.0968 5.16374 9.07929C5.17736 9.07345 5.18903 9.06567 5.20266 9.05983C5.20849 9.05594 5.21628 9.05399 5.22211 9.0501C5.22601 9.04816 5.2299 9.04621 5.23379 9.04426C5.26297 9.0287 5.29021 9.01508 5.31746 8.99951C5.33108 8.99173 5.3447 8.98395 5.35832 8.97616C5.39918 8.95281 5.43809 8.92947 5.47895 8.90417C5.49257 8.89639 5.50425 8.88861 5.51787 8.88082C5.53927 8.8672 5.56262 8.85164 5.58402 8.83802C5.59375 8.83218 5.60348 8.82634 5.61321 8.81856C5.63072 8.80689 5.64823 8.79521 5.6638 8.78354C5.67548 8.77575 5.6852 8.76797 5.69688 8.76019C5.70077 8.75824 5.70466 8.75435 5.70855 8.7524C5.71634 8.74851 5.72217 8.74268 5.72801 8.73684C5.74941 8.72127 5.77276 8.70376 5.79417 8.6882H5.79611C5.79806 8.68625 5.80195 8.6843 5.8039 8.68236C5.80584 8.68041 5.80779 8.68041 5.80973 8.67847H5.81168L5.81362 8.67652C5.81946 8.67068 5.8253 8.66485 5.82919 8.66095C5.83308 8.65706 5.83697 8.65317 5.84281 8.64928C5.85448 8.63955 5.86616 8.63177 5.87589 8.62009C5.88756 8.61037 5.89924 8.60064 5.90897 8.59091C5.91869 8.58313 5.92648 8.57534 5.93621 8.56756C5.96539 8.54226 5.99458 8.51697 6.02182 8.48973C6.02376 8.48778 6.02765 8.48389 6.0296 8.48195C6.04127 8.47222 6.051 8.46249 6.06268 8.45081C6.09575 8.41968 6.12883 8.3866 6.16191 8.35353C6.17748 8.33796 6.1911 8.32239 6.20666 8.30683C6.26503 8.24456 6.32341 8.18035 6.37789 8.1142L6.38373 8.10836C6.39151 8.09863 6.39929 8.09085 6.40513 8.08112C6.40513 8.07917 6.40707 8.07917 6.40707 8.07723L6.41875 8.06555C6.42264 8.06166 6.42459 8.05777 6.42848 8.05583C6.4421 8.04026 6.45377 8.02859 6.43821 8.04415C6.43626 8.0461 6.43432 8.04804 6.43042 8.05193L6.42848 8.05388L6.42653 8.05583L6.42848 8.05388C6.42848 8.05193 6.43042 8.05193 6.43042 8.05193C6.43432 8.0461 6.43821 8.04221 6.44015 8.03831C6.4421 8.03637 6.44404 8.03442 6.44404 8.03248C6.45183 8.02275 6.45961 8.01302 6.46545 8.00329C6.47323 7.99162 6.48296 7.97994 6.49074 7.96827C6.50436 7.95076 6.51604 7.9313 6.52966 7.91379C6.55106 7.88266 6.57246 7.85152 6.59192 7.82039C6.6036 7.80288 6.61527 7.78342 6.62695 7.76591C6.63473 7.75424 6.64057 7.74257 6.64835 7.73089C6.65419 7.71922 6.66197 7.70949 6.66781 7.69781C6.67559 7.68419 6.68337 7.67057 6.69116 7.6589C6.69894 7.64528 6.70672 7.6336 6.71256 7.61998C6.71256 7.61803 6.7145 7.61803 6.7145 7.61609C6.72229 7.60247 6.72812 7.59079 6.73591 7.57717C6.74564 7.55966 6.75537 7.54215 6.76509 7.52269C6.77482 7.50323 6.78455 7.48572 6.79428 7.46627C6.80012 7.45459 6.80595 7.44486 6.81179 7.43319C6.81957 7.41957 6.82541 7.404 6.83319 7.39038C6.84098 7.37676 6.84681 7.3612 6.85265 7.34758C6.85654 7.33785 6.86238 7.32812 6.86627 7.31839C6.87211 7.30672 6.87795 7.2931 6.88378 7.28142C6.88573 7.27558 6.88768 7.27169 6.88962 7.26586V7.26391C6.88962 7.26586 6.88768 7.2678 6.88768 7.26975V7.27169V7.27364V7.27558C6.88768 7.27753 6.88573 7.27753 6.88573 7.27948V7.27753C6.88962 7.27169 6.89351 7.26002 6.8974 7.25029C6.9013 7.24251 6.90519 7.23278 6.90519 7.23083C6.90519 7.23083 6.90324 7.23278 6.90324 7.23472C6.90324 7.23278 6.90519 7.22889 6.90519 7.22694C6.91102 7.21332 6.91686 7.19775 6.9227 7.18414C6.92659 7.17441 6.93048 7.16273 6.93437 7.153C6.94216 7.13549 6.94799 7.11603 6.95383 7.09852C6.96161 7.07907 6.96745 7.05961 6.97523 7.04015C6.98691 7.00902 6.99664 6.97789 7.00637 6.94481C7.01026 6.93119 7.01609 6.91563 7.01999 6.90201V6.90006C7.02388 6.88839 7.02777 6.87477 7.03166 6.86309C7.03166 6.86114 7.03361 6.8592 7.03361 6.85531C7.03944 6.83585 7.04528 6.81639 7.05112 6.79694C7.05306 6.79304 7.05306 6.78721 7.05501 6.78332C7.05696 6.77359 7.0589 6.7658 7.06279 6.75608V6.75413V6.75218C7.06279 6.75218 7.06474 6.75218 7.06474 6.75024C7.06474 6.74829 7.06668 6.7444 7.06668 6.74246V6.74051C7.06474 6.73856 7.06668 6.73856 7.06668 6.73856V6.73467H7.06474C7.06668 6.73078 7.06863 6.72689 7.06863 6.723C7.06863 6.723 7.06863 6.72105 7.07058 6.72105C7.07058 6.71911 7.07252 6.71716 7.07252 6.71522C7.07252 6.71327 7.07252 6.71327 7.07447 6.71132C7.07447 6.70938 7.07641 6.70743 7.07641 6.70354C7.07836 6.6977 7.07836 6.69187 7.0803 6.68797C7.0803 6.68603 7.08225 6.68214 7.08225 6.68019C7.0842 6.6763 7.0842 6.67241 7.0842 6.67046C7.09003 6.64906 7.09392 6.6296 7.09782 6.6082C7.09782 6.60431 7.09976 6.60236 7.09976 6.59847C7.09976 6.59652 7.10171 6.59458 7.10171 6.59069V6.58874V6.59069L7.10365 6.58874V6.5868V6.58485C7.10365 6.5829 7.10365 6.58096 7.1056 6.57901C7.10754 6.57318 7.10949 6.56928 7.11144 6.56345C7.11338 6.55956 7.11727 6.55761 7.11727 6.55372C7.11922 6.54983 7.12116 6.54593 7.12116 6.54204C7.12116 6.51675 7.12506 6.49145 7.12895 6.46616C7.13089 6.46032 7.12895 6.45254 7.12895 6.4467L7.13479 6.44476H7.14062C7.14062 6.44087 7.13479 6.43892 7.13479 6.43503H7.13284C7.13284 6.43308 7.13089 6.43308 7.13284 6.43308L7.13089 6.43114H7.13479L7.14062 6.42919V6.42725C7.14062 6.4253 7.13673 6.42335 7.13673 6.42141H7.13479V6.41946V6.41752C7.13673 6.41168 7.13868 6.4039 7.14062 6.39806L7.14451 6.39611C7.14451 6.39222 7.14257 6.38833 7.14257 6.38444C7.14257 6.38249 7.14257 6.38249 7.14451 6.38055V6.3786C7.14451 6.37666 7.14257 6.36887 7.14257 6.36887L7.14062 6.36109H7.14451V6.36498V6.33969L7.14257 6.33774C7.14257 6.33774 7.14062 6.33774 7.14257 6.33774H7.14451H7.14646V6.33579H7.14451H7.14257V6.3319V6.32801H7.14646V6.3319V6.32996V6.32607V6.32801L7.14451 6.32996V6.32412V6.32217V6.32023V6.31439V6.30855H7.15035H7.15619C7.15619 6.30855 7.16202 6.3105 7.16202 6.30855C7.16202 6.2891 7.16008 6.26964 7.16202 6.25018L7.15813 6.24824C7.16008 6.23073 7.16008 6.21321 7.16202 6.1957V6.18014C7.16397 6.16068 7.16397 6.14122 7.16592 6.12371C7.16786 6.08285 7.17175 6.04199 7.17175 6.00113C7.17175 5.98362 7.1737 5.96611 7.1737 5.94665C7.1737 5.93303 7.17565 5.91941 7.17565 5.90773C7.17565 5.88828 7.17954 5.86882 7.17954 5.84742C7.19121 5.81823 7.18732 5.79877 7.18732 5.77931L7.18731 5.7793ZM5.35832 7.2853C5.28827 7.36119 5.16569 7.40594 5.06451 7.40594C4.94388 7.40594 4.86215 7.35535 4.7707 7.2853C4.58197 7.13743 4.39324 6.98955 4.2045 6.84167C3.95349 6.64515 3.70251 6.44862 3.45149 6.25016C3.40285 6.21124 3.34643 6.17622 3.30167 6.13147C3.17715 6.00889 3.18104 5.86101 3.18104 5.70534V4.13512C3.18104 3.90163 3.37367 3.7304 3.59938 3.72069C3.82314 3.71096 4.01772 3.91915 4.01772 4.13512V5.64112C4.03718 5.65668 4.05275 5.67225 4.0722 5.68782C4.50221 6.02443 4.92831 6.36105 5.35832 6.69766C5.54317 6.8397 5.49647 7.13547 5.35832 7.28529L5.35832 7.2853ZM7.14838 6.30855C7.14838 6.3066 7.15033 6.3066 7.14838 6.30855V6.30855Z" fill="#4EC89E"/>
</svg>
