<svg width="24" height="24" viewBox="0 0 24 24" fill="none" xmlns="http://www.w3.org/2000/svg">
<path fill-rule="evenodd" clip-rule="evenodd" d="M15.87 0H16C17.3256 0.00158786 18.5964 0.528882 19.5338 1.46622C20.4711 2.40356 20.9984 3.67441 21 5V21C21 21.7956 20.6839 22.5587 20.1213 23.1213C19.5587 23.6839 18.7956 24 18 24H15.87C15.4225 23.9957 14.989 23.843 14.6377 23.5657C14.2864 23.2884 14.0371 22.9023 13.929 22.468C13.8132 22.0452 13.5617 21.6721 13.2132 21.4061C12.8647 21.1402 12.4384 20.9962 12 20.9962C11.5616 20.9962 11.1353 21.1402 10.7868 21.4061C10.4383 21.6721 10.1868 22.0452 10.071 22.468C9.9629 22.9023 9.71362 23.2884 9.36231 23.5657C9.01099 23.843 8.57754 23.9957 8.13 24H6C5.20435 24 4.44129 23.6839 3.87868 23.1213C3.31607 22.5587 3 21.7956 3 21V5C3.00159 3.67441 3.52888 2.40356 4.46622 1.46622C5.40356 0.528882 6.67441 0.00158786 8 0H8.13C8.57754 0.00425181 9.01099 0.157013 9.36231 0.434299C9.71362 0.711585 9.9629 1.09769 10.071 1.532C10.1868 1.95484 10.4383 2.32792 10.7868 2.59385C11.1353 2.85979 11.5616 3.00383 12 3.00383C12.4384 3.00383 12.8647 2.85979 13.2132 2.59385C13.5617 2.32792 13.8132 1.95484 13.929 1.532C14.0371 1.09769 14.2864 0.711585 14.6377 0.434299C14.989 0.157013 15.4225 0.00425181 15.87 0ZM15.857 21.937L18 22C18.2652 22 18.5196 21.8946 18.7071 21.7071C18.8946 21.5196 19 21.2652 19 21V17H17C16.7348 17 16.4804 16.8946 16.2929 16.7071C16.1054 16.5196 16 16.2652 16 16C16 15.7348 16.1054 15.4804 16.2929 15.2929C16.4804 15.1054 16.7348 15 17 15H19V5C19 4.20435 18.6839 3.44129 18.1213 2.87868C17.5587 2.31607 16.7956 2 16 2H15.893C15.6596 2.85595 15.153 3.61222 14.4503 4.15376C13.7476 4.6953 12.8872 4.99245 12 5C11.1247 4.99852 10.2738 4.71066 9.57742 4.18035C8.881 3.65004 8.37722 2.90643 8.143 2.063L8 2C7.20435 2 6.44129 2.31607 5.87868 2.87868C5.31607 3.44129 5 4.20435 5 5V15H7C7.26522 15 7.51957 15.1054 7.70711 15.2929C7.89464 15.4804 8 15.7348 8 16C8 16.2652 7.89464 16.5196 7.70711 16.7071C7.51957 16.8946 7.26522 17 7 17H5V21C5 21.2652 5.10536 21.5196 5.29289 21.7071C5.48043 21.8946 5.73478 22 6 22H8.13C8.35101 21.1477 8.84706 20.3921 9.54122 19.8505C10.2354 19.3088 11.0889 19.0113 11.9693 19.0042C12.8498 18.997 13.708 19.2805 14.4109 19.8108C15.1138 20.341 15.6221 21.0884 15.857 21.937ZM10.2929 15.2929C10.4804 15.1054 10.7348 15 11 15H13C13.2652 15 13.5196 15.1054 13.7071 15.2929C13.8946 15.4804 14 15.7348 14 16C14 16.2652 13.8946 16.5196 13.7071 16.7071C13.5196 16.8946 13.2652 17 13 17H11C10.7348 17 10.4804 16.8946 10.2929 16.7071C10.1054 16.5196 10 16.2652 10 16C10 15.7348 10.1054 15.4804 10.2929 15.2929Z" fill="#262626"/>
</svg>
