<svg width="25" height="24" viewBox="0 0 25 24" xmlns="http://www.w3.org/2000/svg">
<g clip-path="url(#clip0_10_138)">
<path d="M21.6968 4.60999C21.1861 4.099 20.5796 3.69364 19.9122 3.41708C19.2447 3.14052 18.5293 2.99817 17.8068 2.99817C17.0843 2.99817 16.3689 3.14052 15.7015 3.41708C15.034 3.69364 14.4276 4.099 13.9168 4.60999L12.8568 5.66999L11.7968 4.60999C10.7651 3.5783 9.36584 2.9987 7.90681 2.9987C6.44778 2.9987 5.0485 3.5783 4.01681 4.60999C2.98512 5.64169 2.40552 7.04096 2.40552 8.49999C2.40552 9.95903 2.98512 11.3583 4.01681 12.39L5.07681 13.45L12.8568 21.23L20.6368 13.45L21.6968 12.39C22.2078 11.8792 22.6132 11.2728 22.8897 10.6053C23.1663 9.93789 23.3086 9.22248 23.3086 8.49999C23.3086 7.77751 23.1663 7.0621 22.8897 6.39464C22.6132 5.72718 22.2078 5.12075 21.6968 4.60999V4.60999Z" stroke="#597393" stroke-width="2" stroke-linecap="round" stroke-linejoin="round"/>
</g>
<defs>
<clipPath id="clip0_10_138">
<rect width="24" height="24" fill="white" transform="translate(0.856689)"/>
</clipPath>
</defs>
</svg>
