<svg width="18" height="15" viewBox="0 0 18 15" fill="none" xmlns="http://www.w3.org/2000/svg">
<path d="M12.7431 0.137207C11.9768 0.149127 11.2271 0.363052 10.5699 0.757378C9.91271 1.1517 9.37119 1.71247 9.00004 2.38304C8.62889 1.71247 8.08737 1.1517 7.43016 0.757378C6.77295 0.363052 6.02332 0.149127 5.25698 0.137207C4.03535 0.190284 2.88437 0.724699 2.0555 1.6237C1.22664 2.5227 0.787265 3.7132 0.833373 4.93512C0.833373 8.02961 4.09051 11.4092 6.82226 13.7007C7.43219 14.2132 8.20335 14.4942 9.00004 14.4942C9.79673 14.4942 10.5679 14.2132 11.1778 13.7007C13.9096 11.4092 17.1667 8.02961 17.1667 4.93512C17.2128 3.7132 16.7734 2.5227 15.9446 1.6237C15.1157 0.724699 13.9647 0.190284 12.7431 0.137207Z" fill="white"/>
</svg>
