<svg width="20" height="24" viewBox="0 0 20 24" fill="none" xmlns="http://www.w3.org/2000/svg">
<path d="M17.492 7.96895L7.95401 0.974946C7.20903 0.429431 6.32755 0.100859 5.40727 0.0256494C4.48699 -0.0495601 3.56385 0.131531 2.74019 0.54885C1.91653 0.96617 1.22451 1.60342 0.740848 2.38995C0.257183 3.17649 0.00076115 4.0816 6.03388e-06 5.00495V18.9999C-0.00143046 19.9242 0.253651 20.8307 0.736856 21.6186C1.22006 22.4065 1.91243 23.0448 2.7369 23.4625C3.56137 23.8803 4.48559 24.061 5.40668 23.9846C6.32777 23.9083 7.2096 23.5778 7.95401 23.0299L17.492 16.0359C18.1249 15.5715 18.6395 14.9646 18.9942 14.2643C19.3489 13.5639 19.5338 12.79 19.5338 12.0049C19.5338 11.2199 19.3489 10.4459 18.9942 9.74564C18.6395 9.04534 18.1249 8.4384 17.492 7.97395V7.96895Z" fill="white"/>
</svg>
