<svg width="14" height="14" viewBox="0 0 14 14" fill="none" xmlns="http://www.w3.org/2000/svg">
<path d="M1.66267 13.7375C1.9812 13.8736 2.33336 13.9106 2.67321 13.8436C3.01306 13.7766 3.32483 13.6087 3.56784 13.3618L7.00075 9.94758L10.4337 13.3618C10.5937 13.5242 10.7844 13.6533 10.9947 13.7415C11.205 13.8297 11.4306 13.8753 11.6587 13.8757C11.8931 13.8751 12.125 13.8281 12.3412 13.7375C12.6623 13.6075 12.9368 13.3838 13.1288 13.0954C13.3208 12.807 13.4214 12.4675 13.4174 12.1211V2.91667C13.4165 2.1434 13.1089 1.40208 12.5621 0.855295C12.0153 0.308514 11.274 0.00092625 10.5008 0L3.50075 0C2.72749 0.00092625 1.98616 0.308514 1.43938 0.855295C0.8926 1.40208 0.585012 2.1434 0.584086 2.91667V12.1211C0.580322 12.4678 0.681255 12.8075 0.87369 13.0959C1.06612 13.3843 1.3411 13.6079 1.66267 13.7375Z" fill="white"/>
</svg>
