<svg width="24" height="24" viewBox="0 0 24 24" fill="none" xmlns="http://www.w3.org/2000/svg">
<rect width="24" height="24" rx="2" fill="#F5A81C"/>
<g clip-path="url(#clip0_686_201746)">
<rect x="3" y="3" width="18" height="18" rx="2" fill="#F5A81C"/>
<path d="M18.375 7.65H16.5V7.5C16.5 6.30653 16.0259 5.16193 15.182 4.31802C14.3381 3.47411 13.1935 3 12 3C10.8065 3 9.66193 3.47411 8.81802 4.31802C7.97411 5.16193 7.5 6.30653 7.5 7.5V7.65H5.625C4.93141 7.65837 4.26858 7.93762 3.7781 8.4281C3.28762 8.91858 3.00837 9.58141 3 10.275V16.875C3.00959 17.966 3.44727 19.0097 4.21879 19.7812C4.99031 20.5527 6.03395 20.9904 7.125 21H16.875C17.966 20.9904 19.0097 20.5527 19.7812 19.7812C20.5527 19.0097 20.9904 17.966 21 16.875V10.275C20.9916 9.58141 20.7124 8.91858 20.2219 8.4281C19.7314 7.93762 19.0686 7.65837 18.375 7.65ZM9.75 7.5C9.75 6.90326 9.98705 6.33097 10.409 5.90901C10.831 5.48705 11.4033 5.25 12 5.25C12.5967 5.25 13.169 5.48705 13.591 5.90901C14.0129 6.33097 14.25 6.90326 14.25 7.5V7.65H9.75V7.5ZM18.75 16.875C18.7524 17.1219 18.7055 17.3668 18.6122 17.5954C18.5188 17.8239 18.3808 18.0316 18.2062 18.2062C18.0316 18.3808 17.8239 18.5188 17.5954 18.6122C17.3668 18.7055 17.1219 18.7524 16.875 18.75H7.125C6.8781 18.7524 6.6332 18.7055 6.40463 18.6122C6.17606 18.5188 5.96841 18.3808 5.79381 18.2062C5.61922 18.0316 5.4812 17.8239 5.38783 17.5954C5.29445 17.3668 5.2476 17.1219 5.25 16.875V10.275C5.24693 10.225 5.25453 10.1748 5.27229 10.1279C5.29005 10.0811 5.31757 10.0385 5.35302 10.003C5.38847 9.96757 5.43105 9.94005 5.47794 9.92229C5.52483 9.90453 5.57496 9.89693 5.625 9.9H7.5V10.875C7.5 11.1734 7.61853 11.4595 7.8295 11.6705C8.04048 11.8815 8.32663 12 8.625 12C8.92337 12 9.20952 11.8815 9.4205 11.6705C9.63147 11.4595 9.75 11.1734 9.75 10.875V9.9H14.25V10.875C14.25 11.1734 14.3685 11.4595 14.5795 11.6705C14.7905 11.8815 15.0766 12 15.375 12C15.6734 12 15.9595 11.8815 16.1705 11.6705C16.3815 11.4595 16.5 11.1734 16.5 10.875V9.9H18.375C18.425 9.89693 18.4752 9.90453 18.5221 9.92229C18.5689 9.94005 18.6115 9.96757 18.647 10.003C18.6824 10.0385 18.71 10.0811 18.7277 10.1279C18.7455 10.1748 18.7531 10.225 18.75 10.275V16.875Z" fill="#F0F7F7"/>
</g>
<defs>
<clipPath id="clip0_686_201746">
<rect x="3" y="3" width="18" height="18" rx="2" fill="white"/>
</clipPath>
</defs>
</svg>
