<svg width="219" height="152" viewBox="0 0 219 152" fill="none" xmlns="http://www.w3.org/2000/svg">
<g id="illustration">
<g id="freepik--background-complete--inject-31">
<rect id="Rectangle" y="131.569" width="218.757" height="0.109378" fill="#EBEBEB"/>
<rect id="Rectangle_2" x="182.348" y="138.609" width="14.4904" height="0.109378" fill="#EBEBEB"/>
<rect id="Rectangle_3" x="141.111" y="139.799" width="3.80199" height="0.109378" fill="#EBEBEB"/>
<rect id="Rectangle_4" x="173.514" y="134.549" width="8.39588" height="0.109378" fill="#EBEBEB"/>
<rect id="Rectangle_5" x="22.9521" y="135.284" width="18.8962" height="0.109378" fill="#EBEBEB"/>
<rect id="Rectangle_6" x="45.7461" y="135.284" width="2.76946" height="0.109378" fill="#EBEBEB"/>
<rect id="Rectangle_7" x="57.5195" y="137.13" width="40.9863" height="0.109378" fill="#EBEBEB"/>
<rect id="Rectangle_8" x="157.062" y="21.145" width="6.19956" height="19.2987" fill="#E6E6E6"/>
<path id="Path" d="M180.068 40.444H159.496L156.39 17.8552H176.962L180.068 40.444Z" fill="#F0F0F0"/>
<path id="Path_2" d="M182.294 40.444H161.049L157.942 17.8552H179.188L182.294 40.444Z" fill="#F5F5F5"/>
<path id="Path_3" d="M162.584 38.6632L159.968 19.6357H177.652L180.273 38.6632H162.584Z" fill="white"/>
<path id="Path_4" d="M166.08 32.9012L165.096 25.761C165.036 25.3795 165.148 24.9914 165.401 24.6998C165.654 24.4081 166.022 24.2426 166.408 24.2472H172.835C173.501 24.2421 174.066 24.7368 174.148 25.3978L175.128 32.5424C175.186 32.9231 175.073 33.3101 174.821 33.6006C174.568 33.8912 174.2 34.0562 173.815 34.0518H167.397C166.729 34.0592 166.162 33.5639 166.08 32.9012Z" fill="#F5F5F5"/>
<rect id="Rectangle_9" x="32.0078" width="92.661" height="57.1611" fill="#E6E6E6"/>
<rect id="Rectangle_10" x="33.1201" width="93.9298" height="57.1611" fill="#F0F0F0"/>
<rect id="Rectangle_11" x="32.0078" y="57.1655" width="92.661" height="4.42326" fill="#E6E6E6"/>
<rect id="Rectangle_12" x="37.084" y="57.1655" width="93.9298" height="4.42326" fill="#F0F0F0"/>
<path id="Rectangle_13" d="M123.716 3.33398V53.8318L36.4538 53.8318V3.33398L123.716 3.33398Z" fill="#FAFAFA"/>
<path id="Path_5" d="M42.8594 53.8318L62.4206 3.33398H71.6521L52.0909 53.8318H42.8594Z" fill="white"/>
<path id="Path_6" d="M54.0762 53.8318L73.6374 3.33398H77.2338L57.6725 53.8318H54.0762Z" fill="white"/>
<path id="Path_7" d="M88.2988 53.8318L107.86 3.33398H111.456L91.8996 53.8318H88.2988Z" fill="white"/>
<path id="Rectangle_14" d="M123.712 3.33398V53.8318H123.287V3.33398H123.712Z" fill="#E6E6E6"/>
<rect id="Rectangle_15" x="175.294" y="40.4438" width="19.6181" height="91.1253" fill="#E6E6E6"/>
<path id="Path_8" d="M192.94 131.569H194.913V125.956H190.87L192.94 131.569Z" fill="#F0F0F0"/>
<rect id="Rectangle_16" x="140.919" y="40.4438" width="19.6181" height="91.1253" fill="#E6E6E6"/>
<rect id="Rectangle_17" x="158.812" y="40.4438" width="36.0992" height="87.6821" fill="#F0F0F0"/>
<path id="Path_9" d="M160.786 131.569H158.812V125.956H162.855L160.786 131.569Z" fill="#F0F0F0"/>
<rect id="Rectangle_18" x="160.344" y="42.0493" width="33.0366" height="41.3625" fill="#E6E6E6"/>
<path id="Path_10" d="M180.439 45.2697H173.286C170.178 45.2695 167.207 43.9911 165.069 41.7346H188.656C186.519 43.9924 183.548 45.271 180.439 45.2697Z" fill="#F0F0F0"/>
<rect id="Rectangle_19" x="160.344" y="85.0879" width="33.0366" height="41.3625" fill="#E6E6E6"/>
<path id="Path_11" d="M180.439 88.3078H173.286C170.178 88.3075 167.207 87.0292 165.069 84.7727H188.656C186.519 87.0305 183.548 88.3091 180.439 88.3078Z" fill="#F0F0F0"/>
<path id="Path_12" d="M56.6582 69.2192H89.3055L94.0393 88.5005H61.3877L56.6582 69.2192Z" fill="#E6E6E6"/>
<path id="Path_13" d="M61.3877 88.5005L61.5233 89.5636H94.1706L94.0393 88.5005H61.3877Z" fill="#E6E6E6"/>
<path id="Path_14" d="M57.6641 69.2192H90.3113L95.0452 88.5005H62.3936L57.6641 69.2192Z" fill="#F0F0F0"/>
<path id="Path_15" d="M63.0849 87.6164L58.7842 70.0984H89.6201L93.9209 87.6164H63.0849Z" fill="white"/>
<path id="Path_16" d="M70.9033 88.5005L71.0346 89.5636H106.985L106.854 88.5005H70.9033Z" fill="#F0F0F0"/>
<rect id="Rectangle_20" x="111.277" y="89.5635" width="3.91137" height="42.0013" fill="#E6E6E6"/>
<rect id="Rectangle_21" x="113.71" y="89.5635" width="2.71696" height="42.0013" fill="#F0F0F0"/>
<rect id="Rectangle_22" x="117.271" y="94.3718" width="50.4059" height="4.80827" transform="rotate(180 117.271 94.3718)" fill="#F0F0F0"/>
<rect id="Rectangle_23" x="61.1992" y="94.3718" width="3.91137" height="37.193" fill="#E6E6E6"/>
<rect id="Rectangle_24" x="63.627" y="94.3718" width="2.71696" height="37.193" fill="#F0F0F0"/>
<rect id="Rectangle_25" x="36.4404" y="94.3718" width="3.91137" height="37.193" fill="#E6E6E6"/>
<rect id="Rectangle_26" x="38.873" y="94.3718" width="2.71696" height="37.193" fill="#F0F0F0"/>
<rect id="Rectangle_27" x="86.5225" y="94.3718" width="3.91137" height="37.193" fill="#E6E6E6"/>
<rect id="Rectangle_28" x="88.9512" y="94.3718" width="2.71696" height="37.193" fill="#F0F0F0"/>
<rect id="Rectangle_29" x="36.4404" y="89.5635" width="30.4203" height="4.80827" fill="#E6E6E6"/>
<path id="Path_17" d="M127.902 131.569H126.953L124.253 118.164L123.776 115.814L120.784 101.206H109.408L103.253 131.569H102.29L108.573 100.646C108.614 100.435 108.795 100.28 109.01 100.274H121.191C121.409 100.271 121.595 100.43 121.628 100.646L124.253 113.473L124.691 115.819L127.902 131.569Z" fill="#F0F0F0"/>
<path id="Path_18" d="M146.168 131.569H145.215L139.046 101.206H127.67L124.691 115.819L124.253 118.164L121.528 131.569H120.578L123.776 115.819L124.249 113.478L126.874 100.65C126.916 100.44 127.097 100.286 127.311 100.278H139.452C139.667 100.285 139.849 100.439 139.89 100.65L146.168 131.569Z" fill="#F0F0F0"/>
<path id="Path_19" d="M118.129 100.738H139.033C143.023 100.738 145.237 98.0251 146.366 93.5537L146.917 90.9986C147.294 89.4328 146.932 87.7805 145.934 86.5163C144.936 85.2521 143.413 84.5159 141.803 84.5191H128.677C125.965 84.5191 125.247 85.1666 123.37 89.2529C121.493 93.3393 118.129 100.738 118.129 100.738Z" fill="#F0F0F0"/>
<path id="Path_20" d="M129.525 100.738H107.247C106.67 100.738 106.202 100.269 106.202 99.6919V99.5957C106.202 98.8368 106.503 98.109 107.04 97.5724C107.576 97.0358 108.304 96.7343 109.063 96.7343H129.525V100.742V100.738Z" fill="#F0F0F0"/>
</g>
<g id="freepik--Shadow--inject-31">
<ellipse id="freepik--path--inject-31" cx="109.378" cy="146.375" rx="84.8295" ry="4.95265" fill="#F5F5F5"/>
</g>
<g id="freepik--Account--inject-31">
<path id="Path_21" d="M126.279 12.2462H62.695C61.3219 12.2369 60.006 12.7954 59.059 13.7897C58.112 14.7839 57.6181 16.1254 57.6942 17.4964L63.6575 141.125C63.8337 144.046 66.2348 146.336 69.1614 146.375H132.745C134.118 146.384 135.433 145.825 136.38 144.831C137.326 143.837 137.819 142.495 137.742 141.125L131.783 17.4964C131.606 14.5748 129.205 12.2844 126.279 12.2462Z" fill="#527066"/>
<path id="Path_22" d="M128.628 12.2462H65.0268C63.6541 12.2368 62.3386 12.7955 61.3923 13.7899C60.4459 14.7843 59.953 16.1258 60.0304 17.4964L65.9893 141.125C66.1655 144.046 68.5666 146.336 71.4932 146.375H135.077C136.45 146.384 137.765 145.825 138.712 144.831C139.658 143.837 140.151 142.495 140.073 141.125L134.115 17.4964C133.939 14.5814 131.548 12.2935 128.628 12.2462Z" fill="#527066"/>
<path id="Path_23" d="M71.3145 142.874C70.3441 142.85 69.5508 142.093 69.4813 141.124L63.5312 17.4961C63.5096 17.0402 63.6756 16.5952 63.9904 16.2647C64.3053 15.9342 64.7416 15.7468 65.1981 15.7461H128.782C129.754 15.7665 130.55 16.526 130.615 17.4961L136.574 141.124C136.595 141.58 136.43 142.024 136.116 142.354C135.802 142.685 135.367 142.872 134.911 142.874H71.3145Z" fill="#4EC89E"/>
<path id="Path_24" opacity="0.1" d="M71.2835 142C70.7996 141.983 70.4045 141.607 70.3648 141.125L64.4058 17.4964C64.3976 17.2694 64.4811 17.0487 64.6375 16.8841C64.7939 16.7194 65.01 16.6247 65.2371 16.6213H128.821C129.306 16.6355 129.702 17.0128 129.74 17.4964L135.699 141.125C135.707 141.351 135.623 141.572 135.467 141.737C135.311 141.901 135.094 141.996 134.867 142H71.2835Z" fill="white"/>
<ellipse id="Oval" cx="105.518" cy="73.4997" rx="20.364" ry="21.3704" transform="rotate(-45.69 105.518 73.4997)" fill="#4DB792"/>
<ellipse id="Oval_2" cx="107.518" cy="70.4997" rx="20.364" ry="21.3704" transform="rotate(-45.69 107.518 70.4997)" fill="#4EC89E"/>
<g id="Solid/lock" clip-path="url(#clip0_793_14076)">
<path id="Vector" d="M124.167 51.828V50.1667C124.167 48.0007 123.307 45.9235 121.775 44.392C120.244 42.8604 118.167 42 116.001 42C113.835 42 111.757 42.8604 110.226 44.392C108.694 45.9235 107.834 48.0007 107.834 50.1667V51.828C106.795 52.2815 105.91 53.0279 105.289 53.9761C104.667 54.9242 104.335 56.0329 104.334 57.1667V64.1667C104.336 65.7132 104.951 67.1959 106.045 68.2894C107.138 69.383 108.621 69.9981 110.167 70H121.834C123.381 69.9981 124.863 69.383 125.957 68.2894C127.05 67.1959 127.665 65.7132 127.667 64.1667V57.1667C127.666 56.0329 127.334 54.9242 126.712 53.9761C126.091 53.0279 125.206 52.2815 124.167 51.828ZM117.167 61.8333C117.167 62.1428 117.044 62.4395 116.826 62.6583C116.607 62.8771 116.31 63 116.001 63C115.691 63 115.394 62.8771 115.176 62.6583C114.957 62.4395 114.834 62.1428 114.834 61.8333V59.5C114.834 59.1906 114.957 58.8938 115.176 58.675C115.394 58.4562 115.691 58.3333 116.001 58.3333C116.31 58.3333 116.607 58.4562 116.826 58.675C117.044 58.8938 117.167 59.1906 117.167 59.5V61.8333ZM121.834 51.3333H110.167V50.1667C110.167 48.6196 110.782 47.1358 111.876 46.0419C112.97 44.9479 114.454 44.3333 116.001 44.3333C117.548 44.3333 119.031 44.9479 120.125 46.0419C121.219 47.1358 121.834 48.6196 121.834 50.1667V51.3333Z" fill="#F9F9F9"/>
</g>
</g>
<g id="freepik--character-male--inject-31">
<path id="Path_25" d="M156.088 143.093H152.876L152.553 135.647H155.768L156.088 143.093Z" fill="#FFC3BD"/>
<path id="Path_26" opacity="0.2" d="M152.557 135.651L152.719 139.488H155.934L155.768 135.651H152.557Z" fill="#262626"/>
<path id="Path_27" d="M183.445 134.369L180.392 135.367L176.546 128.791L179.604 127.793L183.445 134.369Z" fill="#FFC3BD"/>
<path id="Path_28" opacity="0.2" d="M179.604 127.793L176.546 128.791L178.532 132.181L181.586 131.184L179.604 127.793Z" fill="#262626"/>
<path id="Path_29" d="M166.955 35.5437C167.353 36.0293 167.69 36.4625 168.036 36.9394C168.382 37.4163 168.71 37.8713 169.038 38.3438C169.685 39.2932 170.307 40.2645 170.889 41.2664C172.1 43.2991 173.087 45.4569 173.833 47.7022L173.907 47.921L173.942 48.0347L173.991 48.2141L174.078 48.5728L174.126 48.901C174.178 49.2939 174.194 49.6908 174.174 50.0866C174.134 50.7542 174.037 51.4172 173.886 52.0686C173.609 53.2357 173.241 54.3796 172.787 55.4899C171.922 57.6184 170.874 59.6678 169.655 61.6151L167.467 60.5695C168.124 58.5175 168.78 56.4175 169.261 54.3743C169.512 53.3893 169.702 52.3899 169.83 51.3817C169.884 50.9464 169.9 50.5072 169.878 50.0691C169.871 49.913 169.851 49.7578 169.817 49.6054L169.795 49.5266C169.787 49.5125 169.779 49.4979 169.773 49.4829L169.738 49.3998L169.668 49.2291L169.375 48.5422L169.047 47.8597C168.828 47.4222 168.587 46.9497 168.347 46.4947C167.848 45.5934 167.31 44.6965 166.75 43.804C166.19 42.9114 165.595 42.0539 165 41.1789C164.405 40.3038 163.753 39.4288 163.162 38.6369L166.955 35.5437Z" fill="#FFC3BD"/>
<path id="Path_30" d="M167.669 60.027L166.413 62.8052H170.005C170.005 62.8052 170.578 60.6964 169.274 59.8433L167.669 60.027Z" fill="#FFC3BD"/>
<path id="Path_31" d="M166.833 65.929L170.167 65.2859L170.005 62.8052H166.413L166.833 65.929Z" fill="#FFC3BD"/>
<path id="Path_32" d="M159.408 24.4307C158.944 26.7845 158.485 31.094 160.13 32.6603C160.13 32.6603 159.487 35.0447 155.12 35.0447C150.308 35.0447 152.823 32.6603 152.823 32.6603C155.448 32.0346 155.378 30.0921 154.919 28.2633L159.408 24.4307Z" fill="#FFC3BD"/>
<path id="Path_33" d="M160.76 33.4787C161.106 32.7261 161.487 31.8599 160.699 31.5886C159.824 31.2911 155.116 30.9892 153.484 31.5492C153.051 31.6693 152.684 31.9583 152.465 32.3513C152.246 32.7444 152.194 33.2088 152.321 33.6405L160.76 33.4787Z" fill="#262626"/>
<path id="Shape" fill-rule="evenodd" clip-rule="evenodd" d="M179.027 136.513C179.228 136.544 179.495 136.36 179.731 136.132C179.934 135.936 180.116 135.719 180.274 135.485C180.291 135.46 180.291 135.427 180.274 135.402C180.257 135.379 180.228 135.367 180.2 135.371C180.143 135.376 179.093 135.551 178.83 135.957C178.77 136.042 178.751 136.15 178.778 136.251C178.797 136.382 178.897 136.487 179.027 136.513ZM178.957 136.036C178.975 136.011 178.996 135.987 179.019 135.966C179.325 135.755 179.675 135.615 180.042 135.555C179.749 135.922 179.272 136.395 179.049 136.36C179.027 136.36 178.962 136.347 178.927 136.211C178.911 136.151 178.922 136.087 178.957 136.036Z" fill="#4EC89E"/>
<path id="Shape_2" fill-rule="evenodd" clip-rule="evenodd" d="M180.221 135.52L180.256 135.498C180.266 135.489 180.272 135.476 180.273 135.463C180.282 135.436 180.273 135.407 180.251 135.389C180.251 135.388 180.249 135.387 180.248 135.385C180.183 135.329 179.512 134.746 179.044 134.78C178.927 134.789 178.818 134.844 178.742 134.934C178.66 135.018 178.645 135.148 178.707 135.249C178.908 135.555 179.858 135.616 180.221 135.52ZM178.86 135.034L178.886 135.008H178.895C178.938 134.965 178.996 134.939 179.057 134.934C179.419 134.991 179.756 135.152 180.028 135.397C179.617 135.446 178.952 135.345 178.834 135.166C178.833 135.165 178.833 135.164 178.832 135.163C178.822 135.144 178.802 135.105 178.86 135.034Z" fill="#4EC89E"/>
<path id="Shape_3" fill-rule="evenodd" clip-rule="evenodd" d="M150.641 143.015C150.772 143.198 151.17 143.255 151.581 143.255C151.911 143.254 152.241 143.224 152.566 143.168C152.595 143.161 152.618 143.137 152.623 143.106C152.63 143.075 152.616 143.043 152.588 143.028C152.539 142.997 151.415 142.358 150.881 142.503C150.78 142.527 150.693 142.592 150.641 142.682C150.568 142.781 150.568 142.916 150.641 143.015ZM150.925 142.634C150.974 142.627 151.024 142.627 151.074 142.634C151.516 142.685 151.944 142.822 152.334 143.036C151.739 143.12 150.925 143.115 150.776 142.91C150.741 142.883 150.724 142.835 150.776 142.739C150.809 142.684 150.863 142.646 150.925 142.634Z" fill="#4EC89E"/>
<path id="Shape_4" fill-rule="evenodd" clip-rule="evenodd" d="M152.523 143.168H152.554C152.573 143.172 152.594 143.169 152.611 143.159C152.632 143.142 152.645 143.116 152.646 143.089C152.645 143.088 152.645 143.086 152.645 143.083C152.635 143.001 152.541 142.177 152.147 141.851C152.025 141.749 151.867 141.702 151.709 141.719C151.499 141.741 151.425 141.846 151.425 141.934C151.368 142.293 152.138 142.993 152.523 143.168ZM151.727 141.855H151.771V141.864C151.86 141.865 151.946 141.896 152.016 141.951C152.263 142.227 152.416 142.573 152.454 142.94C152.064 142.704 151.544 142.157 151.579 141.938C151.579 141.921 151.587 141.855 151.727 141.855Z" fill="#4EC89E"/>
<path id="Path_34" d="M180.125 135.012L182.75 132.514C182.844 132.421 182.991 132.408 183.1 132.484L185.532 134.111C185.651 134.192 185.727 134.322 185.737 134.466C185.748 134.609 185.691 134.75 185.585 134.846C184.662 135.721 184.167 136.076 183.021 137.169C182.312 137.847 180.203 140.144 179.228 141.081C178.252 142.017 177.202 141.168 177.517 140.7C178.934 138.596 179.818 136.579 179.897 135.516C179.911 135.326 179.992 135.148 180.125 135.012Z" fill="#262626"/>
<path id="Path_35" d="M152.895 142.721H156.395C156.526 142.721 156.639 142.812 156.666 142.94L157.3 145.797C157.333 145.936 157.299 146.083 157.21 146.194C157.12 146.305 156.984 146.368 156.841 146.366C155.572 146.366 153.743 146.274 152.151 146.274C150.292 146.274 148.686 146.375 146.503 146.375C145.19 146.375 144.818 145.04 145.369 144.918C147.881 144.371 149.937 144.31 152.107 142.971C152.341 142.816 152.614 142.729 152.895 142.721Z" fill="#262626"/>
<path id="Path_36" d="M148.317 39.954C147.039 41.8353 145.722 43.5941 144.305 45.3311C142.882 47.0892 141.361 48.7661 139.75 50.3537L139.129 50.9575L138.971 51.1062L138.858 51.2113L138.691 51.3294C138.485 51.4955 138.264 51.642 138.031 51.7669C137.292 52.1565 136.48 52.3847 135.646 52.4363C134.375 52.5115 133.099 52.4055 131.857 52.1213C129.607 51.6251 127.426 50.8582 125.36 49.8375L126.165 47.5624C128.214 47.9719 130.286 48.2554 132.369 48.4112C133.285 48.4835 134.206 48.4453 135.113 48.2974C135.373 48.2585 135.621 48.1612 135.839 48.013C135.861 48.013 135.839 47.9868 135.839 47.9868L135.874 47.9518L136.001 47.8074L136.521 47.2386C137.886 45.6811 139.212 44.0185 140.498 42.321C141.785 40.6234 143.075 38.8821 144.305 37.1846L148.317 39.954Z" fill="#FFC3BD"/>
<path id="Path_37" d="M165.888 33.3912C168.898 34.0825 172.355 42.2946 172.355 42.2946L166.304 46.4422C164.801 44.2827 163.468 42.0095 162.318 39.6433C160.524 35.885 162.808 32.6824 165.888 33.3912Z" fill="#4EC89E"/>
<path id="Path_38" opacity="0.3" d="M163.727 38.6414L166.588 46.2585L166.304 46.4553C166.304 46.4553 165.065 44.7053 163.727 42.3733L163.727 38.6414Z" fill="#262626"/>
<path id="Path_39" d="M147.88 33.553C147.88 33.553 144.458 37.4163 147.692 61.3351H164.881C165 58.71 163.341 45.8209 165.888 33.3868C163.986 33.0211 162.063 32.7785 160.13 32.6605C157.697 32.5204 155.257 32.5204 152.824 32.6605C151.155 32.8286 149.502 33.127 147.88 33.553Z" fill="#4EC89E"/>
<path id="Path_40" opacity="0.3" d="M149.787 40.47C149.34 43.1843 148.167 45.727 146.392 47.8289C146.322 46.2889 146.296 44.9064 146.3 43.6682L149.787 40.47Z" fill="#262626"/>
<path id="Path_41" d="M151.27 36.1607C151.708 39.2014 145.696 46.976 145.696 46.976L139.672 42.8284C139.672 42.8284 141.343 38.5451 144.156 35.7363C147.372 32.5162 150.811 32.8487 151.27 36.1607Z" fill="#4EC89E"/>
<path id="Path_42" d="M126.582 47.829L124.224 45.3921L121.708 48.6341C121.708 48.6341 123.624 50.4847 125.904 49.9466L126.582 47.829Z" fill="#FFC3BD"/>
<path id="Path_43" d="M120.986 44.0359L119.905 47.4397L121.708 48.621L124.224 45.3791L120.986 44.0359Z" fill="#FFC3BD"/>
<path id="Path_44" d="M159.693 20.8957C159.496 24.0765 159.545 25.9534 157.943 27.5853C155.524 30.0442 151.595 28.5872 150.838 25.3978C150.151 22.5364 150.589 17.8113 153.704 16.5469C155.099 15.9736 156.691 16.1641 157.912 17.0503C159.132 17.9364 159.807 19.3917 159.693 20.8957Z" fill="#FFC3BD"/>
<path id="Path_45" d="M162.461 14.25C163.441 15.1513 163.026 16.1575 162.514 16.3457C164.102 16.6738 164.334 17.9382 163.498 20.607C162.702 23.1621 160.772 26.5879 158.362 26.7979C154.739 27.1129 153.68 23.3371 153.654 19.592C151.607 19.7189 152.49 17.9032 149.975 18.3232C147.787 18.6864 148.61 16.9801 146.75 16.2363C144.593 15.3613 145.026 12.058 147.039 13.0074C147.039 13.0074 146.107 13.62 147.192 14.1975C148.277 14.775 148.172 13.4406 150.32 13.2787C152.468 13.1168 152.718 14.9544 155.229 13.8475C158.379 12.4562 160.449 12.3905 162.461 14.25Z" fill="#262626"/>
<path id="Path_46" d="M161.255 16.328C161.548 15.8576 162.116 15.6353 162.651 15.7811C163.635 15.9911 163.714 16.4243 164.331 16.3674C164.947 16.3105 164.724 16.9668 164.724 16.9668C164.724 16.9668 164.558 16.4724 163.814 16.748C163.071 17.0237 162.585 16.3499 162.266 16.6518C161.946 16.9537 161.255 16.328 161.255 16.328Z" fill="#262626"/>
<path id="Path_47" d="M155.37 21.7622C155.23 22.5422 154.834 23.2534 154.245 23.7835C153.467 24.4747 152.793 23.9191 152.767 22.9741C152.767 22.1209 153.13 20.7296 154.027 20.3971C154.924 20.0646 155.532 20.8171 155.37 21.7622Z" fill="#FFC3BD"/>
<path id="Path_48" d="M153.786 61.3354C153.786 61.3354 157.435 85.893 159.439 95.0808C161.626 105.144 176.874 131.919 176.874 131.919L182.474 130.099C182.474 130.099 170.333 105.975 169.082 95.9952C167.721 85.1667 164.881 61.3179 164.881 61.3179L153.786 61.3354Z" fill="#A7E4CF"/>
<path id="Path_49" d="M175.308 130.169C175.286 130.169 176.59 132.129 176.59 132.129L182.881 130.082L182.142 128.2L175.308 130.169Z" fill="#4EC89E"/>
<path id="Path_50" opacity="0.3" d="M156.092 70.0855C160.31 70.9124 159.863 86.641 159.356 94.7306C158.14 89.0123 156.359 78.0089 155.143 70.1993C155.437 70.0543 155.772 70.0141 156.092 70.0855Z" fill="#262626"/>
<path id="Path_51" d="M147.691 61.3352C147.691 61.3352 147.254 85.3678 147.595 95.1681C147.958 105.362 151.533 138.744 151.533 138.744H156.98C156.98 138.744 157.177 105.957 157.417 95.9469C157.68 85.0091 158.997 61.3352 158.997 61.3352L147.691 61.3352Z" fill="#A7E4CF"/>
<path id="Path_52" d="M150.474 136.574C150.448 136.574 150.78 138.836 150.78 138.836H157.404L157.584 136.819L150.474 136.574Z" fill="#4EC89E"/>
</g>
</g>
<defs>
<clipPath id="clip0_793_14076">
<rect width="28" height="28" fill="white" transform="translate(102.001 42)"/>
</clipPath>
</defs>
</svg>
