<svg width="16" height="8" viewBox="0 0 16 8" fill="none" xmlns="http://www.w3.org/2000/svg">
<path d="M1.00631 0.0526513C1.13763 0.0524752 1.26769 0.0783053 1.38898 0.128651C1.51027 0.178997 1.62039 0.252862 1.71298 0.345985L6.82831 5.46065C6.98308 5.61546 7.16683 5.73827 7.36907 5.82205C7.57131 5.90584 7.78807 5.94896 8.00698 5.94896C8.22589 5.94896 8.44265 5.90584 8.64489 5.82205C8.84713 5.73827 9.03088 5.61546 9.18565 5.46065L14.293 0.352651C14.3852 0.257141 14.4956 0.180959 14.6176 0.12855C14.7396 0.0761408 14.8708 0.0485549 15.0036 0.047401C15.1364 0.0462472 15.268 0.0715487 15.3909 0.12183C15.5138 0.17211 15.6255 0.246364 15.7194 0.340256C15.8133 0.434149 15.8875 0.545801 15.9378 0.668697C15.9881 0.791594 16.0134 0.923273 16.0122 1.05605C16.0111 1.18883 15.9835 1.32005 15.9311 1.44206C15.8787 1.56406 15.8025 1.6744 15.707 1.76665L10.5996 6.87465C9.91159 7.56143 8.97914 7.94716 8.00698 7.94716C7.03482 7.94716 6.10237 7.56143 5.41431 6.87465L0.29898 1.75998C0.159036 1.62013 0.0637221 1.44191 0.0250994 1.24787C-0.0135234 1.05383 0.0062807 0.852688 0.0820057 0.669906C0.157731 0.487125 0.285973 0.330912 0.450506 0.221037C0.615038 0.111162 0.808466 0.0525617 1.00631 0.0526513Z" fill="#262626"/>
</svg>
