<svg width="32" height="32" viewBox="0 0 32 32" fill="none" xmlns="http://www.w3.org/2000/svg">
<circle opacity="0.1" cx="16" cy="16" r="16" fill="#4EC89E"/>
<path d="M22.1429 10.361C22.1429 9.05372 21.0875 8 19.7731 8H11.3697C10.0554 8 9 9.05372 9 10.361V21.6585C9 22.9463 10.0554 24 11.3697 24H17.7818H17.8614C17.8813 24 17.8813 24 17.9013 23.9805C17.9211 23.9805 17.9211 23.9805 17.9411 23.9611C17.961 23.9611 17.961 23.9416 17.981 23.9416C17.981 23.9416 18.0009 23.9416 18.0009 23.9221L18.0606 23.8636L22.0034 19.9417C22.0034 19.9417 22.0034 19.9223 22.0233 19.9223C22.0431 19.9028 22.0431 19.9028 22.0632 19.8832C22.0632 19.8637 22.083 19.8637 22.083 19.8441C22.083 19.8247 22.1029 19.8247 22.1029 19.8051C22.1029 19.7856 22.1029 19.7856 22.1227 19.766V19.7269V19.649L22.1229 10.3609L22.1429 10.361ZM9.7966 21.6389V10.361C9.7966 9.50246 10.5135 8.78058 11.3697 8.78058H19.7731C20.6493 8.78058 21.3462 9.48302 21.3462 10.361V19.2975H18.7774C18.0207 19.2975 17.3835 19.922 17.3835 20.6633V23.2193H11.3697C10.5135 23.2193 9.7966 22.517 9.7966 21.6389ZM20.7888 20.078L18.2001 22.6536V20.6633C18.2001 20.3317 18.459 20.078 18.7976 20.078H20.7888Z" fill="#4EC89E"/>
<path d="M9 21.6018V9.73639L10.3968 8H19.0571C20.3981 8.23152 21.1058 9.25406 21.2921 9.73639L21.5714 19.8654L17.6603 23.3382H11.5143C9.94984 23.8012 9.18624 22.3735 9 21.6018Z" fill="#4EC89E" fill-opacity="0.2"/>
<g clip-path="url(#clip0_569_11263)">
<path d="M17.7381 11.7856H13.4048C12.8252 11.7856 12.2858 12.2284 12.2858 12.8571V16.8571C12.2858 17.4857 12.8252 17.9285 13.4048 17.9285H17.7381C18.3177 17.9285 18.8572 17.4857 18.8572 16.8571V12.8571C18.8572 12.2284 18.3177 11.7856 17.7381 11.7856Z" stroke="#4EC89E" stroke-linecap="round" stroke-linejoin="round"/>
<path d="M14.4881 14.2856C14.7445 14.2856 14.9524 14.0937 14.9524 13.857C14.9524 13.6203 14.7445 13.4285 14.4881 13.4285C14.2317 13.4285 14.0238 13.6203 14.0238 13.857C14.0238 14.0937 14.2317 14.2856 14.4881 14.2856Z" stroke="#4EC89E" stroke-linecap="round" stroke-linejoin="round"/>
<path d="M18.3572 15.7142L16.8095 14.2856L13.4048 17.4285" stroke="#4EC89E" stroke-linecap="round" stroke-linejoin="round"/>
</g>
<defs>
<clipPath id="clip0_569_11263">
<rect width="7.42857" height="6.85714" fill="white" transform="translate(11.8572 11.4285)"/>
</clipPath>
</defs>
</svg>
