<svg width="8" height="14" viewBox="0 0 8 14" fill="none" xmlns="http://www.w3.org/2000/svg">
<path d="M7.18903 1.70698C7.37119 1.51838 7.47198 1.26578 7.4697 1.00358C7.46742 0.741382 7.36226 0.49057 7.17685 0.305162C6.99144 0.119753 6.74063 0.0145843 6.47843 0.0123059C6.21623 0.0100274 5.96363 0.110822 5.77503 0.29298L1.18903 4.87898C0.626616 5.44156 0.310669 6.20449 0.310669 6.99998C0.310669 7.79547 0.626616 8.5584 1.18903 9.12098L5.77503 13.707C5.96363 13.8891 6.21623 13.9899 6.47843 13.9877C6.74063 13.9854 6.99144 13.8802 7.17685 13.6948C7.36226 13.5094 7.46742 13.2586 7.4697 12.9964C7.47198 12.7342 7.37119 12.4816 7.18903 12.293L2.60003 7.70698C2.41256 7.51945 2.30724 7.26514 2.30724 6.99998C2.30724 6.73482 2.41256 6.48051 2.60003 6.29298L7.18903 1.70698Z" fill="#262626"/>
</svg>
