<svg width="32" height="32" viewBox="0 0 32 32" fill="none" xmlns="http://www.w3.org/2000/svg">
<circle opacity="0.1" cx="16" cy="16" r="16" fill="#4EC89E"/>
<path d="M9.84619 22.648V9.86996L11.3847 8H20.9231C22.4 8.24933 23.1795 9.35053 23.3847 9.86996V19.8431L19.3847 24.518H12.6154C10.8923 25.0167 10.0513 23.4791 9.84619 22.648Z" fill="#4EC89E" fill-opacity="0.2"/>
<path d="M23.3843 10.5426C23.3843 9.13477 22.2477 8 20.8323 8H11.7825C10.3671 8 9.23047 9.13477 9.23047 10.5426V22.7091C9.23047 24.096 10.3671 25.2308 11.7825 25.2308H18.6878H18.7735C18.7949 25.2308 18.7949 25.2308 18.8164 25.2098C18.8378 25.2098 18.8378 25.2098 18.8594 25.1888C18.8808 25.1888 18.8808 25.1679 18.9023 25.1679C18.9023 25.1679 18.9237 25.1679 18.9237 25.1469L18.988 25.0839L23.2342 20.8603C23.2342 20.8603 23.2342 20.8393 23.2555 20.8393C23.2769 20.8184 23.2769 20.8184 23.2985 20.7973C23.2985 20.7763 23.3199 20.7763 23.3199 20.7552C23.3199 20.7343 23.3413 20.7343 23.3413 20.7131C23.3413 20.6922 23.3413 20.6922 23.3627 20.6711V20.629V20.545L23.3628 10.5425L23.3843 10.5426ZM10.0883 22.6881V10.5426C10.0883 9.61803 10.8604 8.84063 11.7824 8.84063H20.8323C21.7759 8.84063 22.5264 9.59709 22.5264 10.5426V20.1665H19.76C18.9451 20.1665 18.2589 20.839 18.2589 21.6374V24.3901H11.7825C10.8604 24.3901 10.0883 23.6336 10.0883 22.6881ZM21.926 21.007L19.1383 23.7808V21.6375C19.1383 21.2802 19.4171 21.007 19.7817 21.007H21.926Z" fill="#4EC89E"/>
<path d="M20.8097 18.232C20.5738 18.295 20.2093 18.316 19.952 18.253C19.6518 18.1689 19.3731 18.0008 18.9444 17.6646C18.7514 17.5176 18.6014 17.3704 18.4512 17.2444C18.2796 17.3074 18.1082 17.3495 17.8936 17.4334C17.7221 17.4965 17.5505 17.5385 17.3146 17.6225L17.0144 17.7276C16.371 17.9378 16.0707 18.0218 15.3631 18.316C15.1699 18.4001 14.9985 18.4631 14.8483 18.5262C14.8268 18.5471 14.8054 18.5682 14.8054 18.5892C14.7625 18.6522 14.5481 19.0936 14.2049 19.7449L14.2037 19.7474C14.1185 19.9143 14.0544 20.0396 13.9904 20.1442C13.7759 20.5433 13.6687 20.7535 13.4114 20.9847C13.2182 21.1528 12.9823 21.2368 12.725 21.2368C12.4892 21.2368 12.2317 21.1528 12.0387 20.9847C11.4812 20.5433 11.7385 19.871 11.8458 19.5978C12.0387 19.0934 12.5749 18.7783 13.3469 18.3369C13.7107 18.1272 13.9678 18.0012 14.2246 17.8754L14.2262 17.8746C14.3977 17.5594 14.655 17.0761 14.8052 16.6768L14.8266 16.6348C14.9553 16.3195 14.9553 16.3195 15.0196 16.1304L15.0196 16.1304C15.0624 15.9625 15.1696 15.6892 15.4055 14.9958C15.6414 14.3233 15.7701 13.9242 15.8773 13.4829C15.5557 12.9154 15.3626 12.4532 15.2768 12.075C15.1482 11.5497 15.1267 11.1715 15.2768 10.6671C15.4912 9.93162 16.0059 9.84764 16.1346 9.84764C16.3705 9.82666 16.8851 9.9948 17.0353 10.7092C17.1641 11.3607 17.1211 11.6338 16.9496 12.4323L16.8852 12.7265C16.8423 12.9786 16.7995 13.1888 16.7566 13.3779C16.8209 13.483 16.8852 13.609 16.9496 13.7141C17.4 14.4917 17.6787 14.9329 18.1291 15.5633C18.365 15.8786 18.515 16.0886 18.7295 16.2988C18.7939 16.2988 18.9011 16.2777 18.9868 16.2567C19.2871 16.2147 19.48 16.1937 19.7159 16.1937C19.9518 16.1937 20.2093 16.1937 20.5952 16.2567C21.4316 16.4038 21.6245 16.9502 21.6031 17.2653C21.5817 17.4965 21.5604 18.0429 20.8097 18.232Z" fill="#4EC89E"/>
</svg>
