<svg width="32" height="32" viewBox="0 0 32 32" fill="none" xmlns="http://www.w3.org/2000/svg">
<circle opacity="0.1" cx="16" cy="16" r="16" fill="#4EC89E"/>
<path d="M9.84619 22.648V9.86996L11.3847 8H20.9231C22.4 8.24933 23.1795 9.35053 23.3847 9.86996V19.8431L19.3847 24.518H12.6154C10.8923 25.0167 10.0513 23.4791 9.84619 22.648Z" fill="#4EC89E" fill-opacity="0.2"/>
<path d="M23.3845 10.5426C23.3845 9.13477 22.2479 8 20.8325 8H11.7827C10.3672 8 9.23065 9.13477 9.23065 10.5426V22.7091C9.23065 24.096 10.3672 25.2308 11.7827 25.2308H18.688H18.7737C18.7951 25.2308 18.7951 25.2308 18.8166 25.2098C18.838 25.2098 18.838 25.2098 18.8596 25.1888C18.881 25.1888 18.881 25.1679 18.9025 25.1679C18.9025 25.1679 18.9239 25.1679 18.9239 25.1469L18.9882 25.0839L23.2343 20.8603C23.2343 20.8603 23.2343 20.8393 23.2557 20.8393C23.2771 20.8184 23.2771 20.8184 23.2987 20.7973C23.2987 20.7763 23.3201 20.7763 23.3201 20.7552C23.3201 20.7343 23.3414 20.7343 23.3414 20.7131C23.3414 20.6922 23.3414 20.6922 23.3628 20.6711V20.629V20.545L23.363 10.5425L23.3845 10.5426ZM10.0885 22.6881V10.5426C10.0885 9.61803 10.8606 8.84063 11.7826 8.84063H20.8325C21.7761 8.84063 22.5265 9.59709 22.5265 10.5426V20.1665H19.7602C18.9452 20.1665 18.2591 20.839 18.2591 21.6374V24.3901H11.7827C10.8606 24.3901 10.0885 23.6336 10.0885 22.6881ZM21.9262 21.007L19.1385 23.7808V21.6375C19.1385 21.2802 19.4173 21.007 19.7819 21.007H21.9262Z" fill="#4EC89E"/>
<path d="M20.8098 18.232C20.5739 18.295 20.2094 18.316 19.9521 18.253C19.6519 18.1689 19.3732 18.0008 18.9445 17.6646C18.7515 17.5176 18.6015 17.3704 18.4513 17.2444C18.2797 17.3074 18.1083 17.3495 17.8938 17.4334C17.7222 17.4965 17.5506 17.5385 17.3147 17.6225L17.0145 17.7276C16.3711 17.9378 16.0709 18.0218 15.3632 18.316C15.1701 18.4001 14.9986 18.4631 14.8485 18.5262C14.8269 18.5471 14.8055 18.5682 14.8055 18.5892C14.7626 18.6522 14.5482 19.0936 14.2051 19.7449L14.2038 19.7474C14.1186 19.9143 14.0546 20.0396 13.9905 20.1442C13.776 20.5433 13.6688 20.7535 13.4115 20.9847C13.2184 21.1528 12.9825 21.2368 12.7252 21.2368C12.4893 21.2368 12.2318 21.1528 12.0389 20.9847C11.4813 20.5433 11.7386 19.871 11.8459 19.5978C12.0388 19.0934 12.575 18.7783 13.347 18.3369C13.7108 18.1272 13.968 18.0012 14.2247 17.8754L14.2263 17.8746C14.3978 17.5594 14.6552 17.0761 14.8053 16.6768L14.8267 16.6348C14.9554 16.3195 14.9554 16.3195 15.0197 16.1304L15.0197 16.1304C15.0625 15.9625 15.1697 15.6892 15.4056 14.9958C15.6415 14.3233 15.7702 13.9242 15.8774 13.4829C15.5558 12.9154 15.3627 12.4532 15.277 12.075C15.1483 11.5497 15.1268 11.1715 15.277 10.6671C15.4913 9.93162 16.0061 9.84764 16.1347 9.84764C16.3706 9.82666 16.8852 9.9948 17.0354 10.7092C17.1642 11.3607 17.1213 11.6338 16.9497 12.4323L16.8854 12.7265C16.8424 12.9786 16.7996 13.1888 16.7567 13.3779C16.821 13.483 16.8854 13.609 16.9497 13.7141C17.4001 14.4917 17.6788 14.9329 18.1292 15.5633C18.3651 15.8786 18.5151 16.0886 18.7297 16.2988C18.794 16.2988 18.9012 16.2777 18.987 16.2567C19.2872 16.2147 19.4802 16.1937 19.7161 16.1937C19.9519 16.1937 20.2094 16.1937 20.5953 16.2567C21.4317 16.4038 21.6246 16.9502 21.6033 17.2653C21.5819 17.4965 21.5605 18.0429 20.8098 18.232Z" fill="#4EC89E"/>
</svg>
