<svg width="16" height="17" viewBox="0 0 16 17" fill="none" xmlns="http://www.w3.org/2000/svg">
    <path d="M4.31509 0.5H0.737362C0.541831 0.5 0.354207 0.577689 0.215938 0.715946C0.0776828 0.854207 0 1.04184 0 1.23739V4.81526C0 5.07861 0.140494 5.32207 0.368695 5.45388C0.596747 5.58555 0.877848 5.58555 1.10605 5.45388C1.3341 5.32207 1.47474 5.07859 1.47474 4.81526V1.97488H4.31529C4.57876 1.97488 4.82208 1.83424 4.95388 1.60617C5.08555 1.37797 5.08555 1.09686 4.95388 0.868783C4.82208 0.64059 4.57875 0.500074 4.31529 0.500074L4.31509 0.5Z" fill="#262626"/>
    <path d="M15.7185 1.2374C15.7185 1.04186 15.6408 0.854226 15.5025 0.71595C15.3643 0.577687 15.1766 0.5 14.9811 0.5H11.4034C11.1399 0.5 10.8966 0.640501 10.7648 0.868714C10.6331 1.09678 10.6331 1.3779 10.7648 1.60611C10.8966 1.83417 11.1399 1.97482 11.4034 1.97482H14.2439V4.81525C14.2439 5.0786 14.3845 5.32207 14.6126 5.45387C14.8408 5.58555 15.1219 5.58555 15.35 5.45387C15.5781 5.32206 15.7186 5.07859 15.7186 4.81525L15.7185 1.2374Z" fill="#262626"/>
    <path d="M0.000195448 15.7625C0.000195448 15.958 0.0778814 16.1457 0.216133 16.2839C0.354389 16.4222 0.542019 16.4999 0.737557 16.4999H4.31529C4.57876 16.4999 4.82208 16.3594 4.95388 16.1312C5.08555 15.9031 5.08555 15.622 4.95388 15.3938C4.82208 15.1657 4.57875 15.0251 4.31529 15.0251H1.47474V12.1846C1.47474 11.9213 1.33412 11.6778 1.10605 11.546C0.877866 11.4143 0.59676 11.4143 0.368694 11.546C0.14051 11.6778 0 11.9213 0 12.1846L0.000195448 15.7625Z" fill="#262626"/>
    <path d="M15.7186 12.1846C15.7186 11.9213 15.5782 11.6778 15.35 11.546C15.1219 11.4143 14.8408 11.4143 14.6126 11.546C14.3845 11.6778 14.2439 11.9213 14.2439 12.1846V15.0251H11.4034C11.1399 15.0251 10.8966 15.1657 10.7648 15.3938C10.6331 15.622 10.6331 15.9031 10.7648 16.1312C10.8966 16.3594 11.1399 16.4999 11.4034 16.4999H14.9811C15.1766 16.4999 15.3642 16.4222 15.5025 16.2839C15.6408 16.1457 15.7185 15.958 15.7185 15.7625L15.7186 12.1846Z" fill="#262626"/>
    <path d="M1.68457 8.5001C1.68457 8.68619 1.76172 8.86475 1.89937 8.99634C2.0369 9.12792 2.22341 9.20185 2.41805 9.20185H13.302C13.5641 9.20185 13.8062 9.06814 13.9372 8.85096C14.0682 8.63378 14.0682 8.3664 13.9372 8.14922C13.8062 7.93205 13.5641 7.79834 13.302 7.79834H2.41805C2.22342 7.79834 2.03691 7.87227 1.89937 8.00385C1.76171 8.13542 1.68457 8.31399 1.68457 8.50008V8.5001Z" fill="#262626"/>
</svg>
