<svg width="14" height="14" viewBox="0 0 14 14" fill="none" xmlns="http://www.w3.org/2000/svg">
<path d="M13.8292 13.0041L10.3473 9.52221C11.2961 8.36172 11.7627 6.88093 11.6504 5.38612C11.538 3.89131 10.8555 2.49685 9.74387 1.49118C8.63226 0.485504 7.17663 -0.05444 5.67807 -0.0169715C4.17952 0.0204971 2.75269 0.632511 1.69272 1.69248C0.632756 2.75245 0.0207412 4.17928 -0.0167273 5.67783C-0.0541959 7.17638 0.485748 8.63201 1.49142 9.74363C2.49709 10.8552 3.89155 11.5378 5.38636 11.6501C6.88117 11.7624 8.36196 11.2959 9.52245 10.347L13.0044 13.829C13.1144 13.9352 13.2617 13.994 13.4147 13.9927C13.5676 13.9914 13.7139 13.93 13.8221 13.8218C13.9302 13.7137 13.9916 13.5674 13.9929 13.4144C13.9943 13.2615 13.9355 13.1141 13.8292 13.0041ZM5.83345 10.4999C4.91047 10.4999 4.00822 10.2262 3.24079 9.7134C2.47336 9.20062 1.87522 8.47178 1.52201 7.61906C1.1688 6.76634 1.07639 5.82803 1.25645 4.92278C1.43652 4.01754 1.88097 3.18602 2.53362 2.53337C3.18626 1.88073 4.01778 1.43627 4.92303 1.25621C5.82827 1.07614 6.76658 1.16856 7.61931 1.52177C8.47203 1.87498 9.20086 2.47312 9.71364 3.24054C10.2264 4.00797 10.5001 4.91023 10.5001 5.83321C10.4987 7.07046 10.0066 8.25663 9.13175 9.1315C8.25688 10.0064 7.0707 10.4985 5.83345 10.4999Z" fill="#7C7C7C"/>
</svg>
