<svg width="25" height="24" viewBox="0 0 25 24" fill="none" xmlns="http://www.w3.org/2000/svg">
<path fill-rule="evenodd" clip-rule="evenodd" d="M9.5 0H15.5C16.8256 0.00158786 18.0964 0.528882 19.0338 1.46622C19.9711 2.40356 20.4984 3.67441 20.5 5V19C20.4984 20.3256 19.9711 21.5964 19.0338 22.5338C18.0964 23.4711 16.8256 23.9984 15.5 24H9.5C8.17441 23.9984 6.90356 23.4711 5.96622 22.5338C5.02888 21.5964 4.50159 20.3256 4.5 19V5C4.50159 3.67441 5.02888 2.40356 5.96622 1.46622C6.90356 0.528882 8.17441 0.00158786 9.5 0ZM15.5 2H9.5C8.70435 2 7.94129 2.31607 7.37868 2.87868C6.81607 3.44129 6.5 4.20435 6.5 5V16H18.5V5C18.5 4.20435 18.1839 3.44129 17.6213 2.87868C17.0587 2.31607 16.2956 2 15.5 2ZM7.37868 21.1213C7.94129 21.6839 8.70435 22 9.5 22H15.5C16.2956 22 17.0587 21.6839 17.6213 21.1213C18.1839 20.5587 18.5 19.7956 18.5 19V18H6.5V19C6.5 19.7956 6.81607 20.5587 7.37868 21.1213ZM13.5 20C13.5 20.5523 13.0523 21 12.5 21C11.9477 21 11.5 20.5523 11.5 20C11.5 19.4477 11.9477 19 12.5 19C13.0523 19 13.5 19.4477 13.5 20Z" fill="#4EC89E"/>
</svg>
