<svg width="240" height="165" viewBox="0 0 240 165" fill="none" xmlns="http://www.w3.org/2000/svg">
<g id="sent_illustration">
<g id="freepik--background-complete--inject-128">
<rect id="Rectangle" y="143.181" width="240" height="0.120786" fill="#E0E0E0"/>
<rect id="Rectangle_2" x="164.765" y="148.298" width="16.512" height="0.120786" fill="#E0E0E0"/>
<rect id="Rectangle_3" x="44.0068" y="148.356" width="9.2928" height="0.120786" fill="#E0E0E0"/>
<rect id="Rectangle_4" x="101.645" y="148.076" width="18.8352" height="0.120786" fill="#E0E0E0"/>
<rect id="Rectangle_5" x="92.7451" y="146.356" width="8.4192" height="0.120786" fill="#E0E0E0"/>
<rect id="Rectangle_6" x="178.354" y="146.418" width="25.4352" height="0.120786" fill="#E0E0E0"/>
<path id="Path" d="M210.869 82.7064C204.965 73.6571 210.355 63.9314 209.457 53.8627C208.56 43.794 199.056 41.6005 200.856 33.0875C202.939 23.1927 197.385 13.699 191.093 13.699C184.8 13.699 179.251 23.1686 181.334 33.073C183.134 41.6005 173.654 43.7988 172.733 53.8482C171.811 63.8976 177.225 73.6571 171.317 82.6919C165.408 91.7267 166.963 103.723 170.289 109.671C171.174 111.249 172.241 112.716 173.467 114.043C178.024 118.967 184.409 121.764 191.095 121.764C197.781 121.764 204.166 118.967 208.723 114.043C209.946 112.715 211.011 111.248 211.896 109.671C215.227 103.738 216.777 91.775 210.869 82.7064Z" fill="#E0E0E0"/>
<path id="Path_2" d="M191.093 89.5718V89.5718C191.885 89.5718 192.644 89.8884 193.204 90.452C193.764 91.0155 194.079 91.7799 194.079 92.5769V143.181H188.107V92.5769C188.107 91.7799 188.422 91.0155 188.982 90.452C189.542 89.8884 190.301 89.5718 191.093 89.5718Z" fill="#F0F0F0"/>
<path id="Path_3" d="M153.557 143.181H145.44V92.5817C145.446 90.3239 147.263 88.4948 149.506 88.4895V88.4895C151.749 88.4948 153.566 90.3239 153.572 92.5817L153.557 143.181Z" fill="#E0E0E0"/>
<ellipse id="Oval" cx="149.491" cy="104.327" rx="25.0416" ry="25.2056" fill="#F0F0F0"/>
<ellipse id="Oval_2" cx="169.339" cy="94.3687" rx="9.92969" ry="9.87257" transform="rotate(-76.05 169.339 94.3687)" fill="#F0F0F0"/>
<ellipse id="Oval_3" cx="129.235" cy="88.4861" rx="5.87887" ry="5.84259" transform="rotate(-80.75 129.235 88.4861)" fill="#F0F0F0"/>
<ellipse id="Oval_4" cx="135.59" cy="85.4456" rx="4.0992" ry="4.12605" fill="#F0F0F0"/>
<path id="Path_4" d="M97.9204 112.98C94.0265 113.564 90.3052 114.993 87.0148 117.169C86.986 113.343 86.29 109.714 84.5044 106.781C81.7876 109.444 79.5844 112.893 77.7844 116.604C77.1268 109.651 75.3076 102.887 71.2804 98.6018C65.2468 102.423 62.1364 108.791 60.658 115.536C58.2156 110.988 54.6706 107.136 50.3524 104.337C46.6612 108.25 45.4804 113.661 45.5812 119.208C41.386 114.289 36.73 110.453 32.1892 110.004C31.0708 117.778 33.4516 125.112 36.4804 130.91C40.4879 138.49 48.3348 143.216 56.866 143.186H76.5892C84.994 143.186 92.8756 138.674 96.8164 131.2C99.3076 126.465 100.498 120.372 97.9204 112.98Z" fill="#E0E0E0"/>
<path id="Path_5" d="M92.2852 12.607C94.7188 5.42264 92.7652 0.306152 86.8276 0.306152C83.0932 0.306152 78.4612 2.32086 73.9492 5.59658C73.4404 3.72681 72.0052 2.61075 69.6964 2.61075C65.6308 2.61075 60.0292 6.07006 55.6372 10.9498C54.4007 9.76729 52.7636 9.10232 51.058 9.0897C47.1652 8.86746 42.4564 10.858 38.362 14.0902C37.9458 13.5038 37.2733 13.1564 36.5572 13.1578C34.3156 13.0322 31.2772 15.042 29.7748 17.6413C29.6836 17.8008 29.602 17.9602 29.5156 18.1245H93.466C93.658 15.8537 93.2596 13.9598 92.2852 12.607Z" fill="#F0F0F0"/>
<path id="Path_6" d="M92.4821 56.2301C93.6725 52.7225 92.7269 50.2246 89.8181 50.2246C87.9893 50.2246 85.7285 51.1909 83.5253 52.8094C83.2801 51.8781 82.3993 51.2638 81.4469 51.36C79.4645 51.36 76.7285 53.051 74.5781 55.4377C73.9753 54.8582 73.1748 54.5331 72.3413 54.5294C70.4213 54.4183 68.1413 55.3894 66.1397 56.9693C65.9428 56.686 65.6238 56.5138 65.2805 56.5055C64.1861 56.4427 62.7029 57.4234 61.9685 58.6941L61.8389 58.926H93.0773C93.2079 57.9846 92.9965 57.0273 92.4821 56.2301V56.2301Z" fill="#F0F0F0"/>
<path id="Path_7" d="M164.53 29.6862C164.283 29.6513 164.034 29.6336 163.786 29.633C164.016 26.1303 162.686 23.8885 159.84 23.8885C157.79 23.8885 155.27 25.0577 152.707 27.0337C153.442 20.2311 151.09 15.8103 145.762 15.8103C141.47 15.8103 136.032 18.7092 130.661 23.3763C130.181 20.7094 128.606 19.1053 125.947 19.1053C121.277 19.1053 114.638 24.0527 109.315 31.0293V31.0293C108.087 29.3999 106.191 28.4177 104.16 28.3575C99.7152 28.0435 94.1904 30.8844 89.28 35.5129C88.9154 34.7164 88.1302 34.2002 87.2592 34.1843C84.8256 34.0103 81.4992 36.5662 79.5264 39.982H168.442C170.53 34.8027 168.869 30.2708 164.53 29.6862Z" fill="#F0F0F0"/>
</g>
<g id="freepik--Shadow--inject-128">
<ellipse id="Oval_5" cx="120" cy="159.531" rx="93.0672" ry="5.46919" fill="#F5F5F5"/>
</g>
<g id="freepik--Mail--inject-128">
<path id="Path_8" d="M13 33.9009L140.843 52.4266L157.998 69.8516L13 33.9009V33.9009Z" fill="#4EC89E"/>
<path id="Path_9" opacity="0.6" d="M13 33.9009L140.843 52.4266L157.998 69.8516L13 33.9009V33.9009Z" fill="white"/>
<path id="Path_10" d="M13 33.9009L140.843 52.4266L134.91 77.6242L13 33.9009V33.9009Z" fill="#4EC89E"/>
<path id="Path_11" opacity="0.2" d="M13 33.9009L140.843 52.4266L134.91 77.6242L13 33.9009V33.9009Z" fill="#262626"/>
<g id="Group 627833">
<ellipse id="Ellipse 694" cx="106" cy="36.6192" rx="26" ry="25.381" fill="#3EA07E"/>
<circle id="Ellipse 695" cx="107.623" cy="35.1475" r="25.1475" fill="#4EC89E"/>
<g id="Bold/check" clip-path="url(#clip0_793_15449)">
<path id="Vector" d="M102.905 44.4859C102.56 44.4861 102.218 44.4182 101.899 44.2861C101.581 44.154 101.291 43.9604 101.047 43.7163L95.4326 38.1036C95.1425 37.8133 94.9795 37.4198 94.9795 37.0094C94.9795 36.599 95.1425 36.2054 95.4326 35.9152V35.9152C95.7228 35.6251 96.1164 35.4621 96.5268 35.4621C96.9372 35.4621 97.3307 35.6251 97.6209 35.9152L102.905 41.1988L116.883 27.2207C117.173 26.9306 117.566 26.7676 117.977 26.7676C118.387 26.7676 118.781 26.9306 119.071 27.2207V27.2207C119.361 27.5109 119.524 27.9045 119.524 28.3149C119.524 28.7252 119.361 29.1188 119.071 29.409L104.762 43.7163C104.518 43.9604 104.228 44.154 103.91 44.2861C103.591 44.4182 103.249 44.4861 102.905 44.4859V44.4859Z" fill="#F9F9F9"/>
</g>
</g>
<path id="Path_12" d="M13 33.9009L118.445 59.1267L134.91 77.6242L13 33.9009V33.9009Z" fill="#4EC89E"/>
<path id="Path_13" opacity="0.6" d="M13 33.9009L118.445 59.1267L134.91 77.6242L13 33.9009V33.9009Z" fill="white"/>
<path id="Rectangle_7" d="M51.1797 58.7021L51.4631 58.2151L63.1974 65.1335L62.9139 65.6206L51.1797 58.7021Z" fill="#4EC89E"/>
<path id="Rectangle_8" d="M68.0962 68.6711L68.3797 68.1841L72.5992 70.6719L72.3157 71.1589L68.0962 68.6711Z" fill="#4EC89E"/>
<path id="Path_14" d="M13 33.9009L118.445 59.1267L97.9486 83.9914L13 33.9009V33.9009Z" fill="#4EC89E"/>
<path id="Path_15" d="M154.04 93C153.898 93.0004 153.757 92.9736 153.625 92.921L136.454 86.0797C135.882 85.8478 135.603 85.1948 135.83 84.6177C136.056 84.0405 136.703 83.7557 137.278 83.9799L154.455 90.8212C154.956 91.0206 155.246 91.5508 155.144 92.0837C155.043 92.6165 154.579 93.0013 154.04 93V93Z" fill="#4EC89E"/>
<path id="Path_16" opacity="0.3" d="M154.04 93C153.898 93.0004 153.757 92.9736 153.625 92.921L136.454 86.0797C135.882 85.8478 135.603 85.1948 135.83 84.6177C136.056 84.0405 136.703 83.7557 137.278 83.9799L154.455 90.8212C154.956 91.0206 155.246 91.5508 155.144 92.0837C155.043 92.6165 154.579 93.0013 154.04 93V93Z" fill="#262626"/>
<path id="Path_17" d="M153.025 83.088C152.884 83.0871 152.745 83.0583 152.615 83.0033L143.39 79.3061C143.015 79.1597 142.746 78.8222 142.686 78.4216C142.626 78.021 142.784 77.6188 143.1 77.3676C143.416 77.1165 143.841 77.0549 144.215 77.2063L153.44 80.8866C154.015 81.1146 154.299 81.7687 154.073 82.3486C153.912 82.7914 153.493 83.0863 153.025 83.088Z" fill="#4EC89E"/>
<path id="Path_18" opacity="0.5" d="M153.025 83.088C152.884 83.0871 152.745 83.0583 152.615 83.0033L143.39 79.3061C143.015 79.1597 142.746 78.8222 142.686 78.4216C142.626 78.021 142.784 77.6188 143.1 77.3676C143.416 77.1165 143.841 77.0549 144.215 77.2063L153.44 80.8866C154.015 81.1146 154.299 81.7687 154.073 82.3486C153.912 82.7914 153.493 83.0863 153.025 83.088Z" fill="white"/>
<path id="Path_19" d="M133.738 92.8533C133.598 92.8517 133.459 92.8249 133.328 92.7743L116.578 86.0798C116.202 85.9334 115.934 85.5958 115.874 85.1953C115.814 84.7947 115.972 84.3925 116.288 84.1413C116.603 83.8902 117.029 83.8286 117.402 83.98L134.153 90.6519C134.654 90.8514 134.944 91.3815 134.842 91.9144C134.741 92.4473 134.277 92.8321 133.738 92.8308V92.8533Z" fill="#4EC89E"/>
<path id="Path_20" opacity="0.3" d="M133.738 92.8533C133.598 92.8517 133.459 92.8249 133.328 92.7743L116.578 86.0798C116.202 85.9334 115.934 85.5958 115.874 85.1953C115.814 84.7947 115.972 84.3925 116.288 84.1413C116.603 83.8902 117.029 83.8286 117.402 83.98L134.153 90.6519C134.654 90.8514 134.944 91.3815 134.842 91.9144C134.741 92.4473 134.277 92.8321 133.738 92.8308V92.8533Z" fill="#262626"/>
</g>
<g id="freepik--Character--inject-128">
<path id="Path_21" d="M178.705 38.0588C179.977 40.5567 181.143 43.0594 182.252 45.62C183.361 48.1807 184.393 50.7752 185.295 53.4953L185.621 54.5244C185.679 54.708 185.761 55.0075 185.809 55.2201C185.857 55.4327 185.9 55.6743 185.924 55.8772C186.034 56.6566 186.09 57.4428 186.092 58.2301C186.099 59.682 186.032 61.1334 185.89 62.5784C185.622 65.3756 185.186 68.1539 184.585 70.8981L181.949 70.6034C181.916 67.8833 181.892 65.1342 181.796 62.4528C181.753 61.1193 181.676 59.781 181.541 58.5248C181.481 57.9349 181.384 57.3492 181.253 56.771C181.229 56.6357 181.191 56.5343 181.162 56.4231C181.133 56.312 181.105 56.2734 181.057 56.1284L180.692 55.2153C179.689 52.7706 178.561 50.3065 177.409 47.8522L173.924 40.4891L178.705 38.0588Z" fill="#F1BEB6"/>
<path id="Path_22" d="M181.988 69.7532L180.759 72.0674L184.685 73.169C184.685 73.169 185.434 71.3089 184.541 69.8401L181.988 69.7532Z" fill="#F1BEB6"/>
<path id="Path_23" d="M179.257 75.4011L182.866 75.691L184.686 73.169L180.759 72.0674L179.257 75.4011V75.4011Z" fill="#F1BEB6"/>
<path id="Path_24" d="M170.117 25.3088C169.613 27.9082 169.109 32.6623 170.914 34.3968C170.914 34.3968 170.209 37.0299 165.413 37.0299C160.133 37.0299 162.898 34.3968 162.898 34.3968C165.778 33.7059 165.697 31.5559 165.197 29.5412L170.117 25.3088Z" fill="#F1BEB6"/>
<path id="Path_25" d="M171.639 36.0346C172.018 34.764 172.436 33.3097 171.572 32.8507C170.612 32.3676 165.394 31.8361 163.594 32.7782C161.794 33.7204 162.308 36.3052 162.308 36.3052L171.639 36.0346Z" fill="#262626"/>
<path id="Shape" fill-rule="evenodd" clip-rule="evenodd" d="M181.863 156.393C182.102 156.616 182.407 156.714 182.708 156.666C183.018 156.665 183.327 156.624 183.63 156.547C183.661 156.54 183.686 156.511 183.692 156.473C183.696 156.434 183.684 156.396 183.658 156.371C183.657 156.37 183.656 156.369 183.654 156.367C183.572 156.302 182.634 155.554 182.127 155.688C182.015 155.717 181.919 155.802 181.863 155.921C181.777 156.062 181.777 156.252 181.863 156.393ZM182.166 155.87H182.266V155.881C182.674 155.949 183.065 156.124 183.409 156.393C182.881 156.496 182.161 156.496 182.012 156.257C181.983 156.234 181.935 156.166 182.012 156.006C182.043 155.936 182.1 155.886 182.166 155.87Z" fill="#4EC89E"/>
<path id="Shape_2" fill-rule="evenodd" clip-rule="evenodd" d="M183.572 156.429H183.61C183.62 156.43 183.63 156.428 183.639 156.424C183.666 156.409 183.682 156.378 183.677 156.347C183.677 156.304 183.605 155.279 183.197 154.941C183.098 154.859 182.97 154.821 182.842 154.835C182.711 154.835 182.599 154.928 182.573 155.057C182.501 155.463 183.207 156.226 183.572 156.429ZM182.881 154.98H182.9L182.881 154.989C182.963 154.978 183.046 155.001 183.111 155.052C183.356 155.373 183.5 155.76 183.524 156.163C183.164 155.888 182.713 155.303 182.756 155.067C182.756 155.066 182.756 155.065 182.757 155.063C182.762 155.041 182.776 154.98 182.881 154.98Z" fill="#4EC89E"/>
<path id="Shape_3" fill-rule="evenodd" clip-rule="evenodd" d="M160.498 156.355C160.647 156.594 161.084 156.668 161.535 156.668C161.896 156.668 162.256 156.628 162.61 156.549C162.645 156.542 162.672 156.51 162.677 156.469C162.683 156.429 162.668 156.389 162.639 156.367C162.637 156.366 162.635 156.364 162.631 156.361C162.513 156.284 161.331 155.507 160.767 155.689C160.654 155.72 160.557 155.804 160.498 155.923C160.421 156.052 160.421 156.225 160.498 156.355ZM160.815 155.86C160.868 155.851 160.921 155.851 160.973 155.86V155.871C161.461 155.933 161.934 156.107 162.365 156.384C161.703 156.492 160.81 156.475 160.652 156.213C160.613 156.179 160.589 156.122 160.652 155.997C160.687 155.926 160.747 155.876 160.815 155.86Z" fill="#4EC89E"/>
<path id="Shape_4" fill-rule="evenodd" clip-rule="evenodd" d="M162.566 156.429H162.6C162.622 156.437 162.647 156.436 162.667 156.424C162.692 156.407 162.705 156.377 162.701 156.347C162.701 156.346 162.701 156.345 162.7 156.343C162.692 156.261 162.595 155.339 162.154 154.98C162.023 154.861 161.847 154.808 161.674 154.835C161.443 154.859 161.362 154.975 161.362 155.072C161.299 155.463 162.139 156.241 162.566 156.429ZM161.688 154.98H161.741L161.76 154.989C161.85 154.996 161.936 155.031 162.005 155.091C162.275 155.395 162.443 155.777 162.485 156.183C162.062 155.922 161.486 155.318 161.525 155.076C161.525 155.075 161.525 155.074 161.526 155.073C161.531 155.049 161.547 154.98 161.688 154.98Z" fill="#4EC89E"/>
<path id="Path_26" d="M166.479 156.342H162.951L162.601 148.124H166.129L166.479 156.342V156.342Z" fill="#F1BEB6"/>
<path id="Path_27" d="M187.652 156.342H184.124L182.353 148.124H185.876L187.652 156.342V156.342Z" fill="#F1BEB6"/>
<path id="Path_28" d="M183.874 155.931H187.834C187.979 155.932 188.105 156.035 188.136 156.178L188.832 159.333C188.864 159.488 188.824 159.65 188.723 159.773C188.622 159.895 188.472 159.964 188.314 159.961C186.931 159.937 186.259 159.855 184.517 159.855C183.446 159.855 181.238 159.97 179.755 159.97C178.272 159.97 178.085 158.521 178.69 158.362C181.406 157.763 182.429 156.936 183.298 156.154C183.455 156.01 183.661 155.931 183.874 155.931V155.931Z" fill="#262626"/>
<path id="Path_29" d="M162.975 155.931H166.815C166.96 155.932 167.086 156.035 167.117 156.178L167.813 159.333C167.847 159.487 167.809 159.648 167.709 159.771C167.61 159.893 167.461 159.963 167.304 159.961C165.917 159.937 163.911 159.855 162.163 159.855C160.123 159.855 158.357 159.97 155.962 159.97C154.522 159.97 154.114 158.521 154.719 158.362C157.479 157.753 159.73 157.69 162.115 156.212C162.369 156.038 162.668 155.941 162.975 155.931V155.931Z" fill="#262626"/>
<path id="Path_30" d="M161.28 40.6293C158.332 40.3994 155.398 40.0074 152.491 39.4553C151.051 39.1751 149.583 38.861 148.123 38.4648C146.628 38.0795 145.159 37.5953 143.727 37.0154C143.357 36.8608 142.983 36.6917 142.613 36.5323C142.197 36.3259 141.796 36.0902 141.413 35.8269C140.722 35.3679 140.127 34.8896 139.536 34.4161C138.36 33.4498 137.271 32.4835 136.176 31.4931C134.031 29.4929 131.995 27.425 130.032 25.2509L131.799 23.2651L138.763 28.3043C139.911 29.1353 141.072 29.9518 142.215 30.72C142.781 31.1017 143.362 31.4593 143.895 31.7636C144.117 31.8915 144.348 32.0045 144.586 32.1018C144.869 32.213 145.157 32.3241 145.459 32.4304C148.054 33.2344 150.707 33.8321 153.394 34.218C156.135 34.6528 158.967 35.0104 161.703 35.3002L161.28 40.6293Z" fill="#F1BEB6"/>
<path id="Path_31" d="M177.226 35.1986C180.533 35.962 183.874 45.6877 183.874 45.6877L177.072 50.6013C177.072 50.6013 175.152 46.0694 173.3 42.1076C171.36 37.9574 173.847 34.4208 177.226 35.1986Z" fill="#4EC89E"/>
<path id="Path_32" opacity="0.4" d="M177.226 35.1986C180.533 35.962 183.874 45.6877 183.874 45.6877L177.072 50.6013C177.072 50.6013 175.152 46.0694 173.3 42.1076C171.36 37.9574 173.847 34.4208 177.226 35.1986Z" fill="#4EC89E"/>
<path id="Path_33" d="M175.32 40.5132L173.972 43.5522C175.368 46.5863 176.645 49.5915 176.986 50.3935C176.938 46.8037 176.261 42.3491 175.32 40.5132Z" fill="#4EC89E"/>
<path id="Path_34" opacity="0.6" d="M175.32 40.5132L173.972 43.5522C175.368 46.5863 176.645 49.5915 176.986 50.3935C176.938 46.8037 176.261 42.3491 175.32 40.5132Z" fill="#262626"/>
<path id="Path_35" d="M157.474 35.3824C157.474 35.3824 153.72 39.6486 157.263 66.062H176.122C176.256 63.1632 174.437 48.9298 177.226 35.1988C175.141 34.7948 173.033 34.5269 170.914 34.3968C168.244 34.2421 165.568 34.2421 162.898 34.3968C161.067 34.5825 159.254 34.912 157.474 35.3824Z" fill="#4EC89E"/>
<path id="Path_36" opacity="0.4" d="M157.474 35.3824C157.474 35.3824 153.72 39.6486 157.263 66.062H176.122C176.256 63.1632 174.437 48.9298 177.226 35.1988C175.141 34.7948 173.033 34.5269 170.914 34.3968C168.244 34.2421 165.568 34.2421 162.898 34.3968C161.067 34.5825 159.254 34.912 157.474 35.3824Z" fill="#4EC89E"/>
<path id="Path_37" d="M156.077 40.5132C155.952 41.5133 155.856 42.697 155.794 44.0933C157.656 43.5306 159.426 42.6938 161.045 41.6099L156.077 40.5132Z" fill="#4EC89E"/>
<path id="Path_38" opacity="0.6" d="M156.077 40.5132C155.952 41.5133 155.856 42.697 155.794 44.0933C157.656 43.5306 159.426 42.6938 161.045 41.6099L156.077 40.5132Z" fill="#262626"/>
<path id="Path_39" d="M164.161 41.0447C161.636 43.2961 151.997 43.0691 151.997 43.0691L151.681 33.6768C154.936 34.1434 158.219 34.3823 161.506 34.3918C166.877 34.2807 166.916 38.5613 164.161 41.0447Z" fill="#4EC89E"/>
<path id="Path_40" opacity="0.4" d="M164.161 41.0447C161.636 43.2961 151.997 43.0691 151.997 43.0691L151.681 33.6768C154.936 34.1434 158.219 34.3823 161.506 34.3918C166.877 34.2807 166.916 38.5613 164.161 41.0447Z" fill="#4EC89E"/>
<path id="Path_41" d="M131.891 23.2844L129.491 20.4387L126.903 23.3376C126.903 23.3376 128.497 26.0335 131.027 25.6084L131.891 23.2844Z" fill="#F1BEB6"/>
<path id="Path_42" d="M126.053 17.1194L125.122 20.8348L126.884 23.3181L129.471 20.4386L126.053 17.1194V17.1194Z" fill="#F1BEB6"/>
<path id="Path_43" d="M162.601 148.129L162.783 152.361H166.311L166.129 148.129H162.601V148.129Z" fill="#CE6F64"/>
<path id="Path_44" d="M185.881 148.129H182.353L183.265 152.361H186.793L185.881 148.129V148.129Z" fill="#CE6F64"/>
<path id="Path_45" d="M164.722 17.8539C161.559 16.4044 160.561 9.96413 169.662 11.573C169.662 11.573 168.289 13.0997 171.073 14.066C173.857 15.0323 171.529 20.9991 164.722 17.8539Z" fill="#262626"/>
<path id="Path_46" d="M171.596 22.6853C170.688 26.0673 170.333 28.1255 168.236 29.5411C165.096 31.6669 161.194 29.2271 161.069 25.618C160.959 22.3761 162.461 17.3562 166.085 16.6702C167.712 16.3491 169.387 16.9008 170.511 18.1273C171.634 19.3539 172.045 21.0795 171.596 22.6853Z" fill="#F1BEB6"/>
<path id="Path_47" d="M169.536 13.264C171.691 14.4719 174.61 15.1966 174.336 16.9166C173.976 19.0183 176.098 17.7041 175.603 20.8301C175.282 22.8738 171.538 29.0677 168.883 28.7681C164.919 28.285 165.423 22.2167 165.408 19.0183C165.399 17.1292 165.312 10.8821 169.536 13.264Z" fill="#262626"/>
<path id="Path_48" d="M164.933 15.9744C163.973 16.2014 162.701 21.7721 166.421 22.2842C170.698 22.8688 164.933 15.9744 164.933 15.9744Z" fill="#262626"/>
<path id="Path_49" d="M165.029 17.9505C163.853 18.0568 161.189 16.6315 161.516 14.4864C161.516 14.4719 163.201 16.9939 165.029 17.9505Z" fill="#262626"/>
<path id="Path_50" d="M166.777 22.7289C166.416 23.5255 165.803 24.1795 165.034 24.589C164.021 25.1204 163.45 24.3474 163.681 23.3231C163.887 22.4052 164.665 21.0186 165.706 20.9074C166.748 20.7963 167.194 21.7626 166.777 22.7289Z" fill="#F1BEB6"/>
<path id="Path_51" d="M172.057 18.8203C173.514 18.1838 174.556 16.8534 174.831 15.2788C174.831 15.2788 176.415 19.7092 172.057 18.8203Z" fill="#262626"/>
<path id="Path_52" d="M176.06 18.7476C175.382 18.289 174.52 18.2037 173.766 18.5206C173.766 18.5206 175.244 16.5928 176.06 18.7476Z" fill="#262626"/>
<path id="Path_53" d="M163.954 66.0621C163.954 66.0621 167.957 93.1857 170.151 103.346C172.551 114.459 181.623 151.545 181.623 151.545H188.079C188.079 151.545 182.103 115.372 180.73 104.337C179.242 92.3789 176.122 66.0427 176.122 66.0427L163.954 66.0621Z" fill="#4EC89E"/>
<path id="Path_54" opacity="0.5" d="M163.954 66.0621C163.954 66.0621 167.957 93.1857 170.151 103.346C172.551 114.459 181.623 151.545 181.623 151.545H188.079C188.079 151.545 182.103 115.372 180.73 104.337C179.242 92.3789 176.122 66.0427 176.122 66.0427L163.954 66.0621Z" fill="white"/>
<path id="Path_55" d="M180.591 149.148C180.562 149.148 181.258 151.646 181.258 151.646H188.525L188.391 149.419L180.591 149.148Z" fill="#4EC89E"/>
<path id="Path_56" opacity="0.1" d="M180.591 149.148C180.562 149.148 181.258 151.646 181.258 151.646H188.525L188.391 149.419L180.591 149.148Z" fill="#262626"/>
<path id="Path_57" d="M166.484 75.7248C171.111 76.638 170.622 94.007 170.065 102.94C168.73 96.6256 166.777 84.4746 165.442 75.8505C165.765 75.6904 166.133 75.646 166.484 75.7248V75.7248Z" fill="#4EC89E"/>
<path id="Path_58" opacity="0.4" d="M166.484 75.7248C171.111 76.638 170.622 94.007 170.065 102.94C168.73 96.6256 166.777 84.4746 165.442 75.8505C165.765 75.6904 166.133 75.646 166.484 75.7248V75.7248Z" fill="white"/>
<path id="Path_59" d="M157.263 66.062C157.263 66.062 156.783 92.5963 157.162 103.424C157.561 114.681 161.482 151.545 161.482 151.545H167.454C167.454 151.545 167.674 115.338 167.934 104.284C168.226 92.2291 169.671 66.062 169.671 66.062L157.263 66.062Z" fill="#4EC89E"/>
<path id="Path_60" opacity="0.5" d="M157.263 66.062C157.263 66.062 156.783 92.5963 157.162 103.424C157.561 114.681 161.482 151.545 161.482 151.545H167.454C167.454 151.545 167.674 115.338 167.934 104.284C168.226 92.2291 169.671 66.062 169.671 66.062L157.263 66.062Z" fill="white"/>
<path id="Path_61" d="M162.72 147.225C162.69 147.225 162.665 147.202 162.663 147.172C161.607 136.968 159.125 112.279 158.823 103.423C158.501 94.3837 158.794 74.1013 158.89 68.1007C158.89 68.0687 158.916 68.0427 158.947 68.0427V68.0427C158.98 68.0426 159.007 68.0679 159.01 68.1007C158.914 74.1013 158.621 94.3837 158.943 103.419C159.255 112.275 161.736 136.954 162.783 147.158C162.783 147.191 162.758 147.22 162.725 147.225H162.72Z" fill="#4EC89E"/>
<path id="Path_62" opacity="0.4" d="M162.72 147.225C162.69 147.225 162.665 147.202 162.663 147.172C161.607 136.968 159.125 112.279 158.823 103.423C158.501 94.3837 158.794 74.1013 158.89 68.1007C158.89 68.0687 158.916 68.0427 158.947 68.0427V68.0427C158.98 68.0426 159.007 68.0679 159.01 68.1007C158.914 74.1013 158.621 94.3837 158.943 103.419C159.255 112.275 161.736 136.954 162.783 147.158C162.783 147.191 162.758 147.22 162.725 147.225H162.72Z" fill="white"/>
<path id="Path_63" d="M160.32 149.148C160.296 149.148 160.661 151.646 160.661 151.646H167.924L168.12 149.419L160.32 149.148Z" fill="#4EC89E"/>
<path id="Path_64" opacity="0.1" d="M160.32 149.148C160.296 149.148 160.661 151.646 160.661 151.646H167.924L168.12 149.419L160.32 149.148Z" fill="#262626"/>
</g>
</g>
<defs>
<clipPath id="clip0_793_15449">
<rect width="24.7619" height="24.7619" fill="white" transform="translate(94.8564 22.3809)"/>
</clipPath>
</defs>
</svg>
