<svg width="58" height="58" viewBox="0 0 58 58" fill="none" xmlns="http://www.w3.org/2000/svg">
<circle cx="29" cy="29" r="29" fill="#4EC89E"/>
<g clip-path="url(#clip0_745_13162)">
<path d="M24.8362 38.3452C24.5047 38.3454 24.1765 38.2801 23.8702 38.1532C23.564 38.0263 23.2858 37.8402 23.0516 37.6056L17.6561 32.2121C17.3773 31.9332 17.2207 31.555 17.2207 31.1607C17.2207 30.7663 17.3773 30.3881 17.6561 30.1092C17.935 29.8304 18.3132 29.6738 18.7076 29.6738C19.1019 29.6738 19.4801 29.8304 19.759 30.1092L24.8362 35.1865L38.2684 21.7543C38.5473 21.4755 38.9255 21.3188 39.3199 21.3188C39.7142 21.3188 40.0924 21.4755 40.3713 21.7543C40.6501 22.0332 40.8067 22.4114 40.8067 22.8057C40.8067 23.2001 40.6501 23.5783 40.3713 23.8571L26.6208 37.6056C26.3866 37.8402 26.1085 38.0263 25.8022 38.1532C25.496 38.2801 25.1677 38.3454 24.8362 38.3452Z" fill="white"/>
</g>
<defs>
<clipPath id="clip0_745_13162">
<rect width="23.7949" height="23.7949" fill="white" transform="translate(17.1025 17.1033)"/>
</clipPath>
</defs>
</svg>
