<svg width="24" height="24" viewBox="0 0 24 24" fill="none" xmlns="http://www.w3.org/2000/svg">
    <g clip-path="url(#clip0_1_1888)">
        <path fill-rule="evenodd" clip-rule="evenodd" d="M21.1104 4.24136C22.5341 5.91997 23.4688 7.95784 23.812 10.132L23.808 10.131C24.0461 11.7145 23.9648 13.3296 23.569 14.8811C23.1732 16.4327 22.4709 17.8894 21.5034 19.1653C20.5359 20.4412 19.3228 21.5106 17.9357 22.3105C16.5485 23.1104 15.0153 23.6245 13.4263 23.8227C11.8374 24.0208 10.2249 23.899 8.68373 23.4643C7.1426 23.0296 5.70406 22.2908 4.45285 21.2916C3.20165 20.2923 2.16308 19.0528 1.39835 17.6459C0.633608 16.2391 0.158167 14.6934 3.16021e-05 13.1C-0.012885 12.9607 0.00334737 12.8203 0.0476945 12.6877C0.0920417 12.555 0.163531 12.4331 0.257608 12.3296C0.351685 12.2261 0.466286 12.1434 0.59411 12.0866C0.721933 12.0299 0.860177 12.0004 1.00003 12C1.24513 11.9961 1.48282 12.0841 1.66638 12.2465C1.84994 12.409 1.9661 12.6342 1.99203 12.878C2.18981 15.1466 3.15672 17.2796 4.73256 18.9235C6.3084 20.5674 8.39858 21.6236 10.6568 21.917C12.915 22.2105 15.2057 21.7237 17.1494 20.5372C19.0931 19.3507 20.5731 17.5357 21.3442 15.393C22.1152 13.2503 22.1311 10.9085 21.3892 8.75553C20.6473 6.60257 19.192 4.76771 17.2646 3.55494C15.3372 2.34216 13.0533 1.82428 10.7913 2.08709C8.52935 2.3499 6.42503 3.37763 4.82703 5H7.57803C7.84325 5 8.0976 5.10536 8.28514 5.29289C8.47267 5.48043 8.57803 5.73478 8.57803 6C8.57803 6.26522 8.47267 6.51957 8.28514 6.70711C8.0976 6.89464 7.84325 7 7.57803 7H3.57803C3.0476 7 2.53889 6.78929 2.16382 6.41421C1.78875 6.03914 1.57803 5.53043 1.57803 5V1C1.57803 0.734784 1.68339 0.48043 1.87092 0.292893C2.05846 0.105357 2.31282 0 2.57803 0C2.84325 0 3.0976 0.105357 3.28514 0.292893C3.47268 0.48043 3.57803 0.734784 3.57803 1V3.415C5.15337 1.87775 7.12116 0.803396 9.26613 0.309482C11.4111 -0.184432 13.6506 -0.0788766 15.7396 0.614599C17.8286 1.30808 19.6866 2.56275 21.1104 4.24136ZM11.2929 6.29289C11.4804 6.10536 11.7348 6 12 6C12.2652 6 12.5196 6.10536 12.7071 6.29289C12.8946 6.48043 13 6.73478 13 7V11.586L15.707 14.293C15.8892 14.4816 15.99 14.7342 15.9877 14.9964C15.9854 15.2586 15.8802 15.5094 15.6948 15.6948C15.5094 15.8802 15.2586 15.9854 14.9964 15.9877C14.7342 15.99 14.4816 15.8892 14.293 15.707L11.293 12.707C11.1055 12.5195 11.0001 12.2652 11 12V7C11 6.73478 11.1054 6.48043 11.2929 6.29289Z" fill="#262626"/>
    </g>
    <defs>
        <clipPath id="clip0_1_1888">
            <rect width="24" height="24" fill="red"/>
        </clipPath>
    </defs>
</svg>
