<svg width="14" height="14" viewBox="0 0 14 14" fill="none" xmlns="http://www.w3.org/2000/svg">
<g clip-path="url(#clip0_347_9039)">
<path d="M13.0794 6.44598H11.9741V5.34072C11.9741 5.19415 11.9159 5.05359 11.8122 4.94995C11.7086 4.84631 11.568 4.78809 11.4215 4.78809C11.2749 4.78809 11.1343 4.84631 11.0307 4.94995C10.9271 5.05359 10.8688 5.19415 10.8688 5.34072V6.44598H9.76357C9.617 6.44598 9.47644 6.5042 9.3728 6.60784C9.26916 6.71148 9.21094 6.85205 9.21094 6.99861C9.21094 7.14518 9.26916 7.28574 9.3728 7.38938C9.47644 7.49302 9.617 7.55124 9.76357 7.55124H10.8688V8.65651C10.8688 8.80307 10.9271 8.94364 11.0307 9.04728C11.1343 9.15091 11.2749 9.20914 11.4215 9.20914C11.568 9.20914 11.7086 9.15091 11.8122 9.04728C11.9159 8.94364 11.9741 8.80307 11.9741 8.65651V7.55124H13.0794C13.2259 7.55124 13.3665 7.49302 13.4701 7.38938C13.5738 7.28574 13.632 7.14518 13.632 6.99861C13.632 6.85205 13.5738 6.71148 13.4701 6.60784C13.3665 6.5042 13.2259 6.44598 13.0794 6.44598Z" fill="#158CEA"/>
<path d="M5.34313 6.99877C7.17439 6.99877 8.65892 5.51424 8.65892 3.68298C8.65892 1.85172 7.17439 0.367188 5.34313 0.367188C3.51187 0.367188 2.02734 1.85172 2.02734 3.68298C2.02734 5.51424 3.51187 6.99877 5.34313 6.99877Z" fill="#158CEA"/>
<path d="M5.34283 8.104C4.02417 8.10547 2.75994 8.62995 1.82751 9.56238C0.895085 10.4948 0.370603 11.759 0.369141 13.0777C0.369141 13.2243 0.427364 13.3648 0.531003 13.4685C0.634641 13.5721 0.775205 13.6303 0.921772 13.6303H9.76388C9.91045 13.6303 10.051 13.5721 10.1546 13.4685C10.2583 13.3648 10.3165 13.2243 10.3165 13.0777C10.315 11.759 9.79057 10.4948 8.85814 9.56238C7.92571 8.62995 6.66148 8.10547 5.34283 8.104V8.104Z" fill="#158CEA"/>
</g>
<defs>
<clipPath id="clip0_347_9039">
<rect width="13.2632" height="13.2632" fill="white" transform="translate(0.369141 0.367188)"/>
</clipPath>
</defs>
</svg>
