<svg width="48" height="48" viewBox="0 0 48 48" fill="none" xmlns="http://www.w3.org/2000/svg">
<rect width="47" height="47" rx="12" fill="#12121D" fill-opacity="0.05"/>
<path d="M37.1456 26.3455V25.1865C37.1456 23.252 36.758 21.3706 35.9948 19.594C35.771 19.0721 35.2589 18.735 34.6899 18.735C34.059 18.735 33.4977 19.1579 33.3245 19.7628L33.0829 20.606C32.8628 21.3742 32.1496 21.9115 31.3482 21.9115C30.8274 21.9115 30.333 21.6874 29.9905 21.2971L28.9707 20.1345L29.3382 19.0358C29.3878 18.8843 29.4133 18.7277 29.4133 18.5693V18.3946C29.4133 17.5814 28.7501 16.9198 27.9351 16.9198C27.6171 16.9198 27.3019 17.0246 27.0486 17.2148L25.5954 18.3021C25.4662 18.2912 25.337 18.2812 25.2065 18.2812C24.3009 18.2812 23.4194 18.5394 22.6571 19.0281L20.2251 20.5883C18.3625 21.7826 16.3126 22.5831 14.1325 22.9666L11.7292 23.39C10.3797 23.6273 9.40039 24.7922 9.40039 26.159C9.40039 27.3371 10.1463 28.3989 11.2557 28.8015C13.5931 29.6501 16.0392 30.0798 18.5263 30.0798H36.2359C36.9882 30.0798 37.6004 29.469 37.6004 28.7184V28.3717C37.6004 27.6747 37.4435 26.9768 37.1456 26.3455ZM29.306 21.8943C29.8208 22.4819 30.5654 22.8191 31.3482 22.8191C32.553 22.8191 33.6265 22.0118 33.9576 20.8551L34.1991 20.0119C34.2614 19.7941 34.4634 19.6426 34.6899 19.6426C34.8941 19.6426 35.0783 19.7637 35.1588 19.9516C35.8734 21.6147 36.2359 23.3759 36.2359 25.1865V26.0442C35.1766 26.1581 32.1164 26.4495 28.5036 26.4495C28.4322 26.4495 28.3699 26.4517 28.3003 26.4522L25.5695 22.1706C26.4186 21.642 27.0722 20.8419 27.4111 19.8949C27.6503 20.0646 27.8728 20.2606 28.0697 20.4853L29.306 21.8943ZM23.2994 23.0619L24.6279 22.6199C24.6689 22.6063 24.7062 22.5863 24.7462 22.5713L27.2373 26.4771C26.6552 26.5016 26.1316 26.5402 25.6577 26.591L23.2994 23.0619ZM24.6502 26.7195C24.2054 26.7853 23.7865 26.8565 23.3758 26.9278C23.2198 26.9554 23.0647 26.9822 22.9086 27.0085L20.9296 23.8497L22.4047 23.3591L24.6502 26.7195ZM27.5944 17.9408C27.6922 17.8678 27.8127 17.8274 27.9351 17.8274C28.2485 17.8274 28.5036 18.082 28.5036 18.3946V18.5693C28.5036 18.6306 28.4941 18.6914 28.475 18.749L28.2553 19.4057C27.8154 19.0327 27.3151 18.7436 26.7752 18.5535L27.5944 17.9408ZM20.7172 21.3515L23.1493 19.7914C23.7642 19.3971 24.476 19.1888 25.2065 19.1888C25.6882 19.1888 26.158 19.285 26.5965 19.457C26.2594 20.5324 25.4253 21.3983 24.3405 21.759L18.9461 23.5529C18.1879 23.8052 17.356 23.7807 16.6141 23.4848L16.328 23.3705C17.8727 22.9044 19.3441 22.2319 20.7172 21.3515ZM11.8874 24.2835L14.2908 23.8601C14.4728 23.8283 14.652 23.7884 14.8321 23.7512L16.2762 24.3275C16.7865 24.5308 17.3237 24.6343 17.8731 24.6343C18.3362 24.6343 18.7933 24.5603 19.2331 24.4142L20.0423 24.1451L21.9317 27.161C21.0984 27.2758 20.1723 27.357 18.952 27.357C15.6121 27.357 11.5882 26.1005 10.3747 25.6943C10.5543 24.981 11.132 24.4165 11.8874 24.2835ZM36.6907 28.7184C36.6907 28.9689 36.4869 29.1722 36.2359 29.1722H18.5263C16.1456 29.1722 13.8037 28.7606 11.5663 27.9492C10.975 27.7346 10.5407 27.2422 10.3806 26.6541C11.9006 27.1506 15.6749 28.2646 18.952 28.2646C20.9842 28.2646 22.2791 28.0395 23.5318 27.8217C24.8481 27.5935 26.209 27.357 28.5036 27.357C32.2428 27.357 35.4003 27.0485 36.4069 26.9386C36.5897 27.3938 36.6907 27.8821 36.6907 28.3717V28.7184Z" fill="#12121D" fill-opacity="0.1"/>
<rect width="47" height="47" rx="12" fill="white"/>
<circle cx="24" cy="24" r="24" fill="#158CEA" fill-opacity="0.1"/>
<g clip-path="url(#clip0_337_27600)">
<path d="M12.2911 20.5521C12.0757 20.1524 11.9758 19.7006 12.0029 19.2473C12.0299 18.794 12.1827 18.3573 12.4441 17.9861C12.8714 17.3592 13.4436 16.8446 14.1121 16.4861L21.6131 12.5821C22.3504 12.1987 23.1692 11.9985 24.0001 11.9985C24.8311 11.9985 25.6499 12.1987 26.3871 12.5821L33.8871 16.4891C34.5557 16.8476 35.1279 17.3622 35.5551 17.9891C35.8166 18.3603 35.9694 18.797 35.9964 19.2503C36.0235 19.7036 35.9236 20.1554 35.7081 20.5551C35.4762 20.9939 35.1282 21.3607 34.7022 21.6154C34.2762 21.8702 33.7885 22.0033 33.2921 22.0001H14.7081C14.2113 22.0032 13.7232 21.8698 13.2969 21.6144C12.8707 21.3591 12.5228 20.9916 12.2911 20.5521ZM35.0001 34.0001C35.0001 33.4696 34.7894 32.9609 34.4144 32.5858C34.0393 32.2108 33.5306 32.0001 33.0001 32.0001V24.0001H31.0001V32.0001H28.0001V24.0001H26.0001V32.0001H22.0001V24.0001H20.0001V32.0001H17.0001V24.0001H15.0001V32.0001C14.4697 32.0001 13.961 32.2108 13.5859 32.5858C13.2109 32.9609 13.0001 33.4696 13.0001 34.0001C12.7349 34.0001 12.4806 34.1054 12.293 34.2929C12.1055 34.4805 12.0001 34.7348 12.0001 35.0001C12.0001 35.2653 12.1055 35.5196 12.293 35.7072C12.4806 35.8947 12.7349 36.0001 13.0001 36.0001H35.0001C35.2654 36.0001 35.5197 35.8947 35.7073 35.7072C35.8948 35.5196 36.0001 35.2653 36.0001 35.0001C36.0001 34.7348 35.8948 34.4805 35.7073 34.2929C35.5197 34.1054 35.2654 34.0001 35.0001 34.0001Z" fill="#158CEA"/>
</g>
<defs>
<clipPath id="clip0_337_27600">
<rect width="24" height="24" fill="white" transform="translate(12 12)"/>
</clipPath>
</defs>
</svg>
