<svg width="32" height="33" viewBox="0 0 32 33" fill="none" xmlns="http://www.w3.org/2000/svg">
<circle cx="16" cy="16.5" r="16" fill="#158CEA"/>
<path d="M16.6968 6.10022C17.7893 6.57646 18.7777 7.24917 19.7976 7.85971C20.6977 8.39813 21.1674 9.23559 21.1722 10.3211C21.1771 11.398 21.1801 12.4748 21.168 13.5516C21.165 13.7947 21.2279 13.9365 21.4434 14.0602C22.3477 14.58 23.2405 15.1209 24.1357 15.6568C25.1048 16.2369 25.6017 17.0992 25.5999 18.2581C25.5981 19.1484 25.6005 20.0387 25.5993 20.9297C25.5975 22.0849 25.1072 22.9522 24.1363 23.5316C23.3791 23.983 22.6207 24.4325 21.8604 24.8777C20.9065 25.436 19.9447 25.4428 18.989 24.8876C18.078 24.3585 17.1701 23.8244 16.27 23.2761C16.0727 23.1555 15.9299 23.1511 15.7313 23.2717C14.8397 23.8145 13.9391 24.3417 13.0396 24.8702C12.0651 25.4428 11.0882 25.4403 10.1143 24.8646C9.34679 24.4107 8.57565 23.9643 7.8136 23.5005C6.89175 22.9385 6.41176 22.1016 6.40389 20.995C6.39723 20.063 6.40026 19.131 6.40329 18.1997C6.40631 17.0905 6.88751 16.2537 7.80634 15.6904C8.72213 15.129 9.64822 14.5856 10.5761 14.0447C10.7541 13.9408 10.8273 13.8271 10.8249 13.6095C10.8128 12.5432 10.8194 11.4763 10.8194 10.41C10.8194 9.25425 11.3073 8.38631 12.2788 7.80624C13.0269 7.35984 13.7817 6.92401 14.5256 6.47077C14.775 6.31845 15.0564 6.24757 15.3058 6.10022H16.6974L16.6968 6.10022ZM12.3411 16.6136C12.3411 17.1104 12.3411 17.6078 12.3411 18.1045C12.3417 18.7698 12.6135 19.2883 13.1686 19.6272C14.0511 20.1656 14.9451 20.6829 15.8312 21.2157C15.9486 21.2866 16.037 21.2953 16.1581 21.2225C17.0515 20.6835 17.9533 20.1581 18.8443 19.6147C19.38 19.2877 19.6499 18.781 19.6572 18.1462C19.6693 17.1005 19.659 16.0547 19.6627 15.009C19.6627 14.8852 19.6415 14.8032 19.524 14.7348C18.6046 14.2001 17.6961 13.6468 16.7724 13.1202C16.2501 12.8223 15.7029 12.8416 15.1842 13.1413C14.2895 13.6573 13.4064 14.1945 12.513 14.713C12.3793 14.7907 12.3357 14.8765 12.3381 15.0289C12.3466 15.5567 12.3411 16.0852 12.3411 16.613V16.6136ZM12.3436 13.0058C13.0366 12.5948 13.68 12.2137 14.3234 11.8319C14.7102 11.6025 15.1182 11.4371 15.5649 11.3793C16.3324 11.2792 17.0418 11.4415 17.7058 11.8462C18.3419 12.2336 18.9859 12.6078 19.6566 13.0064C19.6566 12.0601 19.6717 11.1617 19.6506 10.2646C19.6403 9.81505 19.4205 9.45133 19.0374 9.22005C18.2396 8.73883 17.4388 8.26383 16.6338 7.79567C16.2162 7.55258 15.7816 7.55444 15.3657 7.79567C14.5595 8.26197 13.7575 8.73635 12.9609 9.21943C12.5923 9.44325 12.3593 9.7908 12.3496 10.2322C12.329 11.1399 12.3436 12.0489 12.3436 13.007V13.0058ZM21.1734 15.709C21.1734 16.3562 21.1759 16.945 21.1728 17.5338C21.171 17.8956 21.2001 18.2631 21.148 18.6181C20.9937 19.6707 20.4604 20.4752 19.5592 21.0136C18.8933 21.4109 18.2275 21.8082 17.5405 22.2173C18.3129 22.6755 19.0495 23.1206 19.794 23.5496C20.2117 23.7909 20.6462 23.7791 21.0621 23.5372C21.858 23.0734 22.6497 22.6034 23.4384 22.1278C23.8518 21.8784 24.0703 21.4942 24.0746 21.0018C24.0831 20.0605 24.0806 19.1192 24.0752 18.1779C24.0728 17.7352 23.9003 17.3579 23.5335 17.1272C22.7726 16.6485 21.9936 16.1996 21.1728 15.709H21.1734ZM14.462 22.2198C13.7605 21.8013 13.0977 21.4128 12.4428 21.0124C11.3781 20.362 10.8322 19.3977 10.8201 18.1232C10.8134 17.4095 10.8201 16.6951 10.8164 15.9807C10.8164 15.908 10.8618 15.8153 10.7553 15.7513C10.0035 16.1996 9.24026 16.6398 8.49273 17.1054C8.11503 17.3411 7.928 17.716 7.92618 18.1736C7.92255 19.1049 7.92739 20.0363 7.92437 20.9676C7.92316 21.4656 8.12593 21.8573 8.53449 22.1079C9.34618 22.6052 10.1688 23.084 10.992 23.5621C11.3376 23.7629 11.7231 23.7977 12.0669 23.6106C12.8629 23.1766 13.6377 22.7016 14.4627 22.2191L14.462 22.2198Z" fill="white"/>
</svg>
