<svg width="24" height="24" viewBox="0 0 24 24" fill="none" xmlns="http://www.w3.org/2000/svg">
<g clip-path="url(#clip0_1604_3648)">
<path d="M22.5589 10.9999C22.3616 10.9889 22.164 11.0173 21.9778 11.0836C21.7915 11.1498 21.6204 11.2525 21.4743 11.3856C21.3282 11.5188 21.2101 11.6797 21.1269 11.859C21.0438 12.0383 20.9972 12.2324 20.9899 12.4299C20.8988 14.4687 20.1195 16.4165 18.7792 17.9555C17.4389 19.4945 15.6166 20.5339 13.6097 20.9041C11.6027 21.2744 9.52951 20.9536 7.72826 19.9942C5.92701 19.0348 4.50402 17.4934 3.6914 15.6213C2.87878 13.7492 2.7245 11.6571 3.25372 9.68605C3.78295 7.71504 4.96444 5.98152 6.60547 4.76828C8.2465 3.55503 10.2502 2.93365 12.2898 3.00551C14.3293 3.07737 16.2844 3.83822 17.8359 5.16395L16.7069 6.29295C16.5671 6.4328 16.4719 6.61097 16.4333 6.80492C16.3948 6.99887 16.4146 7.1999 16.4902 7.3826C16.5659 7.5653 16.6941 7.72147 16.8585 7.83135C17.0229 7.94124 17.2162 7.99991 17.4139 7.99995H21.9999C22.2651 7.99995 22.5195 7.89459 22.707 7.70706C22.8946 7.51952 22.9999 7.26517 22.9999 6.99995V2.41395C22.9999 2.2162 22.9412 2.0229 22.8313 1.85849C22.7214 1.69408 22.5653 1.56594 22.3826 1.49027C22.1999 1.4146 21.9988 1.3948 21.8049 1.43337C21.6109 1.47193 21.4328 1.56714 21.2929 1.70695L19.9579 3.04195C17.9231 1.24076 15.3365 0.18462 12.6225 0.0468013C9.90854 -0.0910173 7.22829 0.697667 5.02147 2.28347C2.81466 3.86927 1.21234 6.15802 0.477382 8.77423C-0.257581 11.3905 -0.0815429 14.1788 0.976616 16.6818C2.03477 19.1848 3.91222 21.2539 6.30095 22.5495C8.68968 23.8452 11.4478 24.2905 14.123 23.8125C16.7981 23.3344 19.2313 21.9614 21.0234 19.9186C22.8155 17.8758 23.8602 15.2845 23.9859 12.5699C23.9953 12.3732 23.9659 12.1764 23.8993 11.991C23.8327 11.8056 23.7302 11.6351 23.5976 11.4894C23.4651 11.3436 23.3052 11.2253 23.127 11.1413C22.9487 11.0574 22.7557 11.0093 22.5589 10.9999Z" fill="#262626"/>
<path d="M11.5 7C11.1022 7 10.7206 7.15804 10.4393 7.43934C10.158 7.72064 10 8.10218 10 8.5V12.793C10.0001 13.3234 10.2109 13.832 10.586 14.207L12.379 16C12.6619 16.2732 13.0408 16.4244 13.4341 16.421C13.8274 16.4176 14.2036 16.2598 14.4817 15.9817C14.7598 15.7036 14.9176 15.3274 14.921 14.9341C14.9244 14.5408 14.7732 14.1619 14.5 13.879L13 12.379V8.5C13 8.10218 12.842 7.72064 12.5607 7.43934C12.2794 7.15804 11.8978 7 11.5 7Z" fill="#262626"/>
</g>
<defs>
<clipPath id="clip0_1604_3648">
<rect width="24" height="24" fill="white"/>
</clipPath>
</defs>
</svg>
