<svg width="58" height="58" viewBox="0 0 58 58" fill="none" xmlns="http://www.w3.org/2000/svg">
<circle cx="29" cy="29" r="29" fill="#FA9B0F"/>
<g clip-path="url(#clip0_569_14486)">
<path d="M40.8974 29C40.8974 32.1554 39.6439 35.1815 37.4127 37.4127C35.1815 39.6439 32.1554 40.8974 29 40.8974C25.8446 40.8974 22.8184 39.6439 20.5872 37.4127C18.356 35.1815 17.1025 32.1554 17.1025 29C17.1025 28.6056 17.2592 28.2273 17.5381 27.9484C17.817 27.6695 18.1953 27.5128 18.5897 27.5128C18.9841 27.5128 19.3624 27.6695 19.6413 27.9484C19.9202 28.2273 20.0769 28.6056 20.0769 29C20.0769 30.7648 20.6002 32.49 21.5807 33.9574C22.5612 35.4248 23.9548 36.5685 25.5853 37.2438C27.2157 37.9192 29.0099 38.0959 30.7408 37.7516C32.4717 37.4073 34.0616 36.5575 35.3095 35.3095C36.5575 34.0616 37.4073 32.4717 37.7516 30.7408C38.0959 29.0099 37.9192 27.2157 37.2438 25.5853C36.5685 23.9548 35.4248 22.5612 33.9574 21.5807C32.49 20.6002 30.7648 20.0769 29 20.0769C28.6056 20.0769 28.2273 19.9202 27.9484 19.6413C27.6695 19.3624 27.5128 18.9841 27.5128 18.5897C27.5128 18.1953 27.6695 17.817 27.9484 17.5381C28.2273 17.2592 28.6056 17.1025 29 17.1025C32.1543 17.106 35.1785 18.3605 37.409 20.591C39.6394 22.8214 40.894 25.8456 40.8974 29ZM24.0427 29C24.0427 29.3944 24.1994 29.7727 24.4783 30.0516C24.7572 30.3305 25.1355 30.4872 25.5299 30.4872H27.7012C28.0778 30.8187 28.5666 30.9943 29.0682 30.9784C29.5697 30.9624 30.0464 30.756 30.4012 30.4012C30.756 30.0464 30.9624 29.5697 30.9784 29.0682C30.9943 28.5666 30.8187 28.0778 30.4872 27.7012V23.547C30.4872 23.1526 30.3305 22.7743 30.0516 22.4954C29.7727 22.2165 29.3944 22.0598 29 22.0598C28.6056 22.0598 28.2273 22.2165 27.9484 22.4954C27.6695 22.7743 27.5128 23.1526 27.5128 23.547V27.5128H25.5299C25.1355 27.5128 24.7572 27.6695 24.4783 27.9484C24.1994 28.2273 24.0427 28.6056 24.0427 29ZM23.7849 21.9547C24.0791 21.9547 24.3666 21.8675 24.6112 21.7041C24.8557 21.5407 25.0463 21.3084 25.1589 21.0366C25.2715 20.7649 25.3009 20.4659 25.2435 20.1774C25.1862 19.8889 25.0445 19.6239 24.8365 19.4159C24.6285 19.208 24.3636 19.0663 24.0751 19.0089C23.7866 18.9515 23.4876 18.981 23.2158 19.0936C22.9441 19.2061 22.7118 19.3967 22.5484 19.6413C22.385 19.8859 22.2978 20.1734 22.2978 20.4675C22.2978 20.862 22.4544 21.2402 22.7333 21.5191C23.0122 21.798 23.3905 21.9547 23.7849 21.9547ZM19.9906 25.7778C20.2848 25.7778 20.5723 25.6905 20.8169 25.5271C21.0614 25.3637 21.2521 25.1314 21.3646 24.8597C21.4772 24.5879 21.5066 24.2889 21.4492 24.0004C21.3919 23.712 21.2502 23.447 21.0422 23.239C20.8343 23.031 20.5693 22.8894 20.2808 22.832C19.9923 22.7746 19.6933 22.804 19.4215 22.9166C19.1498 23.0292 18.9175 23.2198 18.7541 23.4643C18.5907 23.7089 18.5035 23.9964 18.5035 24.2906C18.5035 24.685 18.6601 25.0633 18.939 25.3422C19.2179 25.6211 19.5962 25.7778 19.9906 25.7778Z" fill="white"/>
</g>
<defs>
<clipPath id="clip0_569_14486">
<rect width="23.7949" height="23.7949" fill="white" transform="translate(17.1025 17.1025)"/>
</clipPath>
</defs>
</svg>
