<svg width="13" height="16" viewBox="0 0 13 16" fill="none" xmlns="http://www.w3.org/2000/svg">
<g clip-path="url(#clip0_407_7176)">
<path d="M12.3927 5.4544C12.3015 5.5264 10.6913 6.4496 10.6913 8.5024C10.6913 10.8768 12.7402 11.7168 12.8016 11.7376C12.7921 11.7888 12.4761 12.888 11.7213 14.008C11.0483 14.9936 10.3454 15.9776 9.27607 15.9776C8.20678 15.9776 7.9316 15.3456 6.6972 15.3456C5.49425 15.3456 5.06654 15.9984 4.08845 15.9984C3.11037 15.9984 2.42791 15.0864 1.64324 13.9664C0.734349 12.6512 0 10.608 0 8.6688C0 5.5584 1.98762 3.9088 3.94378 3.9088C4.98319 3.9088 5.84963 4.6032 6.50221 4.6032C7.12334 4.6032 8.09199 3.8672 9.2745 3.8672C9.72265 3.8672 11.3329 3.9088 12.3927 5.4544ZM8.71312 2.5504C9.20216 1.96 9.54811 1.1408 9.54811 0.3216C9.54811 0.208 9.53867 0.0928 9.51823 0C8.72256 0.0304 7.77592 0.5392 7.20511 1.2128C6.75695 1.7312 6.33867 2.5504 6.33867 3.3808C6.33867 3.5056 6.35912 3.6304 6.36855 3.6704C6.41887 3.68 6.50064 3.6912 6.58241 3.6912C7.29632 3.6912 8.1942 3.2048 8.71312 2.5504Z" fill="#158CEA"/>
</g>
<defs>
<clipPath id="clip0_407_7176">
<rect width="12.8" height="16" fill="white"/>
</clipPath>
</defs>
</svg>
