<svg width="14" height="14" viewBox="0 0 14 14" fill="none" xmlns="http://www.w3.org/2000/svg">
<g clip-path="url(#clip0_407_7152)">
<path d="M10.6841 2.26318H3.31566C1.84198 2.26318 0.684082 3.42108 0.684082 4.89476H13.3157C13.3157 3.42108 12.1578 2.26318 10.6841 2.26318Z" fill="#158CEA"/>
<path d="M0.684082 9.10528C0.684082 10.579 1.84198 11.7369 3.31566 11.7369H10.6841C12.1578 11.7369 13.3157 10.579 13.3157 9.10528V5.94739H0.684082V9.10528ZM4.36829 8.84212C4.36829 9.26318 3.99987 9.6316 3.57882 9.6316C3.15777 9.6316 2.78935 9.26318 2.78935 8.84212C2.78935 8.42107 3.15777 8.05265 3.57882 8.05265C3.99987 8.05265 4.36829 8.42107 4.36829 8.84212Z" fill="#158CEA"/>
</g>
<defs>
<clipPath id="clip0_407_7152">
<rect width="12.6316" height="12.6316" fill="white" transform="translate(0.684082 0.684204)"/>
</clipPath>
</defs>
</svg>
