<svg width="12" height="12" viewBox="0 0 12 12" fill="none" xmlns="http://www.w3.org/2000/svg">
<g clip-path="url(#clip0_346_12082)">
<path d="M6 12C7.18669 12 8.34673 11.6481 9.33342 10.9888C10.3201 10.3295 11.0892 9.39246 11.5433 8.2961C11.9974 7.19975 12.1162 5.99335 11.8847 4.82946C11.6532 3.66558 11.0818 2.59648 10.2426 1.75736C9.40353 0.918247 8.33443 0.346802 7.17054 0.115291C6.00666 -0.11622 4.80026 0.00259972 3.7039 0.456726C2.60754 0.910851 1.67047 1.67989 1.01118 2.66658C0.351894 3.65328 0 4.81331 0 6C0.00172054 7.59077 0.634414 9.1159 1.75926 10.2407C2.88411 11.3656 4.40923 11.9983 6 12ZM5.5 3C5.5 2.86739 5.55268 2.74022 5.64645 2.64645C5.74021 2.55268 5.86739 2.5 6 2.5C6.13261 2.5 6.25979 2.55268 6.35355 2.64645C6.44732 2.74022 6.5 2.86739 6.5 3V7C6.5 7.13261 6.44732 7.25979 6.35355 7.35356C6.25979 7.44732 6.13261 7.5 6 7.5C5.86739 7.5 5.74021 7.44732 5.64645 7.35356C5.55268 7.25979 5.5 7.13261 5.5 7V3ZM6 9C6.09889 9 6.19556 9.02933 6.27779 9.08427C6.36001 9.13921 6.4241 9.2173 6.46194 9.30866C6.49978 9.40002 6.50969 9.50056 6.49039 9.59755C6.4711 9.69454 6.42348 9.78363 6.35355 9.85356C6.28363 9.92348 6.19454 9.9711 6.09755 9.9904C6.00055 10.0097 5.90002 9.99979 5.80866 9.96194C5.7173 9.9241 5.63921 9.86001 5.58427 9.77779C5.52932 9.69556 5.5 9.59889 5.5 9.5C5.5 9.36739 5.55268 9.24022 5.64645 9.14645C5.74021 9.05268 5.86739 9 6 9Z" fill="#4EC89E"/>
</g>
<defs>
<clipPath id="clip0_346_12082">
<rect width="12" height="12" fill="white"/>
</clipPath>
</defs>
</svg>
