<svg width="40" height="24" viewBox="0 0 40 24" fill="none" xmlns="http://www.w3.org/2000/svg">
<g clip-path="url(#clip0_407_7051)">
<path fill-rule="evenodd" clip-rule="evenodd" d="M14.4424 21.4032H25.1481V2.56177H14.4424V21.4032Z" fill="#FF5F00"/>
<path fill-rule="evenodd" clip-rule="evenodd" d="M15.1222 11.9827C15.1222 8.16023 16.9497 4.7558 19.7954 2.56197C17.714 0.957285 15.0882 0 12.2341 0C5.47724 0 0 5.36493 0 11.9827C0 18.6005 5.47724 23.9654 12.2341 23.9654C15.0882 23.9654 17.714 23.0081 19.7954 21.4035C16.9497 19.2093 15.1222 15.8052 15.1222 11.9827Z" fill="#EB001B"/>
<path fill-rule="evenodd" clip-rule="evenodd" d="M39.2088 19.4078V18.9428H39.0847L38.9423 19.2626L38.7996 18.9428H38.6755V19.4078H38.7629V19.0569L38.8968 19.3595H38.9875L39.1214 19.0563V19.4078H39.2088ZM38.4233 19.4078V19.022H38.5824V18.9434H38.178V19.022H38.3367V19.4078H38.4233ZM39.5908 11.9825C39.5908 18.6003 34.1132 23.9652 27.3567 23.9652C24.5025 23.9652 21.8764 23.0079 19.7954 21.4032C22.6411 19.2094 24.4685 15.805 24.4685 11.9825C24.4685 8.16032 22.6411 4.75589 19.7954 2.56173C21.8764 0.957041 24.5025 -0.000244141 27.3567 -0.000244141C34.1132 -0.000244141 39.5908 5.36468 39.5908 11.9825Z" fill="#F79E1B"/>
</g>
<defs>
<clipPath id="clip0_407_7051">
<rect width="40" height="24" fill="white"/>
</clipPath>
</defs>
</svg>
