<svg width="14" height="14" viewBox="0 0 14 14" fill="none" xmlns="http://www.w3.org/2000/svg">
<g clip-path="url(#clip0_407_7170)">
<path d="M9.1049 9.36847C9.1049 9.57785 9.02172 9.77866 8.87367 9.92671C8.72561 10.0748 8.52481 10.1579 8.31543 10.1579H5.68385C5.47447 10.1579 5.27366 10.0748 5.1256 9.92671C4.97755 9.77866 4.89437 9.57785 4.89437 9.36847C4.89437 9.15909 4.97755 8.95828 5.1256 8.81023C5.27366 8.66217 5.47447 8.579 5.68385 8.579H8.31543C8.52481 8.579 8.72561 8.66217 8.87367 8.81023C9.02172 8.95828 9.1049 9.15909 9.1049 9.36847ZM5.38858 7.29531C5.4619 7.36868 5.54895 7.42687 5.64477 7.46658C5.74059 7.50629 5.84329 7.52672 5.947 7.52672C6.05072 7.52672 6.15342 7.50629 6.24924 7.46658C6.34506 7.42687 6.43211 7.36868 6.50543 7.29531L6.99964 6.80058L7.49385 7.29531C7.64195 7.44342 7.84282 7.52662 8.05227 7.52662C8.26172 7.52662 8.46259 7.44342 8.61069 7.29531C8.75879 7.14721 8.84199 6.94634 8.84199 6.73689C8.84199 6.52744 8.75879 6.32657 8.61069 6.17847L8.11595 5.68426L8.61069 5.19005C8.75879 5.04195 8.84199 4.84108 8.84199 4.63163C8.84199 4.42218 8.75879 4.22131 8.61069 4.07321C8.46259 3.9251 8.26172 3.8419 8.05227 3.8419C7.84282 3.8419 7.64195 3.9251 7.49385 4.07321L6.99964 4.56794L6.50543 4.07321C6.35732 3.9251 6.15645 3.8419 5.947 3.8419C5.73756 3.8419 5.53669 3.9251 5.38858 4.07321C5.24048 4.22131 5.15728 4.42218 5.15728 4.63163C5.15728 4.84108 5.24048 5.04195 5.38858 5.19005L5.88332 5.68426L5.38858 6.17847C5.31522 6.25179 5.25702 6.33884 5.21732 6.43466C5.17761 6.53047 5.15717 6.63317 5.15717 6.73689C5.15717 6.84061 5.17761 6.94331 5.21732 7.03913C5.25702 7.13494 5.31522 7.222 5.38858 7.29531V7.29531ZM3.57858 8.579H1.47332C1.26394 8.579 1.06313 8.66217 0.915078 8.81023C0.767023 8.95828 0.683847 9.15909 0.683847 9.36847C0.683847 9.57785 0.767023 9.77866 0.915078 9.92671C1.06313 10.0748 1.26394 10.1579 1.47332 10.1579H3.57858C3.78797 10.1579 3.98877 10.0748 4.13683 9.92671C4.28488 9.77866 4.36806 9.57785 4.36806 9.36847C4.36806 9.15909 4.28488 8.95828 4.13683 8.81023C3.98877 8.66217 3.78797 8.579 3.57858 8.579ZM4.137 4.07321C4.06369 3.99984 3.97664 3.94165 3.88082 3.90194C3.785 3.86223 3.6823 3.8418 3.57858 3.8418C3.47487 3.8418 3.37216 3.86223 3.27635 3.90194C3.18053 3.94165 3.09348 3.99984 3.02016 4.07321L2.52595 4.56794L2.03174 4.07321C1.95841 3.99987 1.87135 3.9417 1.77554 3.90202C1.67972 3.86233 1.57703 3.8419 1.47332 3.8419C1.36961 3.8419 1.26692 3.86233 1.17111 3.90202C1.07529 3.9417 0.988232 3.99987 0.914899 4.07321C0.766797 4.22131 0.683594 4.42218 0.683594 4.63163C0.683594 4.84108 0.766797 5.04195 0.914899 5.19005L1.40964 5.68426L0.914899 6.17847C0.766797 6.32657 0.683594 6.52744 0.683594 6.73689C0.683594 6.94634 0.766797 7.14721 0.914899 7.29531C1.063 7.44342 1.26387 7.52662 1.47332 7.52662C1.68277 7.52662 1.88364 7.44342 2.03174 7.29531L2.52595 6.80058L3.02016 7.29531C3.16827 7.44342 3.36914 7.52662 3.57858 7.52662C3.78803 7.52662 3.9889 7.44342 4.137 7.29531C4.28511 7.14721 4.36831 6.94634 4.36831 6.73689C4.36831 6.52744 4.28511 6.32657 4.137 6.17847L3.64227 5.68426L4.137 5.19005C4.21037 5.11673 4.26857 5.02968 4.30827 4.93386C4.34798 4.83805 4.36842 4.73535 4.36842 4.63163C4.36842 4.52791 4.34798 4.42521 4.30827 4.32939C4.26857 4.23358 4.21037 4.14652 4.137 4.07321ZM12.526 8.579H10.4207C10.2113 8.579 10.0105 8.66217 9.86245 8.81023C9.71439 8.95828 9.63122 9.15909 9.63122 9.36847C9.63122 9.57785 9.71439 9.77866 9.86245 9.92671C10.0105 10.0748 10.2113 10.1579 10.4207 10.1579H12.526C12.7353 10.1579 12.9361 10.0748 13.0842 9.92671C13.2322 9.77866 13.3154 9.57785 13.3154 9.36847C13.3154 9.15909 13.2322 8.95828 13.0842 8.81023C12.9361 8.66217 12.7353 8.579 12.526 8.579ZM12.5896 5.68426L13.0844 5.19005C13.1577 5.11672 13.2159 5.02966 13.2556 4.93384C13.2953 4.83803 13.3157 4.73534 13.3157 4.63163C13.3157 4.52792 13.2953 4.42523 13.2556 4.32941C13.2159 4.2336 13.1577 4.14654 13.0844 4.07321C13.011 3.99987 12.924 3.9417 12.8282 3.90202C12.7324 3.86233 12.6297 3.8419 12.526 3.8419C12.4222 3.8419 12.3196 3.86233 12.2237 3.90202C12.1279 3.9417 12.0409 3.99987 11.9675 4.07321L11.4733 4.56794L10.9791 4.07321C10.9058 3.99987 10.8187 3.9417 10.7229 3.90202C10.6271 3.86233 10.5244 3.8419 10.4207 3.8419C10.2112 3.8419 10.0104 3.9251 9.86227 4.07321C9.78893 4.14654 9.73076 4.2336 9.69108 4.32941C9.65139 4.42523 9.63096 4.52792 9.63096 4.63163C9.63096 4.84108 9.71417 5.04195 9.86227 5.19005L10.357 5.68426L9.86227 6.17847C9.71417 6.32657 9.63096 6.52744 9.63096 6.73689C9.63096 6.94634 9.71417 7.14721 9.86227 7.29531C10.0104 7.44342 10.2112 7.52662 10.4207 7.52662C10.6301 7.52662 10.831 7.44342 10.9791 7.29531L11.4733 6.80058L11.9675 7.29531C12.1156 7.44342 12.3165 7.52662 12.526 7.52662C12.7354 7.52662 12.9363 7.44342 13.0844 7.29531C13.2325 7.14721 13.3157 6.94634 13.3157 6.73689C13.3157 6.52744 13.2325 6.32657 13.0844 6.17847L12.5896 5.68426Z" fill="#158CEA"/>
</g>
<defs>
<clipPath id="clip0_407_7170">
<rect width="12.6316" height="12.6316" fill="white" transform="translate(0.684082 0.684204)"/>
</clipPath>
</defs>
</svg>
