<svg width="58" height="34" viewBox="0 0 58 34" fill="none" xmlns="http://www.w3.org/2000/svg">
<rect width="58" height="34" rx="4" fill="#5A6367"/>
<path d="M32.3264 13.9312H26.5648C26.1102 13.9312 25.7417 14.2555 25.7417 14.6556V19.7267C25.7417 20.1268 26.1102 20.4511 26.5648 20.4511H32.3264C32.781 20.4511 33.1495 20.1268 33.1495 19.7267V14.6556C33.1495 14.2555 32.781 13.9312 32.3264 13.9312Z" stroke="white" stroke-linecap="round" stroke-linejoin="round"/>
<path d="M28.005 16.4668C28.3459 16.4668 28.6223 16.2235 28.6223 15.9235C28.6223 15.6234 28.3459 15.3801 28.005 15.3801C27.6641 15.3801 27.3877 15.6234 27.3877 15.9235C27.3877 16.2235 27.6641 16.4668 28.005 16.4668Z" stroke="white" stroke-linecap="round" stroke-linejoin="round"/>
<path d="M33.1492 18.2779L31.0914 16.4668L26.5645 20.4512" stroke="white" stroke-linecap="round" stroke-linejoin="round"/>
</svg>
