<svg width="14" height="14" viewBox="0 0 14 14" fill="none" xmlns="http://www.w3.org/2000/svg">
<g clip-path="url(#clip0_407_7164)">
<path d="M13.3157 5.42105C13.3157 5.00228 13.1493 4.60067 12.8532 4.30456C12.5571 4.00845 12.1555 3.8421 11.7367 3.8421H10.1578C10.1578 3.00457 9.82506 2.20135 9.23284 1.60913C8.64062 1.01691 7.8374 0.684204 6.99987 0.684204C6.16235 0.684204 5.35912 1.01691 4.7669 1.60913C4.17468 2.20135 3.84198 3.00457 3.84198 3.8421H2.26303C1.84427 3.8421 1.44266 4.00845 1.14655 4.30456C0.850435 4.60067 0.684082 5.00228 0.684082 5.42105L0.684082 10.6842C0.684918 11.3819 0.962441 12.0508 1.45578 12.5441C1.94911 13.0374 2.61798 13.3149 3.31566 13.3158H10.6841C11.3818 13.3149 12.0506 13.0374 12.544 12.5441C13.0373 12.0508 13.3148 11.3819 13.3157 10.6842V5.42105ZM4.89461 3.8421C4.89461 3.28375 5.11641 2.74827 5.51123 2.35345C5.90604 1.95864 6.44152 1.73684 6.99987 1.73684C7.55822 1.73684 8.0937 1.95864 8.48852 2.35345C8.88333 2.74827 9.10513 3.28375 9.10513 3.8421H4.89461Z" fill="#158CEA"/>
</g>
<defs>
<clipPath id="clip0_407_7164">
<rect width="12.6316" height="12.6316" fill="white" transform="translate(0.684082 0.684204)"/>
</clipPath>
</defs>
</svg>
