<svg width="13" height="13" viewBox="0 0 13 13" fill="none" xmlns="http://www.w3.org/2000/svg">
<g clip-path="url(#clip0_407_7158)">
<path d="M8.42106 12.1052C8.42106 12.0011 8.45193 11.8994 8.50976 11.8128C8.56759 11.7263 8.64979 11.6588 8.74596 11.619C8.84213 11.5791 8.94796 11.5687 9.05005 11.589C9.15215 11.6093 9.24593 11.6595 9.31954 11.7331C9.39314 11.8067 9.44327 11.9004 9.46358 12.0025C9.48389 12.1046 9.47346 12.2105 9.43363 12.3066C9.39379 12.4028 9.32633 12.485 9.23978 12.5428C9.15323 12.6007 9.05147 12.6315 8.94738 12.6315C8.80779 12.6315 8.67392 12.5761 8.57521 12.4774C8.47651 12.3787 8.42106 12.2448 8.42106 12.1052ZM10.8079 10.9884C10.9066 10.8897 10.962 10.7558 10.962 10.6163C10.962 10.4767 10.9066 10.3429 10.8079 10.2442C10.3144 9.75082 9.64518 9.47368 8.94738 9.47368C8.24957 9.47368 7.58034 9.75082 7.08685 10.2442C6.99098 10.3434 6.93793 10.4764 6.93913 10.6144C6.94032 10.7524 6.99568 10.8844 7.09326 10.982C7.19084 11.0796 7.32285 11.1349 7.46085 11.1361C7.59885 11.1373 7.73179 11.0843 7.83106 10.9884C8.13195 10.7016 8.53169 10.5416 8.94738 10.5416C9.36306 10.5416 9.7628 10.7016 10.0637 10.9884C10.1624 11.087 10.2962 11.1425 10.4358 11.1425C10.5754 11.1425 10.7092 11.087 10.8079 10.9884ZM12.2968 9.49996C12.3955 9.40126 12.4509 9.26741 12.4509 9.12785C12.4509 8.98829 12.3955 8.85445 12.2968 8.75575C11.4078 7.86869 10.2032 7.37051 8.94738 7.37051C7.6915 7.37051 6.48692 7.86869 5.5979 8.75575C5.50203 8.85501 5.44898 8.98796 5.45018 9.12596C5.45138 9.26396 5.50673 9.39596 5.60431 9.49355C5.7019 9.59113 5.8339 9.64648 5.9719 9.64768C6.1099 9.64888 6.24285 9.59583 6.34211 9.49996C7.0338 8.81037 7.97067 8.42314 8.94738 8.42314C9.92408 8.42314 10.861 8.81037 11.5526 9.49996C11.6513 9.59863 11.7852 9.65406 11.9247 9.65406C12.0643 9.65406 12.1982 9.59863 12.2968 9.49996V9.49996ZM4.85369 10.2442C4.70704 10.0975 4.59071 9.92347 4.51135 9.73189C4.43198 9.5403 4.39113 9.33496 4.39113 9.12759C4.39113 8.92022 4.43198 8.71487 4.51135 8.52329C4.59071 8.33171 4.70704 8.15763 4.85369 8.01101C5.87107 6.99647 7.22897 6.39591 8.66405 6.3258C10.0991 6.25568 11.5091 6.72101 12.6205 7.63154C12.5708 6.77774 12.2605 5.95971 11.7314 5.28776C11.2023 4.61581 10.4799 4.12226 9.66159 3.87364C9.57131 3.84572 9.48936 3.79587 9.42305 3.72855C9.35674 3.66123 9.30814 3.57854 9.28159 3.48785V3.48785C9.00308 2.59292 8.43394 1.81649 7.66432 1.28156C6.89469 0.746626 5.96858 0.483779 5.0327 0.534652C4.09681 0.585525 3.20465 0.947208 2.49754 1.56241C1.79043 2.17761 1.30881 3.01116 1.12895 3.93101C0.943926 4.86084 1.09304 5.82614 1.55001 6.6568C1.01761 6.93167 0.584694 7.36641 0.312067 7.89996C0.039441 8.4335 -0.0591979 9.03905 0.0300062 9.63154C0.167281 10.3198 0.535813 10.9404 1.07443 11.3904C1.61304 11.8404 2.28934 12.0926 2.99106 12.1052H6.7279C5.85053 11.2352 4.99316 10.3836 4.85369 10.2442Z" fill="#158CEA"/>
</g>
<defs>
<clipPath id="clip0_407_7158">
<rect width="12.6316" height="12.6316" fill="white"/>
</clipPath>
</defs>
</svg>
