<svg width="22" height="20" viewBox="0 0 22 20" fill="none" xmlns="http://www.w3.org/2000/svg">
<path d="M20.2953 7.11434C19.6686 5.07498 18.4106 3.28717 16.7027 2.00857C14.9947 0.730056 12.9249 0.0266916 10.7913 0C8.6578 0.0266683 6.58801 0.730012 4.87992 2.00857C3.17197 3.28726 1.91389 5.07507 1.2873 7.11434C0.904652 7.27882 0.578604 7.55204 0.349787 7.90011C0.120957 8.24817 -0.000684217 8.65576 2.89495e-06 9.0723V10.9685V10.9683C0.00103524 11.72 0.395898 12.4162 1.04058 12.8029C1.37092 13.0018 1.74963 13.1059 2.1352 13.1035H3.28365C3.28365 13.2654 3.33767 13.4349 3.37621 13.5968C4.14701 16.8882 6.62132 19.4086 9.61968 19.9327H9.61951C9.7458 19.9651 9.87484 19.9857 10.0049 19.9943C10.1358 20.0019 10.2671 20.0019 10.3981 19.9943H11.1688C11.2998 20.0019 11.4311 20.0019 11.562 19.9943C11.6921 19.9857 11.8211 19.9651 11.9474 19.9327C13.0325 19.7206 14.0589 19.2758 14.9558 18.6292C15.8525 17.9825 16.5985 17.1492 17.1425 16.1866H17.7669C18.3669 16.1766 18.9395 15.9339 19.3637 15.5096C19.788 15.0853 20.0308 14.5127 20.0408 13.9127V13.0186C20.2159 12.9675 20.3842 12.8949 20.5418 12.8028C21.1865 12.4161 21.5814 11.7199 21.5824 10.9682V9.0722C21.5831 8.65566 21.4614 8.24807 21.2326 7.90002C21.0038 7.55196 20.6777 7.27876 20.2951 7.11424L20.2953 7.11434ZM10.7916 1.54168C12.4828 1.55975 14.1299 2.08314 15.5212 3.04457C16.9126 4.00599 17.9846 5.36176 18.5996 6.93727H17.5667C16.995 5.60128 16.0537 4.45627 14.8534 3.63694C13.6532 2.81778 12.2439 2.35825 10.7914 2.31248C9.33893 2.35825 7.92964 2.81782 6.7294 3.63694C5.52916 4.45627 4.58786 5.60128 4.0161 6.93727H2.98328C3.5982 5.36176 4.67027 4.00599 6.06167 3.04457C7.45307 2.08314 9.10011 1.55974 10.7913 1.54168H10.7916ZM16.7038 9.12634C15.5684 8.92676 14.4886 8.48786 13.5358 7.8392C12.7068 7.27228 11.9906 6.55602 11.4238 5.72708C11.2796 5.52061 11.0436 5.39759 10.7917 5.39759C10.5398 5.39759 10.3037 5.52061 10.1595 5.72708C9.5928 6.55602 8.87653 7.27228 8.0476 7.8392C7.09476 8.48786 6.01498 8.92673 4.87957 9.12634C5.65037 6.12023 8.0013 3.92367 10.7918 3.92367C13.5823 3.92367 15.9482 6.12045 16.7041 9.12634H16.7038ZM3.08357 11.5621H2.13557C1.97746 11.5642 1.82536 11.5024 1.71353 11.3906C1.60169 11.2787 1.53993 11.1266 1.54199 10.9685V9.0725C1.53993 8.91438 1.6017 8.76228 1.71353 8.65045C1.82536 8.53861 1.97746 8.47685 2.13557 8.47892H3.08357V11.5621ZM10.7916 18.4301C7.39229 18.4301 4.62516 15.1773 4.62516 11.1767V10.722C6.15249 10.5312 7.61322 9.9818 8.88759 9.11863C9.59628 8.64549 10.237 8.07753 10.7916 7.43063C11.339 8.07598 11.9718 8.64395 12.6723 9.11863C13.9535 9.98527 15.4225 10.5348 16.9579 10.722V11.1767C16.9597 12.3756 16.6964 13.56 16.1871 14.6453H13.6435C13.3725 14.176 12.8751 13.8833 12.3331 13.8745H10.7916C10.2408 13.8745 9.73186 14.1684 9.45644 14.6453C9.18115 15.1222 9.18115 15.71 9.45644 16.1869C9.7319 16.6638 10.2408 16.9577 10.7916 16.9577H12.3331C12.8806 16.9544 13.3853 16.6611 13.659 16.1869H15.2391C14.1741 17.5713 12.5377 18.3964 10.7914 18.43L10.7916 18.4301ZM17.8908 14.6455C18.0159 14.3101 18.1214 13.9679 18.2069 13.6204C18.2454 13.4585 18.2685 13.289 18.2995 13.1271L18.4997 13.127V13.9363C18.4983 14.1075 18.4364 14.2725 18.3249 14.4022C18.2134 14.5321 18.0596 14.6181 17.8908 14.6455V14.6455ZM20.0413 10.9687C20.0434 11.1268 19.9816 11.2789 19.8698 11.3907C19.7579 11.5026 19.6058 11.5643 19.4477 11.5623H18.4997V8.47907H19.4477C19.6058 8.477 19.7579 8.53877 19.8698 8.6506C19.9816 8.76244 20.0434 8.91453 20.0413 9.07265V10.9687Z" fill="#262626"/>
</svg>
