<svg width="24" height="24" viewBox="0 0 24 24" fill="none" xmlns="http://www.w3.org/2000/svg">
<path fill-rule="evenodd" clip-rule="evenodd" d="M19.682 13.2796L20.0816 13.51L20.0825 13.5091C20.7031 13.8671 21.1561 14.4571 21.3417 15.1491C21.5274 15.8411 21.4306 16.5785 21.0725 17.1991C20.7145 17.8197 20.1246 18.2727 19.4325 18.4583C18.7405 18.644 18.0031 18.5471 17.3825 18.1891L16.9802 17.9569C16.2243 18.6044 15.3554 19.1066 14.417 19.4383V19.9C14.417 20.6161 14.1325 21.3028 13.6262 21.8092C13.1198 22.3155 12.4331 22.6 11.717 22.6C11.0009 22.6 10.3142 22.3155 9.80782 21.8092C9.30147 21.3028 9.01701 20.6161 9.01701 19.9V19.4383C8.07829 19.1079 7.2087 18.6069 6.45201 17.9605L6.05151 18.1918C5.4309 18.5498 4.69348 18.6467 4.00147 18.461C3.30946 18.2754 2.71955 17.8224 2.36151 17.2018C2.00346 16.5812 1.90662 15.8438 2.09228 15.1518C2.27794 14.4598 2.7309 13.8698 3.35151 13.5118L3.75111 13.2814C3.57121 12.3026 3.57121 11.2992 3.75111 10.3204L3.35151 10.09C2.7309 9.73196 2.27794 9.14205 2.09228 8.45004C1.90662 7.75803 2.00346 7.02061 2.36151 6.4C2.71955 5.77939 3.30946 5.32644 4.00147 5.14078C4.69348 4.95512 5.4309 5.05196 6.05151 5.41L6.45381 5.6431C7.20967 4.99564 8.07866 4.49341 9.01701 4.1617V3.7C9.01701 2.98392 9.30147 2.29716 9.80782 1.79081C10.3142 1.28446 11.0009 1 11.717 1C12.4331 1 13.1198 1.28446 13.6262 1.79081C14.1325 2.29716 14.417 2.98392 14.417 3.7V4.1617C15.3554 4.49222 16.2247 4.99323 16.9811 5.6395L17.3816 5.4082C17.6889 5.23092 18.0281 5.11589 18.3799 5.0697C18.7316 5.02351 19.089 5.04705 19.4316 5.13898C19.7743 5.23091 20.0955 5.38943 20.3769 5.60548C20.6582 5.82154 20.8943 6.09091 21.0716 6.3982C21.2489 6.70549 21.3639 7.0447 21.4101 7.39644C21.4563 7.74819 21.4328 8.10559 21.3408 8.44824C21.2489 8.79088 21.0904 9.11207 20.8743 9.39346C20.6583 9.67484 20.3889 9.91092 20.0816 10.0882L19.682 10.3186C19.8619 11.2974 19.8619 12.3008 19.682 13.2796ZM17.7884 13.4866C18.0932 12.3822 18.0932 11.216 17.7884 10.1116V10.1125C17.736 9.92089 17.7484 9.71732 17.8238 9.53353C17.8992 9.34973 18.0332 9.19604 18.2051 9.0964L19.1807 8.533C19.2839 8.47434 19.3744 8.39584 19.4472 8.30204C19.5199 8.20823 19.5733 8.10097 19.6044 7.98642C19.6355 7.87188 19.6437 7.75231 19.6284 7.63461C19.6131 7.51691 19.5746 7.40339 19.5153 7.30061C19.4559 7.19782 19.3769 7.10778 19.2826 7.03568C19.1883 6.96358 19.0807 6.91085 18.9659 6.88051C18.8512 6.85017 18.7316 6.84283 18.614 6.85891C18.4964 6.87499 18.3831 6.91417 18.2807 6.9742L17.3051 7.5385C17.1322 7.63864 16.9309 7.6784 16.7329 7.65151C16.5349 7.62462 16.3515 7.53262 16.2116 7.39C15.411 6.5709 14.4017 5.98614 13.2929 5.6989C13.0994 5.64916 12.928 5.53647 12.8056 5.37857C12.6833 5.22068 12.6169 5.02656 12.617 4.8268V3.7C12.617 3.46131 12.5222 3.23239 12.3534 3.0636C12.1846 2.89482 11.9557 2.8 11.717 2.8C11.4783 2.8 11.2494 2.89482 11.0806 3.0636C10.9118 3.23239 10.817 3.46131 10.817 3.7V4.8268C10.8179 5.02718 10.7519 5.22213 10.6295 5.38075C10.507 5.53938 10.3352 5.65261 10.1411 5.7025C9.03269 5.98872 8.02348 6.57221 7.22241 7.39C7.08211 7.53184 6.89865 7.62303 6.70088 7.64926C6.50311 7.67549 6.30223 7.63526 6.12981 7.5349L5.15241 6.9697C4.94558 6.85035 4.69981 6.81806 4.46917 6.87991C4.23853 6.94177 4.0419 7.09272 3.92256 7.29955C3.80321 7.50638 3.77091 7.75215 3.83277 7.98279C3.89463 8.21343 4.04558 8.41005 4.25241 8.5294L5.22801 9.0928C5.40019 9.19217 5.53463 9.34575 5.61034 9.52956C5.68605 9.71338 5.69877 9.91709 5.64651 10.1089C5.34173 11.2133 5.34173 12.3795 5.64651 13.4839C5.69972 13.6761 5.68759 13.8806 5.612 14.0651C5.53641 14.2497 5.40166 14.4039 5.22891 14.5036L4.25331 15.067C4.15013 15.1257 4.05957 15.2042 3.98685 15.298C3.91412 15.3918 3.86068 15.499 3.82958 15.6136C3.79848 15.7281 3.79035 15.8477 3.80564 15.9654C3.82094 16.0831 3.85937 16.1966 3.91872 16.2994C3.97807 16.4022 4.05716 16.4922 4.15144 16.5643C4.24573 16.6364 4.35335 16.6892 4.46809 16.7195C4.58284 16.7498 4.70246 16.7572 4.82006 16.7411C4.93766 16.725 5.05091 16.6858 5.15331 16.6258L6.12891 16.0615C6.3018 15.9614 6.5031 15.9216 6.70109 15.9485C6.89907 15.9754 7.08248 16.0674 7.22241 16.21C8.0228 17.029 9.03172 17.6137 10.1402 17.9011C10.3337 17.9508 10.5051 18.0635 10.6275 18.2214C10.7498 18.3793 10.8162 18.5734 10.8161 18.7732V19.9C10.8161 20.1387 10.9109 20.3676 11.0797 20.5364C11.2485 20.7052 11.4774 20.8 11.7161 20.8C11.9548 20.8 12.1837 20.7052 12.3525 20.5364C12.5213 20.3676 12.6161 20.1387 12.6161 19.9V18.7723C12.616 18.5725 12.6824 18.3784 12.8047 18.2205C12.9271 18.0626 13.0985 17.9499 13.292 17.9002C14.4004 17.614 15.4096 17.0305 16.2107 16.2127C16.3506 16.0701 16.534 15.9781 16.732 15.9512C16.93 15.9243 17.1313 15.9641 17.3042 16.0642L18.2816 16.6294C18.4884 16.7487 18.7342 16.781 18.9648 16.7192C19.1955 16.6573 19.3921 16.5064 19.5115 16.2996C19.6308 16.0927 19.6631 15.847 19.6012 15.6163C19.5394 15.3857 19.3884 15.189 19.1816 15.0697L18.206 14.5063C18.0333 14.4066 17.8985 14.2524 17.8229 14.0678C17.7473 13.8833 17.7352 13.6788 17.7884 13.4866ZM9.71714 8.80706C10.3092 8.41149 11.0052 8.20035 11.7172 8.20035C12.672 8.20035 13.5876 8.57964 14.2628 9.25477C14.9379 9.9299 15.3172 10.8456 15.3172 11.8004C15.3172 12.5124 15.1061 13.2084 14.7105 13.8004C14.3149 14.3924 13.7527 14.8538 13.0949 15.1263C12.437 15.3988 11.7132 15.4701 11.0149 15.3312C10.3165 15.1923 9.67507 14.8494 9.1716 14.3459C8.66814 13.8425 8.32527 13.201 8.18636 12.5027C8.04746 11.8043 8.11875 11.0805 8.39122 10.4227C8.6637 9.76488 9.12512 9.20263 9.71714 8.80706ZM10.7172 13.297C11.0132 13.4948 11.3612 13.6004 11.7172 13.6004C12.1946 13.6004 12.6524 13.4107 12.99 13.0731C13.3275 12.7356 13.5172 12.2777 13.5172 11.8004C13.5172 11.4443 13.4116 11.0963 13.2138 10.8003C13.016 10.5043 12.7349 10.2736 12.406 10.1374C12.0771 10.0011 11.7152 9.96548 11.366 10.0349C11.0169 10.1044 10.6961 10.2758 10.4444 10.5276C10.1927 10.7793 10.0212 11.1 9.95178 11.4492C9.88232 11.7984 9.91797 12.1603 10.0542 12.4892C10.1904 12.8181 10.4212 13.0992 10.7172 13.297Z" fill="#262626"/>
</svg>
