<svg width="15" height="16" viewBox="0 0 15 16" fill="none" xmlns="http://www.w3.org/2000/svg">
<path d="M0.000124005 4.38266V6.29198C0.000124005 6.77819 0.394211 7.17228 0.880424 7.17228H6.74475L6.74463 3.5022H0.8803C0.394087 3.5022 0 3.89628 0 4.3825L0.000124005 4.38266Z" fill="#4EC89E"/>
<path d="M13.6795 3.50232H7.81519V7.1724H13.6795C14.1657 7.1724 14.5598 6.77832 14.5598 6.2921V4.38278C14.5597 3.89656 14.1656 3.50248 13.6794 3.50248L13.6795 3.50232Z" fill="#4EC89E"/>
<path d="M0.818176 15.4297C0.818176 15.7447 1.0735 16 1.38848 16H6.74456L6.74444 7.82239H0.818211L0.818176 15.4297Z" fill="#4EC89E"/>
<path d="M7.81519 15.9998H13.1713C13.4862 15.9998 13.7416 15.7445 13.7416 15.4295L13.7414 7.82202H7.81522L7.81519 15.9998Z" fill="#4EC89E"/>
<path d="M3.52733 2.8826C3.71185 2.98553 4.0871 3.12218 5.2112 3.12218C5.83074 3.12218 6.37896 3.0799 6.40191 3.07804C6.52604 3.06849 6.63715 2.99719 6.69778 2.88831C6.75842 2.77956 6.76053 2.64762 6.70349 2.53689C6.53372 2.20728 5.6544 0.5455 5.02546 0.194936C4.79667 0.0673352 4.53801 0 4.27735 0C3.71933 0 3.20397 0.302572 2.93252 0.789667C2.51957 1.53086 2.78631 2.4697 3.52736 2.88264L3.52733 2.8826ZM3.58227 1.15175C3.72252 0.90002 3.98889 0.743759 4.27733 0.743759C4.41151 0.743759 4.54494 0.778606 4.6631 0.844576C4.89387 0.973294 5.36175 1.65954 5.76514 2.36737C5.59823 2.37357 5.40763 2.37804 5.21096 2.37804C4.2266 2.37804 3.95058 2.2668 3.88918 2.23258C3.50687 2.01954 3.36884 1.53456 3.58227 1.15174V1.15175Z" fill="#4EC89E"/>
<path d="M8.15806 3.0782C8.18113 3.07994 8.72923 3.12235 9.34877 3.12235C10.4729 3.12235 10.8481 2.98569 11.0326 2.88277C11.7736 2.46982 12.0404 1.53098 11.6275 0.789793C11.356 0.302565 10.8407 0 10.2827 0C10.022 0 9.76333 0.0673352 9.53454 0.194812C8.9056 0.545376 8.02626 2.20718 7.85651 2.53676C7.79947 2.6475 7.80158 2.77944 7.86222 2.88819C7.92286 2.99719 8.03397 3.06837 8.15809 3.07816L8.15806 3.0782ZM9.89676 0.844627C10.0149 0.778657 10.1485 0.74381 10.2825 0.74381C10.5711 0.74381 10.8373 0.900058 10.9776 1.1518C11.1909 1.53462 11.0531 2.01934 10.6704 2.23289C10.6093 2.26699 10.333 2.37835 9.34865 2.37835C9.15198 2.37835 8.96164 2.37376 8.79447 2.36768C9.19811 1.6596 9.66597 0.973363 9.89676 0.844636L9.89676 0.844627Z" fill="#4EC89E"/>
</svg>
