<svg width="247" height="251" viewBox="0 0 247 251" fill="none" xmlns="http://www.w3.org/2000/svg">
<path d="M100.867 216.538L96.0918 208.422C95.5645 207.478 95.125 206.596 94.7734 205.776C94.8646 207.319 94.9102 209.666 94.9102 212.817V216.538H92.8105V203.042H95.6914L100.389 210.981C100.949 211.958 101.417 212.869 101.795 213.715C101.697 211.918 101.648 209.5 101.648 206.459V203.042H103.748V216.538H100.867ZM115.203 211.381C115.203 212.924 114.747 214.2 113.836 215.209C112.905 216.225 111.707 216.733 110.242 216.733C107.215 216.733 105.701 215.053 105.701 211.694C105.701 210.17 106.15 208.914 107.049 207.924C107.967 206.909 109.165 206.401 110.643 206.401C112.049 206.401 113.143 206.792 113.924 207.573C114.777 208.426 115.203 209.695 115.203 211.381ZM112.977 211.518C112.977 209.305 112.143 208.198 110.477 208.198C109.767 208.198 109.178 208.458 108.709 208.979C108.182 209.571 107.918 210.405 107.918 211.479C107.918 213.758 108.764 214.897 110.457 214.897C111.193 214.897 111.785 214.62 112.234 214.067C112.729 213.468 112.977 212.618 112.977 211.518ZM131.922 215.922C130.516 216.463 129.008 216.733 127.4 216.733C125.252 216.733 123.582 216.147 122.391 214.975C121.225 213.823 120.643 212.218 120.643 210.161C120.643 207.947 121.268 206.193 122.518 204.897C123.82 203.536 125.649 202.856 128.006 202.856C129.295 202.856 130.555 203.045 131.785 203.422L131.326 205.415C130.213 204.978 129.051 204.76 127.84 204.76C126.212 204.76 124.972 205.268 124.119 206.284C123.364 207.189 122.986 208.38 122.986 209.858C122.986 211.42 123.393 212.635 124.207 213.5C125.021 214.366 126.173 214.799 127.664 214.799C128.387 214.799 129.08 214.692 129.744 214.477V209.575H131.922V215.922ZM137.293 203.5C137.293 203.865 137.156 204.181 136.883 204.448C136.616 204.708 136.297 204.838 135.926 204.838C135.548 204.838 135.223 204.708 134.949 204.448C134.682 204.194 134.549 203.878 134.549 203.5C134.549 203.129 134.682 202.814 134.949 202.553C135.223 202.286 135.548 202.153 135.926 202.153C136.297 202.153 136.616 202.286 136.883 202.553C137.156 202.814 137.293 203.129 137.293 203.5ZM134.852 216.538V206.596H136.99V216.538H134.852ZM142.723 208.256V216.538H140.604V208.256H138.699V206.596H140.604V205.834C140.604 203.146 141.896 201.801 144.48 201.801C145.04 201.801 145.581 201.86 146.102 201.977L145.936 203.735C145.519 203.605 145.066 203.54 144.578 203.54C143.341 203.54 142.723 204.292 142.723 205.795V206.596H147.068V203.442L149.207 202.856V206.596H151.805V208.256H149.207V213.022C149.207 213.758 149.298 214.256 149.48 214.516C149.663 214.77 150.005 214.897 150.506 214.897C150.896 214.897 151.303 214.851 151.727 214.76L151.902 216.479C151.219 216.635 150.525 216.713 149.822 216.713C148.774 216.713 148.048 216.486 147.645 216.03C147.26 215.587 147.068 214.803 147.068 213.676V208.256H142.723Z" fill="#262626"/>
<path d="M21.1641 243.538L16.9688 236.608C16.4844 235.806 16.1068 235.097 15.8359 234.483C15.9089 235.806 15.9453 237.821 15.9453 240.53V243.538H14.5234V232.741H16.4766L20.6172 239.538C21.0547 240.272 21.4505 241.004 21.8047 241.733C21.7318 239.639 21.6953 237.558 21.6953 235.491V232.741H23.1172V243.538H21.1641ZM32.25 239.428C32.25 240.647 31.8984 241.655 31.1953 242.452C30.4766 243.269 29.5391 243.678 28.3828 243.678C26.0026 243.678 24.8125 242.329 24.8125 239.631C24.8125 238.433 25.1589 237.444 25.8516 236.663C26.5703 235.85 27.5156 235.444 28.6875 235.444C29.7708 235.444 30.6198 235.749 31.2344 236.358C31.9115 237.04 32.25 238.064 32.25 239.428ZM30.7656 239.506C30.7656 237.595 30.0286 236.639 28.5547 236.639C27.9297 236.639 27.4115 236.868 27 237.327C26.5312 237.842 26.2969 238.564 26.2969 239.491C26.2969 241.475 27.0495 242.467 28.5547 242.467C29.1901 242.467 29.7057 242.228 30.1016 241.749C30.5443 241.217 30.7656 240.47 30.7656 239.506ZM44.2109 244.608C44.2109 245.462 43.8203 246.176 43.0391 246.749C42.2422 247.337 41.2292 247.631 40 247.631C38.9635 247.631 38.151 247.426 37.5625 247.014C36.9583 246.597 36.6562 246.009 36.6562 245.249C36.6562 244.332 37.099 243.629 37.9844 243.139C37.4635 242.91 37.2031 242.514 37.2031 241.952C37.2031 241.342 37.4948 240.894 38.0781 240.608C37.3021 240.144 36.9141 239.415 36.9141 238.42C36.9141 237.582 37.2031 236.884 37.7812 236.327C38.4062 235.738 39.2422 235.444 40.2891 235.444C40.6328 235.444 41.0052 235.491 41.4062 235.584H44.1094V236.725H42.7969C43.224 237.064 43.4375 237.553 43.4375 238.194C43.4375 239.048 43.1615 239.733 42.6094 240.249C42.0104 240.801 41.1667 241.077 40.0781 241.077C39.7812 241.077 39.5 241.038 39.2344 240.959C38.8906 241.121 38.7188 241.345 38.7188 241.631C38.7188 242.017 39.1719 242.225 40.0781 242.256L41.5391 242.303C43.3203 242.371 44.2109 243.139 44.2109 244.608ZM42.0156 238.288C42.0156 237.741 41.862 237.308 41.5547 236.991C41.237 236.673 40.7943 236.514 40.2266 236.514C39.638 236.514 39.1719 236.683 38.8281 237.022C38.5 237.35 38.3359 237.772 38.3359 238.288C38.3359 239.449 38.9505 240.03 40.1797 240.03C40.7474 240.03 41.1953 239.879 41.5234 239.577C41.8516 239.269 42.0156 238.84 42.0156 238.288ZM42.75 244.788C42.75 243.965 42.2057 243.538 41.1172 243.506L39.5859 243.444C39.362 243.444 39.2057 243.439 39.1172 243.428C38.4349 243.897 38.0938 244.418 38.0938 244.991C38.0938 245.454 38.2969 245.824 38.7031 246.1C39.0938 246.366 39.6068 246.499 40.2422 246.499C41.0286 246.499 41.6484 246.334 42.1016 246.006C42.5339 245.694 42.75 245.288 42.75 244.788ZM47.7812 233.077C47.7812 233.332 47.6875 233.551 47.5 233.733C47.3125 233.91 47.0859 233.999 46.8203 233.999C46.5547 233.999 46.3281 233.91 46.1406 233.733C45.9531 233.556 45.8594 233.337 45.8594 233.077C45.8594 232.811 45.9531 232.587 46.1406 232.405C46.3281 232.222 46.5547 232.131 46.8203 232.131C47.0859 232.131 47.3125 232.222 47.5 232.405C47.6875 232.587 47.7812 232.811 47.7812 233.077ZM46.1016 243.538V235.584H47.5391V243.538H46.1016ZM55.5781 235.584V233.006L57.0156 232.608V235.584H59.2422V236.709H57.0156V240.772C57.0156 241.423 57.0964 241.863 57.2578 242.092C57.4141 242.321 57.7135 242.436 58.1562 242.436C58.5208 242.436 58.8568 242.392 59.1641 242.303L59.3047 243.491C58.8203 243.605 58.2865 243.663 57.7031 243.663C56.901 243.663 56.3438 243.48 56.0312 243.116C55.7292 242.767 55.5781 242.155 55.5781 241.28V236.709H52.0781V243.538H50.6406V236.709H49.0078V235.584H50.6406V234.991C50.6406 232.84 51.6589 231.764 53.6953 231.764C54.138 231.764 54.5755 231.811 55.0078 231.905L54.8828 233.108C54.5443 232.988 54.1536 232.928 53.7109 232.928C52.6224 232.928 52.0781 233.611 52.0781 234.975V235.584H55.5781ZM69.4688 243.233C68.7552 243.519 67.9635 243.663 67.0938 243.663C64.7708 243.663 63.6094 242.384 63.6094 239.827C63.6094 238.504 63.9349 237.454 64.5859 236.678C65.2682 235.866 66.2344 235.459 67.4844 235.459C68.1979 235.459 68.8464 235.571 69.4297 235.795L69.1641 237.022C68.5547 236.788 67.9505 236.67 67.3516 236.67C66.6484 236.67 66.099 236.946 65.7031 237.499C65.3229 238.03 65.1328 238.741 65.1328 239.631C65.1328 241.491 65.8828 242.42 67.3828 242.42C68.0755 242.42 68.6953 242.29 69.2422 242.03L69.4688 243.233ZM75.5781 243.538C75.5781 242.782 75.6042 242.254 75.6562 241.952H75.625C75.1719 243.103 74.2708 243.678 72.9219 243.678C72.2656 243.678 71.7318 243.483 71.3203 243.092C70.9141 242.696 70.7109 242.178 70.7109 241.538C70.7109 240.678 71.1276 240.009 71.9609 239.53C72.8047 239.045 73.9818 238.803 75.4922 238.803V238.436C75.4922 237.785 75.3698 237.314 75.125 237.022C74.8594 236.715 74.4219 236.561 73.8125 236.561C73.0417 236.561 72.2422 236.754 71.4141 237.139L71.1406 235.999C72.0625 235.618 73.0182 235.428 74.0078 235.428C75.9609 235.428 76.9375 236.355 76.9375 238.209V241.249C76.9375 242.087 76.9531 242.85 76.9844 243.538H75.5781ZM75.4922 239.811C73.2526 239.811 72.1328 240.316 72.1328 241.327C72.1328 241.681 72.2448 241.97 72.4688 242.194C72.6927 242.428 72.987 242.545 73.3516 242.545C73.9661 242.545 74.4844 242.28 74.9062 241.749C75.2969 241.249 75.4922 240.67 75.4922 240.014V239.811ZM83.5078 236.866C81.8516 236.569 81.0234 237.725 81.0234 240.334V243.538H79.5859V235.584H80.9766C80.9766 236.241 80.9193 236.871 80.8047 237.475H80.8359C81.2891 235.98 82.2005 235.303 83.5703 235.444L83.5078 236.866ZM89.9453 243.538C89.9453 242.871 89.987 242.332 90.0703 241.92L90.0391 241.905C89.5443 243.087 88.6536 243.678 87.3672 243.678C86.4089 243.678 85.6771 243.345 85.1719 242.678C84.6823 242.032 84.4375 241.118 84.4375 239.936C84.4375 238.551 84.8099 237.459 85.5547 236.663C86.2891 235.871 87.2865 235.475 88.5469 235.475C88.9115 235.475 89.3594 235.501 89.8906 235.553V231.858H91.3359V243.538H89.9453ZM89.8906 236.788C89.3906 236.668 88.9219 236.608 88.4844 236.608C86.8021 236.608 85.9609 237.676 85.9609 239.811C85.9609 241.603 86.5469 242.499 87.7188 242.499C88.3906 242.499 88.9323 242.16 89.3438 241.483C89.7083 240.889 89.8906 240.204 89.8906 239.428V236.788ZM102.234 243.538V238.42C102.234 237.222 101.781 236.624 100.875 236.624C100.224 236.624 99.6849 236.92 99.2578 237.514C98.8307 238.108 98.6172 238.847 98.6172 239.733V243.538H97.1797V231.858H98.6172V235.631C98.6172 236.319 98.5703 236.847 98.4766 237.217L98.5078 237.233C99.0182 236.04 99.9401 235.444 101.273 235.444C102.872 235.444 103.672 236.29 103.672 237.983V243.538H102.234ZM110.594 243.538C110.594 242.782 110.62 242.254 110.672 241.952H110.641C110.188 243.103 109.286 243.678 107.938 243.678C107.281 243.678 106.747 243.483 106.336 243.092C105.93 242.696 105.727 242.178 105.727 241.538C105.727 240.678 106.143 240.009 106.977 239.53C107.82 239.045 108.997 238.803 110.508 238.803V238.436C110.508 237.785 110.385 237.314 110.141 237.022C109.875 236.715 109.438 236.561 108.828 236.561C108.057 236.561 107.258 236.754 106.43 237.139L106.156 235.999C107.078 235.618 108.034 235.428 109.023 235.428C110.977 235.428 111.953 236.355 111.953 238.209V241.249C111.953 242.087 111.969 242.85 112 243.538H110.594ZM110.508 239.811C108.268 239.811 107.148 240.316 107.148 241.327C107.148 241.681 107.26 241.97 107.484 242.194C107.708 242.428 108.003 242.545 108.367 242.545C108.982 242.545 109.5 242.28 109.922 241.749C110.312 241.249 110.508 240.67 110.508 240.014V239.811ZM117.82 243.538H116.172L113.273 235.584H114.875L116.555 240.452C116.763 241.108 116.917 241.647 117.016 242.069H117.047C117.177 241.548 117.328 241.019 117.5 240.483L119.211 235.584H120.742L117.82 243.538ZM128.219 238.709C128.219 238.986 128.203 239.282 128.172 239.6H122.969C122.922 241.543 123.76 242.514 125.484 242.514C126.281 242.514 127.039 242.361 127.758 242.053L127.961 243.186C127.138 243.514 126.221 243.678 125.211 243.678C122.727 243.678 121.484 242.319 121.484 239.6C121.484 238.387 121.799 237.397 122.43 236.631C123.086 235.84 123.966 235.444 125.07 235.444C126.122 235.444 126.924 235.764 127.477 236.405C127.971 236.983 128.219 237.751 128.219 238.709ZM126.75 238.577C126.766 237.936 126.612 237.433 126.289 237.069C125.977 236.709 125.536 236.53 124.969 236.53C123.844 236.53 123.19 237.212 123.008 238.577H126.75ZM140.328 239.186C140.328 240.577 139.956 241.668 139.211 242.459C138.477 243.251 137.466 243.647 136.18 243.647C135.164 243.647 134.253 243.54 133.445 243.327V231.858H134.883V235.717C134.883 236.306 134.836 236.801 134.742 237.202L134.773 237.217C135.232 236.035 136.107 235.444 137.398 235.444C138.336 235.444 139.057 235.764 139.562 236.405C140.073 237.045 140.328 237.972 140.328 239.186ZM138.82 239.311C138.82 237.519 138.234 236.624 137.062 236.624C136.391 236.624 135.846 236.962 135.43 237.639C135.065 238.233 134.883 238.913 134.883 239.678V242.319C135.299 242.449 135.771 242.514 136.297 242.514C137.979 242.514 138.82 241.446 138.82 239.311ZM148.516 238.709C148.516 238.986 148.5 239.282 148.469 239.6H143.266C143.219 241.543 144.057 242.514 145.781 242.514C146.578 242.514 147.336 242.361 148.055 242.053L148.258 243.186C147.435 243.514 146.518 243.678 145.508 243.678C143.023 243.678 141.781 242.319 141.781 239.6C141.781 238.387 142.096 237.397 142.727 236.631C143.383 235.84 144.263 235.444 145.367 235.444C146.419 235.444 147.221 235.764 147.773 236.405C148.268 236.983 148.516 237.751 148.516 238.709ZM147.047 238.577C147.062 237.936 146.909 237.433 146.586 237.069C146.273 236.709 145.833 236.53 145.266 236.53C144.141 236.53 143.487 237.212 143.305 238.577H147.047ZM156.703 238.709C156.703 238.986 156.688 239.282 156.656 239.6H151.453C151.406 241.543 152.245 242.514 153.969 242.514C154.766 242.514 155.523 242.361 156.242 242.053L156.445 243.186C155.622 243.514 154.706 243.678 153.695 243.678C151.211 243.678 149.969 242.319 149.969 239.6C149.969 238.387 150.284 237.397 150.914 236.631C151.57 235.84 152.451 235.444 153.555 235.444C154.607 235.444 155.409 235.764 155.961 236.405C156.456 236.983 156.703 237.751 156.703 238.709ZM155.234 238.577C155.25 237.936 155.096 237.433 154.773 237.069C154.461 236.709 154.021 236.53 153.453 236.53C152.328 236.53 151.674 237.212 151.492 238.577H155.234ZM163.859 243.538V238.42C163.859 237.222 163.406 236.624 162.5 236.624C161.849 236.624 161.31 236.92 160.883 237.514C160.456 238.108 160.242 238.847 160.242 239.733V243.538H158.805V235.584H160.195C160.195 236.277 160.154 236.837 160.07 237.264H160.102C160.617 236.051 161.549 235.444 162.898 235.444C164.497 235.444 165.297 236.29 165.297 237.983V243.538H163.859ZM176.336 243.538L172.797 238.709H172.602V243.538H171.133V232.741C171.789 232.694 172.69 232.67 173.836 232.67C176.279 232.67 177.5 233.611 177.5 235.491C177.5 236.371 177.188 237.092 176.562 237.655C175.979 238.17 175.237 238.462 174.336 238.53C174.68 238.946 174.987 239.329 175.258 239.678L178.203 243.538H176.336ZM175.961 235.678C175.961 234.475 175.167 233.874 173.578 233.874C173.312 233.874 172.987 233.884 172.602 233.905V237.584C172.815 237.605 173.12 237.616 173.516 237.616C174.281 237.616 174.883 237.439 175.32 237.084C175.747 236.736 175.961 236.267 175.961 235.678ZM186.031 238.709C186.031 238.986 186.016 239.282 185.984 239.6H180.781C180.734 241.543 181.573 242.514 183.297 242.514C184.094 242.514 184.852 242.361 185.57 242.053L185.773 243.186C184.951 243.514 184.034 243.678 183.023 243.678C180.539 243.678 179.297 242.319 179.297 239.6C179.297 238.387 179.612 237.397 180.242 236.631C180.898 235.84 181.779 235.444 182.883 235.444C183.935 235.444 184.737 235.764 185.289 236.405C185.784 236.983 186.031 237.751 186.031 238.709ZM184.562 238.577C184.578 237.936 184.424 237.433 184.102 237.069C183.789 236.709 183.349 236.53 182.781 236.53C181.656 236.53 181.003 237.212 180.82 238.577H184.562ZM193.344 243.233C192.63 243.519 191.839 243.663 190.969 243.663C188.646 243.663 187.484 242.384 187.484 239.827C187.484 238.504 187.81 237.454 188.461 236.678C189.143 235.866 190.109 235.459 191.359 235.459C192.073 235.459 192.721 235.571 193.305 235.795L193.039 237.022C192.43 236.788 191.826 236.67 191.227 236.67C190.523 236.67 189.974 236.946 189.578 237.499C189.198 238.03 189.008 238.741 189.008 239.631C189.008 241.491 189.758 242.42 191.258 242.42C191.951 242.42 192.57 242.29 193.117 242.03L193.344 243.233ZM201.203 238.709C201.203 238.986 201.188 239.282 201.156 239.6H195.953C195.906 241.543 196.745 242.514 198.469 242.514C199.266 242.514 200.023 242.361 200.742 242.053L200.945 243.186C200.122 243.514 199.206 243.678 198.195 243.678C195.711 243.678 194.469 242.319 194.469 239.6C194.469 238.387 194.784 237.397 195.414 236.631C196.07 235.84 196.951 235.444 198.055 235.444C199.107 235.444 199.909 235.764 200.461 236.405C200.956 236.983 201.203 237.751 201.203 238.709ZM199.734 238.577C199.75 237.936 199.596 237.433 199.273 237.069C198.961 236.709 198.521 236.53 197.953 236.53C196.828 236.53 196.174 237.212 195.992 238.577H199.734ZM204.984 233.077C204.984 233.332 204.891 233.551 204.703 233.733C204.516 233.91 204.289 233.999 204.023 233.999C203.758 233.999 203.531 233.91 203.344 233.733C203.156 233.556 203.062 233.337 203.062 233.077C203.062 232.811 203.156 232.587 203.344 232.405C203.531 232.222 203.758 232.131 204.023 232.131C204.289 232.131 204.516 232.222 204.703 232.405C204.891 232.587 204.984 232.811 204.984 233.077ZM203.305 243.538V235.584H204.742V243.538H203.305ZM210.727 243.538H209.078L206.18 235.584H207.781L209.461 240.452C209.669 241.108 209.823 241.647 209.922 242.069H209.953C210.083 241.548 210.234 241.019 210.406 240.483L212.117 235.584H213.648L210.727 243.538ZM221.125 238.709C221.125 238.986 221.109 239.282 221.078 239.6H215.875C215.828 241.543 216.667 242.514 218.391 242.514C219.188 242.514 219.945 242.361 220.664 242.053L220.867 243.186C220.044 243.514 219.128 243.678 218.117 243.678C215.633 243.678 214.391 242.319 214.391 239.6C214.391 238.387 214.706 237.397 215.336 236.631C215.992 235.84 216.872 235.444 217.977 235.444C219.029 235.444 219.831 235.764 220.383 236.405C220.878 236.983 221.125 237.751 221.125 238.709ZM219.656 238.577C219.672 237.936 219.518 237.433 219.195 237.069C218.883 236.709 218.443 236.53 217.875 236.53C216.75 236.53 216.096 237.212 215.914 238.577H219.656ZM228.086 243.538C228.086 242.871 228.128 242.332 228.211 241.92L228.18 241.905C227.685 243.087 226.794 243.678 225.508 243.678C224.549 243.678 223.818 243.345 223.312 242.678C222.823 242.032 222.578 241.118 222.578 239.936C222.578 238.551 222.951 237.459 223.695 236.663C224.43 235.871 225.427 235.475 226.688 235.475C227.052 235.475 227.5 235.501 228.031 235.553V231.858H229.477V243.538H228.086ZM228.031 236.788C227.531 236.668 227.062 236.608 226.625 236.608C224.943 236.608 224.102 237.676 224.102 239.811C224.102 241.603 224.688 242.499 225.859 242.499C226.531 242.499 227.073 242.16 227.484 241.483C227.849 240.889 228.031 240.204 228.031 239.428V236.788Z" fill="#5A6367"/>
<rect y="148.555" width="247" height="0.1235" fill="#EBEBEB"/>
<rect x="205.89" y="156.504" width="16.3613" height="0.1235" fill="#EBEBEB"/>
<rect x="159.33" y="157.848" width="4.29286" height="0.1235" fill="#EBEBEB"/>
<rect x="195.916" y="151.92" width="9.47986" height="0.1235" fill="#EBEBEB"/>
<rect x="25.9166" y="152.75" width="21.3359" height="0.1235" fill="#EBEBEB"/>
<rect x="51.6523" y="152.75" width="3.12702" height="0.1235" fill="#EBEBEB"/>
<rect x="64.9458" y="154.834" width="46.2779" height="0.1235" fill="#EBEBEB"/>
<rect x="177.341" y="23.875" width="6.99998" height="21.7903" fill="#E6E6E6"/>
<path d="M203.315 45.6654H180.087L176.58 20.1602H199.808L203.315 45.6654Z" fill="#F0F0F0"/>
<path d="M205.829 45.6654H181.84L178.333 20.1602H202.322L205.829 45.6654Z" fill="#F5F5F5"/>
<path d="M183.576 43.655L180.622 22.1709H200.59L203.549 43.655H183.576Z" fill="white"/>
<path d="M187.522 37.149L186.411 29.0869C186.344 28.6562 186.47 28.218 186.756 27.8887C187.041 27.5594 187.457 27.3725 187.893 27.3777H195.15C195.902 27.3719 196.539 27.9305 196.632 28.6769L197.738 36.7439C197.804 37.1738 197.677 37.6106 197.391 37.9388C197.106 38.2669 196.691 38.4531 196.256 38.4482H189.009C188.255 38.4565 187.615 37.8973 187.522 37.149Z" fill="#F5F5F5"/>
<rect x="36.1403" width="104.624" height="64.5411" fill="#E6E6E6"/>
<rect x="37.3951" width="106.057" height="64.5411" fill="#F0F0F0"/>
<rect x="36.1403" y="64.546" width="104.624" height="4.99434" fill="#E6E6E6"/>
<rect x="41.8718" y="64.546" width="106.057" height="4.99434" fill="#F0F0F0"/>
<path d="M139.69 3.7644V60.7819L41.1614 60.7819V3.7644L139.69 3.7644Z" fill="#FAFAFA"/>
<path d="M48.3929 60.7819L70.4796 3.7644H80.903L58.8163 60.7819H48.3929Z" fill="white"/>
<path d="M61.0579 60.7819L83.1446 3.7644H87.2053L65.1185 60.7819H61.0579Z" fill="white"/>
<path d="M99.6989 60.7819L121.786 3.7644H125.846L103.765 60.7819H99.6989Z" fill="white"/>
<path d="M139.684 3.7644V60.7819H139.205V3.7644H139.684Z" fill="#E6E6E6"/>
<rect x="197.925" y="45.6655" width="22.151" height="102.89" fill="#E6E6E6"/>
<path d="M217.849 148.556H220.076V142.218H215.512L217.849 148.556Z" fill="#F0F0F0"/>
<rect x="159.114" y="45.6655" width="22.151" height="102.89" fill="#E6E6E6"/>
<rect x="179.317" y="45.6655" width="40.7599" height="99.0025" fill="#F0F0F0"/>
<path d="M181.544 148.556H179.317V142.218H183.881L181.544 148.556Z" fill="#F0F0F0"/>
<rect x="181.045" y="47.4783" width="37.3019" height="46.7028" fill="#E6E6E6"/>
<path d="M203.734 51.1147H195.657C192.148 51.1144 188.793 49.671 186.38 47.1232H213.012C210.599 49.6725 207.244 51.1161 203.734 51.1147Z" fill="#F0F0F0"/>
<rect x="181.045" y="96.0735" width="37.3019" height="46.7028" fill="#E6E6E6"/>
<path d="M203.734 99.7093H195.657C192.148 99.709 188.793 98.2656 186.38 95.7178H213.012C210.599 98.2671 207.244 99.7107 203.734 99.7093Z" fill="#F0F0F0"/>
<path d="M63.9732 78.156H100.836L106.181 99.9266H69.3134L63.9732 78.156Z" fill="#E6E6E6"/>
<path d="M69.3123 99.9266L69.4654 101.127H106.328L106.179 99.9266H69.3123Z" fill="#E6E6E6"/>
<path d="M65.109 78.156H101.971L107.316 99.9266H70.4491L65.109 78.156Z" fill="#F0F0F0"/>
<path d="M71.2286 98.9287L66.3726 79.1489H101.19L106.046 98.9287H71.2286Z" fill="white"/>
<path d="M80.0586 99.9266L80.2068 101.127H120.799L120.651 99.9266H80.0586Z" fill="#F0F0F0"/>
<rect x="125.644" y="101.127" width="4.41636" height="47.424" fill="#E6E6E6"/>
<rect x="128.392" y="101.127" width="3.06774" height="47.424" fill="#F0F0F0"/>
<rect x="132.412" y="106.556" width="56.9137" height="5.42906" transform="rotate(180 132.412 106.556)" fill="#F0F0F0"/>
<rect x="69.1005" y="106.556" width="4.41636" height="41.9949" fill="#E6E6E6"/>
<rect x="71.8417" y="106.556" width="3.06774" height="41.9949" fill="#F0F0F0"/>
<rect x="41.1441" y="106.556" width="4.41636" height="41.9949" fill="#E6E6E6"/>
<rect x="43.8919" y="106.556" width="3.06774" height="41.9949" fill="#F0F0F0"/>
<rect x="97.6943" y="106.556" width="4.41636" height="41.9949" fill="#E6E6E6"/>
<rect x="100.436" y="106.556" width="3.06774" height="41.9949" fill="#F0F0F0"/>
<rect x="41.1441" y="101.127" width="34.3478" height="5.42906" fill="#E6E6E6"/>
<path d="M144.416 148.556H143.344L140.296 133.42L139.758 130.767L136.379 114.272H123.535L116.584 148.556H115.498L122.591 113.64C122.638 113.402 122.843 113.227 123.085 113.22H136.838C137.085 113.217 137.295 113.396 137.332 113.64L140.296 128.124L140.79 130.772L144.416 148.556Z" fill="#F0F0F0"/>
<path d="M165.04 148.556H163.963L156.997 114.272H144.153L140.789 130.772L140.295 133.42L137.218 148.556H136.146L139.757 130.772L140.29 128.129L143.254 113.645C143.302 113.408 143.506 113.234 143.748 113.225H157.457C157.7 113.232 157.905 113.407 157.951 113.645L165.04 148.556Z" fill="#F0F0F0"/>
<path d="M133.38 113.744H156.984C161.489 113.744 163.989 110.681 165.263 105.632L165.886 102.747C166.311 100.979 165.902 99.1137 164.775 97.6863C163.649 96.2589 161.929 95.4276 160.111 95.4312H145.291C142.228 95.4312 141.418 96.1623 139.298 100.776C137.179 105.39 133.38 113.744 133.38 113.744Z" fill="#F0F0F0"/>
<path d="M146.248 113.744H121.094C120.442 113.744 119.913 113.215 119.913 112.563V112.454C119.913 111.598 120.253 110.776 120.859 110.17C121.465 109.564 122.287 109.224 123.144 109.224H146.248V113.749V113.744Z" fill="#F0F0F0"/>
<ellipse cx="123.499" cy="165.273" rx="95.7817" ry="5.59208" fill="#F5F5F5"/>
<path d="M142.582 13.8273H70.7887C69.2384 13.8167 67.7526 14.4474 66.6834 15.57C65.6141 16.6926 65.0564 18.2073 65.1423 19.7553L71.8755 159.345C72.0745 162.644 74.7856 165.23 78.09 165.273H149.883C151.433 165.284 152.918 164.653 153.987 163.53C155.055 162.407 155.612 160.892 155.525 159.345L148.796 19.7553C148.597 16.4565 145.886 13.8705 142.582 13.8273Z" fill="#262626"/>
<path d="M145.234 13.8273H73.4216C71.8717 13.8166 70.3863 14.4475 69.3178 15.5703C68.2493 16.6931 67.6927 18.2078 67.7801 19.7553L74.5084 159.345C74.7074 162.644 77.4184 165.23 80.7229 165.273H152.516C154.066 165.284 155.551 164.653 156.62 163.53C157.688 162.407 158.245 160.892 158.157 159.345L151.429 19.7553C151.231 16.464 148.531 13.8807 145.234 13.8273Z" fill="#262626"/>
<path d="M80.52 161.321C79.4243 161.293 78.5287 160.438 78.4502 159.345L71.7318 19.7551C71.7075 19.2402 71.8948 18.7378 72.2503 18.3646C72.6058 17.9914 73.0985 17.7798 73.6139 17.7791H145.407C146.505 17.8021 147.403 18.6597 147.477 19.7551L154.205 159.345C154.229 159.859 154.043 160.36 153.688 160.733C153.334 161.106 152.842 161.319 152.328 161.321H80.52Z" fill="#EDEDED"/>
<path opacity="0.1" d="M80.4862 160.333C79.9397 160.314 79.4936 159.889 79.4488 159.345L72.7205 19.755C72.7112 19.4987 72.8054 19.2495 72.982 19.0636C73.1586 18.8777 73.4027 18.7708 73.6591 18.767H145.452C146 18.783 146.447 19.209 146.49 19.755L153.218 159.345C153.227 159.601 153.133 159.85 152.956 160.036C152.78 160.222 152.536 160.329 152.279 160.333H80.4862Z" fill="white"/>
<path d="M94.8451 18.0657H124.766" stroke="#262626" stroke-width="4" stroke-linecap="round" stroke-linejoin="round"/>
<g filter="url(#filter0_d_845_10265)">
<path d="M48.9485 77.1156H142.17C143.086 77.1156 143.964 77.4794 144.611 78.1269C145.259 78.7744 145.623 79.6525 145.623 80.5682V97.8315C145.623 98.7472 145.259 99.6254 144.611 100.273C143.964 100.92 143.086 101.284 142.17 101.284H48.9485C48.0328 101.284 47.1546 100.92 46.5072 100.273C45.8597 99.6254 45.4959 98.7472 45.4959 97.8315V80.5682C45.4959 79.6525 45.8597 78.7744 46.5072 78.1269C47.1546 77.4794 48.0328 77.1156 48.9485 77.1156V77.1156Z" fill="white"/>
</g>
<path d="M100.05 82.6399H82.0964C80.9523 82.6399 80.0248 83.5674 80.0248 84.7115C80.0248 85.8556 80.9523 86.7831 82.0964 86.7831H100.05C101.194 86.7831 102.122 85.8556 102.122 84.7115C102.122 83.5674 101.194 82.6399 100.05 82.6399Z" fill="#A7E4CF"/>
<path d="M112.48 91.6168H82.0966C80.9525 91.6168 80.025 92.5443 80.025 93.6884C80.025 94.8325 80.9525 95.76 82.0966 95.76H112.48C113.624 95.76 114.551 94.8325 114.551 93.6884C114.551 92.5443 113.624 91.6168 112.48 91.6168Z" fill="#E8E8E8"/>
<path d="M66.9053 96.4499C70.719 96.4499 73.8106 93.3583 73.8106 89.5446C73.8106 85.7309 70.719 82.6393 66.9053 82.6393C63.0916 82.6393 60 85.7309 60 89.5446C60 93.3583 63.0916 96.4499 66.9053 96.4499Z" fill="#4EC89E"/>
<path d="M64 88.6436V89.3596C64 89.542 64.1478 89.6898 64.3301 89.6898H66.5293L66.5292 88.3135H64.3301C64.1478 88.3135 64 88.4613 64 88.6436L64 88.6436Z" fill="#F9F9F9"/>
<path d="M69.1298 88.3135H66.9307V89.6898H69.1298C69.3121 89.6898 69.4599 89.542 69.4599 89.3596V88.6436C69.4599 88.4613 69.3121 88.3135 69.1297 88.3135L69.1298 88.3135Z" fill="#F9F9F9"/>
<path d="M64.3068 92.7863C64.3068 92.9044 64.4025 93.0002 64.5207 93.0002H66.5292L66.5291 89.9336H64.3068L64.3068 92.7863Z" fill="#F9F9F9"/>
<path d="M66.9307 93H68.9392C69.0573 93 69.1531 92.9043 69.1531 92.7861L69.153 89.9333H66.9307L66.9307 93Z" fill="#F9F9F9"/>
<path d="M65.3227 88.0811C65.3919 88.1197 65.5326 88.1709 65.9542 88.1709C66.1865 88.1709 66.3921 88.1551 66.4007 88.1544C66.4472 88.1508 66.4889 88.1241 66.5116 88.0832C66.5344 88.0425 66.5352 87.993 66.5138 87.9515C66.4501 87.8279 66.1204 87.2047 65.8845 87.0732C65.7987 87.0254 65.7017 87.0001 65.604 87.0001C65.3947 87.0001 65.2015 87.1136 65.0997 87.2962C64.9448 87.5742 65.0448 87.9263 65.3227 88.0811L65.3227 88.0811ZM65.3433 87.432C65.3959 87.3376 65.4958 87.279 65.604 87.279C65.6543 87.279 65.7043 87.2921 65.7486 87.3168C65.8352 87.3651 66.0106 87.6225 66.1619 87.8879C66.0993 87.8902 66.0278 87.8919 65.9541 87.8919C65.5849 87.8919 65.4814 87.8502 65.4584 87.8373C65.315 87.7574 65.2633 87.5756 65.3433 87.432V87.432Z" fill="#F9F9F9"/>
<path d="M67.0592 88.1544C67.0679 88.1551 67.2734 88.171 67.5058 88.171C67.9273 88.171 68.068 88.1198 68.1372 88.0812C68.4151 87.9263 68.5151 87.5742 68.3603 87.2963C68.2585 87.1136 68.0652 87.0001 67.856 87.0001C67.7582 87.0001 67.6612 87.0254 67.5754 87.0732C67.3396 87.2046 67.0098 87.8278 66.9462 87.9514C66.9248 87.9929 66.9256 88.0424 66.9483 88.0832C66.971 88.1241 67.0127 88.1508 67.0593 88.1544L67.0592 88.1544ZM67.7113 87.3169C67.7556 87.2921 67.8057 87.2791 67.8559 87.2791C67.9641 87.2791 68.064 87.3376 68.1166 87.432C68.1966 87.5756 68.1449 87.7574 68.0014 87.8375C67.9785 87.8502 67.8748 87.892 67.5057 87.892C67.432 87.892 67.3606 87.8903 67.2979 87.888C67.4493 87.6225 67.6247 87.3651 67.7113 87.3169L67.7113 87.3169Z" fill="#F9F9F9"/>
<g filter="url(#filter1_d_845_10265)">
<path d="M19.2619 106.808H112.483C113.399 106.808 114.277 107.172 114.925 107.819C115.572 108.467 115.936 109.345 115.936 110.261V127.524C115.936 128.439 115.572 129.318 114.925 129.965C114.277 130.613 113.399 130.976 112.483 130.976H19.2619C18.3462 130.976 17.468 130.613 16.8205 129.965C16.173 129.318 15.8093 128.439 15.8093 127.524V110.261C15.8093 109.345 16.173 108.467 16.8205 107.819C17.468 107.172 18.3462 106.808 19.2619 106.808V106.808Z" fill="white"/>
</g>
<path d="M70.3568 112.332H52.4031C51.259 112.332 50.3315 113.259 50.3315 114.403C50.3315 115.548 51.259 116.475 52.4031 116.475H70.3568C71.5009 116.475 72.4284 115.548 72.4284 114.403C72.4284 113.259 71.5009 112.332 70.3568 112.332Z" fill="#A7E4CF"/>
<path d="M82.7864 121.309H52.4031C51.259 121.309 50.3315 122.236 50.3315 123.38C50.3315 124.524 51.259 125.452 52.4031 125.452H82.7864C83.9305 125.452 84.8579 124.524 84.8579 123.38C84.8579 122.236 83.9305 121.309 82.7864 121.309Z" fill="#E8E8E8"/>
<path d="M27.5512 126.141C31.3649 126.141 34.4565 123.05 34.4565 119.236C34.4565 115.422 31.3649 112.331 27.5512 112.331C23.7375 112.331 20.6459 115.422 20.6459 119.236C20.6459 123.05 23.7375 126.141 27.5512 126.141Z" fill="#4EC89E"/>
<path d="M25 117.644V118.36C25 118.542 25.1478 118.69 25.3302 118.69H27.5293L27.5292 117.313H25.3301C25.1478 117.313 25 117.461 25 117.643L25 117.644Z" fill="#F9F9F9"/>
<path d="M30.1298 117.313H27.9307V118.69H30.1298C30.3121 118.69 30.4599 118.542 30.4599 118.36V117.644C30.4599 117.461 30.3121 117.314 30.1298 117.314L30.1298 117.313Z" fill="#F9F9F9"/>
<path d="M25.3068 121.786C25.3068 121.904 25.4026 122 25.5207 122H27.5292L27.5292 118.933H25.3068L25.3068 121.786Z" fill="#F9F9F9"/>
<path d="M27.9307 122H29.9392C30.0573 122 30.1531 121.904 30.1531 121.786L30.153 118.933H27.9307L27.9307 122Z" fill="#F9F9F9"/>
<path d="M26.3227 117.081C26.3919 117.12 26.5327 117.171 26.9542 117.171C27.1865 117.171 27.3921 117.155 27.4007 117.154C27.4473 117.151 27.4889 117.124 27.5117 117.083C27.5344 117.042 27.5352 116.993 27.5138 116.951C27.4501 116.828 27.1204 116.205 26.8845 116.073C26.7987 116.025 26.7017 116 26.604 116C26.3947 116 26.2015 116.113 26.0997 116.296C25.9448 116.574 26.0449 116.926 26.3228 117.081L26.3227 117.081ZM26.3433 116.432C26.3959 116.338 26.4958 116.279 26.604 116.279C26.6543 116.279 26.7043 116.292 26.7487 116.317C26.8352 116.365 27.0107 116.622 27.1619 116.888C27.0993 116.89 27.0279 116.892 26.9541 116.892C26.585 116.892 26.4815 116.85 26.4584 116.837C26.3151 116.757 26.2633 116.575 26.3433 116.432V116.432Z" fill="#F9F9F9"/>
<path d="M28.0593 117.154C28.0679 117.155 28.2735 117.171 28.5058 117.171C28.9273 117.171 29.068 117.12 29.1372 117.081C29.4151 116.926 29.5152 116.574 29.3603 116.296C29.2585 116.113 29.0652 116 28.856 116C28.7582 116 28.6612 116.025 28.5754 116.073C28.3396 116.205 28.0098 116.828 27.9462 116.951C27.9248 116.993 27.9256 117.042 27.9483 117.083C27.9711 117.124 28.0127 117.151 28.0593 117.154L28.0593 117.154ZM28.7113 116.317C28.7556 116.292 28.8057 116.279 28.8559 116.279C28.9642 116.279 29.064 116.338 29.1166 116.432C29.1966 116.575 29.1449 116.757 29.0014 116.837C28.9785 116.85 28.8749 116.892 28.5057 116.892C28.432 116.892 28.3606 116.89 28.2979 116.888C28.4493 116.622 28.6247 116.365 28.7113 116.317L28.7113 116.317Z" fill="#F9F9F9"/>
<g filter="url(#filter2_d_845_10265)">
<path d="M132.807 46.2935H39.5853C37.6785 46.2935 36.1327 47.8393 36.1327 49.7461V67.0093C36.1327 68.9162 37.6785 70.462 39.5853 70.462H132.807C134.714 70.462 136.259 68.9162 136.259 67.0093V49.7461C136.259 47.8393 134.714 46.2935 132.807 46.2935Z" fill="white"/>
</g>
<path d="M89.3025 51.8175H71.3488C70.2047 51.8175 69.2772 52.745 69.2772 53.8891C69.2772 55.0332 70.2047 55.9607 71.3488 55.9607H89.3025C90.4466 55.9607 91.3741 55.0332 91.3741 53.8891C91.3741 52.745 90.4466 51.8175 89.3025 51.8175Z" fill="#A7E4CF"/>
<path d="M101.732 60.7942H71.3488C70.2047 60.7942 69.2772 61.7217 69.2772 62.8658C69.2772 64.0099 70.2047 64.9374 71.3488 64.9374H101.732C102.876 64.9374 103.804 64.0099 103.804 62.8658C103.804 61.7217 102.876 60.7942 101.732 60.7942Z" fill="#E8E8E8"/>
<path d="M57.5379 65.628C61.3516 65.628 64.4432 62.5364 64.4432 58.7227C64.4432 54.909 61.3516 51.8174 57.5379 51.8174C53.7242 51.8174 50.6326 54.909 50.6326 58.7227C50.6326 62.5364 53.7242 65.628 57.5379 65.628Z" fill="#4EC89E"/>
<path d="M55 57.6435V58.3595C55 58.5419 55.1478 58.6896 55.3302 58.6896H57.5293L57.5292 57.3134H55.3301C55.1478 57.3134 55 57.4611 55 57.6435L55 57.6435Z" fill="#F9F9F9"/>
<path d="M60.1298 57.3135H57.9307V58.6898H60.1298C60.3121 58.6898 60.4599 58.542 60.4599 58.3596V57.6436C60.4599 57.4613 60.3121 57.3135 60.1298 57.3135L60.1298 57.3135Z" fill="#F9F9F9"/>
<path d="M55.3068 61.7862C55.3068 61.9043 55.4026 62.0001 55.5207 62.0001H57.5292L57.5292 58.9335H55.3068L55.3068 61.7862Z" fill="#F9F9F9"/>
<path d="M57.9307 61.9999H59.9392C60.0573 61.9999 60.1531 61.9041 60.1531 61.786L60.153 58.9332H57.9307L57.9307 61.9999Z" fill="#F9F9F9"/>
<path d="M56.3227 57.081C56.3919 57.1196 56.5327 57.1708 56.9542 57.1708C57.1865 57.1708 57.3921 57.155 57.4007 57.1543C57.4473 57.1507 57.4889 57.1239 57.5117 57.0831C57.5344 57.0423 57.5352 56.9929 57.5138 56.9513C57.4501 56.8277 57.1204 56.2046 56.8845 56.0731C56.7987 56.0253 56.7017 56 56.604 56C56.3947 56 56.2015 56.1135 56.0997 56.2961C55.9448 56.5741 56.0449 56.9261 56.3228 57.081L56.3227 57.081ZM56.3433 56.4319C56.3959 56.3375 56.4958 56.2789 56.604 56.2789C56.6543 56.2789 56.7043 56.292 56.7487 56.3167C56.8352 56.365 57.0107 56.6223 57.1619 56.8878C57.0993 56.8901 57.0279 56.8918 56.9541 56.8918C56.585 56.8918 56.4815 56.8501 56.4584 56.8372C56.3151 56.7573 56.2633 56.5755 56.3433 56.4319V56.4319Z" fill="#F9F9F9"/>
<path d="M58.0593 57.1543C58.0679 57.155 58.2735 57.1709 58.5058 57.1709C58.9273 57.1709 59.068 57.1196 59.1372 57.081C59.4151 56.9262 59.5152 56.5741 59.3603 56.2962C59.2585 56.1135 59.0652 56 58.856 56C58.7582 56 58.6612 56.0253 58.5754 56.0731C58.3396 56.2045 58.0098 56.8277 57.9462 56.9513C57.9248 56.9928 57.9256 57.0423 57.9483 57.0831C57.9711 57.1239 58.0127 57.1506 58.0593 57.1543L58.0593 57.1543ZM58.7113 56.3167C58.7556 56.292 58.8057 56.2789 58.8559 56.2789C58.9641 56.2789 59.064 56.3375 59.1166 56.4319C59.1966 56.5755 59.1449 56.7573 59.0014 56.8373C58.9785 56.8501 58.8749 56.8919 58.5057 56.8919C58.432 56.8919 58.3606 56.8902 58.2979 56.8879C58.4493 56.6224 58.6247 56.365 58.7113 56.3167L58.7113 56.3167Z" fill="#F9F9F9"/>
<path d="M174.088 160.635H170.462L170.097 152.227H173.727L174.088 160.635Z" fill="#FFC3BD"/>
<path opacity="0.2" d="M170.103 152.232L170.286 156.564H173.917L173.729 152.232H170.103Z" fill="#262626"/>
<path d="M204.979 150.784L201.531 151.91L197.189 144.486L200.642 143.359L204.979 150.784Z" fill="#FFC3BD"/>
<path opacity="0.2" d="M200.642 143.359L197.189 144.486L199.431 148.314L202.879 147.188L200.642 143.359Z" fill="#262626"/>
<path d="M186.361 39.1996C186.81 39.7479 187.191 40.237 187.581 40.7754C187.971 41.3139 188.342 41.8277 188.712 42.3612C189.443 43.4332 190.145 44.5298 190.802 45.6611C192.169 47.9562 193.284 50.3927 194.127 52.9278L194.211 53.1748L194.25 53.3033L194.304 53.5058L194.403 53.9109L194.458 54.2814C194.516 54.7251 194.534 55.1732 194.512 55.6201C194.466 56.3739 194.357 57.1224 194.186 57.858C193.873 59.1758 193.459 60.4674 192.946 61.721C191.969 64.1243 190.786 66.4383 189.409 68.637L186.939 67.4564C187.68 65.1395 188.421 62.7683 188.964 60.4613C189.247 59.3492 189.462 58.2208 189.606 57.0824C189.667 56.5909 189.686 56.095 189.661 55.6004C189.653 55.4241 189.63 55.2489 189.592 55.0767L189.567 54.9878C189.558 54.9719 189.55 54.9554 189.542 54.9384L189.503 54.8446L189.424 54.6519L189.093 53.8763L188.722 53.1057C188.475 52.6117 188.204 52.0782 187.932 51.5644C187.369 50.5468 186.761 49.5341 186.129 48.5263C185.496 47.5185 184.825 46.5503 184.153 45.5623C183.481 44.5743 182.745 43.5863 182.078 42.6922L186.361 39.1996Z" fill="#FFC3BD"/>
<path d="M187.165 66.8436L185.748 69.9805H189.803C189.803 69.9805 190.45 67.5994 188.978 66.6361L187.165 66.8436Z" fill="#FFC3BD"/>
<path d="M186.222 73.5082L189.986 72.7821L189.803 69.9811H185.748L186.222 73.5082Z" fill="#FFC3BD"/>
<path d="M177.839 26.6521C177.315 29.3098 176.797 34.1757 178.654 35.9442C178.654 35.9442 177.928 38.6365 172.998 38.6365C167.564 38.6365 170.404 35.9442 170.404 35.9442C173.368 35.2378 173.289 33.0445 172.77 30.9795L177.839 26.6521Z" fill="#FFC3BD"/>
<path d="M179.365 36.8677C179.755 36.018 180.185 35.0399 179.296 34.7336C178.308 34.3977 172.992 34.0568 171.15 34.6891C170.66 34.8247 170.246 35.151 169.999 35.5948C169.752 36.0386 169.693 36.563 169.836 37.0504L179.365 36.8677Z" fill="#262626"/>
<path fill-rule="evenodd" clip-rule="evenodd" d="M199.989 153.205C200.216 153.24 200.517 153.032 200.784 152.775C201.013 152.554 201.219 152.309 201.397 152.044C201.416 152.016 201.416 151.979 201.397 151.95C201.377 151.924 201.345 151.911 201.313 151.916C201.249 151.921 200.063 152.118 199.767 152.578C199.699 152.674 199.677 152.795 199.707 152.909C199.729 153.057 199.842 153.175 199.989 153.205ZM199.911 152.667C199.931 152.638 199.954 152.611 199.98 152.588C200.326 152.349 200.721 152.191 201.136 152.123C200.805 152.538 200.266 153.072 200.015 153.032C199.99 153.032 199.916 153.017 199.876 152.864C199.858 152.796 199.871 152.724 199.911 152.667Z" fill="#4EC89E"/>
<path fill-rule="evenodd" clip-rule="evenodd" d="M201.337 152.083L201.377 152.059C201.388 152.049 201.395 152.034 201.397 152.019C201.406 151.989 201.396 151.956 201.372 151.935C201.371 151.934 201.37 151.933 201.368 151.931C201.295 151.868 200.537 151.21 200.009 151.249C199.876 151.258 199.753 151.32 199.668 151.421C199.575 151.517 199.558 151.664 199.628 151.777C199.855 152.123 200.927 152.192 201.337 152.083ZM199.802 151.535L199.831 151.506H199.841C199.89 151.457 199.955 151.427 200.024 151.422C200.433 151.486 200.814 151.668 201.121 151.945C200.656 152 199.905 151.886 199.772 151.684C199.771 151.682 199.771 151.681 199.77 151.68C199.759 151.659 199.736 151.615 199.802 151.535Z" fill="#4EC89E"/>
<path fill-rule="evenodd" clip-rule="evenodd" d="M167.938 160.546C168.086 160.754 168.536 160.818 169 160.818C169.373 160.816 169.745 160.783 170.112 160.719C170.145 160.711 170.171 160.684 170.176 160.65C170.185 160.615 170.169 160.578 170.137 160.561C170.082 160.526 168.813 159.805 168.21 159.968C168.095 159.995 167.997 160.069 167.938 160.171C167.856 160.282 167.856 160.434 167.938 160.546ZM168.26 160.116C168.316 160.109 168.373 160.109 168.428 160.116C168.928 160.174 169.411 160.328 169.851 160.571C169.179 160.665 168.26 160.66 168.092 160.428C168.053 160.398 168.033 160.344 168.092 160.235C168.129 160.173 168.19 160.13 168.26 160.116Z" fill="#4EC89E"/>
<path fill-rule="evenodd" clip-rule="evenodd" d="M170.064 160.719H170.099C170.12 160.724 170.144 160.721 170.163 160.709C170.187 160.69 170.202 160.661 170.202 160.63C170.202 160.629 170.202 160.627 170.202 160.624C170.191 160.531 170.084 159.601 169.639 159.232C169.502 159.117 169.323 159.064 169.145 159.084C168.908 159.109 168.824 159.227 168.824 159.326C168.76 159.731 169.629 160.521 170.064 160.719ZM169.165 159.237H169.214V159.247C169.315 159.248 169.412 159.283 169.491 159.346C169.769 159.656 169.942 160.047 169.985 160.462C169.545 160.195 168.957 159.578 168.997 159.331C168.997 159.311 169.007 159.237 169.165 159.237Z" fill="#4EC89E"/>
<path d="M201.229 151.51L204.193 148.69C204.3 148.585 204.465 148.57 204.588 148.655L207.335 150.493C207.47 150.584 207.555 150.731 207.567 150.893C207.578 151.055 207.515 151.214 207.394 151.323C206.352 152.311 205.794 152.711 204.499 153.946C203.699 154.712 201.318 157.305 200.216 158.362C199.115 159.419 197.929 158.461 198.285 157.932C199.886 155.556 200.883 153.279 200.972 152.079C200.988 151.865 201.079 151.664 201.229 151.51Z" fill="#262626"/>
<path d="M170.483 160.215H174.435C174.583 160.214 174.71 160.317 174.741 160.462L175.457 163.688C175.494 163.845 175.456 164.01 175.355 164.135C175.253 164.261 175.1 164.333 174.939 164.33C173.506 164.33 171.441 164.226 169.643 164.226C167.543 164.226 165.73 164.34 163.265 164.34C161.783 164.34 161.363 162.833 161.986 162.695C164.821 162.077 167.143 162.008 169.594 160.496C169.858 160.321 170.166 160.224 170.483 160.215Z" fill="#262626"/>
<path d="M165.315 44.179C163.872 46.3032 162.385 48.2891 160.785 50.2503C159.178 52.2354 157.461 54.1288 155.642 55.9214L154.941 56.6031L154.763 56.7711L154.634 56.8896L154.447 57.023C154.214 57.2106 153.964 57.376 153.701 57.517C152.867 57.957 151.949 58.2146 151.008 58.2728C149.573 58.3578 148.132 58.238 146.73 57.9172C144.19 57.3569 141.727 56.491 139.395 55.3385L140.304 52.7697C142.617 53.2321 144.956 53.5522 147.308 53.728C148.342 53.8097 149.382 53.7666 150.406 53.5996C150.7 53.5556 150.98 53.4459 151.226 53.2785C151.251 53.2785 151.226 53.2489 151.226 53.2489L151.265 53.2093L151.409 53.0463L151.996 52.4041C153.538 50.6455 155.035 48.7683 156.487 46.8516C157.939 44.9348 159.397 42.9687 160.785 41.052L165.315 44.179Z" fill="#FFC3BD"/>
<path d="M185.154 36.7692C188.552 37.5498 192.455 46.8221 192.455 46.8221L185.623 51.5053C183.926 49.0669 182.421 46.5003 181.123 43.8285C179.097 39.585 181.676 35.969 185.154 36.7692Z" fill="#4EC89E"/>
<path opacity="0.3" d="M182.713 42.6971L185.944 51.2977L185.623 51.52C185.623 51.52 184.225 49.544 182.713 46.911L182.713 42.6971Z" fill="#262626"/>
<path d="M164.821 36.9518C164.821 36.9518 160.958 41.3139 164.609 68.3208H184.018C184.152 65.3568 182.279 50.8036 185.154 36.7641C183.007 36.3512 180.836 36.0773 178.653 35.9441C175.906 35.7859 173.151 35.7859 170.403 35.9441C168.519 36.1339 166.653 36.4709 164.821 36.9518Z" fill="#4EC89E"/>
<path opacity="0.3" d="M166.975 44.7618C166.47 47.8266 165.145 50.6976 163.142 53.0709C163.063 51.332 163.033 49.771 163.038 48.373L166.975 44.7618Z" fill="#262626"/>
<path d="M168.651 39.8959C169.145 43.3292 162.357 52.1075 162.357 52.1075L155.555 47.4244C155.555 47.4244 157.442 42.5882 160.618 39.4167C164.249 35.7808 168.132 36.1563 168.651 39.8959Z" fill="#4EC89E"/>
<path d="M140.774 53.0714L138.111 50.3198L135.271 53.9804C135.271 53.9804 137.434 56.07 140.008 55.4624L140.774 53.0714Z" fill="#FFC3BD"/>
<path d="M134.455 48.7882L133.235 52.6315L135.27 53.9653L138.111 50.3048L134.455 48.7882Z" fill="#FFC3BD"/>
<path d="M178.16 22.6605C177.938 26.2519 177.992 28.3711 176.184 30.2138C173.452 32.99 169.016 31.345 168.162 27.7438C167.386 24.513 167.88 19.1778 171.397 17.7501C172.973 17.1029 174.771 17.318 176.149 18.3185C177.527 19.3191 178.288 20.9623 178.16 22.6605Z" fill="#FFC3BD"/>
<path d="M181.285 15.1567C182.392 16.1743 181.923 17.3105 181.345 17.5229C183.138 17.8934 183.4 19.3211 182.456 22.3345C181.557 25.2195 179.379 29.0875 176.657 29.3246C172.566 29.6803 171.371 25.4171 171.341 21.1884C169.029 21.3317 170.027 19.2816 167.187 19.7558C164.717 20.1658 165.645 18.2392 163.546 17.3994C161.111 16.4114 161.6 12.6817 163.872 13.7537C163.872 13.7537 162.82 14.4453 164.045 15.0974C165.27 15.7495 165.151 14.2428 167.577 14.06C170.003 13.8772 170.284 15.952 173.12 14.7022C176.676 13.1313 179.013 13.0572 181.285 15.1567Z" fill="#262626"/>
<path d="M179.923 17.5032C180.255 16.972 180.895 16.7211 181.499 16.8857C182.611 17.1228 182.7 17.6119 183.396 17.5477C184.093 17.4835 183.841 18.2245 183.841 18.2245C183.841 18.2245 183.653 17.6662 182.813 17.9775C181.973 18.2887 181.425 17.5279 181.064 17.8688C180.704 18.2096 179.923 17.5032 179.923 17.5032Z" fill="#262626"/>
<path d="M173.278 23.6388C173.121 24.5195 172.674 25.3225 172.009 25.9211C171.13 26.7016 170.369 26.0742 170.339 25.0072C170.339 24.0439 170.749 22.473 171.762 22.0975C172.775 21.7221 173.461 22.5718 173.278 23.6388Z" fill="#FFC3BD"/>
<path d="M171.49 68.3209C171.49 68.3209 175.61 96.0491 177.873 106.423C180.343 117.785 197.559 148.018 197.559 148.018L203.882 145.963C203.882 145.963 190.173 118.724 188.761 107.456C187.224 95.2291 184.018 68.3011 184.018 68.3011L171.49 68.3209Z" fill="#A7E4CF"/>
<path d="M195.791 146.042C195.766 146.042 197.238 148.255 197.238 148.255L204.342 145.943L203.507 143.819L195.791 146.042Z" fill="#4EC89E"/>
<path opacity="0.3" d="M174.093 78.201C178.855 79.1347 178.351 96.894 177.778 106.028C176.405 99.5715 174.394 87.1474 173.021 78.3295C173.353 78.1658 173.731 78.1205 174.093 78.201Z" fill="#262626"/>
<path d="M164.61 68.321C164.61 68.321 164.116 95.4565 164.501 106.522C164.911 118.032 168.947 155.724 168.947 155.724H175.097C175.097 155.724 175.32 118.704 175.591 107.401C175.888 95.0514 177.375 68.321 177.375 68.321L164.61 68.321Z" fill="#A7E4CF"/>
<path d="M167.752 153.274C167.722 153.274 168.098 155.828 168.098 155.828H175.577L175.779 153.551L167.752 153.274Z" fill="#4EC89E"/>
<defs>
<filter id="filter0_d_845_10265" x="39.4959" y="74.1156" width="112.127" height="36.1685" filterUnits="userSpaceOnUse" color-interpolation-filters="sRGB">
<feFlood flood-opacity="0" result="BackgroundImageFix"/>
<feColorMatrix in="SourceAlpha" type="matrix" values="0 0 0 0 0 0 0 0 0 0 0 0 0 0 0 0 0 0 127 0" result="hardAlpha"/>
<feOffset dy="3"/>
<feGaussianBlur stdDeviation="3"/>
<feColorMatrix type="matrix" values="0 0 0 0 0 0 0 0 0 0 0 0 0 0 0 0 0 0 0.161 0"/>
<feBlend mode="normal" in2="BackgroundImageFix" result="effect1_dropShadow_845_10265"/>
<feBlend mode="normal" in="SourceGraphic" in2="effect1_dropShadow_845_10265" result="shape"/>
</filter>
<filter id="filter1_d_845_10265" x="9.80927" y="103.808" width="112.127" height="36.1685" filterUnits="userSpaceOnUse" color-interpolation-filters="sRGB">
<feFlood flood-opacity="0" result="BackgroundImageFix"/>
<feColorMatrix in="SourceAlpha" type="matrix" values="0 0 0 0 0 0 0 0 0 0 0 0 0 0 0 0 0 0 127 0" result="hardAlpha"/>
<feOffset dy="3"/>
<feGaussianBlur stdDeviation="3"/>
<feColorMatrix type="matrix" values="0 0 0 0 0 0 0 0 0 0 0 0 0 0 0 0 0 0 0.161 0"/>
<feBlend mode="normal" in2="BackgroundImageFix" result="effect1_dropShadow_845_10265"/>
<feBlend mode="normal" in="SourceGraphic" in2="effect1_dropShadow_845_10265" result="shape"/>
</filter>
<filter id="filter2_d_845_10265" x="30.1327" y="43.2935" width="112.127" height="36.1685" filterUnits="userSpaceOnUse" color-interpolation-filters="sRGB">
<feFlood flood-opacity="0" result="BackgroundImageFix"/>
<feColorMatrix in="SourceAlpha" type="matrix" values="0 0 0 0 0 0 0 0 0 0 0 0 0 0 0 0 0 0 127 0" result="hardAlpha"/>
<feOffset dy="3"/>
<feGaussianBlur stdDeviation="3"/>
<feColorMatrix type="matrix" values="0 0 0 0 0 0 0 0 0 0 0 0 0 0 0 0 0 0 0.161 0"/>
<feBlend mode="normal" in2="BackgroundImageFix" result="effect1_dropShadow_845_10265"/>
<feBlend mode="normal" in="SourceGraphic" in2="effect1_dropShadow_845_10265" result="shape"/>
</filter>
</defs>
</svg>
