<svg width="16" height="15" viewBox="0 0 16 15" fill="none" xmlns="http://www.w3.org/2000/svg">
<path d="M15.619 7.68247C15.6175 7.2544 15.5193 6.83221 15.3317 6.44741C15.1442 6.06262 14.8721 5.72516 14.5359 5.46025C15.0011 5.09353 15.3402 4.59075 15.5059 4.02205C15.6717 3.45335 15.6558 2.8471 15.4605 2.28786C15.2652 1.72862 14.9002 1.2443 14.4164 0.902442C13.9326 0.560588 13.3542 0.378258 12.7619 0.380887H3.23808C2.64572 0.378258 2.06732 0.560588 1.58355 0.902442C1.09978 1.2443 0.734785 1.72862 0.539471 2.28786C0.344158 2.8471 0.32827 3.45335 0.494026 4.02205C0.659782 4.59075 0.998913 5.09353 1.46411 5.46025C1.12668 5.72411 0.853765 6.06134 0.666071 6.44637C0.478376 6.83141 0.380829 7.25413 0.380829 7.68247C0.380829 8.11082 0.478376 8.53354 0.666071 8.91857C0.853765 9.30361 1.12668 9.64084 1.46411 9.9047C0.998913 10.2714 0.659782 10.7742 0.494026 11.3429C0.32827 11.9116 0.344158 12.5179 0.539471 13.0771C0.734785 13.6363 1.09978 14.1207 1.58355 14.4625C2.06732 14.8044 2.64572 14.9867 3.23808 14.9841H12.7619C13.3542 14.9867 13.9326 14.8044 14.4164 14.4625C14.9002 14.1207 15.2652 13.6363 15.4605 13.0771C15.6558 12.5179 15.6717 11.9116 15.5059 11.3429C15.3402 10.7742 15.0011 10.2714 14.5359 9.9047C14.8721 9.63978 15.1442 9.30233 15.3317 8.91753C15.5193 8.53274 15.6175 8.11054 15.619 7.68247ZM1.65078 3.23803C1.65078 2.81705 1.81801 2.41332 2.11569 2.11564C2.41336 1.81796 2.8171 1.65073 3.23808 1.65073H3.55554V2.28565C3.55554 2.45404 3.62243 2.61554 3.7415 2.73461C3.86057 2.85368 4.02207 2.92057 4.19046 2.92057C4.35885 2.92057 4.52035 2.85368 4.63942 2.73461C4.75849 2.61554 4.82538 2.45404 4.82538 2.28565V1.65073H6.09522V2.28565C6.09522 2.45404 6.16211 2.61554 6.28119 2.73461C6.40026 2.85368 6.56175 2.92057 6.73014 2.92057C6.89853 2.92057 7.06003 2.85368 7.1791 2.73461C7.29817 2.61554 7.36506 2.45404 7.36506 2.28565V1.65073H12.7619C13.1829 1.65073 13.5866 1.81796 13.8843 2.11564C14.182 2.41332 14.3492 2.81705 14.3492 3.23803C14.3492 3.65901 14.182 4.06275 13.8843 4.36042C13.5866 4.6581 13.1829 4.82533 12.7619 4.82533H3.23808C2.8171 4.82533 2.41336 4.6581 2.11569 4.36042C1.81801 4.06275 1.65078 3.65901 1.65078 3.23803ZM14.3492 12.1269C14.3492 12.5479 14.182 12.9516 13.8843 13.2493C13.5866 13.547 13.1829 13.7142 12.7619 13.7142H3.23808C2.8171 13.7142 2.41336 13.547 2.11569 13.2493C1.81801 12.9516 1.65078 12.5479 1.65078 12.1269C1.65078 11.7059 1.81801 11.3022 2.11569 11.0045C2.41336 10.7069 2.8171 10.5396 3.23808 10.5396H3.55554V11.1745C3.55554 11.3429 3.62243 11.5044 3.7415 11.6235C3.86057 11.7426 4.02207 11.8095 4.19046 11.8095C4.35885 11.8095 4.52035 11.7426 4.63942 11.6235C4.75849 11.5044 4.82538 11.3429 4.82538 11.1745V10.5396H6.09522V11.1745C6.09522 11.3429 6.16211 11.5044 6.28119 11.6235C6.40026 11.7426 6.56175 11.8095 6.73014 11.8095C6.89853 11.8095 7.06003 11.7426 7.1791 11.6235C7.29817 11.5044 7.36506 11.3429 7.36506 11.1745V10.5396H12.7619C13.1829 10.5396 13.5866 10.7069 13.8843 11.0045C14.182 11.3022 14.3492 11.7059 14.3492 12.1269ZM3.23808 9.26978C2.8171 9.26978 2.41336 9.10254 2.11569 8.80487C1.81801 8.50719 1.65078 8.10345 1.65078 7.68247C1.65078 7.2615 1.81801 6.85776 2.11569 6.56008C2.41336 6.26241 2.8171 6.09517 3.23808 6.09517H3.55554V6.73009C3.55554 6.89848 3.62243 7.05998 3.7415 7.17905C3.86057 7.29812 4.02207 7.36501 4.19046 7.36501C4.35885 7.36501 4.52035 7.29812 4.63942 7.17905C4.75849 7.05998 4.82538 6.89848 4.82538 6.73009V6.09517H6.09522V6.73009C6.09522 6.89848 6.16211 7.05998 6.28119 7.17905C6.40026 7.29812 6.56175 7.36501 6.73014 7.36501C6.89853 7.36501 7.06003 7.29812 7.1791 7.17905C7.29817 7.05998 7.36506 6.89848 7.36506 6.73009V6.09517H12.7619C13.1829 6.09517 13.5866 6.26241 13.8843 6.56008C14.182 6.85776 14.3492 7.2615 14.3492 7.68247C14.3492 8.10345 14.182 8.50719 13.8843 8.80487C13.5866 9.10254 13.1829 9.26978 12.7619 9.26978H3.23808Z" fill="#262626"/>
</svg>
