<svg width="32" height="32" viewBox="0 0 32 32" fill="none" xmlns="http://www.w3.org/2000/svg">
<circle opacity="0.1" cx="16" cy="16" r="16" fill="#4EC89E"/>
<path d="M17.9993 8H13.9993C13.1156 8.00106 12.2684 8.35259 11.6435 8.97748C11.0186 9.60237 10.6671 10.4496 10.666 11.3333V18.6667H21.3327V11.3333C21.3316 10.4496 20.9801 9.60237 20.3552 8.97748C19.7303 8.35259 18.8831 8.00106 17.9993 8V8Z" fill="#4EC89E"/>
<path d="M10.666 20.6667C10.6671 21.5504 11.0186 22.3976 11.6435 23.0225C12.2684 23.6474 13.1156 23.9989 13.9993 24H17.9993C18.8831 23.9989 19.7303 23.6474 20.3552 23.0225C20.9801 22.3976 21.3316 21.5504 21.3327 20.6667V20H10.666V20.6667ZM15.9993 21.3333C16.1312 21.3333 16.2601 21.3724 16.3697 21.4457C16.4794 21.5189 16.5648 21.6231 16.6153 21.7449C16.6657 21.8667 16.6789 22.0007 16.6532 22.1301C16.6275 22.2594 16.564 22.3782 16.4708 22.4714C16.3775 22.5646 16.2587 22.6281 16.1294 22.6539C16.0001 22.6796 15.866 22.6664 15.7442 22.6159C15.6224 22.5655 15.5183 22.48 15.445 22.3704C15.3718 22.2607 15.3327 22.1319 15.3327 22C15.3327 21.8232 15.4029 21.6536 15.5279 21.5286C15.653 21.4036 15.8225 21.3333 15.9993 21.3333Z" fill="#4EC89E"/>
</svg>
