<svg width="14" height="14" viewBox="0 0 14 14" fill="none" xmlns="http://www.w3.org/2000/svg">
<path d="M3.84313 -0.000244141H0.656713C0.482568 -0.000244141 0.315466 0.0677338 0.19232 0.188709C0.0691862 0.309687 0 0.47387 0 0.644972V3.77561C0 4.00604 0.125127 4.21907 0.328369 4.3344C0.531478 4.44961 0.781834 4.44961 0.985075 4.3344C1.18818 4.21906 1.31344 4.00603 1.31344 3.77561V1.29027H3.8433C4.07796 1.29027 4.29467 1.16722 4.41205 0.967651C4.52932 0.767983 4.52932 0.522006 4.41205 0.322441C4.29466 0.122772 4.07795 -0.000179219 3.8433 -0.000179219L3.84313 -0.000244141Z" fill="#158CEA"/>
<path d="M13.9998 0.644982C13.9998 0.473883 13.9306 0.309703 13.8075 0.188712C13.6844 0.0677318 13.5173 -0.000244141 13.3431 -0.000244141H10.1567C9.92204 -0.000244141 9.70533 0.122694 9.58795 0.322381C9.47068 0.521937 9.47068 0.767914 9.58795 0.967601C9.70534 1.16716 9.92205 1.29023 10.1567 1.29023H12.6866V3.7756C12.6866 4.00603 12.8118 4.21907 13.0149 4.3344C13.2182 4.44961 13.4685 4.44961 13.6716 4.3344C13.8749 4.21906 14 4.00602 14 3.7756L13.9998 0.644982Z" fill="#158CEA"/>
<path d="M0.000174071 13.3541C0.000174071 13.5252 0.0693631 13.6894 0.192494 13.8103C0.315627 13.9313 0.482736 13.9993 0.656887 13.9993H3.8433C4.07796 13.9993 4.29467 13.8764 4.41205 13.6767C4.52932 13.4771 4.52932 13.2311 4.41205 13.0315C4.29466 12.8319 4.07795 12.7088 3.8433 12.7088H1.31344V10.2235C1.31344 9.99302 1.1882 9.77999 0.985075 9.66466C0.781849 9.54944 0.53149 9.54944 0.328368 9.66466C0.125142 9.77999 0 9.99304 0 10.2235L0.000174071 13.3541Z" fill="#158CEA"/>
<path d="M14 10.2235C14 9.99302 13.8749 9.77999 13.6716 9.66466C13.4685 9.54944 13.2182 9.54944 13.0149 9.66466C12.8118 9.77999 12.6866 9.99304 12.6866 10.2235V12.7088H10.1567C9.92204 12.7088 9.70533 12.8319 9.58795 13.0315C9.47068 13.2311 9.47068 13.4771 9.58795 13.6767C9.70534 13.8763 9.92205 13.9993 10.1567 13.9993H13.3431C13.5173 13.9993 13.6844 13.9313 13.8075 13.8103C13.9306 13.6894 13.9998 13.5252 13.9998 13.3541L14 10.2235Z" fill="#158CEA"/>
<path d="M1.5 7.0004C1.5 7.16322 1.56871 7.31946 1.69131 7.4346C1.81379 7.54973 1.97991 7.61442 2.15326 7.61442H11.8468C12.0802 7.61442 12.2959 7.49743 12.4125 7.3074C12.5292 7.11737 12.5292 6.88341 12.4125 6.69338C12.2959 6.50335 12.0802 6.38635 11.8468 6.38635H2.15326C1.97991 6.38635 1.81381 6.45104 1.69131 6.56617C1.56871 6.6813 1.5 6.83755 1.5 7.00038V7.0004Z" fill="#158CEA"/>
</svg>
