<svg width="14" height="14" viewBox="0 0 14 14" fill="none" xmlns="http://www.w3.org/2000/svg">
<path d="M12.7889 9.10513C12.7074 9.10513 12.627 9.08621 12.5541 9.04987L11.5015 8.52356C11.3766 8.46116 11.2815 8.35169 11.2373 8.21923C11.1931 8.08677 11.2033 7.94217 11.2657 7.81724C11.3281 7.69231 11.4376 7.59728 11.57 7.55306C11.7025 7.50884 11.8471 7.51905 11.972 7.58145L13.0246 8.10777C13.1309 8.16072 13.2161 8.24803 13.2665 8.35553C13.3168 8.46302 13.3294 8.58439 13.3021 8.69991C13.2748 8.81543 13.2092 8.91833 13.116 8.99189C13.0229 9.06546 12.9076 9.10536 12.7889 9.10513ZM11.9715 4.31566L13.0241 3.78935C13.1491 3.72695 13.2441 3.61748 13.2883 3.48502C13.3325 3.35256 13.3223 3.20796 13.2599 3.08303C13.1975 2.9581 13.088 2.86307 12.9556 2.81885C12.8231 2.77463 12.6785 2.78484 12.5536 2.84724L11.501 3.37356C11.376 3.43595 11.281 3.54542 11.2368 3.67788C11.1926 3.81034 11.2028 3.95494 11.2652 4.07987C11.3276 4.2048 11.437 4.29983 11.5695 4.34405C11.702 4.38827 11.8466 4.37806 11.9715 4.31566ZM13.3152 5.94724C13.3152 5.80765 13.2597 5.67378 13.161 5.57508C13.0623 5.47638 12.9284 5.42092 12.7889 5.42092H11.7362C11.5966 5.42092 11.4628 5.47638 11.3641 5.57508C11.2654 5.67378 11.2099 5.80765 11.2099 5.94724C11.2099 6.08683 11.2654 6.2207 11.3641 6.3194C11.4628 6.4181 11.5966 6.47356 11.7362 6.47356H12.7889C12.9284 6.47356 13.0623 6.4181 13.161 6.3194C13.2597 6.2207 13.3152 6.08683 13.3152 5.94724ZM10.1573 10.6841V1.2104C10.1573 1.07081 10.1018 0.93694 10.0031 0.838236C9.90442 0.739533 9.77055 0.684082 9.63096 0.684082C9.49137 0.684082 9.3575 0.739533 9.2588 0.838236C9.1601 0.93694 9.10465 1.07081 9.10465 1.2104C9.10465 2.7625 7.74517 3.31566 6.47307 3.31566H2.78886C2.23051 3.31566 1.69502 3.53746 1.30021 3.93228C0.905398 4.32709 0.683594 4.86257 0.683594 5.42092L0.683594 6.47356C0.683594 7.03191 0.905398 7.56739 1.30021 7.9622C1.69502 8.35702 2.23051 8.57882 2.78886 8.57882H6.47307C7.74517 8.57882 9.10465 9.13198 9.10465 10.6841C9.10465 10.8237 9.1601 10.9575 9.2588 11.0562C9.3575 11.1549 9.49137 11.2104 9.63096 11.2104C9.77055 11.2104 9.90442 11.1549 10.0031 11.0562C10.1018 10.9575 10.1573 10.8237 10.1573 10.6841ZM4.99201 9.63145H2.78886C2.54381 9.63047 2.29971 9.60098 2.06149 9.54356L3.37728 12.4815C3.48778 12.7298 3.6679 12.9407 3.89582 13.0888C4.12375 13.2368 4.3897 13.3156 4.66149 13.3157C4.87773 13.3154 5.09045 13.261 5.28029 13.1574C5.47012 13.0539 5.63101 12.9045 5.74832 12.7228C5.86562 12.5411 5.9356 12.333 5.95187 12.1174C5.96814 11.9018 5.9302 11.6855 5.84149 11.4883L4.99201 9.63145Z" fill="#262626"/>
</svg>
