<svg width="24" height="24" viewBox="0 0 24 24" fill="none" xmlns="http://www.w3.org/2000/svg">
<path d="M18.5 9.5C18.8978 9.5 19.2794 9.34196 19.5607 9.06066C19.842 8.77936 20 8.39782 20 8V7.313C19.9981 5.90447 19.4378 4.55417 18.4418 3.55819C17.4458 2.56221 16.0955 2.00185 14.687 2H13.5V1.5C13.5 1.10218 13.342 0.720644 13.0607 0.43934C12.7794 0.158035 12.3978 0 12 0C11.6022 0 11.2206 0.158035 10.9393 0.43934C10.658 0.720644 10.5 1.10218 10.5 1.5V2H9.313C8.03747 1.9981 6.80384 2.45514 5.83745 3.28764C4.87106 4.12013 4.23642 5.27251 4.04946 6.53425C3.8625 7.796 4.13571 9.0829 4.81917 10.1599C5.50263 11.2368 6.55073 12.0319 7.772 12.4L10.5 13.146V19H9.313C8.69979 18.9992 8.11193 18.7553 7.67833 18.3217C7.24474 17.8881 7.00079 17.3002 7 16.687V16C7 15.6022 6.84196 15.2206 6.56066 14.9393C6.27935 14.658 5.89782 14.5 5.5 14.5C5.10217 14.5 4.72064 14.658 4.43934 14.9393C4.15803 15.2206 4 15.6022 4 16V16.687C4.00185 18.0955 4.5622 19.4458 5.55818 20.4418C6.55416 21.4378 7.90447 21.9981 9.313 22H10.5V22.5C10.5 22.8978 10.658 23.2794 10.9393 23.5607C11.2206 23.842 11.6022 24 12 24C12.3978 24 12.7794 23.842 13.0607 23.5607C13.342 23.2794 13.5 22.8978 13.5 22.5V22H14.687C15.9625 22.0019 17.1962 21.5449 18.1625 20.7124C19.1289 19.8799 19.7636 18.7275 19.9505 17.4657C20.1375 16.204 19.8643 14.9171 19.1808 13.8401C18.4974 12.7632 17.4493 11.9681 16.228 11.6L13.5 10.856V5H14.687C15.3002 5.00079 15.8881 5.24474 16.3217 5.67834C16.7553 6.11194 16.9992 6.6998 17 7.313V8C17 8.39782 17.158 8.77936 17.4393 9.06066C17.7206 9.34196 18.1022 9.5 18.5 9.5ZM15.382 14.479C15.9095 14.6452 16.3601 14.995 16.652 15.4648C16.9439 15.9346 17.0579 16.4935 16.9732 17.0401C16.8886 17.5867 16.611 18.0849 16.1907 18.4444C15.7703 18.804 15.2351 19.0011 14.682 19H13.5V13.965L15.382 14.479ZM10.5 10.035L8.618 9.521C8.09086 9.35488 7.6406 9.00557 7.34866 8.53627C7.05673 8.06697 6.9424 7.50868 7.02638 6.96241C7.11036 6.41613 7.38709 5.91796 7.8065 5.55801C8.22591 5.19806 8.7603 5.00012 9.313 5H10.5V10.035Z" fill="#262626"/>
</svg>
