<svg width="236" height="176" viewBox="0 0 236 176" fill="none" xmlns="http://www.w3.org/2000/svg">
<rect y="154.533" width="236" height="0.118" fill="#EBEBEB"/>
<rect x="196.721" y="162.127" width="15.6326" height="0.118" fill="#EBEBEB"/>
<rect x="152.234" y="163.411" width="4.10168" height="0.118" fill="#EBEBEB"/>
<rect x="187.191" y="157.747" width="9.05768" height="0.118" fill="#EBEBEB"/>
<rect x="24.7617" y="158.54" width="20.3857" height="0.118" fill="#EBEBEB"/>
<rect x="49.3516" y="158.54" width="2.98776" height="0.118" fill="#EBEBEB"/>
<rect x="62.0527" y="160.532" width="44.217" height="0.118" fill="#EBEBEB"/>
<path fill-rule="evenodd" clip-rule="evenodd" d="M20.7256 133.482H111.864C113.353 133.482 114.559 132.275 114.559 130.786V2.69512C114.559 1.20665 113.353 0 111.864 0H20.7256C19.2481 0.00253088 18.0481 1.19411 18.0352 2.67152V130.786C18.0352 132.273 19.2389 133.479 20.7256 133.482ZM18.1532 2.67146C18.1532 1.25 19.3041 0.096942 20.7256 0.0943385H111.864C113.286 0.0969362 114.439 1.24923 114.441 2.67146V130.786C114.439 132.209 113.286 133.361 111.864 133.364H20.7256C19.3041 133.361 18.1532 132.208 18.1532 130.786V2.67146Z" fill="#EBEBEB"/>
<path fill-rule="evenodd" clip-rule="evenodd" d="M122.82 133.482H213.963C215.448 133.476 216.649 132.271 216.649 130.786V2.67152C216.636 1.19594 215.439 0.0051121 213.963 0H122.82C121.342 0.00250305 120.141 1.19335 120.125 2.67152V130.786C120.128 132.274 121.333 133.479 122.82 133.482ZM120.243 2.67146C120.246 1.24923 121.398 0.0969362 122.82 0.0943385H213.963C215.386 0.0969362 216.538 1.24923 216.54 2.67146V130.786C216.538 132.209 215.386 133.361 213.963 133.364H122.82C121.398 133.361 120.246 132.209 120.243 130.786V2.67146Z" fill="#EBEBEB"/>
<rect x="135.576" y="154.533" width="13.6361" height="48.5782" transform="rotate(180 135.576 154.533)" fill="#E6E6E6"/>
<path d="M124.529 154.533H121.938V150.03H127.243L124.529 154.533Z" fill="#F0F0F0"/>
<rect x="213.377" y="154.533" width="13.6361" height="48.5782" transform="rotate(180 213.377 154.533)" fill="#E6E6E6"/>
<rect x="202.002" y="153.348" width="80.0606" height="47.3982" transform="rotate(180 202.002 153.348)" fill="#F0F0F0"/>
<path d="M175.602 150.719V108.768H199.334V150.719H175.602Z" fill="#E6E6E6"/>
<path d="M185.123 111.175H189.815C191.932 111.138 193.916 110.141 195.21 108.466H179.729C181.024 110.139 183.008 111.136 185.123 111.175Z" fill="#F0F0F0"/>
<path d="M150.102 150.724V108.772H173.834V150.724H150.102Z" fill="#E6E6E6"/>
<path d="M159.38 111.175H164.077C166.185 111.131 168.16 110.135 169.448 108.466H153.99C155.283 110.14 157.266 111.136 159.38 111.175Z" fill="#F0F0F0"/>
<path d="M124.598 150.724V108.772H148.33V150.724H124.598Z" fill="#E6E6E6"/>
<path d="M133.877 111.175H138.573C140.686 111.135 142.667 110.138 143.958 108.466H128.486C129.779 110.14 131.762 111.136 133.877 111.175Z" fill="#F0F0F0"/>
<path d="M199.41 154.533H201.997V150.03H196.691L199.41 154.533Z" fill="#F0F0F0"/>
<rect x="127.666" y="93.3239" width="91.4878" height="77.8942" transform="rotate(180 127.666 93.3239)" fill="#E6E6E6"/>
<rect x="126.77" y="93.3239" width="92.6489" height="77.8942" transform="rotate(180 126.77 93.3239)" fill="#F5F5F5"/>
<path d="M123.074 19.168V89.5856H37.8169V19.168L123.074 19.168Z" fill="#FAFAFA"/>
<path d="M112.613 89.5856L79.059 19.168H67.6602L101.215 89.5856H112.613Z" fill="white"/>
<path d="M97.9878 89.5856L64.4286 19.168H56.584L90.1385 89.5856H97.9878Z" fill="white"/>
<path d="M69.4785 19.1633V89.581H65.07V19.1633H69.4785Z" fill="#E6E6E6"/>
<path d="M98.7812 19.1633V89.581H94.3728V19.1633H98.7812Z" fill="#E6E6E6"/>
<path d="M68.6816 16.3878V91.9597H63.1073L63.1073 16.3878H68.6816Z" fill="#F5F5F5"/>
<path d="M97.9824 16.3878V91.9597H92.4081V16.3878H97.9824Z" fill="#F5F5F5"/>
<path d="M38.2074 19.168L38.2074 89.5856H37.8156L37.8156 19.168H38.2074Z" fill="#E6E6E6"/>
<rect opacity="0.6" x="125.301" y="49.7582" width="92.5828" height="38.6615" transform="rotate(180 125.301 49.7582)" fill="#E0E0E0"/>
<rect x="36.3672" y="154.533" width="2.37888" height="39.0061" transform="rotate(180 36.3672 154.533)" fill="#E6E6E6"/>
<rect x="76.9121" y="107.932" width="12.8809" height="7.58976" fill="#E6E6E6"/>
<rect x="76.9121" y="115.527" width="51.1601" height="7.58976" transform="rotate(180 76.9121 115.527)" fill="#F5F5F5"/>
<rect x="76.9121" y="120.242" width="12.8809" height="7.58976" fill="#E6E6E6"/>
<rect x="76.9121" y="127.836" width="51.1601" height="7.58976" transform="rotate(180 76.9121 127.836)" fill="#F5F5F5"/>
<rect x="76.9121" y="132.556" width="12.8809" height="7.58976" fill="#E6E6E6"/>
<rect x="76.9121" y="140.146" width="51.1601" height="7.58976" transform="rotate(180 76.9121 140.146)" fill="#F5F5F5"/>
<rect x="87.5273" y="154.533" width="2.37888" height="39.0061" transform="rotate(180 87.5273 154.533)" fill="#E6E6E6"/>
<rect x="76.9121" y="154.533" width="2.37888" height="39.0061" transform="rotate(180 76.9121 154.533)" fill="#F5F5F5"/>
<rect x="28.1309" y="154.533" width="2.37888" height="39.0061" transform="rotate(180 28.1309 154.533)" fill="#F5F5F5"/>
<ellipse cx="117.998" cy="170.505" rx="91.5161" ry="5.34304" fill="#F5F5F5"/>
<ellipse cx="118.498" cy="62.4788" rx="23.1106" ry="24.2527" transform="rotate(-45.69 118.498 62.4788)" fill="#4DB792"/>
<ellipse cx="120.344" cy="61.1695" rx="23.1106" ry="24.2527" transform="rotate(-45.69 120.344 61.1695)" fill="#4EC89E"/>
<g clip-path="url(#clip0_1_3119)">
<path d="M117.354 67.9991C116.591 68.7903 115.559 69.2653 114.461 69.3297C113.364 69.3942 112.283 69.0433 111.432 68.3469C110.915 67.899 110.514 67.3322 110.264 66.6952C110.014 66.0582 109.923 65.3701 109.998 64.6899C110.129 63.6719 110.605 62.7296 111.346 62.0194L114.212 59.1517C114.492 58.8714 114.649 58.4913 114.649 58.0949C114.649 57.6986 114.492 57.3185 114.212 57.0382C113.931 56.758 113.551 56.6006 113.155 56.6006C112.758 56.6006 112.378 56.758 112.098 57.0382L109.293 59.8442C108.015 61.0772 107.208 62.719 107.014 64.4846C106.879 65.964 107.204 67.4491 107.943 68.7377C108.682 70.0264 109.8 71.0561 111.145 71.6868C112.49 72.3176 113.996 72.5187 115.46 72.2629C116.923 72.0071 118.272 71.3067 119.323 70.257L122.321 67.2607C122.601 66.9804 122.758 66.6003 122.758 66.204C122.758 65.8077 122.601 65.4276 122.321 65.1473C122.04 64.8671 121.66 64.7097 121.264 64.7097C120.868 64.7097 120.487 64.8671 120.207 65.1473L117.354 67.9991Z" fill="white"/>
<path d="M128.066 49.9476C126.627 48.8903 124.854 48.3892 123.074 48.5368C121.295 48.6844 119.629 49.4708 118.384 50.7507L115.563 53.5726C115.282 53.8529 115.125 54.233 115.125 54.6294C115.125 55.0257 115.282 55.4058 115.563 55.6861C115.843 55.9663 116.223 56.1237 116.619 56.1237C117.016 56.1237 117.396 55.9663 117.676 55.6861L120.542 52.8233C121.289 52.0503 122.296 51.5802 123.368 51.503C124.44 51.4257 125.504 51.7469 126.354 52.4048C126.812 52.7801 127.186 53.2471 127.453 53.7756C127.719 54.3042 127.872 54.8827 127.902 55.4739C127.931 56.0651 127.837 56.656 127.625 57.2085C127.412 57.7611 127.087 58.2631 126.669 58.6824L123.672 61.6797C123.391 61.96 123.234 62.3401 123.234 62.7364C123.234 63.1328 123.391 63.5129 123.672 63.7932C123.952 64.0734 124.332 64.2308 124.728 64.2308C125.125 64.2308 125.505 64.0734 125.785 63.7932L128.782 60.7959C129.509 60.0672 130.071 59.1921 130.433 58.2288C130.794 57.2655 130.946 56.2362 130.878 55.2096C130.81 54.183 130.525 53.1827 130.04 52.2753C129.555 51.3679 128.882 50.5744 128.066 49.9476Z" fill="white"/>
<path d="M120.207 57.0384L115.563 61.6824C114.979 62.2661 114.979 63.2124 115.563 63.7961C116.146 64.3799 117.093 64.3798 117.677 63.7961L122.32 59.1522C122.904 58.5685 122.904 57.6221 122.32 57.0384C121.737 56.4547 120.79 56.4547 120.207 57.0384Z" fill="white"/>
</g>
<path d="M64.7498 74.5761L66.4584 75.2605C67.0821 75.5112 67.629 75.9214 68.0444 76.4499L68.8279 77.4411C69.35 78.0981 69.3261 79.0347 68.7712 79.6642L67.9405 80.6082C67.6334 80.9581 67.1991 81.1704 66.7344 81.1979C66.2698 81.2254 65.8134 81.0657 65.4672 80.7546L64.6648 80.0466C64.6648 80.0466 62.2104 78.3238 61.4883 76.044L61.9603 75.572C62.6771 74.8126 63.7141 74.4423 64.7498 74.5761Z" fill="#FFC3BD"/>
<path d="M69.4305 58.0181L68.8736 58.3862L68.2553 58.811C67.8446 59.1037 67.4293 59.4058 67.0281 59.7126C66.2209 60.3403 65.4374 60.987 64.7105 61.6761C63.2753 62.9652 62.0436 64.4643 61.0573 66.1223C60.9393 66.3206 60.8354 66.5188 60.7363 66.7218L60.6608 66.8728C60.6798 66.8091 60.6956 66.7445 60.708 66.6793C60.724 66.6014 60.724 66.5211 60.708 66.4433C60.6655 66.3064 60.6608 66.6604 60.7693 67.0097C61.0587 67.9162 61.4365 68.792 61.8974 69.6246C62.8697 71.4842 64.0875 73.4006 65.2392 75.2886L65.2675 75.3405C65.7429 76.1228 65.4959 77.1422 64.7153 77.6202C64.1234 77.9752 63.3746 77.9322 62.8273 77.5117C61.884 76.7778 60.9841 75.9898 60.1321 75.1517C59.2606 74.3039 58.4379 73.4073 57.6683 72.466C56.811 71.4372 56.0834 70.3069 55.5018 69.1006C55.3275 68.7242 55.1793 68.3363 55.0581 67.9395C54.9025 67.4234 54.8199 66.8879 54.8127 66.3489C54.8094 65.9836 54.849 65.6193 54.9307 65.2633C54.9783 65.06 55.0382 64.8598 55.1101 64.6638L55.1997 64.4231C55.3177 64.0974 55.4499 63.7812 55.5868 63.4791C56.6894 61.0734 58.2145 58.8849 60.0897 57.0174C60.9766 56.1109 61.9226 55.2641 62.9217 54.4828C63.422 54.0958 63.927 53.7182 64.4509 53.3642C64.7153 53.1848 64.9796 53.0054 65.2533 52.8355L65.6734 52.5806L66.1454 52.3069C67.6838 51.4763 69.6029 51.988 70.5237 53.4742C71.4444 54.9604 71.048 56.9066 69.6193 57.9142L69.4305 58.0181Z" fill="#FFC3BD"/>
<path d="M69.4875 50.5276C66.731 50.5276 63.7102 51.7218 59.8398 56.522C59.8398 59.3871 65.8862 63.1961 65.8862 63.1961C65.8862 63.1961 75.7982 50.504 69.4875 50.5276Z" fill="#4EC89E"/>
<path fill-rule="evenodd" clip-rule="evenodd" d="M48.8615 163.968C48.909 163.982 48.9582 163.99 49.0078 163.991C49.1464 163.983 49.2741 163.914 49.3571 163.803C49.4571 163.685 49.5033 163.531 49.4846 163.378C49.4204 162.617 48.0783 161.495 47.945 161.384C47.941 161.38 47.9382 161.378 47.9364 161.377C47.8917 161.348 47.8348 161.348 47.7901 161.377C47.7429 161.398 47.7145 161.447 47.7193 161.499C47.7523 162.311 48.2904 163.765 48.8615 163.968ZM48.9651 163.703C48.5875 163.585 48.1485 162.585 48.0211 161.815C48.4836 162.231 49.1822 162.953 49.2341 163.401C49.2455 163.483 49.2214 163.565 49.168 163.628C49.126 163.697 49.0421 163.728 48.9651 163.703Z" fill="#263238"/>
<path fill-rule="evenodd" clip-rule="evenodd" d="M47.7769 161.608C48.4196 161.995 49.1472 162.218 49.8962 162.259C50.0887 162.267 50.2792 162.218 50.4437 162.118C50.5947 162.012 50.6628 161.823 50.6136 161.646C50.5786 161.495 50.4807 161.366 50.3446 161.292C49.773 160.954 48.3949 161.247 47.9546 161.341C47.8786 161.357 47.8305 161.367 47.8194 161.367C47.7681 161.381 47.7294 161.423 47.7203 161.476C47.7126 161.527 47.7345 161.578 47.7769 161.608ZM50.2931 161.915C49.9769 162.132 48.9054 161.896 48.2116 161.547C48.8205 161.424 49.8164 161.278 50.2082 161.518C50.2833 161.555 50.3372 161.625 50.3545 161.707C50.3828 161.834 50.3403 161.882 50.2931 161.915Z" fill="#263238"/>
<path d="M42.8299 161.183C44.2281 159.687 45.413 158.005 46.351 156.185C46.351 156.185 50.7312 157.261 49.8721 158.545C48.3098 160.834 47.5499 165.54 49.5606 168.06C50.7076 169.5 48.8951 169.74 47.6726 169.122C45.7846 168.145 45.846 167.777 44.8406 166.158C43.991 164.775 43.6559 164.232 42.4806 163.637C41.5366 163.123 42.0086 162.16 42.8299 161.183Z" fill="#262626"/>
<path d="M79.976 78.9797C79.976 78.9797 73.6323 109.943 68.9784 123.192C64.0979 137.078 50.6223 158.512 50.0984 159.432C48.1821 158.918 46.4735 158.247 45.3359 157.138C45.3359 157.138 51.6607 133.892 57.8251 118.812C60.1851 87.3294 65.3251 79.0033 65.3251 79.0033L79.976 78.9797Z" fill="#262626"/>
<path opacity="0.2" d="M70.2851 95.5469C69.9972 101.537 69.8131 109.773 70.0822 119.798C72.0221 113.549 74.1319 105.077 75.9067 97.4727C74.7219 95.8915 72.8811 95.1316 70.2851 95.5469Z" fill="#262626"/>
<path d="M70.668 41.012C71.3335 43.7071 71.9848 48.092 70.9228 50.452C70.9228 50.452 74.8971 50.6313 79.9758 54.7C82.3688 51.1883 79.5982 50.4992 79.5982 50.4992C77.4884 50.0272 77.5922 47.1952 77.5969 45.1892L70.668 41.012Z" fill="#FFC3BD"/>
<path d="M69.6674 51.6556C67.685 51.4385 69.0538 47.6719 70.0827 48.0401C72.6882 48.9841 78.5315 47.9362 80.3393 48.9322C82.147 49.9281 81.6892 51.9718 81.6892 51.9718C81.6892 51.9718 71.8008 51.8916 69.6674 51.6556Z" fill="#4EC89E"/>
<path opacity="0.7" d="M69.6674 51.6556C67.685 51.4385 69.0538 47.6719 70.0827 48.0401C72.6882 48.9841 78.5315 47.9362 80.3393 48.9322C82.147 49.9281 81.6892 51.9718 81.6892 51.9718C81.6892 51.9718 71.8008 51.8916 69.6674 51.6556Z" fill="#262626"/>
<path d="M68.9128 36.0747C69.9654 40.4549 70.3288 42.3287 72.9106 44.212C76.8141 47.044 81.855 44.8067 82.1099 40.2094C82.3365 36.0653 80.5806 29.6036 76.0211 28.5935C71.4616 27.5834 67.8602 31.6946 68.9128 36.0747Z" fill="#FFC3BD"/>
<path d="M77.4079 36.882C79.985 33.4742 81.6559 30.7177 80.3957 27.7016C79.3337 25.1811 76.3931 25.9174 75.9825 27.1777C68.1661 26.5122 65.3577 29.3442 66.972 34.0264C68.0009 37.0142 64.0078 35.4424 64.9801 39.2562C65.7212 42.1637 63.0921 43.2729 64.4279 44.9438C66.3537 47.3557 70.3279 44.2122 74.8638 46.0199C78.5643 47.502 84.1433 45.26 77.4079 36.882Z" fill="#262626"/>
<path d="M76.98 37.5711C77.4106 38.2788 78.1236 38.7685 78.9388 38.9163C79.963 39.0673 80.317 37.9156 79.8828 36.8489C79.5052 35.9049 78.5187 34.6541 77.5511 34.9987C76.5835 35.3432 76.3994 36.6507 76.98 37.5711Z" fill="#FFC3BD"/>
<path fill-rule="evenodd" clip-rule="evenodd" d="M76.2695 165.903C76.9023 166.44 77.6784 166.78 78.5021 166.88C78.6143 166.889 78.727 166.873 78.8325 166.833C79.0112 166.75 79.1089 166.554 79.0685 166.361C79.0595 166.205 78.9816 166.062 78.8561 165.969C78.2922 165.517 76.7539 165.64 76.411 165.667C76.375 165.67 76.3522 165.672 76.345 165.672C76.2921 165.679 76.2479 165.716 76.2318 165.766C76.2178 165.816 76.2324 165.868 76.2695 165.903ZM78.7142 166.578C78.3696 166.748 77.3454 166.356 76.7035 165.908C77.3265 165.87 78.3508 165.88 78.6859 166.172C78.7544 166.22 78.7977 166.297 78.8039 166.38C78.8133 166.507 78.7661 166.55 78.7142 166.578Z" fill="#263238"/>
<path fill-rule="evenodd" clip-rule="evenodd" d="M76.2517 165.884C76.2778 165.918 76.3175 165.939 76.3602 165.941L76.3933 165.95C77.1815 165.785 78.5314 165.016 78.6353 164.416C78.6754 164.226 78.5825 164.032 78.4087 163.944C78.277 163.86 78.1148 163.837 77.965 163.883C77.201 164.075 76.302 165.65 76.2526 165.736L76.2517 165.738C76.2234 165.783 76.2234 165.84 76.2517 165.884ZM78.0266 164.129H78.121C78.1695 164.124 78.2182 164.132 78.2626 164.152C78.3712 164.223 78.3712 164.289 78.3712 164.346C78.3051 164.723 77.3847 165.318 76.6484 165.573C76.9835 165.049 77.5829 164.242 78.0266 164.129Z" fill="#263238"/>
<path d="M82.0113 168.537C78.1881 168.239 75.611 165.615 75.8753 162.835C76.0216 161.301 71.1223 161.164 71.1223 161.164C71.8963 165.917 70.924 166.597 70.6031 167.824C70.2821 169.051 70.3623 170.411 71.3771 170.434C72.5902 170.467 73.1566 170.236 74.6811 170.293C76.4464 170.363 78.3533 170.43 81.4921 170.434C82.7335 170.439 83.7105 168.669 82.0113 168.537Z" fill="#262626"/>
<path d="M86.5839 78.9797C86.5839 78.9797 86.2488 102.433 84.3986 117.844C82.5483 133.255 76.1858 163.482 76.1858 163.482C74.5124 163.877 72.7681 163.861 71.1023 163.435C71.1023 163.435 69.0916 139.835 72.4664 117.004C69.9884 93.0878 68.4355 78.9797 68.4355 78.9797L86.5839 78.9797Z" fill="#262626"/>
<path d="M87.4522 57.2865C87.372 59.099 90.2323 63.2904 86.7017 65.7164C87.3625 67.1938 87.9195 77.1955 86.5837 78.9796C84.6344 80.3956 74.0852 80.136 65.3437 78.9796C64.9709 75.3641 66.9627 67.8735 64.5225 56.1962C64.2521 54.9032 64.5434 53.5562 65.3238 52.4905C66.1042 51.4247 67.3004 50.7404 68.6147 50.6077C69.351 50.5369 70.1298 50.4708 70.9275 50.4331C73.7136 50.237 76.51 50.237 79.2961 50.4331C80.1976 50.518 81.1321 50.6313 82.0242 50.7588C85.2444 51.2126 87.5934 54.0376 87.4522 57.2865Z" fill="#4EC89E"/>
<path d="M98.1766 63.7764L100.263 61.5627L103.156 65.6361C103.156 65.6361 100.716 67.3636 98.3795 67.2975L98.1105 66.6981C97.6728 65.7678 97.6973 64.686 98.1766 63.7764Z" fill="#FFC3BD"/>
<path d="M103.628 61.7801L104.444 63.3141C104.817 64.0155 104.554 64.8865 103.854 65.2634L103.175 65.6363L100.281 61.5629L101.938 61.0909C102.593 60.8907 103.299 61.1785 103.628 61.7801Z" fill="#FFC3BD"/>
<path d="M87.1697 55.8327L87.3491 56.7342L87.5473 57.6782C87.6889 58.3154 87.8258 58.9574 87.9863 59.5662C88.2931 60.8312 88.6612 62.0726 89.053 63.2714C89.4438 64.4226 89.917 65.5442 90.469 66.6274C90.9103 67.5182 91.4938 68.3313 92.1965 69.0346L91.1959 68.5626C90.9032 68.5248 90.8466 68.6145 91.0023 68.6098C91.2503 68.5831 91.4916 68.5128 91.7151 68.4021C92.4224 68.0774 93.0959 67.6838 93.7258 67.2268C94.4291 66.7548 95.1418 66.1978 95.8451 65.6267C96.5483 65.0556 97.2611 64.4467 97.9502 63.885L98.0257 63.8284C98.6347 63.331 99.509 63.3287 100.121 63.8228C100.732 64.3169 100.914 65.1722 100.556 65.8722C100.082 66.7764 99.5537 67.6512 98.9744 68.4918C98.3841 69.3431 97.741 70.1566 97.0487 70.9273C96.2933 71.7778 95.4393 72.5352 94.5046 73.1834C93.9189 73.5787 93.2842 73.896 92.6166 74.1274C92.1862 74.2777 91.7393 74.3759 91.2855 74.4201C90.7225 74.47 90.1551 74.4286 89.6052 74.2974C89.2839 74.2201 88.9808 74.0805 88.7131 73.8867L88.5999 73.8018C87.15 72.7159 85.9293 71.354 85.0079 69.7945C84.5769 69.0928 84.1898 68.3848 83.8468 67.6705C83.5038 66.9562 83.1892 66.2419 82.9028 65.5276C82.3566 64.1178 81.8933 62.6773 81.5151 61.2135C81.3311 60.4866 81.1564 59.7645 81.0101 59.0329C80.9393 58.6647 80.8638 58.3013 80.8024 57.9284C80.7411 57.5555 80.6844 57.2062 80.6231 56.7626C80.3962 55.0001 81.604 53.3738 83.3569 53.0817C85.1097 52.7895 86.7797 53.9362 87.1367 55.677L87.1697 55.8327Z" fill="#FFC3BD"/>
<path d="M82.6431 50.8769C85.3902 51.1601 87.585 52.9821 89.119 58.7829C87.939 60.4161 80.505 63.9985 80.505 63.9985C80.505 63.9985 76.3655 50.2303 82.6431 50.8769Z" fill="#4EC89E"/>
<path d="M168.701 167.156H165.229L164.879 159.106H168.355L168.701 167.156Z" fill="#FFC3BD"/>
<path opacity="0.2" d="M164.885 159.111L165.06 163.259H168.536L168.357 159.111H164.885Z" fill="#262626"/>
<path d="M198.28 157.724L194.978 158.803L190.82 151.694L194.127 150.615L198.28 157.724Z" fill="#FFC3BD"/>
<path opacity="0.2" d="M194.127 150.615L190.82 151.694L192.968 155.359L196.269 154.281L194.127 150.615Z" fill="#262626"/>
<path d="M180.453 50.8824C180.883 51.4075 181.247 51.8758 181.621 52.3913C181.994 52.9069 182.349 53.3988 182.704 53.9097C183.404 54.9361 184.076 55.9862 184.705 57.0693C186.014 59.2669 187.081 61.5998 187.888 64.0272L187.969 64.2637L188.006 64.3867L188.058 64.5806L188.153 64.9685L188.205 65.3233C188.261 65.7481 188.278 66.1771 188.257 66.6051C188.213 67.3268 188.109 68.0435 187.945 68.7478C187.645 70.0096 187.248 71.2463 186.758 72.4467C185.822 74.7478 184.689 76.9635 183.371 79.0688L181.006 77.9383C181.715 75.7199 182.425 73.4495 182.945 71.2405C183.216 70.1757 183.422 69.0952 183.56 68.0052C183.618 67.5346 183.636 67.0598 183.612 66.5862C183.605 66.4174 183.583 66.2496 183.546 66.0848L183.522 65.9997C183.513 65.9844 183.506 65.9686 183.499 65.9524L183.461 65.8625L183.385 65.678L183.068 64.9354L182.713 64.1975C182.477 63.7245 182.217 63.2137 181.957 62.7217C181.417 61.7473 180.836 60.7777 180.23 59.8128C179.625 58.8478 178.981 57.9207 178.338 56.9747C177.695 56.0287 176.99 55.0827 176.352 54.2266L180.453 50.8824Z" fill="#FFC3BD"/>
<path d="M181.223 77.3519L179.865 80.3554H183.749C183.749 80.3554 184.368 78.0756 182.959 77.1532L181.223 77.3519Z" fill="#FFC3BD"/>
<path d="M180.319 83.733L183.924 83.0376L183.749 80.3557H179.865L180.319 83.733Z" fill="#FFC3BD"/>
<path d="M172.292 38.8683C171.791 41.413 171.294 46.0721 173.073 47.7655C173.073 47.7655 172.377 50.3434 167.657 50.3434C162.454 50.3434 165.173 47.7655 165.173 47.7655C168.011 47.0891 167.936 44.989 167.439 43.0118L172.292 38.8683Z" fill="#FFC3BD"/>
<path d="M173.754 48.6499C174.128 47.8363 174.539 46.8998 173.688 46.6065C172.742 46.2849 167.652 45.9585 165.888 46.5639C165.419 46.6938 165.022 47.0062 164.786 47.4311C164.549 47.8561 164.493 48.3582 164.63 48.8249L173.754 48.6499Z" fill="#262626"/>
<path fill-rule="evenodd" clip-rule="evenodd" d="M193.501 160.042C193.719 160.076 194.007 159.877 194.263 159.631C194.482 159.419 194.679 159.184 194.849 158.931C194.868 158.904 194.868 158.868 194.849 158.841C194.831 158.816 194.8 158.803 194.769 158.808C194.707 158.813 193.572 159.002 193.288 159.442C193.223 159.534 193.202 159.65 193.232 159.759C193.253 159.901 193.361 160.014 193.501 160.042ZM193.427 159.527C193.446 159.5 193.468 159.474 193.493 159.451C193.825 159.223 194.203 159.072 194.6 159.007C194.283 159.404 193.767 159.915 193.526 159.877C193.503 159.877 193.432 159.863 193.394 159.716C193.376 159.651 193.388 159.582 193.427 159.527Z" fill="#4EC89E"/>
<path fill-rule="evenodd" clip-rule="evenodd" d="M194.791 158.969L194.829 158.945C194.84 158.935 194.847 158.922 194.848 158.907C194.857 158.878 194.848 158.846 194.824 158.827C194.823 158.826 194.822 158.825 194.82 158.823C194.75 158.763 194.025 158.133 193.519 158.169C193.392 158.179 193.275 158.238 193.192 158.335C193.103 158.426 193.088 158.567 193.154 158.676C193.372 159.007 194.398 159.073 194.791 158.969ZM193.321 158.444L193.349 158.416H193.358C193.405 158.369 193.467 158.341 193.533 158.335C193.925 158.397 194.29 158.571 194.583 158.837C194.139 158.889 193.42 158.78 193.292 158.586C193.292 158.585 193.291 158.584 193.29 158.583C193.28 158.562 193.258 158.52 193.321 158.444Z" fill="#4EC89E"/>
<path fill-rule="evenodd" clip-rule="evenodd" d="M162.813 167.072C162.955 167.27 163.385 167.332 163.83 167.332C164.187 167.33 164.543 167.299 164.894 167.237C164.926 167.23 164.951 167.204 164.956 167.171C164.964 167.137 164.949 167.102 164.918 167.086C164.866 167.053 163.65 166.362 163.073 166.518C162.964 166.545 162.87 166.615 162.813 166.712C162.734 166.819 162.734 166.965 162.813 167.072ZM163.121 166.66C163.175 166.653 163.229 166.653 163.282 166.66C163.76 166.716 164.223 166.863 164.644 167.096C164.001 167.186 163.121 167.181 162.961 166.958C162.923 166.93 162.904 166.878 162.961 166.774C162.996 166.715 163.054 166.674 163.121 166.66Z" fill="#4EC89E"/>
<path fill-rule="evenodd" clip-rule="evenodd" d="M164.847 167.237H164.88C164.901 167.243 164.923 167.239 164.941 167.228C164.965 167.21 164.978 167.182 164.979 167.152C164.979 167.151 164.979 167.149 164.978 167.146C164.968 167.058 164.866 166.167 164.44 165.814C164.308 165.704 164.137 165.653 163.967 165.672C163.74 165.695 163.659 165.809 163.659 165.904C163.598 166.291 164.43 167.048 164.847 167.237ZM163.986 165.818H164.033V165.828C164.13 165.829 164.223 165.862 164.298 165.922C164.565 166.22 164.73 166.594 164.771 166.991C164.35 166.736 163.787 166.145 163.825 165.908C163.825 165.889 163.835 165.818 163.986 165.818Z" fill="#4EC89E"/>
<path d="M194.687 158.42L197.525 155.719C197.627 155.619 197.786 155.605 197.904 155.686L200.534 157.446C200.663 157.533 200.744 157.674 200.755 157.829C200.767 157.984 200.706 158.136 200.59 158.24C199.592 159.186 199.058 159.569 197.819 160.752C197.052 161.485 194.772 163.968 193.718 164.981C192.663 165.993 191.528 165.075 191.868 164.569C193.401 162.294 194.356 160.113 194.441 158.964C194.457 158.759 194.544 158.567 194.687 158.42Z" fill="#262626"/>
<path d="M165.25 166.755H169.034C169.175 166.754 169.298 166.853 169.327 166.991L170.013 170.08C170.048 170.23 170.012 170.388 169.915 170.508C169.818 170.628 169.671 170.697 169.516 170.695C168.145 170.695 166.167 170.595 164.446 170.595C162.435 170.595 160.699 170.704 158.339 170.704C156.92 170.704 156.518 169.261 157.114 169.129C159.829 168.538 162.052 168.472 164.398 167.024C164.651 166.857 164.946 166.763 165.25 166.755Z" fill="#262626"/>
<path d="M160.301 55.6502C158.92 57.6842 157.496 59.5856 155.963 61.4635C154.425 63.3642 152.781 65.1771 151.04 66.8935L150.368 67.5463L150.198 67.7071L150.075 67.8206L149.895 67.9483C149.672 68.1279 149.433 68.2863 149.181 68.4214C148.382 68.8426 147.504 69.0893 146.603 69.145C145.228 69.2264 143.849 69.1117 142.507 68.8045C140.074 68.268 137.716 67.4389 135.482 66.3354L136.353 63.8758C138.568 64.3186 140.808 64.625 143.06 64.7934C144.05 64.8716 145.046 64.8303 146.026 64.6704C146.307 64.6283 146.576 64.5232 146.811 64.363C146.835 64.363 146.811 64.3346 146.811 64.3346L146.849 64.2968L146.986 64.1407L147.549 63.5258C149.025 61.8419 150.458 60.0445 151.848 58.2092C153.239 56.3739 154.634 54.4914 155.963 52.6561L160.301 55.6502Z" fill="#FFC3BD"/>
<path d="M179.295 48.5555C182.55 49.3028 186.286 58.1811 186.286 58.1811L179.745 62.6652C178.12 60.3305 176.679 57.8729 175.436 55.3147C173.496 51.2516 175.965 47.7892 179.295 48.5555Z" fill="#4EC89E"/>
<path opacity="0.3" d="M176.959 54.2317L180.052 62.4667L179.745 62.6795C179.745 62.6795 178.406 60.7875 176.959 58.2664L176.959 54.2317Z" fill="#262626"/>
<path d="M159.827 48.7305C159.827 48.7305 156.128 52.9071 159.624 78.7663H178.208C178.336 75.9282 176.543 61.9935 179.296 48.5508C177.24 48.1554 175.161 47.8931 173.071 47.7656C170.44 47.6141 167.803 47.6141 165.172 47.7656C163.368 47.9473 161.581 48.27 159.827 48.7305Z" fill="#4EC89E"/>
<path opacity="0.3" d="M161.889 56.2085C161.406 59.143 160.138 61.892 158.219 64.1644C158.143 62.4994 158.115 61.0048 158.12 59.6662L161.889 56.2085Z" fill="#262626"/>
<path d="M163.494 51.5495C163.967 54.8369 157.468 63.2421 157.468 63.2421L150.955 58.7581C150.955 58.7581 152.762 54.1273 155.803 51.0907C159.28 47.6094 162.998 47.9688 163.494 51.5495Z" fill="#4EC89E"/>
<path d="M136.802 64.1648L134.253 61.5302L131.533 65.0351C131.533 65.0351 133.605 67.0359 136.069 66.4541L136.802 64.1648Z" fill="#FFC3BD"/>
<path d="M130.752 60.0637L129.584 63.7437L131.533 65.0208L134.253 61.5158L130.752 60.0637Z" fill="#FFC3BD"/>
<path d="M172.599 35.0464C172.387 38.4851 172.439 40.5143 170.707 42.2786C168.092 44.9369 163.844 43.3618 163.026 39.9136C162.283 36.8201 162.756 31.7117 166.124 30.3447C167.632 29.7249 169.354 29.9309 170.673 30.8889C171.993 31.847 172.722 33.4203 172.599 35.0464Z" fill="#FFC3BD"/>
<path d="M175.591 27.8615C176.651 28.8359 176.201 29.9238 175.648 30.1272C177.365 30.482 177.616 31.849 176.712 34.7343C175.851 37.4966 173.765 41.2003 171.159 41.4273C167.243 41.7679 166.098 37.6858 166.069 33.6369C163.856 33.7741 164.811 31.8111 162.092 32.2652C159.727 32.6578 160.616 30.8131 158.605 30.009C156.274 29.063 156.742 25.4918 158.918 26.5182C158.918 26.5182 157.91 27.1804 159.083 27.8048C160.256 28.4292 160.143 26.9865 162.465 26.8115C164.788 26.6365 165.057 28.6231 167.772 27.4264C171.178 25.9222 173.415 25.8513 175.591 27.8615Z" fill="#262626"/>
<path d="M174.287 30.1083C174.604 29.5997 175.218 29.3594 175.796 29.517C176.86 29.7441 176.945 30.2123 177.612 30.1509C178.279 30.0894 178.038 30.7989 178.038 30.7989C178.038 30.7989 177.858 30.2644 177.054 30.5624C176.25 30.8604 175.725 30.1319 175.38 30.4583C175.034 30.7847 174.287 30.1083 174.287 30.1083Z" fill="#262626"/>
<path d="M167.926 35.9831C167.775 36.8264 167.347 37.5953 166.71 38.1684C165.868 38.9158 165.14 38.3151 165.111 37.2934C165.111 36.371 165.504 34.8669 166.474 34.5074C167.443 34.1479 168.101 34.9615 167.926 35.9831Z" fill="#FFC3BD"/>
<path d="M166.213 78.7664C166.213 78.7664 170.158 105.316 172.324 115.249C174.689 126.128 191.173 155.076 191.173 155.076L197.228 153.108C197.228 153.108 184.102 127.027 182.749 116.238C181.278 104.531 178.208 78.7474 178.208 78.7474L166.213 78.7664Z" fill="#A7E4CF"/>
<path d="M189.481 153.184C189.457 153.184 190.867 155.303 190.867 155.303L197.668 153.089L196.869 151.056L189.481 153.184Z" fill="#4EC89E"/>
<path opacity="0.3" d="M168.704 88.2265C173.264 89.1205 172.781 106.125 172.233 114.871C170.918 108.689 168.993 96.7926 167.678 88.3495C167.996 88.1927 168.358 88.1493 168.704 88.2265Z" fill="#262626"/>
<path d="M159.626 78.7661C159.626 78.7661 159.153 104.748 159.522 115.344C159.914 126.365 163.779 162.455 163.779 162.455H169.668C169.668 162.455 169.88 127.008 170.141 116.185C170.424 104.36 171.848 78.7661 171.848 78.7661L159.626 78.7661Z" fill="#A7E4CF"/>
<path d="M162.634 160.109C162.606 160.109 162.966 162.554 162.966 162.554H170.127L170.321 160.374L162.634 160.109Z" fill="#4EC89E"/>
<path d="M134.167 27H122.833C122.082 27 121.361 27.2985 120.83 27.8299C120.299 28.3612 120 29.0819 120 29.8334V38.3335C120 39.085 120.299 39.8056 120.83 40.337C121.361 40.8684 122.082 41.1669 122.833 41.1669H124.887L128.04 43.8324C128.168 43.9406 128.33 44 128.498 44C128.665 44 128.828 43.9406 128.955 43.8324L132.113 41.1669H134.167C134.918 41.1669 135.639 40.8684 136.17 40.337C136.701 39.8056 137 39.085 137 38.3335V29.8334C137 29.0819 136.701 28.3612 136.17 27.8299C135.639 27.2985 134.918 27 134.167 27Z" fill="#4DB792"/>
<path d="M135.167 26H123.833C123.082 26 122.361 26.2985 121.83 26.8299C121.299 27.3612 121 28.0819 121 28.8334V37.3335C121 38.085 121.299 38.8056 121.83 39.337C122.361 39.8684 123.082 40.1669 123.833 40.1669H125.887L129.04 42.8324C129.168 42.9406 129.33 43 129.498 43C129.665 43 129.828 42.9406 129.955 42.8324L133.113 40.1669H135.167C135.918 40.1669 136.639 39.8684 137.17 39.337C137.701 38.8056 138 38.085 138 37.3335V28.8334C138 28.0819 137.701 27.3612 137.17 26.8299C136.639 26.2985 135.918 26 135.167 26Z" fill="#4EC89E"/>
<g clip-path="url(#clip1_1_3119)">
<path d="M132.667 32.6666H132.001V32C132.001 31.9116 131.966 31.8268 131.903 31.7643C131.841 31.7017 131.756 31.6666 131.667 31.6666C131.579 31.6666 131.494 31.7017 131.432 31.7643C131.369 31.8268 131.334 31.9116 131.334 32V32.6666H130.667C130.579 32.6666 130.494 32.7017 130.432 32.7643C130.369 32.8268 130.334 32.9116 130.334 33C130.334 33.0884 130.369 33.1731 130.432 33.2357C130.494 33.2982 130.579 33.3333 130.667 33.3333H131.334V34C131.334 34.0884 131.369 34.1731 131.432 34.2357C131.494 34.2982 131.579 34.3333 131.667 34.3333C131.756 34.3333 131.841 34.2982 131.903 34.2357C131.966 34.1731 132.001 34.0884 132.001 34V33.3333H132.667C132.756 33.3333 132.841 33.2982 132.903 33.2357C132.966 33.1731 133.001 33.0884 133.001 33C133.001 32.9116 132.966 32.8268 132.903 32.7643C132.841 32.7017 132.756 32.6666 132.667 32.6666Z" fill="#F9F9F9"/>
<path d="M128 33C129.105 33 130 32.1046 130 31C130 29.8954 129.105 29 128 29C126.895 29 126 29.8954 126 31C126 32.1046 126.895 33 128 33Z" fill="#F9F9F9"/>
<path d="M128 33.6666C127.205 33.6675 126.442 33.9839 125.88 34.5463C125.317 35.1087 125.001 35.8712 125 36.6666C125 36.755 125.035 36.8398 125.098 36.9023C125.16 36.9648 125.245 37 125.333 37H130.667C130.755 37 130.84 36.9648 130.902 36.9023C130.965 36.8398 131 36.755 131 36.6666C130.999 35.8712 130.683 35.1087 130.12 34.5463C129.558 33.9839 128.795 33.6675 128 33.6666Z" fill="#F9F9F9"/>
</g>
<defs>
<clipPath id="clip0_1_3119">
<rect width="23.9147" height="23.9147" fill="white" transform="translate(106.984 48.4589)"/>
</clipPath>
<clipPath id="clip1_1_3119">
<rect width="8" height="8" fill="white" transform="translate(125 29)"/>
</clipPath>
</defs>
</svg>
