<svg width="24" height="20" viewBox="0 0 24 20" fill="none" xmlns="http://www.w3.org/2000/svg">
<path fill-rule="evenodd" clip-rule="evenodd" d="M0 2.68966C0 2.68966 10.049 7.99939 11.9995 7.99939C14.0439 7.99939 23.984 2.79109 23.984 2.79109L24 1.86053C24 0.833178 23.1052 -0.000610352 21.9996 -0.000610352H1.99942C0.894844 -0.000610352 0 0.833178 0 1.86053V2.68966ZM23.984 4.79939C23.984 4.79939 14.1377 10.2991 11.9995 10.2991C10.049 10.2991 0.0149807 4.79939 0.0159794 4.79939L0 17.1422C0 18.2778 0.895843 19.1994 1.99942 19.1994H21.9996C23.1052 19.1994 24 18.2778 24 17.1422L23.984 4.79939Z" fill="#F79E1B"/>
</svg>
