<svg width="25" height="24" viewBox="0 0 25 24" fill="none" xmlns="http://www.w3.org/2000/svg">
<g clip-path="url(#clip0_793_17750)">
<path d="M21.543 14.499C22.9237 14.499 24.043 13.3797 24.043 11.999C24.043 10.6183 22.9237 9.49902 21.543 9.49902C20.1623 9.49902 19.043 10.6183 19.043 11.999C19.043 13.3797 20.1623 14.499 21.543 14.499Z" fill="#262626"/>
<path d="M12.043 14.499C13.4237 14.499 14.543 13.3797 14.543 11.999C14.543 10.6183 13.4237 9.49902 12.043 9.49902C10.6623 9.49902 9.54297 10.6183 9.54297 11.999C9.54297 13.3797 10.6623 14.499 12.043 14.499Z" fill="#262626"/>
<path d="M2.54297 14.499C3.92368 14.499 5.04297 13.3797 5.04297 11.999C5.04297 10.6183 3.92368 9.49902 2.54297 9.49902C1.16226 9.49902 0.0429688 10.6183 0.0429688 11.999C0.0429688 13.3797 1.16226 14.499 2.54297 14.499Z" fill="#262626"/>
</g>
<defs>
<clipPath id="clip0_793_17750">
<rect width="24" height="24" fill="white" transform="translate(0.0429688 -0.000976562)"/>
</clipPath>
</defs>
</svg>
