<svg width="24" height="24" viewBox="0 0 24 24" fill="none" xmlns="http://www.w3.org/2000/svg">
<g clip-path="url(#clip0_1_2885)">
<path d="M11.452 14.018C9.39722 14.2038 7.48823 15.1582 6.10666 16.6905C4.72509 18.2228 3.97274 20.22 4.00001 22.283V22.5C4.00001 22.8979 4.15805 23.2794 4.43935 23.5607C4.72066 23.842 5.10219 24 5.50001 24C5.89784 24 6.27937 23.842 6.56067 23.5607C6.84198 23.2794 7.00001 22.8979 7.00001 22.5V22.223C6.97823 20.9543 7.42536 19.7221 8.25572 18.7626C9.08608 17.8031 10.2413 17.1837 11.5 17.023C12.1953 16.9541 12.8973 17.0314 13.5608 17.2501C14.2244 17.4688 14.8349 17.824 15.3529 18.2927C15.871 18.7615 16.2851 19.3336 16.5688 19.9721C16.8525 20.6106 16.9994 21.3014 17 22V22.5C17 22.8979 17.1581 23.2794 17.4394 23.5607C17.7207 23.842 18.1022 24 18.5 24C18.8978 24 19.2794 23.842 19.5607 23.5607C19.842 23.2794 20 22.8979 20 22.5V22C19.9988 20.9036 19.7725 19.8191 19.3351 18.8137C18.8977 17.8083 18.2585 16.9035 17.4571 16.1552C16.6558 15.4069 15.7093 14.8311 14.6763 14.4635C13.6434 14.0959 12.5459 13.9442 11.452 14.018V14.018Z" fill="#262626"/>
<path d="M12 12C13.1867 12 14.3467 11.6481 15.3334 10.9888C16.3201 10.3295 17.0892 9.39246 17.5433 8.2961C17.9974 7.19975 18.1162 5.99335 17.8847 4.82946C17.6532 3.66558 17.0818 2.59648 16.2426 1.75736C15.4035 0.918247 14.3344 0.346802 13.1705 0.115291C12.0067 -0.11622 10.8003 0.00259972 9.7039 0.456726C8.60754 0.910851 7.67047 1.67989 7.01118 2.66658C6.35189 3.65328 6 4.81331 6 6C6.00159 7.59081 6.63424 9.11602 7.75911 10.2409C8.88399 11.3658 10.4092 11.9984 12 12ZM12 3C12.5933 3 13.1734 3.17595 13.6667 3.50559C14.1601 3.83524 14.5446 4.30377 14.7716 4.85195C14.9987 5.40013 15.0581 6.00333 14.9424 6.58527C14.8266 7.16722 14.5409 7.70177 14.1213 8.12132C13.7018 8.54088 13.1672 8.8266 12.5853 8.94236C12.0033 9.05811 11.4001 8.9987 10.8519 8.77164C10.3038 8.54458 9.83524 8.16006 9.50559 7.66671C9.17595 7.17337 9 6.59335 9 6C9 5.20435 9.31607 4.44129 9.87868 3.87868C10.4413 3.31607 11.2044 3 12 3V3Z" fill="#262626"/>
</g>
<defs>
<clipPath id="clip0_1_2885">
<rect width="24" height="24" fill="white"/>
</clipPath>
</defs>
</svg>
