<svg width="126" height="126" viewBox="0 0 126 126" fill="none" xmlns="http://www.w3.org/2000/svg">
<path d="M93.5015 23.4675C93.0815 23.4675 92.6615 23.3625 92.294 23.1525C82.214 17.955 73.499 15.75 63.0515 15.75C52.6565 15.75 42.7865 18.2175 33.809 23.1525C32.549 23.835 30.974 23.3625 30.239 22.1025C29.5565 20.8425 30.029 19.215 31.289 18.5325C41.054 13.23 51.764 10.5 63.0515 10.5C74.234 10.5 83.999 12.9675 94.709 18.48C96.0215 19.1625 96.494 20.7375 95.8115 21.9975C95.339 22.9425 94.4465 23.4675 93.5015 23.4675V23.4675ZM18.374 51.03C17.849 51.03 17.324 50.8725 16.8515 50.5575C15.644 49.7175 15.3815 48.09 16.2215 46.8825C21.419 39.5325 28.034 33.7575 35.909 29.715C52.394 21.21 73.499 21.1575 90.0365 29.6625C97.9115 33.705 104.526 39.4275 109.724 46.725C110.564 47.88 110.301 49.56 109.094 50.4C107.886 51.24 106.259 50.9775 105.419 49.77C100.694 43.155 94.709 37.9575 87.6215 34.335C72.554 26.6175 53.2865 26.6175 38.2715 34.3875C31.1315 38.0625 25.1465 43.3125 20.4215 49.9275C20.0015 50.6625 19.214 51.03 18.374 51.03V51.03ZM51.1865 114.398C50.504 114.398 49.8215 114.135 49.349 113.61C44.7815 109.043 42.314 106.103 38.7965 99.75C35.174 93.2925 33.284 85.4175 33.284 76.965C33.284 61.3725 46.619 48.6675 62.999 48.6675C79.379 48.6675 92.714 61.3725 92.714 76.965C92.714 78.435 91.559 79.59 90.089 79.59C88.619 79.59 87.464 78.435 87.464 76.965C87.464 64.26 76.4915 53.9175 62.999 53.9175C49.5065 53.9175 38.534 64.26 38.534 76.965C38.534 84.525 40.214 91.5075 43.4165 97.1775C46.7765 103.215 49.0865 105.788 53.129 109.883C54.1265 110.933 54.1265 112.56 53.129 113.61C52.5515 114.135 51.869 114.398 51.1865 114.398ZM88.829 104.685C82.5815 104.685 77.069 103.11 72.554 100.013C64.7315 94.71 60.059 86.1 60.059 76.965C60.059 75.495 61.214 74.34 62.684 74.34C64.154 74.34 65.309 75.495 65.309 76.965C65.309 84.3675 69.089 91.35 75.494 95.655C79.2215 98.175 83.579 99.3825 88.829 99.3825C90.089 99.3825 92.189 99.225 94.289 98.8575C95.7065 98.595 97.0715 99.54 97.334 101.01C97.5965 102.428 96.6515 103.793 95.1815 104.055C92.189 104.633 89.564 104.685 88.829 104.685V104.685ZM78.2765 115.5C78.0665 115.5 77.804 115.448 77.594 115.395C69.2465 113.085 63.7865 109.988 58.064 104.37C50.714 97.0725 46.6715 87.36 46.6715 76.965C46.6715 68.46 53.9165 61.53 62.8415 61.53C71.7665 61.53 79.0115 68.46 79.0115 76.965C79.0115 82.5825 83.894 87.15 89.9315 87.15C95.969 87.15 100.851 82.5825 100.851 76.965C100.851 57.1725 83.789 41.1075 62.789 41.1075C47.879 41.1075 34.229 49.4025 28.0865 62.265C26.039 66.5175 24.989 71.505 24.989 76.965C24.989 81.06 25.3565 87.5175 28.5065 95.9175C29.0315 97.2825 28.349 98.805 26.984 99.2775C25.619 99.8025 24.0965 99.0675 23.624 97.755C21.0515 90.8775 19.7915 84.0525 19.7915 76.965C19.7915 70.665 20.999 64.9425 23.3615 59.955C30.344 45.3075 45.8315 35.805 62.789 35.805C86.6765 35.805 106.101 54.2325 106.101 76.9125C106.101 85.4175 98.8565 92.3475 89.9315 92.3475C81.0065 92.3475 73.7615 85.4175 73.7615 76.9125C73.7615 71.295 68.879 66.7275 62.8415 66.7275C56.804 66.7275 51.9215 71.295 51.9215 76.9125C51.9215 85.89 55.3865 94.29 61.739 100.59C66.7265 105.525 71.504 108.255 78.9065 110.303C80.324 110.67 81.1115 112.14 80.744 113.505C80.4815 114.713 79.379 115.5 78.2765 115.5V115.5Z" fill="#5A6367"/>
</svg>
