<svg width="63" height="62" viewBox="0 0 63 62" fill="none" xmlns="http://www.w3.org/2000/svg">
<circle cx="31.5" cy="31" r="31" fill="#F5A81C" fill-opacity="0.2"/>
<g clip-path="url(#clip0_347_7804)">
<path d="M16.3795 31.5666L21.4228 35.2499L19.5075 41.1815C19.1979 42.1014 19.194 43.0968 19.4963 44.0192C19.7985 44.9416 20.3908 45.7415 21.1848 46.2999C21.9652 46.8762 22.9108 47.1849 23.8809 47.18C24.851 47.1752 25.7936 46.857 26.5681 46.273L31.4995 42.6435L36.4324 46.2687C37.2113 46.8417 38.1519 47.1529 39.1189 47.1576C40.0859 47.1623 41.0295 46.8603 41.814 46.2949C42.5985 45.7296 43.1835 44.93 43.4849 44.0112C43.7864 43.0924 43.7887 42.1017 43.4916 41.1815L41.5763 35.2499L46.6196 31.5666C47.3976 30.9978 47.9759 30.1977 48.2719 29.2806C48.568 28.3635 48.5667 27.3763 48.2682 26.46C47.9697 25.5437 47.3892 24.7452 46.6097 24.1785C45.8303 23.6118 44.8917 23.3059 43.928 23.3046H37.7329L35.853 17.4452C35.5573 16.5229 34.9764 15.7183 34.194 15.1475C33.4116 14.5766 32.4681 14.269 31.4995 14.269C30.531 14.269 29.5875 14.5766 28.8051 15.1475C28.0227 15.7183 27.4418 16.5229 27.1461 17.4452L25.2662 23.3046H19.0768C18.1131 23.3059 17.1745 23.6118 16.395 24.1785C15.6155 24.7452 15.0351 25.5437 14.7366 26.46C14.4381 27.3763 14.4367 28.3635 14.7328 29.2806C15.0289 30.1977 15.6072 30.9978 16.3851 31.5666H16.3795Z" fill="#FFC309"/>
</g>
<defs>
<clipPath id="clip0_347_7804">
<rect width="34" height="34" fill="white" transform="translate(14.5 14)"/>
</clipPath>
</defs>
</svg>
