<svg width="240" height="165" viewBox="0 0 240 165" fill="none" xmlns="http://www.w3.org/2000/svg">
<g id="sent_illustration">
<g id="freepik--background-complete--inject-128">
<rect id="Rectangle" y="143.181" width="240" height="0.120786" fill="#E0E0E0"/>
<rect id="Rectangle_2" x="164.765" y="148.298" width="16.512" height="0.120786" fill="#E0E0E0"/>
<rect id="Rectangle_3" x="44.0063" y="148.356" width="9.2928" height="0.120786" fill="#E0E0E0"/>
<rect id="Rectangle_4" x="101.645" y="148.076" width="18.8352" height="0.120786" fill="#E0E0E0"/>
<rect id="Rectangle_5" x="92.7456" y="146.356" width="8.4192" height="0.120786" fill="#E0E0E0"/>
<rect id="Rectangle_6" x="178.354" y="146.418" width="25.4352" height="0.120786" fill="#E0E0E0"/>
<path id="Path" d="M210.869 82.7063C204.965 73.657 210.355 63.9314 209.458 53.8626C208.56 43.7939 199.056 41.6005 200.856 33.0875C202.939 23.1927 197.386 13.6989 191.093 13.6989C184.8 13.6989 179.251 23.1685 181.335 33.073C183.135 41.6005 173.655 43.7988 172.733 53.8482C171.811 63.8975 177.226 73.657 171.317 82.6918C165.408 91.7266 166.963 103.723 170.29 109.671C171.175 111.249 172.241 112.716 173.467 114.043C178.024 118.967 184.41 121.764 191.095 121.764C197.781 121.764 204.166 118.967 208.723 114.043C209.947 112.715 211.011 111.247 211.896 109.671C215.227 103.738 216.778 91.7749 210.869 82.7063Z" fill="#E0E0E0"/>
<path id="Path_2" d="M191.093 89.5718C191.885 89.5718 192.644 89.8884 193.204 90.452C193.764 91.0155 194.079 91.7799 194.079 92.5769V143.181H188.107V92.5769C188.107 91.7799 188.422 91.0155 188.982 90.452C189.542 89.8884 190.301 89.5718 191.093 89.5718Z" fill="#F0F0F0"/>
<path id="Path_3" d="M153.557 143.181H145.44V92.5817C145.445 90.3239 147.262 88.4948 149.506 88.4895C151.749 88.4948 153.566 90.3239 153.571 92.5817L153.557 143.181Z" fill="#E0E0E0"/>
<ellipse id="Oval" cx="149.491" cy="104.327" rx="25.0416" ry="25.2056" fill="#F0F0F0"/>
<ellipse id="Oval_2" cx="169.339" cy="94.3688" rx="9.92969" ry="9.87257" transform="rotate(-76.05 169.339 94.3688)" fill="#F0F0F0"/>
<ellipse id="Oval_3" cx="129.235" cy="88.4862" rx="5.87887" ry="5.84259" transform="rotate(-80.75 129.235 88.4862)" fill="#F0F0F0"/>
<ellipse id="Oval_4" cx="135.59" cy="85.4457" rx="4.0992" ry="4.12605" fill="#F0F0F0"/>
<path id="Path_4" d="M97.92 112.98C94.026 113.564 90.3047 114.993 87.0144 117.169C86.9856 113.342 86.2896 109.714 84.504 106.781C81.7872 109.443 79.584 112.893 77.784 116.604C77.1264 109.651 75.3072 102.887 71.28 98.6017C65.2464 102.423 62.136 108.791 60.6576 115.536C58.2152 110.988 54.6701 107.136 50.352 104.337C46.6608 108.25 45.48 113.661 45.5808 119.208C41.3856 114.289 36.7296 110.453 32.1888 110.004C31.0704 117.778 33.4512 125.112 36.48 130.91C40.4874 138.49 48.3343 143.216 56.8656 143.186H76.5888C84.9936 143.186 92.8752 138.674 96.816 131.199C99.3072 126.465 100.498 120.372 97.92 112.98Z" fill="#E0E0E0"/>
<path id="Path_5" d="M92.2847 12.607C94.7183 5.42264 92.7647 0.306152 86.8271 0.306152C83.0927 0.306152 78.4607 2.32086 73.9487 5.59658C73.4399 3.72681 72.0047 2.61075 69.6959 2.61075C65.6303 2.61075 60.0287 6.07006 55.6367 10.9498C54.4002 9.76729 52.7632 9.10232 51.0575 9.0897C47.1647 8.86746 42.4559 10.858 38.3615 14.0902C37.9453 13.5038 37.2728 13.1564 36.5567 13.1578C34.3151 13.0322 31.2767 15.042 29.7743 17.6413C29.6831 17.8008 29.6015 17.9602 29.5151 18.1245H93.4655C93.6575 15.8537 93.2591 13.9598 92.2847 12.607Z" fill="#F0F0F0"/>
<path id="Path_6" d="M92.4816 56.23C93.672 52.7224 92.7264 50.2245 89.8176 50.2245C87.9888 50.2245 85.728 51.1908 83.5248 52.8094C83.2796 51.878 82.3988 51.2637 81.4464 51.3599C79.464 51.3599 76.728 53.0509 74.5776 55.4377C73.9748 54.8581 73.1743 54.5331 72.3408 54.5294C70.4208 54.4182 68.1408 55.3894 66.1392 56.9692C65.9423 56.6859 65.6234 56.5137 65.28 56.5054C64.1856 56.4426 62.7024 57.4234 61.968 58.6941L61.8384 58.926H93.0768C93.2074 57.9845 92.996 57.0272 92.4816 56.23Z" fill="#F0F0F0"/>
<path id="Path_7" d="M164.53 29.6861C164.283 29.6513 164.034 29.6335 163.786 29.633C164.016 26.1302 162.686 23.8884 159.84 23.8884C157.79 23.8884 155.27 25.0576 152.707 27.0337C153.442 20.231 151.09 15.8102 145.762 15.8102C141.47 15.8102 136.032 18.7091 130.661 23.3763C130.181 20.7093 128.606 19.1053 125.947 19.1053C121.277 19.1053 114.638 24.0527 109.315 31.0293C108.087 29.3999 106.191 28.4176 104.16 28.3575C99.7152 28.0434 94.1904 30.8843 89.28 35.5128C88.9154 34.7164 88.1302 34.2001 87.2592 34.1842C84.8256 34.0103 81.4992 36.5661 79.5264 39.9819H168.442C170.53 34.8026 168.869 30.2707 164.53 29.6861Z" fill="#F0F0F0"/>
</g>
<g id="freepik--Shadow--inject-128">
<ellipse id="Oval_5" cx="120" cy="159.531" rx="93.0672" ry="5.46919" fill="#F5F5F5"/>
</g>
<g id="freepik--Mail--inject-128">
<path id="Path_8" d="M13 33.9009L140.843 52.4266L157.998 69.8516L13 33.9009Z" fill="#4EC89E"/>
<path id="Path_9" opacity="0.6" d="M13 33.9009L140.843 52.4266L157.998 69.8516L13 33.9009Z" fill="white"/>
<path id="Path_10" d="M13 33.9009L140.843 52.4266L134.91 77.6242L13 33.9009Z" fill="#4EC89E"/>
<path id="Path_11" opacity="0.2" d="M13 33.9009L140.843 52.4266L134.91 77.6242L13 33.9009Z" fill="#262626"/>
<g id="Group 627833">
<ellipse id="Ellipse 694" cx="106" cy="36.6192" rx="26" ry="25.381" fill="#3EA07E"/>
<circle id="Ellipse 695" cx="107.623" cy="35.1475" r="25.1475" fill="#4EC89E"/>
<g id="Bold/check" clip-path="url(#clip0_793_16297)">
<path id="Vector" d="M102.905 44.4861C102.56 44.4862 102.218 44.4183 101.899 44.2862C101.581 44.1541 101.291 43.9605 101.047 43.7164L95.4326 38.1037C95.1425 37.8135 94.9795 37.4199 94.9795 37.0095C94.9795 36.5991 95.1425 36.2056 95.4326 35.9153C95.7228 35.6252 96.1164 35.4622 96.5268 35.4622C96.9372 35.4622 97.3307 35.6252 97.6209 35.9153L102.905 41.1989L116.883 27.2208C117.173 26.9307 117.566 26.7677 117.977 26.7677C118.387 26.7677 118.781 26.9307 119.071 27.2208C119.361 27.511 119.524 27.9046 119.524 28.315C119.524 28.7254 119.361 29.1189 119.071 29.4092L104.762 43.7164C104.518 43.9605 104.228 44.1541 103.91 44.2862C103.591 44.4183 103.249 44.4862 102.905 44.4861Z" fill="#F9F9F9"/>
</g>
</g>
<path id="Path_12" d="M13 33.9009L118.445 59.1267L134.91 77.6242L13 33.9009Z" fill="#4EC89E"/>
<path id="Path_13" opacity="0.6" d="M13 33.9009L118.445 59.1267L134.91 77.6242L13 33.9009Z" fill="white"/>
<path id="Rectangle_7" d="M51.1797 58.7023L51.4631 58.2152L63.1974 65.1337L62.9139 65.6207L51.1797 58.7023Z" fill="#4EC89E"/>
<path id="Rectangle_8" d="M68.0957 68.671L68.3792 68.1839L72.5987 70.6717L72.3152 71.1588L68.0957 68.671Z" fill="#4EC89E"/>
<path id="Path_14" d="M13 33.9009L118.445 59.1267L97.9486 83.9914L13 33.9009Z" fill="#4EC89E"/>
<path id="Path_15" d="M154.04 93C153.898 93.0004 153.757 92.9736 153.625 92.921L136.453 86.0797C135.881 85.8478 135.603 85.1948 135.829 84.6177C136.056 84.0405 136.703 83.7557 137.278 83.9799L154.455 90.8212C154.956 91.0206 155.245 91.5508 155.144 92.0837C155.042 92.6165 154.579 93.0013 154.04 93Z" fill="#4EC89E"/>
<path id="Path_16" opacity="0.3" d="M154.04 93C153.898 93.0004 153.757 92.9736 153.625 92.921L136.453 86.0797C135.881 85.8478 135.603 85.1948 135.829 84.6177C136.056 84.0405 136.703 83.7557 137.278 83.9799L154.455 90.8212C154.956 91.0206 155.245 91.5508 155.144 92.0837C155.042 92.6165 154.579 93.0013 154.04 93Z" fill="#262626"/>
<path id="Path_17" d="M153.025 83.0879C152.884 83.087 152.745 83.0583 152.615 83.0033L143.39 79.306C143.015 79.1597 142.746 78.8221 142.686 78.4215C142.626 78.0209 142.784 77.6187 143.1 77.3676C143.416 77.1164 143.841 77.0549 144.215 77.2062L153.44 80.8865C154.015 81.1146 154.299 81.7687 154.073 82.3485C153.912 82.7913 153.493 83.0862 153.025 83.0879Z" fill="#4EC89E"/>
<path id="Path_18" opacity="0.5" d="M153.025 83.0879C152.884 83.087 152.745 83.0583 152.615 83.0033L143.39 79.306C143.015 79.1597 142.746 78.8221 142.686 78.4215C142.626 78.0209 142.784 77.6187 143.1 77.3676C143.416 77.1164 143.841 77.0549 144.215 77.2062L153.44 80.8865C154.015 81.1146 154.299 81.7687 154.073 82.3485C153.912 82.7913 153.493 83.0862 153.025 83.0879Z" fill="white"/>
<path id="Path_19" d="M133.738 92.8533C133.598 92.8517 133.46 92.8249 133.329 92.7743L116.578 86.0798C116.203 85.9334 115.934 85.5958 115.874 85.1953C115.814 84.7947 115.972 84.3925 116.288 84.1413C116.604 83.8902 117.029 83.8286 117.403 83.98L134.153 90.6519C134.655 90.8514 134.944 91.3815 134.843 91.9144C134.741 92.4473 134.277 92.8321 133.738 92.8308V92.8533Z" fill="#4EC89E"/>
<path id="Path_20" opacity="0.3" d="M133.738 92.8533C133.598 92.8517 133.46 92.8249 133.329 92.7743L116.578 86.0798C116.203 85.9334 115.934 85.5958 115.874 85.1953C115.814 84.7947 115.972 84.3925 116.288 84.1413C116.604 83.8902 117.029 83.8286 117.403 83.98L134.153 90.6519C134.655 90.8514 134.944 91.3815 134.843 91.9144C134.741 92.4473 134.277 92.8321 133.738 92.8308V92.8533Z" fill="#262626"/>
</g>
<g id="freepik--Character--inject-128">
<path id="Path_21" d="M178.704 38.059C179.976 40.5568 181.143 43.0595 182.251 45.6202C183.36 48.1808 184.392 50.7753 185.295 53.4954L185.621 54.5245C185.679 54.7081 185.76 55.0076 185.808 55.2202C185.856 55.4328 185.899 55.6744 185.923 55.8773C186.033 56.6568 186.089 57.4429 186.091 58.2302C186.099 59.6822 186.031 61.1335 185.89 62.5785C185.622 65.3757 185.186 68.154 184.584 70.8982L181.949 70.6035C181.915 67.8834 181.891 65.1343 181.795 62.4529C181.752 61.1194 181.675 59.7811 181.541 58.5249C181.48 57.935 181.384 57.3494 181.253 56.7711C181.229 56.6358 181.191 56.5344 181.162 56.4233C181.133 56.3121 181.104 56.2735 181.056 56.1285L180.691 55.2154C179.688 52.7707 178.56 50.3067 177.408 47.8523L173.923 40.4892L178.704 38.059Z" fill="#F1BEB6"/>
<path id="Path_22" d="M181.987 69.7532L180.758 72.0675L184.685 73.1691C184.685 73.1691 185.434 71.309 184.541 69.8402L181.987 69.7532Z" fill="#F1BEB6"/>
<path id="Path_23" d="M179.256 75.4011L182.865 75.691L184.685 73.169L180.758 72.0674L179.256 75.4011Z" fill="#F1BEB6"/>
<path id="Path_24" d="M170.117 25.3088C169.613 27.9082 169.109 32.6623 170.914 34.3968C170.914 34.3968 170.208 37.0299 165.413 37.0299C160.133 37.0299 162.898 34.3968 162.898 34.3968C165.778 33.7059 165.696 31.5559 165.197 29.5412L170.117 25.3088Z" fill="#F1BEB6"/>
<path id="Path_25" d="M171.638 36.0346C172.017 34.764 172.435 33.3097 171.571 32.8507C170.611 32.3676 165.393 31.8361 163.593 32.7782C161.793 33.7204 162.307 36.3052 162.307 36.3052L171.638 36.0346Z" fill="#262626"/>
<path id="Shape" fill-rule="evenodd" clip-rule="evenodd" d="M181.863 156.393C182.102 156.616 182.406 156.714 182.707 156.666C183.017 156.665 183.326 156.624 183.629 156.547C183.661 156.54 183.686 156.511 183.691 156.473C183.696 156.434 183.683 156.396 183.658 156.371C183.657 156.37 183.655 156.369 183.654 156.367C183.572 156.302 182.633 155.554 182.127 155.688C182.014 155.717 181.918 155.802 181.863 155.921C181.777 156.062 181.777 156.252 181.863 156.393ZM182.165 155.87H182.266V155.881C182.674 155.949 183.064 156.124 183.408 156.393C182.88 156.496 182.16 156.496 182.011 156.257C181.983 156.234 181.935 156.166 182.011 156.006C182.043 155.936 182.099 155.886 182.165 155.87Z" fill="#4EC89E"/>
<path id="Shape_2" fill-rule="evenodd" clip-rule="evenodd" d="M183.571 156.429H183.61C183.62 156.43 183.629 156.428 183.639 156.424C183.666 156.409 183.681 156.378 183.677 156.347C183.677 156.304 183.605 155.279 183.197 154.941C183.097 154.859 182.97 154.821 182.842 154.835C182.711 154.835 182.598 154.928 182.573 155.057C182.501 155.463 183.207 156.226 183.571 156.429ZM182.88 154.98H182.899L182.88 154.989C182.962 154.978 183.045 155.001 183.111 155.052C183.355 155.373 183.499 155.76 183.523 156.163C183.163 155.888 182.712 155.303 182.755 155.067C182.756 155.066 182.756 155.065 182.756 155.063C182.761 155.041 182.776 154.98 182.88 154.98Z" fill="#4EC89E"/>
<path id="Shape_3" fill-rule="evenodd" clip-rule="evenodd" d="M160.498 156.355C160.647 156.594 161.083 156.668 161.535 156.668C161.895 156.668 162.255 156.628 162.61 156.549C162.644 156.542 162.671 156.51 162.677 156.469C162.682 156.429 162.667 156.389 162.639 156.367C162.637 156.366 162.634 156.364 162.631 156.362C162.513 156.284 161.33 155.507 160.767 155.689C160.654 155.72 160.557 155.805 160.498 155.923C160.421 156.052 160.421 156.226 160.498 156.355ZM160.815 155.86C160.867 155.851 160.92 155.851 160.973 155.86V155.871C161.461 155.933 161.933 156.107 162.365 156.384C161.703 156.492 160.81 156.475 160.651 156.213C160.613 156.179 160.589 156.122 160.651 155.997C160.687 155.926 160.746 155.876 160.815 155.86Z" fill="#4EC89E"/>
<path id="Shape_4" fill-rule="evenodd" clip-rule="evenodd" d="M162.566 156.429H162.6C162.622 156.437 162.647 156.436 162.667 156.424C162.692 156.407 162.705 156.377 162.701 156.347C162.701 156.346 162.701 156.345 162.7 156.343C162.692 156.261 162.595 155.339 162.154 154.98C162.023 154.861 161.847 154.808 161.674 154.835C161.443 154.859 161.362 154.975 161.362 155.072C161.299 155.463 162.139 156.241 162.566 156.429ZM161.688 154.98H161.741L161.76 154.989C161.85 154.996 161.936 155.031 162.005 155.091C162.275 155.395 162.443 155.777 162.485 156.183C162.062 155.922 161.486 155.318 161.525 155.076C161.525 155.075 161.525 155.074 161.526 155.073C161.531 155.049 161.547 154.98 161.688 154.98Z" fill="#4EC89E"/>
<path id="Path_26" d="M166.478 156.342H162.95L162.6 148.124H166.128L166.478 156.342Z" fill="#F1BEB6"/>
<path id="Path_27" d="M187.651 156.342H184.123L182.352 148.124H185.875L187.651 156.342Z" fill="#F1BEB6"/>
<path id="Path_28" d="M183.874 155.932H187.834C187.979 155.933 188.105 156.035 188.136 156.178L188.832 159.333C188.864 159.488 188.824 159.65 188.723 159.773C188.622 159.895 188.472 159.964 188.314 159.961C186.931 159.937 186.259 159.855 184.517 159.855C183.446 159.855 181.238 159.971 179.755 159.971C178.272 159.971 178.085 158.521 178.69 158.362C181.406 157.763 182.429 156.936 183.298 156.154C183.455 156.01 183.661 155.931 183.874 155.932Z" fill="#262626"/>
<path id="Path_29" d="M162.975 155.932H166.815C166.96 155.933 167.086 156.035 167.117 156.178L167.813 159.333C167.847 159.487 167.809 159.648 167.709 159.771C167.61 159.893 167.461 159.963 167.304 159.961C165.917 159.937 163.911 159.855 162.163 159.855C160.123 159.855 158.357 159.971 155.962 159.971C154.522 159.971 154.114 158.521 154.719 158.362C157.479 157.753 159.73 157.69 162.115 156.212C162.369 156.038 162.668 155.941 162.975 155.932V155.932Z" fill="#262626"/>
<path id="Path_30" d="M161.28 40.6293C158.331 40.3994 155.397 40.0074 152.491 39.4553C151.051 39.1751 149.582 38.861 148.123 38.4648C146.627 38.0795 145.158 37.5953 143.726 37.0154C143.357 36.8608 142.982 36.6917 142.613 36.5323C142.196 36.3259 141.795 36.0902 141.413 35.8269C140.721 35.3679 140.126 34.8896 139.536 34.4161C138.36 33.4498 137.27 32.4835 136.176 31.4931C134.03 29.4929 131.995 27.425 130.032 25.2509L131.798 23.2651L138.763 28.3043C139.91 29.1353 141.072 29.9518 142.214 30.72C142.781 31.1017 143.361 31.4593 143.894 31.7636C144.117 31.8915 144.348 32.0045 144.585 32.1018C144.869 32.213 145.157 32.3241 145.459 32.4304C148.053 33.2344 150.706 33.8321 153.393 34.218C156.134 34.6528 158.966 35.0104 161.702 35.3002L161.28 40.6293Z" fill="#F1BEB6"/>
<path id="Path_31" d="M177.225 35.1988C180.533 35.9621 183.873 45.6878 183.873 45.6878L177.072 50.6014C177.072 50.6014 175.152 46.0695 173.299 42.1077C171.36 37.9575 173.846 34.4209 177.225 35.1988Z" fill="#4EC89E"/>
<path id="Path_32" opacity="0.4" d="M177.225 35.1988C180.533 35.9621 183.873 45.6878 183.873 45.6878L177.072 50.6014C177.072 50.6014 175.152 46.0695 173.299 42.1077C171.36 37.9575 173.846 34.4209 177.225 35.1988Z" fill="#4EC89E"/>
<path id="Path_33" d="M175.32 40.5134L173.971 43.5523C175.368 46.5865 176.645 49.5916 176.986 50.3937C176.938 46.8039 176.261 42.3493 175.32 40.5134Z" fill="#4EC89E"/>
<path id="Path_34" opacity="0.6" d="M175.32 40.5134L173.971 43.5523C175.368 46.5865 176.645 49.5916 176.986 50.3937C176.938 46.8039 176.261 42.3493 175.32 40.5134Z" fill="#262626"/>
<path id="Path_35" d="M157.473 35.3824C157.473 35.3824 153.72 39.6485 157.262 66.062H176.121C176.256 63.1631 174.437 48.9297 177.225 35.1988C175.141 34.7947 173.032 34.5268 170.913 34.3967C168.244 34.242 165.567 34.242 162.897 34.3967C161.067 34.5824 159.253 34.9119 157.473 35.3824Z" fill="#4EC89E"/>
<path id="Path_36" opacity="0.4" d="M157.473 35.3824C157.473 35.3824 153.72 39.6485 157.262 66.062H176.121C176.256 63.1631 174.437 48.9297 177.225 35.1988C175.141 34.7947 173.032 34.5268 170.913 34.3967C168.244 34.242 165.567 34.242 162.897 34.3967C161.067 34.5824 159.253 34.9119 157.473 35.3824Z" fill="#4EC89E"/>
<path id="Path_37" d="M156.077 40.5134C155.952 41.5135 155.856 42.6972 155.793 44.0935C157.656 43.5308 159.425 42.694 161.045 41.6101L156.077 40.5134Z" fill="#4EC89E"/>
<path id="Path_38" opacity="0.6" d="M156.077 40.5134C155.952 41.5135 155.856 42.6972 155.793 44.0935C157.656 43.5308 159.425 42.694 161.045 41.6101L156.077 40.5134Z" fill="#262626"/>
<path id="Path_39" d="M164.16 41.0448C161.635 43.2963 151.997 43.0692 151.997 43.0692L151.68 33.6769C154.935 34.1435 158.218 34.3825 161.506 34.3919C166.877 34.2808 166.915 38.5615 164.16 41.0448Z" fill="#4EC89E"/>
<path id="Path_40" opacity="0.4" d="M164.16 41.0448C161.635 43.2963 151.997 43.0692 151.997 43.0692L151.68 33.6769C154.935 34.1435 158.218 34.3825 161.506 34.3919C166.877 34.2808 166.915 38.5615 164.16 41.0448Z" fill="#4EC89E"/>
<path id="Path_41" d="M131.89 23.2844L129.49 20.4387L126.902 23.3376C126.902 23.3376 128.496 26.0335 131.026 25.6084L131.89 23.2844Z" fill="#F1BEB6"/>
<path id="Path_42" d="M126.053 17.1196L125.122 20.8349L126.883 23.3183L129.47 20.4388L126.053 17.1196Z" fill="#F1BEB6"/>
<path id="Path_43" d="M162.6 148.129L162.782 152.361H166.31L166.128 148.129H162.6Z" fill="#CE6F64"/>
<path id="Path_44" d="M185.88 148.129H182.352L183.264 152.361H186.792L185.88 148.129Z" fill="#CE6F64"/>
<path id="Path_45" d="M164.721 17.8539C161.558 16.4045 160.56 9.96419 169.661 11.5731C169.661 11.5731 168.288 13.0998 171.072 14.0661C173.856 15.0324 171.528 20.9992 164.721 17.8539Z" fill="#262626"/>
<path id="Path_46" d="M171.595 22.6853C170.688 26.0674 170.333 28.1255 168.235 29.5412C165.096 31.667 161.193 29.2271 161.069 25.618C160.958 22.3761 162.461 17.3563 166.085 16.6702C167.711 16.3492 169.387 16.9009 170.51 18.1274C171.634 19.3539 172.045 21.0795 171.595 22.6853Z" fill="#F1BEB6"/>
<path id="Path_47" d="M169.536 13.264C171.691 14.4719 174.609 15.1966 174.336 16.9166C173.976 19.0183 176.097 17.7041 175.603 20.8301C175.281 22.8738 171.537 29.0677 168.883 28.7681C164.918 28.285 165.422 22.2167 165.408 19.0183C165.398 17.1292 165.312 10.8821 169.536 13.264Z" fill="#262626"/>
<path id="Path_48" d="M164.933 15.9745C163.973 16.2016 162.701 21.7722 166.421 22.2843C170.698 22.8689 164.933 15.9745 164.933 15.9745Z" fill="#262626"/>
<path id="Path_49" d="M165.029 17.9505C163.853 18.0568 161.189 16.6315 161.515 14.4864C161.515 14.4719 163.2 16.9939 165.029 17.9505Z" fill="#262626"/>
<path id="Path_50" d="M166.776 22.7288C166.415 23.5254 165.803 24.1794 165.034 24.5889C164.021 25.1204 163.45 24.3474 163.68 23.3231C163.887 22.4051 164.664 21.0185 165.706 20.9074C166.747 20.7962 167.194 21.7625 166.776 22.7288Z" fill="#F1BEB6"/>
<path id="Path_51" d="M172.056 18.8202C173.513 18.1837 174.555 16.8534 174.831 15.2787C174.831 15.2787 176.415 19.7092 172.056 18.8202Z" fill="#262626"/>
<path id="Path_52" d="M176.059 18.7478C175.381 18.2891 174.519 18.2038 173.765 18.5207C173.765 18.5207 175.243 16.5929 176.059 18.7478Z" fill="#262626"/>
<path id="Path_53" d="M163.954 66.062C163.954 66.062 167.957 93.1857 170.15 103.346C172.55 114.458 181.622 151.545 181.622 151.545H188.078C188.078 151.545 182.102 115.372 180.73 104.337C179.242 92.3788 176.122 66.0427 176.122 66.0427L163.954 66.062Z" fill="#4EC89E"/>
<path id="Path_54" opacity="0.5" d="M163.954 66.062C163.954 66.062 167.957 93.1857 170.15 103.346C172.55 114.458 181.622 151.545 181.622 151.545H188.078C188.078 151.545 182.102 115.372 180.73 104.337C179.242 92.3788 176.122 66.0427 176.122 66.0427L163.954 66.062Z" fill="white"/>
<path id="Path_55" d="M180.59 149.148C180.561 149.148 181.257 151.646 181.257 151.646H188.525L188.39 149.419L180.59 149.148Z" fill="#4EC89E"/>
<path id="Path_56" opacity="0.1" d="M180.59 149.148C180.561 149.148 181.257 151.646 181.257 151.646H188.525L188.39 149.419L180.59 149.148Z" fill="#262626"/>
<path id="Path_57" d="M166.483 75.7248C171.11 76.638 170.621 94.007 170.064 102.94C168.729 96.6256 166.776 84.4746 165.441 75.8505C165.764 75.6904 166.132 75.646 166.483 75.7248Z" fill="#4EC89E"/>
<path id="Path_58" opacity="0.4" d="M166.483 75.7248C171.11 76.638 170.621 94.007 170.064 102.94C168.729 96.6256 166.776 84.4746 165.441 75.8505C165.764 75.6904 166.132 75.646 166.483 75.7248Z" fill="white"/>
<path id="Path_59" d="M157.262 66.062C157.262 66.062 156.782 92.5963 157.161 103.424C157.56 114.681 161.481 151.545 161.481 151.545H167.453C167.453 151.545 167.673 115.338 167.933 104.284C168.225 92.2291 169.67 66.062 169.67 66.062L157.262 66.062Z" fill="#4EC89E"/>
<path id="Path_60" opacity="0.5" d="M157.262 66.062C157.262 66.062 156.782 92.5963 157.161 103.424C157.56 114.681 161.481 151.545 161.481 151.545H167.453C167.453 151.545 167.673 115.338 167.933 104.284C168.225 92.2291 169.67 66.062 169.67 66.062L157.262 66.062Z" fill="white"/>
<path id="Path_61" d="M162.72 147.225C162.69 147.225 162.665 147.202 162.662 147.172C161.606 136.968 159.125 112.28 158.822 103.424C158.501 94.3839 158.793 74.1015 158.889 68.1009C158.889 68.0689 158.915 68.0429 158.947 68.0429C158.98 68.0428 159.007 68.0681 159.009 68.1009C158.913 74.1015 158.621 94.3839 158.942 103.419C159.254 112.275 161.736 136.954 162.782 147.158C162.782 147.192 162.758 147.22 162.725 147.225H162.72Z" fill="#4EC89E"/>
<path id="Path_62" opacity="0.4" d="M162.72 147.225C162.69 147.225 162.665 147.202 162.662 147.172C161.606 136.968 159.125 112.28 158.822 103.424C158.501 94.3839 158.793 74.1015 158.889 68.1009C158.889 68.0689 158.915 68.0429 158.947 68.0429C158.98 68.0428 159.007 68.0681 159.009 68.1009C158.913 74.1015 158.621 94.3839 158.942 103.419C159.254 112.275 161.736 136.954 162.782 147.158C162.782 147.192 162.758 147.22 162.725 147.225H162.72Z" fill="white"/>
<path id="Path_63" d="M160.32 149.148C160.296 149.148 160.661 151.646 160.661 151.646H167.923L168.12 149.419L160.32 149.148Z" fill="#4EC89E"/>
<path id="Path_64" opacity="0.1" d="M160.32 149.148C160.296 149.148 160.661 151.646 160.661 151.646H167.923L168.12 149.419L160.32 149.148Z" fill="#262626"/>
</g>
</g>
<defs>
<clipPath id="clip0_793_16297">
<rect width="24.7619" height="24.7619" fill="white" transform="translate(94.8569 22.3809)"/>
</clipPath>
</defs>
</svg>
