<svg width="38" height="38" viewBox="0 0 38 38" fill="none" xmlns="http://www.w3.org/2000/svg">
<circle opacity="0.1" cx="19" cy="19" r="19" fill="#4EC89E"/>
<path d="M19.075 20.45C20.4607 20.45 21.7897 19.8995 22.7697 18.9197C23.7495 17.9398 24.3 16.6109 24.3 15.225C24.3 13.8393 23.7495 12.5103 22.7697 11.5305C21.7897 10.5505 20.4607 10 19.075 10C17.6893 10 16.3603 10.5505 15.3803 11.5305C14.4005 12.5103 13.85 13.8393 13.85 15.225C13.8515 16.6104 14.4024 17.9385 15.3819 18.9181C16.3616 19.8976 17.6897 20.4485 19.075 20.45ZM19.5105 15.6605H18.6395C18.1729 15.6605 17.7416 15.4115 17.5084 15.0074C17.275 14.6033 17.275 14.1053 17.5084 13.7012C17.7416 13.297 18.1729 13.048 18.6395 13.048V12.6126C18.6395 12.3722 18.8345 12.1773 19.075 12.1773C19.3154 12.1773 19.5105 12.3722 19.5105 12.6126V13.048H20.3813C20.6217 13.048 20.8167 13.243 20.8167 13.4835C20.8167 13.7239 20.6217 13.9188 20.3813 13.9188H18.6395C18.3991 13.9188 18.2042 14.1139 18.2042 14.3543C18.2042 14.5947 18.3991 14.7898 18.6395 14.7898H19.5105C19.9771 14.7898 20.4084 15.0386 20.6416 15.4429C20.875 15.847 20.875 16.3449 20.6416 16.7491C20.4084 17.1532 19.9771 17.4023 19.5105 17.4023V17.8377V17.8376C19.5105 18.0781 19.3154 18.273 19.075 18.273C18.8345 18.273 18.6395 18.0781 18.6395 17.8376V17.4021H17.7688V17.4023C17.5282 17.4023 17.3333 17.2072 17.3333 16.9668C17.3333 16.7264 17.5282 16.5313 17.7688 16.5313H19.5105C19.7509 16.5313 19.9458 16.3364 19.9458 16.096C19.9458 15.8555 19.7509 15.6605 19.5105 15.6605Z" fill="#4EC89E"/>
<path d="M11.475 22.3501H12.425C12.6872 22.3501 12.9 22.6124 12.9 22.8251V28.5251C12.9 28.7873 12.6874 29.0001 12.425 29.0001H11.475C11.2128 29.0001 11 28.7378 11 28.5251V22.8251C11 22.5629 11.2126 22.3501 11.475 22.3501Z" fill="#4EC89E"/>
<path d="M26.853 24.2214C26.0965 23.151 24.8494 24.2224 24.417 24.492L22.2914 26.024C22.1573 26.104 22.0065 26.1461 21.8531 26.1463H18.7043C18.4606 26.1463 18.2631 25.9339 18.2631 25.6719C18.2631 25.4097 18.4606 25.1973 18.7043 25.1973H20.4697C20.9427 25.1973 21.3798 24.9259 21.6164 24.4855C21.8528 24.0451 21.8528 23.5023 21.6164 23.0619C21.3798 22.6215 20.9427 22.3501 20.4697 22.3501H15.6337C15.1608 22.3506 14.7075 22.5528 14.3731 22.9122C14.0387 23.2718 13.8506 23.7592 13.85 24.2676V27.0759C13.8506 27.5843 14.0387 28.0718 14.3731 28.4313C14.7075 28.7907 15.1608 28.993 15.6337 28.9934H22.1898C22.7949 29.0389 23.3952 28.8506 23.8827 28.4624L26.207 26.8137C26.9793 26.3242 27.5101 25.1513 26.8531 24.2214L26.853 24.2214Z" fill="#4EC89E"/>
</svg>
