<svg width="39" height="38" viewBox="0 0 39 38" fill="none" xmlns="http://www.w3.org/2000/svg">
<circle opacity="0.1" cx="19.5" cy="19" r="19" fill="#158CEA"/>
<path d="M24.6255 11.8162L27.4777 14.2218V21.8164C27.4649 22.0597 27.3226 22.2793 27.1014 22.3975C26.8803 22.5156 26.6114 22.5156 26.3902 22.3975C26.169 22.2793 26.0267 22.0597 26.0139 21.8164V16.7017C26.0139 16.2677 25.8348 15.8515 25.516 15.5446C25.1971 15.2377 24.7648 15.0653 24.3139 15.0653H23.8889V11.1253H13.5V27H23.8889V16.1563H24.3139C24.4641 16.1563 24.6083 16.2138 24.7146 16.3161C24.8208 16.4184 24.8805 16.5572 24.8805 16.7017V21.8165C24.9013 22.4444 25.2613 23.0163 25.8299 23.3246C26.3985 23.6329 27.0931 23.6329 27.6618 23.3246C28.2303 23.0163 28.5903 22.4444 28.6111 21.8165V13.7273L25.3717 11L24.6255 11.8162ZM21.9812 18.091H15.4078V13.1273H21.9812V18.091Z" fill="#158CEA"/>
</svg>
