<svg width="39" height="38" viewBox="0 0 39 38" fill="none" xmlns="http://www.w3.org/2000/svg">
<circle opacity="0.1" cx="19.5" cy="19" r="19" fill="#158CEA"/>
<path d="M23.9437 14.0563C23.7565 14.0187 23.566 13.9998 23.375 14H15.875C15.7092 14 15.5503 13.9342 15.4331 13.8169C15.3158 13.6997 15.25 13.5408 15.25 13.375C15.25 13.2092 15.3158 13.0503 15.4331 12.9331C15.5503 12.8158 15.7092 12.75 15.875 12.75H23.375C23.0839 12.3619 22.7065 12.0469 22.2725 11.8299C21.8386 11.613 21.3601 11.5 20.875 11.5H14.625C14.1399 11.5 13.6614 11.613 13.2275 11.8299C12.7935 12.0469 12.4161 12.3619 12.125 12.75C11.7168 13.2896 11.4973 13.9484 11.5 14.625V23.375C11.5 24.2038 11.8292 24.9987 12.4153 25.5847C13.0013 26.1708 13.7962 26.5 14.625 26.5H23.375C24.2038 26.5 24.9987 26.1708 25.5847 25.5847C26.1708 24.9987 26.5 24.2038 26.5 23.375V17.125C26.4991 16.3956 26.243 15.6894 25.7761 15.129C25.3092 14.5685 24.661 14.189 23.9437 14.0563ZM22.275 22.125C22.2252 22.131 22.1748 22.131 22.125 22.125C21.6277 22.125 21.1508 21.9275 20.7992 21.5758C20.4475 21.2242 20.25 20.7473 20.25 20.25C20.25 19.7527 20.4475 19.2758 20.7992 18.9242C21.1508 18.5725 21.6277 18.375 22.125 18.375C22.3385 18.3736 22.5504 18.4118 22.75 18.4875C23.1483 18.635 23.4848 18.9134 23.7042 19.2771C23.9237 19.6408 24.0131 20.0682 23.9579 20.4894C23.9027 20.9106 23.7062 21.3005 23.4004 21.5954C23.0947 21.8903 22.6979 22.0726 22.275 22.1125V22.125Z" fill="#158CEA"/>
<path d="M22.125 20.875C22.4702 20.875 22.75 20.5952 22.75 20.25C22.75 19.9048 22.4702 19.625 22.125 19.625C21.7798 19.625 21.5 19.9048 21.5 20.25C21.5 20.5952 21.7798 20.875 22.125 20.875Z" fill="#158CEA"/>
</svg>
