<svg width="39" height="38" viewBox="0 0 39 38" fill="none" xmlns="http://www.w3.org/2000/svg">
<circle opacity="0.1" cx="19.5" cy="19" r="19" fill="#FA9B0F"/>
<path d="M25.25 13H14.75C13.7558 13.0012 12.8027 13.3967 12.0997 14.0997C11.3967 14.8027 11.0012 15.7558 11 16.75V21.25C11.0012 22.2442 11.3967 23.1973 12.0997 23.9003C12.8027 24.6033 13.7558 24.9988 14.75 25H25.25C26.2442 24.9988 27.1973 24.6033 27.9003 23.9003C28.6033 23.1973 28.9988 22.2442 29 21.25V16.75C28.9988 15.7558 28.6033 14.8027 27.9003 14.0997C27.1973 13.3967 26.2442 13.0012 25.25 13ZM14 22.75C13.8517 22.75 13.7067 22.706 13.5833 22.6236C13.46 22.5412 13.3639 22.4241 13.3071 22.287C13.2503 22.15 13.2355 21.9992 13.2644 21.8537C13.2933 21.7082 13.3648 21.5746 13.4697 21.4697C13.5746 21.3648 13.7082 21.2934 13.8537 21.2644C13.9992 21.2355 14.15 21.2503 14.287 21.3071C14.4241 21.3639 14.5412 21.46 14.6236 21.5833C14.706 21.7067 14.75 21.8517 14.75 22C14.75 22.1989 14.671 22.3897 14.5303 22.5303C14.3897 22.671 14.1989 22.75 14 22.75ZM14 16.75C13.8517 16.75 13.7067 16.706 13.5833 16.6236C13.46 16.5412 13.3639 16.4241 13.3071 16.287C13.2503 16.15 13.2355 15.9992 13.2644 15.8537C13.2933 15.7082 13.3648 15.5746 13.4697 15.4697C13.5746 15.3648 13.7082 15.2933 13.8537 15.2644C13.9992 15.2355 14.15 15.2503 14.287 15.3071C14.4241 15.3639 14.5412 15.46 14.6236 15.5833C14.706 15.7067 14.75 15.8517 14.75 16C14.75 16.1989 14.671 16.3897 14.5303 16.5303C14.3897 16.671 14.1989 16.75 14 16.75ZM20 22C19.4067 22 18.8266 21.8241 18.3333 21.4944C17.8399 21.1648 17.4554 20.6962 17.2284 20.1481C17.0013 19.5999 16.9419 18.9967 17.0576 18.4147C17.1734 17.8328 17.4591 17.2982 17.8787 16.8787C18.2982 16.4591 18.8328 16.1734 19.4147 16.0576C19.9967 15.9419 20.5999 16.0013 21.1481 16.2284C21.6962 16.4554 22.1648 16.8399 22.4944 17.3333C22.8241 17.8266 23 18.4067 23 19C23 19.7956 22.6839 20.5587 22.1213 21.1213C21.5587 21.6839 20.7956 22 20 22ZM26 22.75C25.8517 22.75 25.7067 22.706 25.5833 22.6236C25.46 22.5412 25.3639 22.4241 25.3071 22.287C25.2503 22.15 25.2355 21.9992 25.2644 21.8537C25.2934 21.7082 25.3648 21.5746 25.4697 21.4697C25.5746 21.3648 25.7082 21.2934 25.8537 21.2644C25.9992 21.2355 26.15 21.2503 26.287 21.3071C26.4241 21.3639 26.5412 21.46 26.6236 21.5833C26.706 21.7067 26.75 21.8517 26.75 22C26.75 22.1989 26.671 22.3897 26.5303 22.5303C26.3897 22.671 26.1989 22.75 26 22.75ZM26 16.75C25.8517 16.75 25.7067 16.706 25.5833 16.6236C25.46 16.5412 25.3639 16.4241 25.3071 16.287C25.2503 16.15 25.2355 15.9992 25.2644 15.8537C25.2934 15.7082 25.3648 15.5746 25.4697 15.4697C25.5746 15.3648 25.7082 15.2933 25.8537 15.2644C25.9992 15.2355 26.15 15.2503 26.287 15.3071C26.4241 15.3639 26.5412 15.46 26.6236 15.5833C26.706 15.7067 26.75 15.8517 26.75 16C26.75 16.1989 26.671 16.3897 26.5303 16.5303C26.3897 16.671 26.1989 16.75 26 16.75ZM21.5 19C21.5 19.2967 21.412 19.5867 21.2472 19.8334C21.0824 20.08 20.8481 20.2723 20.574 20.3858C20.2999 20.4994 19.9983 20.5291 19.7074 20.4712C19.4164 20.4133 19.1491 20.2704 18.9393 20.0607C18.7296 19.8509 18.5867 19.5836 18.5288 19.2926C18.4709 19.0017 18.5006 18.7001 18.6142 18.426C18.7277 18.1519 18.92 17.9176 19.1666 17.7528C19.4133 17.588 19.7033 17.5 20 17.5C20.3978 17.5 20.7794 17.658 21.0607 17.9393C21.342 18.2206 21.5 18.6022 21.5 19Z" fill="#FA9B0F"/>
</svg>
