<svg width="39" height="38" viewBox="0 0 39 38" fill="none" xmlns="http://www.w3.org/2000/svg">
<circle opacity="0.1" cx="19.5" cy="19" r="19" fill="#DA389D"/>
<path d="M12.345 26.4256C13.8007 28.0349 16.227 28.2072 17.8561 26.8367L12.1493 20.6575C10.7902 22.33 10.8391 24.8192 12.345 26.4257L12.345 26.4256Z" fill="#DA389D"/>
<path d="M12.8319 20.413L18.1487 26.1927C19.6171 24.7945 19.7184 22.6039 18.3006 21.0658C16.9334 19.5277 14.5536 19.2946 12.8319 20.4132V20.413Z" fill="#DA389D"/>
<path d="M14.0002 18.9571C15.3659 18.603 16.8833 18.856 18.0466 19.7157L23.3575 16.0236L20.4238 11.7753C19.1592 9.90391 16.5796 9.44873 14.7084 10.7132L13.7979 11.3707C11.9264 12.6352 11.4712 15.2146 12.7357 17.0857L14.0002 18.9571Z" fill="#DA389D"/>
<path d="M26.7499 20.7564L24.0061 16.4773L19.3092 20.0013C19.4488 20.1523 19.5417 20.3034 19.6348 20.4544C20.7975 22.1661 20.751 24.4315 19.6814 26.0929C20.8905 27.9052 23.2158 28.3583 24.9364 27.0996L25.7735 26.4451C27.494 25.1865 27.9126 22.6191 26.7499 20.7566V20.7564Z" fill="#DA389D"/>
</svg>
