<svg width="39" height="38" viewBox="0 0 39 38" fill="none" xmlns="http://www.w3.org/2000/svg">
<circle opacity="0.1" cx="19.5" cy="19" r="19" fill="#4EC89E"/>
<path d="M25.9062 22.125H14.0937H13.8181L14.3431 24.75C14.4944 25.4911 14.8971 26.1573 15.4831 26.6356C16.0691 27.114 16.8023 27.3752 17.5587 27.375H22.4412C23.1977 27.3752 23.9309 27.114 24.5169 26.6356C25.1029 26.1573 25.5056 25.4911 25.6569 24.75L26.1819 22.125H25.9062ZM19.3438 25.4062C19.3438 25.5803 19.2746 25.7472 19.1515 25.8703C19.0285 25.9934 18.8615 26.0625 18.6875 26.0625C18.5135 26.0625 18.3465 25.9934 18.2235 25.8703C18.1004 25.7472 18.0312 25.5803 18.0312 25.4062V24.0938C18.0312 23.9197 18.1004 23.7528 18.2235 23.6297C18.3465 23.5066 18.5135 23.4375 18.6875 23.4375C18.8615 23.4375 19.0285 23.5066 19.1515 23.6297C19.2746 23.7528 19.3438 23.9197 19.3438 24.0938V25.4062ZM21.9688 25.4062C21.9688 25.5803 21.8996 25.7472 21.7765 25.8703C21.6535 25.9934 21.4865 26.0625 21.3125 26.0625C21.1385 26.0625 20.9715 25.9934 20.8485 25.8703C20.7254 25.7472 20.6562 25.5803 20.6562 25.4062V24.0938C20.6562 23.9197 20.7254 23.7528 20.8485 23.6297C20.9715 23.5066 21.1385 23.4375 21.3125 23.4375C21.4865 23.4375 21.6535 23.5066 21.7765 23.6297C21.8996 23.7528 21.9688 23.9197 21.9688 24.0938V25.4062Z" fill="#4EC89E"/>
<path d="M25.9062 15.5625H24.5938V14.9062C24.5938 14.4754 24.5089 14.0487 24.344 13.6506C24.1791 13.2525 23.9374 12.8907 23.6327 12.5861C23.328 12.2814 22.9663 12.0397 22.5682 11.8748C22.1701 11.7099 21.7434 11.625 21.3125 11.625H18.6875C17.8173 11.625 16.9827 11.9707 16.3673 12.5861C15.752 13.2014 15.4062 14.036 15.4062 14.9062V15.5625H14.0938C13.5716 15.5625 13.0708 15.7699 12.7016 16.1391C12.3324 16.5083 12.125 17.0091 12.125 17.5312V18.8438C12.125 19.3659 12.3324 19.8667 12.7016 20.2359C13.0708 20.6051 13.5716 20.8125 14.0938 20.8125H25.9062C26.4284 20.8125 26.9292 20.6051 27.2984 20.2359C27.6676 19.8667 27.875 19.3659 27.875 18.8438V17.5312C27.875 17.0091 27.6676 16.5083 27.2984 16.1391C26.9292 15.7699 26.4284 15.5625 25.9062 15.5625ZM16.7188 14.9062C16.7188 14.3841 16.9262 13.8833 17.2954 13.5141C17.6646 13.1449 18.1654 12.9375 18.6875 12.9375H21.3125C21.8346 12.9375 22.3354 13.1449 22.7046 13.5141C23.0738 13.8833 23.2812 14.3841 23.2812 14.9062V15.5625H16.7188V14.9062Z" fill="#4EC89E"/>
</svg>
