<svg width="24" height="24" viewBox="0 0 24 24" fill="none" xmlns="http://www.w3.org/2000/svg">
<path d="M15 17C15 17.2652 14.8947 17.5196 14.7071 17.7071C14.5196 17.8947 14.2652 18 14 18H10C9.7348 18 9.48045 17.8947 9.29291 17.7071C9.10538 17.5196 9.00002 17.2652 9.00002 17C9.00002 16.7348 9.10538 16.4804 9.29291 16.2929C9.48045 16.1054 9.7348 16 10 16H14C14.2652 16 14.5196 16.1054 14.7071 16.2929C14.8947 16.4804 15 16.7348 15 17ZM14.707 7.29302C14.5195 7.10555 14.2652 7.00023 14 7.00023C13.7349 7.00023 13.4805 7.10555 13.293 7.29302L12 8.58602L10.707 7.29302C10.6148 7.19751 10.5044 7.12133 10.3824 7.06892C10.2604 7.01651 10.1292 6.98892 9.99642 6.98777C9.86364 6.98662 9.73196 7.01192 9.60907 7.0622C9.48617 7.11248 9.37452 7.18673 9.28063 7.28062C9.18673 7.37452 9.11248 7.48617 9.0622 7.60907C9.01192 7.73196 8.98662 7.86364 8.98777 7.99642C8.98892 8.1292 9.01651 8.26042 9.06892 8.38242C9.12133 8.50443 9.19751 8.61477 9.29302 8.70702L10.586 10L9.29302 11.293C9.19751 11.3853 9.12133 11.4956 9.06892 11.6176C9.01651 11.7396 8.98892 11.8708 8.98777 12.0036C8.98662 12.1364 9.01192 12.2681 9.0622 12.391C9.11248 12.5139 9.18673 12.6255 9.28063 12.7194C9.37452 12.8133 9.48617 12.8876 9.60907 12.9378C9.73196 12.9881 9.86364 13.0134 9.99642 13.0123C10.1292 13.0111 10.2604 12.9835 10.3824 12.9311C10.5044 12.8787 10.6148 12.8025 10.707 12.707L12 11.414L13.293 12.707C13.4816 12.8892 13.7342 12.99 13.9964 12.9877C14.2586 12.9854 14.5094 12.8802 14.6948 12.6948C14.8802 12.5094 14.9854 12.2586 14.9877 11.9964C14.99 11.7342 14.8892 11.4816 14.707 11.293L13.414 10L14.707 8.70702C14.8945 8.51949 14.9998 8.26518 14.9998 8.00002C14.9998 7.73486 14.8945 7.48055 14.707 7.29302ZM22 16H18C17.7348 16 17.4804 16.1054 17.2929 16.2929C17.1054 16.4804 17 16.7348 17 17C17 17.2652 17.1054 17.5196 17.2929 17.7071C17.4804 17.8947 17.7348 18 18 18H22C22.2652 18 22.5196 17.8947 22.7071 17.7071C22.8947 17.5196 23 17.2652 23 17C23 16.7348 22.8947 16.4804 22.7071 16.2929C22.5196 16.1054 22.2652 16 22 16ZM21.414 10L22.707 8.70702C22.8025 8.61477 22.8787 8.50443 22.9311 8.38242C22.9835 8.26042 23.0111 8.1292 23.0123 7.99642C23.0134 7.86364 22.9881 7.73196 22.9378 7.60907C22.8876 7.48617 22.8133 7.37452 22.7194 7.28062C22.6255 7.18673 22.5139 7.11248 22.391 7.0622C22.2681 7.01192 22.1364 6.98662 22.0036 6.98777C21.8708 6.98892 21.7396 7.01651 21.6176 7.06892C21.4956 7.12133 21.3853 7.19751 21.293 7.29302L20 8.58602L18.707 7.29302C18.6148 7.19751 18.5044 7.12133 18.3824 7.06892C18.2604 7.01651 18.1292 6.98892 17.9964 6.98777C17.8636 6.98662 17.732 7.01192 17.6091 7.0622C17.4862 7.11248 17.3745 7.18673 17.2806 7.28062C17.1867 7.37452 17.1125 7.48617 17.0622 7.60907C17.0119 7.73196 16.9866 7.86364 16.9878 7.99642C16.9889 8.1292 17.0165 8.26042 17.0689 8.38242C17.1213 8.50443 17.1975 8.61477 17.293 8.70702L18.586 10L17.293 11.293C17.1975 11.3853 17.1213 11.4956 17.0689 11.6176C17.0165 11.7396 16.9889 11.8708 16.9878 12.0036C16.9866 12.1364 17.0119 12.2681 17.0622 12.391C17.1125 12.5139 17.1867 12.6255 17.2806 12.7194C17.3745 12.8133 17.4862 12.8876 17.6091 12.9378C17.732 12.9881 17.8636 13.0134 17.9964 13.0123C18.1292 13.0111 18.2604 12.9835 18.3824 12.9311C18.5044 12.8787 18.6148 12.8025 18.707 12.707L20 11.414L21.293 12.707C21.4816 12.8892 21.7342 12.99 21.9964 12.9877C22.2586 12.9854 22.5094 12.8802 22.6948 12.6948C22.8802 12.5094 22.9854 12.2586 22.9877 11.9964C22.99 11.7342 22.8892 11.4816 22.707 11.293L21.414 10ZM6.00002 16H2.00002C1.7348 16 1.48045 16.1054 1.29291 16.2929C1.10538 16.4804 1.00002 16.7348 1.00002 17C1.00002 17.2652 1.10538 17.5196 1.29291 17.7071C1.48045 17.8947 1.7348 18 2.00002 18H6.00002C6.26524 18 6.51959 17.8947 6.70713 17.7071C6.89466 17.5196 7.00002 17.2652 7.00002 17C7.00002 16.7348 6.89466 16.4804 6.70713 16.2929C6.51959 16.1054 6.26524 16 6.00002 16ZM6.70702 7.29302C6.51949 7.10555 6.26518 7.00023 6.00002 7.00023C5.73486 7.00023 5.48055 7.10555 5.29302 7.29302L4.00002 8.58602L2.70702 7.29302C2.61477 7.19751 2.50443 7.12133 2.38242 7.06892C2.26042 7.01651 2.1292 6.98892 1.99642 6.98777C1.86364 6.98662 1.73196 7.01192 1.60907 7.0622C1.48617 7.11248 1.37452 7.18673 1.28063 7.28062C1.18673 7.37452 1.11248 7.48617 1.0622 7.60907C1.01192 7.73196 0.986616 7.86364 0.98777 7.99642C0.988924 8.1292 1.01651 8.26042 1.06892 8.38242C1.12133 8.50443 1.19751 8.61477 1.29302 8.70702L2.58602 10L1.29302 11.293C1.19751 11.3853 1.12133 11.4956 1.06892 11.6176C1.01651 11.7396 0.988924 11.8708 0.98777 12.0036C0.986616 12.1364 1.01192 12.2681 1.0622 12.391C1.11248 12.5139 1.18673 12.6255 1.28063 12.7194C1.37452 12.8133 1.48617 12.8876 1.60907 12.9378C1.73196 12.9881 1.86364 13.0134 1.99642 13.0123C2.1292 13.0111 2.26042 12.9835 2.38242 12.9311C2.50443 12.8787 2.61477 12.8025 2.70702 12.707L4.00002 11.414L5.29302 12.707C5.38527 12.8025 5.49561 12.8787 5.61762 12.9311C5.73962 12.9835 5.87084 13.0111 6.00362 13.0123C6.1364 13.0134 6.26808 12.9881 6.39097 12.9378C6.51387 12.8876 6.62552 12.8133 6.71942 12.7194C6.81331 12.6255 6.88756 12.5139 6.93784 12.391C6.98812 12.2681 7.01342 12.1364 7.01227 12.0036C7.01112 11.8708 6.98353 11.7396 6.93112 11.6176C6.87871 11.4956 6.80253 11.3853 6.70702 11.293L5.41402 10L6.70702 8.70702C6.89449 8.51949 6.99981 8.26518 6.99981 8.00002C6.99981 7.73486 6.89449 7.48055 6.70702 7.29302Z" fill="#262626"/>
</svg>
