<?xml version="1.0" standalone="no"?>
<!DOCTYPE svg PUBLIC "-//W3C//DTD SVG 20010904//EN"
 "http://www.w3.org/TR/2001/REC-SVG-20010904/DTD/svg10.dtd">
<svg version="1.0" xmlns="http://www.w3.org/2000/svg"
 width="225.000000pt" height="225.000000pt" viewBox="0 0 225.000000 225.000000"
 preserveAspectRatio="xMidYMid meet">

<g transform="translate(0.000000,225.000000) scale(0.100000,-0.100000)"
fill="#4d3394" stroke="none">
<path d="M0 1125 l0 -1125 1125 0 1125 0 0 1125 0 1125 -1125 0 -1125 0 0
-1125z m564 309 c50 -18 116 -68 149 -114 65 -91 76 -245 25 -345 -66 -130
-203 -197 -350 -174 -74 12 -131 43 -181 98 -61 67 -80 115 -85 211 -4 78 -2
91 25 150 74 162 246 234 417 174z m1347 5 c84 -21 172 -108 205 -201 18 -51
20 -165 3 -216 -29 -90 -105 -171 -189 -204 -162 -63 -351 13 -423 170 -17 37
-22 66 -22 137 0 105 19 157 83 227 86 93 205 123 343 87z m-851 -53 c0 -53
-1 -55 -29 -58 l-29 -3 70 -168 c39 -92 75 -164 80 -159 4 4 35 75 69 157 33
83 63 156 66 163 3 8 -5 12 -26 12 -31 0 -31 0 -31 55 l0 55 105 0 105 0 0
-31 c0 -18 -18 -73 -39 -123 -22 -50 -78 -181 -125 -291 l-85 -200 -33 3 c-70
6 -65 -1 -209 334 l-84 198 -32 0 -33 0 0 55 0 55 130 0 130 0 0 -54z"/>
<path d="M388 1336 c-59 -21 -85 -42 -115 -93 -24 -40 -28 -59 -28 -119 0 -61
4 -77 30 -120 82 -132 269 -129 345 6 20 36 25 59 25 115 -1 110 -45 178 -138
209 -57 19 -70 19 -119 2z"/>
<path d="M1748 1336 c-59 -21 -85 -42 -114 -93 -62 -104 -23 -260 78 -314 78
-42 173 -27 233 35 114 118 70 327 -77 371 -62 18 -72 18 -120 1z"/>
</g>
</svg>
