<svg width="14" height="16" viewBox="0 0 14 16" fill="none" xmlns="http://www.w3.org/2000/svg">
<path d="M10.1747 9.26952C10.1747 9.43791 10.1078 9.5994 9.98872 9.71848C9.86965 9.83755 9.70816 9.90444 9.53977 9.90444H4.4604C4.29201 9.90444 4.13052 9.83755 4.01145 9.71848C3.89238 9.5994 3.82548 9.43791 3.82548 9.26952C3.82548 9.10113 3.89238 8.93963 4.01145 8.82056C4.13052 8.70149 4.29201 8.6346 4.4604 8.6346H9.53977C9.70816 8.6346 9.86965 8.70149 9.98872 8.82056C10.1078 8.93963 10.1747 9.10113 10.1747 9.26952ZM7.63501 11.1743H4.4604C4.29201 11.1743 4.13052 11.2412 4.01145 11.3602C3.89238 11.4793 3.82548 11.6408 3.82548 11.8092C3.82548 11.9776 3.89238 12.1391 4.01145 12.2582C4.13052 12.3772 4.29201 12.4441 4.4604 12.4441H7.63501C7.8034 12.4441 7.96489 12.3772 8.08396 12.2582C8.20303 12.1391 8.26993 11.9776 8.26993 11.8092C8.26993 11.6408 8.20303 11.4793 8.08396 11.3602C7.96489 11.2412 7.8034 11.1743 7.63501 11.1743ZM13.3493 7.03777V12.4441C13.3483 13.2858 13.0135 14.0927 12.4184 14.6878C11.8232 15.2829 11.0163 15.6177 10.1747 15.6187H3.82548C2.98383 15.6177 2.17695 15.2829 1.58181 14.6878C0.986677 14.0927 0.651887 13.2858 0.650879 12.4441V3.55523C0.651887 2.71359 0.986677 1.9067 1.58181 1.31156C2.17695 0.716428 2.98383 0.381638 3.82548 0.38063H6.69215C7.27603 0.379127 7.85442 0.493384 8.39388 0.716794C8.93333 0.940205 9.42315 1.26834 9.83501 1.68222L12.0471 3.89555C12.4612 4.30713 12.7895 4.79679 13.0131 5.33617C13.2366 5.87555 13.3509 6.45391 13.3493 7.03777V7.03777ZM8.93723 2.58C8.73741 2.38645 8.51306 2.21995 8.26993 2.08476V4.82507C8.26993 4.99347 8.33682 5.15496 8.45589 5.27403C8.57496 5.3931 8.73646 5.46 8.90485 5.46H11.6452C11.5099 5.21694 11.3432 4.99279 11.1493 4.79333L8.93723 2.58ZM12.0794 7.03777C12.0794 6.93301 12.0591 6.83269 12.0496 6.72984H8.90485C8.39967 6.72984 7.91519 6.52916 7.55798 6.17194C7.20076 5.81473 7.00008 5.33025 7.00008 4.82507V1.68031C6.89723 1.67079 6.79628 1.65047 6.69215 1.65047H3.82548C3.32031 1.65047 2.83582 1.85115 2.47861 2.20836C2.1214 2.56558 1.92072 3.05006 1.92072 3.55523V12.4441C1.92072 12.9493 2.1214 13.4338 2.47861 13.791C2.83582 14.1482 3.32031 14.3489 3.82548 14.3489H10.1747C10.6799 14.3489 11.1643 14.1482 11.5216 13.791C11.8788 13.4338 12.0794 12.9493 12.0794 12.4441V7.03777Z" fill="#262626"/>
</svg>
