<svg width="15" height="16" viewBox="0 0 15 16" fill="none" xmlns="http://www.w3.org/2000/svg">
<path d="M1.02065 8.20359V13.8273C1.02065 14.6243 1.66941 15.2727 2.46672 15.2727H12.1642C12.9615 15.2727 13.6102 14.6243 13.6102 13.8273V8.20359C14.0805 7.96476 14.4043 7.4776 14.4043 6.91519V5.34712C14.4043 4.55011 13.7555 3.90165 12.9582 3.90165H10.8007C10.9649 3.59782 11.0585 3.25017 11.0585 2.88134C11.0585 1.69368 10.0917 0.727295 8.90351 0.727295C8.27471 0.727295 7.70979 0.999341 7.31566 1.43017C6.92134 0.999633 6.35661 0.727295 5.72781 0.727295C4.53965 0.727295 3.57286 1.69368 3.57286 2.88134C3.57286 3.25018 3.66638 3.59781 3.83062 3.90165H1.67312C0.875775 3.90165 0.227051 4.55015 0.227051 5.34712V6.91547C0.226735 7.47776 0.550477 7.9649 1.02075 8.20355L1.02065 8.20359ZM2.15485 13.8273V8.36069H6.74838V14.1391H2.46676C2.29476 14.1391 2.15488 13.9991 2.15488 13.8273L2.15485 13.8273ZM12.4761 13.8273C12.4761 13.9992 12.3361 14.139 12.1642 14.139H7.88262V8.36066H12.4761L12.4761 13.8273ZM13.2701 5.347V6.91535C13.2701 7.08727 13.1301 7.22709 12.9583 7.22709H7.8827V5.07843C8.22701 5.14786 8.34031 5.30319 8.52211 5.55593C8.82196 5.9727 9.23305 6.54337 10.4923 6.93686C10.5486 6.95457 10.6057 6.96264 10.6617 6.96264C10.903 6.96264 11.1269 6.80732 11.2027 6.56469C11.2962 6.26592 11.1294 5.94803 10.8304 5.85454C10.0546 5.61207 9.77148 5.33229 9.54651 5.03509H12.9582C13.1302 5.03525 13.2702 5.17507 13.2702 5.34699L13.2701 5.347ZM8.90345 1.8607C9.4663 1.8607 9.9242 2.31844 9.9242 2.88101C9.9242 3.44359 9.46626 3.90133 8.90345 3.90133H7.88271V2.88101C7.88271 2.31828 8.34064 1.8607 8.90345 1.8607ZM4.70689 2.88101C4.70689 2.3184 5.16483 1.8607 5.72764 1.8607C6.29045 1.8607 6.74838 2.31844 6.74838 2.88101V3.90133L5.72764 3.90149C5.16479 3.90149 4.70689 3.44358 4.70689 2.88101V2.88101ZM1.36091 5.34696C1.36091 5.17503 1.50094 5.03521 1.67278 5.03521H4.94788C4.9281 5.064 4.90848 5.09263 4.88886 5.12189C4.68743 5.42366 4.51369 5.68401 4.11764 5.89594C3.84153 6.04351 3.73741 6.38737 3.88536 6.66319C3.98773 6.85409 4.18347 6.96275 4.38583 6.96275C4.47618 6.96275 4.56779 6.94124 4.65308 6.89569C5.29978 6.54963 5.5952 6.10694 5.83269 5.75103C6.07036 5.39484 6.22732 5.16267 6.74836 5.07505V7.22703H1.67279C1.5008 7.22703 1.36092 7.08705 1.36092 6.91528L1.36091 5.34696Z" fill="#262626"/>
</svg>
