<svg width="20" height="20" viewBox="0 0 20 20" fill="none" xmlns="http://www.w3.org/2000/svg">
<path d="M1.59119 10.2799V18.0125C1.59119 19.1084 2.48325 20 3.57954 20H16.9135C18.0099 20 18.9019 19.1083 18.9019 18.0125V10.2799C19.5485 9.95151 19.9937 9.28166 19.9937 8.50835V6.35226C19.9937 5.25637 19.1016 4.36474 18.0053 4.36474H15.0388C15.2646 3.94697 15.3932 3.46895 15.3932 2.96181C15.3932 1.32878 14.0638 0 12.4301 0C11.5655 0 10.7888 0.374064 10.2468 0.966448C9.70465 0.374465 8.92814 0 8.06355 0C6.42983 0 5.10049 1.32878 5.10049 2.96181C5.10049 3.46897 5.22908 3.94696 5.45491 4.36474H2.48835C1.392 4.36474 0.5 5.25642 0.5 6.35226V8.50874C0.499565 9.28189 0.944712 9.9517 1.59134 10.2798L1.59119 10.2799ZM3.15073 18.0125V10.4959H9.46683V18.4412H3.5796C3.3431 18.4412 3.15077 18.2487 3.15077 18.0125L3.15073 18.0125ZM17.3425 18.0125C17.3425 18.2489 17.1499 18.4411 16.9136 18.4411H11.0264V10.4959H17.3425L17.3425 18.0125ZM18.4343 6.35209V8.50857C18.4343 8.74497 18.2417 8.93722 18.0054 8.93722H11.0265V5.98281C11.4999 6.07828 11.6557 6.29185 11.9057 6.63938C12.318 7.21243 12.8833 7.99711 14.6147 8.53815C14.6921 8.5625 14.7707 8.5736 14.8477 8.5736C15.1795 8.5736 15.4873 8.36003 15.5915 8.02642C15.7201 7.61561 15.4908 7.17851 15.0796 7.04995C14.0129 6.71656 13.6236 6.33187 13.3143 5.92322H18.0053C18.2418 5.92344 18.4343 6.11569 18.4343 6.35209L18.4343 6.35209ZM12.4301 1.55843C13.204 1.55843 13.8336 2.18783 13.8336 2.96136C13.8336 3.7349 13.2039 4.3643 12.4301 4.3643H11.0265V2.96136C11.0265 2.18761 11.6562 1.55843 12.4301 1.55843ZM6.65978 2.96136C6.65978 2.18777 7.28944 1.55843 8.06331 1.55843C8.83717 1.55843 9.46683 2.18783 9.46683 2.96136V4.3643L8.06331 4.36452C7.28939 4.36452 6.65978 3.7349 6.65978 2.96136V2.96136ZM2.05905 6.35203C2.05905 6.11564 2.2516 5.92339 2.48788 5.92339H6.99114C6.96394 5.96297 6.93697 6.00233 6.90999 6.04256C6.63302 6.45751 6.39413 6.81549 5.84956 7.10689C5.46991 7.30979 5.32675 7.7826 5.53017 8.16186C5.67094 8.42435 5.94007 8.57376 6.21831 8.57376C6.34255 8.57376 6.46852 8.54418 6.58579 8.48155C7.475 8.00571 7.8812 7.39702 8.20776 6.90764C8.53455 6.41788 8.75038 6.09864 9.4668 5.97816V8.93713H2.4879C2.2514 8.93713 2.05907 8.74467 2.05907 8.50848L2.05905 6.35203Z" fill="#262626"/>
</svg>
