<svg width="21" height="22" viewBox="0 0 21 22" fill="none" xmlns="http://www.w3.org/2000/svg">
<path d="M16.6107 0.523926H4.38852C3.23125 0.525312 2.12178 0.985648 1.30347 1.80396C0.48516 2.62227 0.0248237 3.73174 0.0234375 4.88901L0.0234375 17.1112C0.0248237 18.2685 0.48516 19.378 1.30347 20.1963C2.12178 21.0146 3.23125 21.4749 4.38852 21.4763H16.6107C17.768 21.4749 18.8775 21.0146 19.6958 20.1963C20.5141 19.378 20.9744 18.2685 20.9758 17.1112V4.88901C20.9744 3.73174 20.5141 2.62227 19.6958 1.80396C18.8775 0.985648 17.768 0.525312 16.6107 0.523926V0.523926ZM19.2298 4.88901H13.1187V2.26996H16.6107C17.3054 2.26996 17.9715 2.54589 18.4627 3.03706C18.9539 3.52823 19.2298 4.19439 19.2298 4.88901ZM9.62661 2.26996H11.3726V6.63504C11.3726 6.86658 11.2807 7.08863 11.1169 7.25235C10.9532 7.41607 10.7312 7.50805 10.4996 7.50805C10.2681 7.50805 10.046 7.41607 9.88231 7.25235C9.71859 7.08863 9.62661 6.86658 9.62661 6.63504V2.26996ZM4.38852 2.26996H7.88058V4.88901H1.76947C1.76947 4.19439 2.0454 3.52823 2.53657 3.03706C3.02774 2.54589 3.6939 2.26996 4.38852 2.26996ZM16.6107 19.7303H4.38852C3.6939 19.7303 3.02774 19.4543 2.53657 18.9632C2.0454 18.472 1.76947 17.8058 1.76947 17.1112V6.63504H7.88058C7.88058 7.32965 8.15652 7.99582 8.64768 8.48698C9.13885 8.97815 9.80501 9.25408 10.4996 9.25408C11.1942 9.25408 11.8604 8.97815 12.3516 8.48698C12.8427 7.99582 13.1187 7.32965 13.1187 6.63504H19.2298V17.1112C19.2298 17.8058 18.9539 18.472 18.4627 18.9632C17.9715 19.4543 17.3054 19.7303 16.6107 19.7303ZM17.4838 17.1112C17.4838 17.3428 17.3918 17.5648 17.2281 17.7285C17.0643 17.8923 16.8423 17.9842 16.6107 17.9842H13.9917C13.7602 17.9842 13.5381 17.8923 13.3744 17.7285C13.2107 17.5648 13.1187 17.3428 13.1187 17.1112C13.1187 16.8797 13.2107 16.6576 13.3744 16.4939C13.5381 16.3302 13.7602 16.2382 13.9917 16.2382H16.6107C16.8423 16.2382 17.0643 16.3302 17.2281 16.4939C17.3918 16.6576 17.4838 16.8797 17.4838 17.1112Z" fill="#262626"/>
</svg>
