<svg width="247" height="275" viewBox="0 0 247 275" fill="none" xmlns="http://www.w3.org/2000/svg">
<path d="M65.7695 216.538L60.9941 208.422C60.4668 207.478 60.0273 206.596 59.6758 205.776C59.7669 207.319 59.8125 209.666 59.8125 212.817V216.538H57.7129V203.042H60.5938L65.291 210.981C65.8509 211.958 66.3197 212.869 66.6973 213.715C66.5996 211.918 66.5508 209.5 66.5508 206.459V203.042H68.6504V216.538H65.7695ZM80.1055 211.381C80.1055 212.924 79.6497 214.2 78.7383 215.209C77.8073 216.225 76.6094 216.733 75.1445 216.733C72.1172 216.733 70.6035 215.053 70.6035 211.694C70.6035 210.17 71.0527 208.914 71.9512 207.924C72.8691 206.909 74.0671 206.401 75.5449 206.401C76.9512 206.401 78.0449 206.792 78.8262 207.573C79.679 208.426 80.1055 209.695 80.1055 211.381ZM77.8789 211.518C77.8789 209.305 77.0456 208.198 75.3789 208.198C74.6693 208.198 74.0801 208.458 73.6113 208.979C73.084 209.571 72.8203 210.405 72.8203 211.479C72.8203 213.758 73.6667 214.897 75.3594 214.897C76.0951 214.897 76.6875 214.62 77.1367 214.067C77.6315 213.468 77.8789 212.618 77.8789 211.518ZM94.3633 216.538L89.5879 208.422C89.0605 207.478 88.6211 206.596 88.2695 205.776C88.3607 207.319 88.4062 209.666 88.4062 212.817V216.538H86.3066V203.042H89.1875L93.8848 210.981C94.4447 211.958 94.9134 212.869 95.291 213.715C95.1934 211.918 95.1445 209.5 95.1445 206.459V203.042H97.2441V216.538H94.3633ZM108.699 211.381C108.699 212.924 108.243 214.2 107.332 215.209C106.401 216.225 105.203 216.733 103.738 216.733C100.711 216.733 99.1973 215.053 99.1973 211.694C99.1973 210.17 99.6465 208.914 100.545 207.924C101.463 206.909 102.661 206.401 104.139 206.401C105.545 206.401 106.639 206.792 107.42 207.573C108.273 208.426 108.699 209.695 108.699 211.381ZM106.473 211.518C106.473 209.305 105.639 208.198 103.973 208.198C103.263 208.198 102.674 208.458 102.205 208.979C101.678 209.571 101.414 210.405 101.414 211.479C101.414 213.758 102.26 214.897 103.953 214.897C104.689 214.897 105.281 214.62 105.73 214.067C106.225 213.468 106.473 212.618 106.473 211.518ZM116.121 216.479C115.438 216.635 114.744 216.713 114.041 216.713C112.993 216.713 112.267 216.486 111.863 216.03C111.479 215.587 111.287 214.803 111.287 213.676V208.256H109.383V206.596H111.287V203.442L113.426 202.856V206.596H116.023V208.256H113.426V213.022C113.426 213.758 113.517 214.256 113.699 214.516C113.882 214.77 114.223 214.897 114.725 214.897C115.115 214.897 115.522 214.851 115.945 214.76L116.121 216.479ZM120.828 203.5C120.828 203.865 120.691 204.181 120.418 204.448C120.151 204.708 119.832 204.838 119.461 204.838C119.083 204.838 118.758 204.708 118.484 204.448C118.217 204.194 118.084 203.878 118.084 203.5C118.084 203.129 118.217 202.814 118.484 202.553C118.758 202.286 119.083 202.153 119.461 202.153C119.832 202.153 120.151 202.286 120.418 202.553C120.691 202.814 120.828 203.129 120.828 203.5ZM118.387 216.538V206.596H120.525V216.538H118.387ZM130.232 216.538V208.256H126.258V216.538H124.139V208.256H122.234V206.596H124.139V206.196C124.139 203.266 125.717 201.801 128.875 201.801C129.845 201.801 130.825 201.928 131.814 202.182L131.434 203.959C130.587 203.693 129.773 203.559 128.992 203.559C127.169 203.559 126.258 204.379 126.258 206.02V206.596H132.352V216.538H130.232ZM141.971 216.196C141.163 216.528 140.203 216.694 139.09 216.694C136.141 216.694 134.666 215.096 134.666 211.899C134.666 210.252 135.073 208.946 135.887 207.983C136.759 206.954 137.999 206.44 139.607 206.44C140.512 206.44 141.284 206.567 141.922 206.821L141.57 208.657C140.867 208.377 140.174 208.237 139.49 208.237C138.663 208.237 138.022 208.553 137.566 209.184C137.124 209.79 136.902 210.613 136.902 211.655C136.902 213.79 137.771 214.858 139.51 214.858C140.33 214.858 141.043 214.711 141.648 214.418L141.971 216.196ZM149.461 216.538C149.461 215.763 149.497 215.151 149.568 214.702L149.549 214.682C148.989 216.049 147.889 216.733 146.248 216.733C145.402 216.733 144.725 216.476 144.217 215.961C143.715 215.46 143.465 214.799 143.465 213.979C143.465 212.872 143.986 212.019 145.027 211.42C146.049 210.834 147.482 210.542 149.324 210.542V210.122C149.324 209.399 149.181 208.878 148.895 208.559C148.589 208.227 148.077 208.061 147.361 208.061C146.391 208.061 145.392 208.292 144.363 208.754L143.982 207.094C145.148 206.632 146.375 206.401 147.664 206.401C149.051 206.401 150.047 206.71 150.652 207.329C151.193 207.882 151.463 208.732 151.463 209.877V213.813C151.463 214.79 151.482 215.698 151.521 216.538H149.461ZM149.324 211.977C146.805 211.977 145.545 212.556 145.545 213.715C145.545 214.106 145.665 214.425 145.906 214.672C146.16 214.926 146.492 215.053 146.902 215.053C147.599 215.053 148.182 214.764 148.65 214.184C149.1 213.624 149.324 212.976 149.324 212.241V211.977ZM159.617 216.479C158.934 216.635 158.24 216.713 157.537 216.713C156.489 216.713 155.763 216.486 155.359 216.03C154.975 215.587 154.783 214.803 154.783 213.676V208.256H152.879V206.596H154.783V203.442L156.922 202.856V206.596H159.52V208.256H156.922V213.022C156.922 213.758 157.013 214.256 157.195 214.516C157.378 214.77 157.719 214.897 158.221 214.897C158.611 214.897 159.018 214.851 159.441 214.76L159.617 216.479ZM164.324 203.5C164.324 203.865 164.188 204.181 163.914 204.448C163.647 204.708 163.328 204.838 162.957 204.838C162.579 204.838 162.254 204.708 161.98 204.448C161.714 204.194 161.58 203.878 161.58 203.5C161.58 203.129 161.714 202.814 161.98 202.553C162.254 202.286 162.579 202.153 162.957 202.153C163.328 202.153 163.647 202.286 163.914 202.553C164.188 202.814 164.324 203.129 164.324 203.5ZM161.883 216.538V206.596H164.021V216.538H161.883ZM175.809 211.381C175.809 212.924 175.353 214.2 174.441 215.209C173.51 216.225 172.312 216.733 170.848 216.733C167.82 216.733 166.307 215.053 166.307 211.694C166.307 210.17 166.756 208.914 167.654 207.924C168.572 206.909 169.77 206.401 171.248 206.401C172.654 206.401 173.748 206.792 174.529 207.573C175.382 208.426 175.809 209.695 175.809 211.381ZM173.582 211.518C173.582 209.305 172.749 208.198 171.082 208.198C170.372 208.198 169.783 208.458 169.314 208.979C168.787 209.571 168.523 210.405 168.523 211.479C168.523 213.758 169.37 214.897 171.062 214.897C171.798 214.897 172.391 214.62 172.84 214.067C173.335 213.468 173.582 212.618 173.582 211.518ZM184.148 216.538V210.161C184.148 208.839 183.654 208.178 182.664 208.178C181.922 208.178 181.303 208.523 180.809 209.213C180.314 209.903 180.066 210.753 180.066 211.762V216.538H177.928V206.596H179.969C179.969 207.384 179.923 208.038 179.832 208.559H179.852C180.503 207.12 181.655 206.401 183.309 206.401C185.281 206.401 186.268 207.459 186.268 209.575V216.538H184.148Z" fill="#262626"/>
<path d="M58.5547 239.647V243.538H57.0781V239.647L53.7031 232.741H55.3203L57.0312 236.389C57.3333 237.025 57.6042 237.647 57.8438 238.256H57.8594C58.0312 237.819 58.3411 237.131 58.7891 236.194L60.4531 232.741H61.9922L58.5547 239.647ZM68.8047 239.428C68.8047 240.647 68.4531 241.655 67.75 242.452C67.0312 243.269 66.0938 243.678 64.9375 243.678C62.5573 243.678 61.3672 242.329 61.3672 239.631C61.3672 238.433 61.7135 237.444 62.4062 236.663C63.125 235.85 64.0703 235.444 65.2422 235.444C66.3255 235.444 67.1745 235.749 67.7891 236.358C68.4661 237.04 68.8047 238.064 68.8047 239.428ZM67.3203 239.506C67.3203 237.595 66.5833 236.639 65.1094 236.639C64.4844 236.639 63.9661 236.868 63.5547 237.327C63.0859 237.842 62.8516 238.564 62.8516 239.491C62.8516 241.475 63.6042 242.467 65.1094 242.467C65.7448 242.467 66.2604 242.228 66.6562 241.749C67.099 241.217 67.3203 240.47 67.3203 239.506ZM75.7891 243.538C75.7891 242.845 75.8333 242.285 75.9219 241.858H75.8906C75.3698 243.071 74.4349 243.678 73.0859 243.678C71.4974 243.678 70.7031 242.832 70.7031 241.139V235.584H72.125V240.709C72.125 241.902 72.5781 242.499 73.4844 242.499C74.1406 242.499 74.6823 242.202 75.1094 241.608C75.5312 241.019 75.7422 240.282 75.7422 239.397V235.584H77.1797V243.538H75.7891ZM87.8281 243.538C87.8281 242.871 87.8698 242.332 87.9531 241.92L87.9219 241.905C87.4271 243.087 86.5365 243.678 85.25 243.678C84.2917 243.678 83.5599 243.345 83.0547 242.678C82.5651 242.032 82.3203 241.118 82.3203 239.936C82.3203 238.551 82.6927 237.459 83.4375 236.663C84.1719 235.871 85.1693 235.475 86.4297 235.475C86.7943 235.475 87.2422 235.501 87.7734 235.553V231.858H89.2188V243.538H87.8281ZM87.7734 236.788C87.2734 236.668 86.8047 236.608 86.3672 236.608C84.6849 236.608 83.8438 237.676 83.8438 239.811C83.8438 241.603 84.4297 242.499 85.6016 242.499C86.2734 242.499 86.8151 242.16 87.2266 241.483C87.5911 240.889 87.7734 240.204 87.7734 239.428V236.788ZM98.6484 239.428C98.6484 240.647 98.2969 241.655 97.5938 242.452C96.875 243.269 95.9375 243.678 94.7812 243.678C92.401 243.678 91.2109 242.329 91.2109 239.631C91.2109 238.433 91.5573 237.444 92.25 236.663C92.9688 235.85 93.9141 235.444 95.0859 235.444C96.1693 235.444 97.0182 235.749 97.6328 236.358C98.3099 237.04 98.6484 238.064 98.6484 239.428ZM97.1641 239.506C97.1641 237.595 96.4271 236.639 94.9531 236.639C94.3281 236.639 93.8099 236.868 93.3984 237.327C92.9297 237.842 92.6953 238.564 92.6953 239.491C92.6953 241.475 93.4479 242.467 94.9531 242.467C95.5885 242.467 96.1042 242.228 96.5 241.749C96.9427 241.217 97.1641 240.47 97.1641 239.506ZM108.836 243.538V238.42C108.836 237.222 108.383 236.624 107.477 236.624C106.826 236.624 106.286 236.92 105.859 237.514C105.432 238.108 105.219 238.847 105.219 239.733V243.538H103.781V235.584H105.172C105.172 236.277 105.13 236.837 105.047 237.264H105.078C105.594 236.051 106.526 235.444 107.875 235.444C109.474 235.444 110.273 236.29 110.273 237.983V243.538H108.836ZM119.664 239.428C119.664 240.647 119.312 241.655 118.609 242.452C117.891 243.269 116.953 243.678 115.797 243.678C113.417 243.678 112.227 242.329 112.227 239.631C112.227 238.433 112.573 237.444 113.266 236.663C113.984 235.85 114.93 235.444 116.102 235.444C117.185 235.444 118.034 235.749 118.648 236.358C119.326 237.04 119.664 238.064 119.664 239.428ZM118.18 239.506C118.18 237.595 117.443 236.639 115.969 236.639C115.344 236.639 114.826 236.868 114.414 237.327C113.945 237.842 113.711 238.564 113.711 239.491C113.711 241.475 114.464 242.467 115.969 242.467C116.604 242.467 117.12 242.228 117.516 241.749C117.958 241.217 118.18 240.47 118.18 239.506ZM125.609 243.491C125.125 243.605 124.591 243.663 124.008 243.663C123.206 243.663 122.648 243.48 122.336 243.116C122.034 242.767 121.883 242.155 121.883 241.28V236.709H120.25V235.584H121.883V233.006L123.32 232.608V235.584H125.547V236.709H123.32V240.772C123.32 241.423 123.401 241.863 123.562 242.092C123.719 242.321 124.018 242.436 124.461 242.436C124.826 242.436 125.161 242.392 125.469 242.303L125.609 243.491ZM135.68 243.538V238.42C135.68 237.222 135.227 236.624 134.32 236.624C133.669 236.624 133.13 236.92 132.703 237.514C132.276 238.108 132.062 238.847 132.062 239.733V243.538H130.625V231.858H132.062V235.631C132.062 236.319 132.016 236.847 131.922 237.217L131.953 237.233C132.464 236.04 133.385 235.444 134.719 235.444C136.318 235.444 137.117 236.29 137.117 237.983V243.538H135.68ZM144.039 243.538C144.039 242.782 144.065 242.254 144.117 241.952H144.086C143.633 243.103 142.732 243.678 141.383 243.678C140.727 243.678 140.193 243.483 139.781 243.092C139.375 242.696 139.172 242.178 139.172 241.538C139.172 240.678 139.589 240.009 140.422 239.53C141.266 239.045 142.443 238.803 143.953 238.803V238.436C143.953 237.785 143.831 237.314 143.586 237.022C143.32 236.715 142.883 236.561 142.273 236.561C141.503 236.561 140.703 236.754 139.875 237.139L139.602 235.999C140.523 235.618 141.479 235.428 142.469 235.428C144.422 235.428 145.398 236.355 145.398 238.209V241.249C145.398 242.087 145.414 242.85 145.445 243.538H144.039ZM143.953 239.811C141.714 239.811 140.594 240.316 140.594 241.327C140.594 241.681 140.706 241.97 140.93 242.194C141.154 242.428 141.448 242.545 141.812 242.545C142.427 242.545 142.945 242.28 143.367 241.749C143.758 241.249 143.953 240.67 143.953 240.014V239.811ZM151.266 243.538H149.617L146.719 235.584H148.32L150 240.452C150.208 241.108 150.362 241.647 150.461 242.069H150.492C150.622 241.548 150.773 241.019 150.945 240.483L152.656 235.584H154.188L151.266 243.538ZM161.664 238.709C161.664 238.986 161.648 239.282 161.617 239.6H156.414C156.367 241.543 157.206 242.514 158.93 242.514C159.727 242.514 160.484 242.361 161.203 242.053L161.406 243.186C160.583 243.514 159.667 243.678 158.656 243.678C156.172 243.678 154.93 242.319 154.93 239.6C154.93 238.387 155.245 237.397 155.875 236.631C156.531 235.84 157.411 235.444 158.516 235.444C159.568 235.444 160.37 235.764 160.922 236.405C161.417 236.983 161.664 237.751 161.664 238.709ZM160.195 238.577C160.211 237.936 160.057 237.433 159.734 237.069C159.422 236.709 158.982 236.53 158.414 236.53C157.289 236.53 156.635 237.212 156.453 238.577H160.195ZM171.133 243.538C171.133 242.782 171.159 242.254 171.211 241.952H171.18C170.727 243.103 169.826 243.678 168.477 243.678C167.82 243.678 167.286 243.483 166.875 243.092C166.469 242.696 166.266 242.178 166.266 241.538C166.266 240.678 166.682 240.009 167.516 239.53C168.359 239.045 169.536 238.803 171.047 238.803V238.436C171.047 237.785 170.924 237.314 170.68 237.022C170.414 236.715 169.977 236.561 169.367 236.561C168.596 236.561 167.797 236.754 166.969 237.139L166.695 235.999C167.617 235.618 168.573 235.428 169.562 235.428C171.516 235.428 172.492 236.355 172.492 238.209V241.249C172.492 242.087 172.508 242.85 172.539 243.538H171.133ZM171.047 239.811C168.807 239.811 167.688 240.316 167.688 241.327C167.688 241.681 167.799 241.97 168.023 242.194C168.247 242.428 168.542 242.545 168.906 242.545C169.521 242.545 170.039 242.28 170.461 241.749C170.852 241.249 171.047 240.67 171.047 240.014V239.811ZM180.195 243.538V238.42C180.195 237.222 179.742 236.624 178.836 236.624C178.185 236.624 177.646 236.92 177.219 237.514C176.792 238.108 176.578 238.847 176.578 239.733V243.538H175.141V235.584H176.531C176.531 236.277 176.49 236.837 176.406 237.264H176.438C176.953 236.051 177.885 235.444 179.234 235.444C180.833 235.444 181.633 236.29 181.633 237.983V243.538H180.195ZM187.039 244.209C186.565 245.48 186.044 246.368 185.477 246.874C184.924 247.368 184.198 247.616 183.297 247.616C183.021 247.616 182.711 247.584 182.367 247.522L182.523 246.241C182.799 246.324 183.12 246.366 183.484 246.366C184.391 246.366 185.091 245.712 185.586 244.405L185.906 243.538L182.898 235.584H184.523L186.031 239.717C186.203 240.196 186.406 240.85 186.641 241.678H186.672C186.812 241.137 187.073 240.321 187.453 239.233L188.734 235.584H190.305L187.039 244.209ZM83.0234 267.538V262.42C83.0234 261.222 82.5703 260.624 81.6641 260.624C81.013 260.624 80.474 260.92 80.0469 261.514C79.6198 262.108 79.4062 262.847 79.4062 263.733V267.538H77.9688V259.584H79.3594C79.3594 260.277 79.3177 260.837 79.2344 261.264H79.2656C79.7812 260.051 80.7135 259.444 82.0625 259.444C83.6615 259.444 84.4609 260.29 84.4609 261.983V267.538H83.0234ZM93.8516 263.428C93.8516 264.647 93.5 265.655 92.7969 266.452C92.0781 267.269 91.1406 267.678 89.9844 267.678C87.6042 267.678 86.4141 266.329 86.4141 263.631C86.4141 262.433 86.7604 261.444 87.4531 260.663C88.1719 259.85 89.1172 259.444 90.2891 259.444C91.3724 259.444 92.2214 259.749 92.8359 260.358C93.513 261.04 93.8516 262.064 93.8516 263.428ZM92.3672 263.506C92.3672 261.595 91.6302 260.639 90.1562 260.639C89.5312 260.639 89.013 260.868 88.6016 261.327C88.1328 261.842 87.8984 262.564 87.8984 263.491C87.8984 265.475 88.651 266.467 90.1562 266.467C90.7917 266.467 91.3073 266.228 91.7031 265.749C92.1458 265.217 92.3672 264.47 92.3672 263.506ZM99.7969 267.491C99.3125 267.605 98.7786 267.663 98.1953 267.663C97.3932 267.663 96.8359 267.48 96.5234 267.116C96.2214 266.767 96.0703 266.155 96.0703 265.28V260.709H94.4375V259.584H96.0703V257.006L97.5078 256.608V259.584H99.7344V260.709H97.5078V264.772C97.5078 265.423 97.5885 265.863 97.75 266.092C97.9062 266.321 98.2057 266.436 98.6484 266.436C99.013 266.436 99.349 266.392 99.6562 266.303L99.7969 267.491ZM103.414 257.077C103.414 257.332 103.32 257.551 103.133 257.733C102.945 257.91 102.719 257.999 102.453 257.999C102.188 257.999 101.961 257.91 101.773 257.733C101.586 257.556 101.492 257.337 101.492 257.077C101.492 256.811 101.586 256.587 101.773 256.405C101.961 256.222 102.188 256.131 102.453 256.131C102.719 256.131 102.945 256.222 103.133 256.405C103.32 256.587 103.414 256.811 103.414 257.077ZM101.734 267.538V259.584H103.172V267.538H101.734ZM111.172 267.538V260.709H107.711V267.538H106.273V260.709H104.641V259.584H106.273V259.233C106.273 256.92 107.51 255.764 109.984 255.764C110.729 255.764 111.477 255.861 112.227 256.053L111.953 257.264C111.297 257.051 110.651 256.944 110.016 256.944C108.479 256.944 107.711 257.655 107.711 259.077V259.584H112.609V267.538H111.172ZM120.477 267.233C119.763 267.519 118.971 267.663 118.102 267.663C115.779 267.663 114.617 266.384 114.617 263.827C114.617 262.504 114.943 261.454 115.594 260.678C116.276 259.866 117.242 259.459 118.492 259.459C119.206 259.459 119.854 259.571 120.438 259.795L120.172 261.022C119.562 260.788 118.958 260.67 118.359 260.67C117.656 260.67 117.107 260.946 116.711 261.499C116.331 262.03 116.141 262.741 116.141 263.631C116.141 265.491 116.891 266.42 118.391 266.42C119.083 266.42 119.703 266.29 120.25 266.03L120.477 267.233ZM126.586 267.538C126.586 266.782 126.612 266.254 126.664 265.952H126.633C126.18 267.103 125.279 267.678 123.93 267.678C123.273 267.678 122.74 267.483 122.328 267.092C121.922 266.696 121.719 266.178 121.719 265.538C121.719 264.678 122.135 264.009 122.969 263.53C123.812 263.045 124.99 262.803 126.5 262.803V262.436C126.5 261.785 126.378 261.314 126.133 261.022C125.867 260.715 125.43 260.561 124.82 260.561C124.049 260.561 123.25 260.754 122.422 261.139L122.148 259.999C123.07 259.618 124.026 259.428 125.016 259.428C126.969 259.428 127.945 260.355 127.945 262.209V265.249C127.945 266.087 127.961 266.85 127.992 267.538H126.586ZM126.5 263.811C124.26 263.811 123.141 264.316 123.141 265.327C123.141 265.681 123.253 265.97 123.477 266.194C123.701 266.428 123.995 266.545 124.359 266.545C124.974 266.545 125.492 266.28 125.914 265.749C126.305 265.249 126.5 264.67 126.5 264.014V263.811ZM134.516 267.491C134.031 267.605 133.497 267.663 132.914 267.663C132.112 267.663 131.555 267.48 131.242 267.116C130.94 266.767 130.789 266.155 130.789 265.28V260.709H129.156V259.584H130.789V257.006L132.227 256.608V259.584H134.453V260.709H132.227V264.772C132.227 265.423 132.307 265.863 132.469 266.092C132.625 266.321 132.924 266.436 133.367 266.436C133.732 266.436 134.068 266.392 134.375 266.303L134.516 267.491ZM138.133 257.077C138.133 257.332 138.039 257.551 137.852 257.733C137.664 257.91 137.438 257.999 137.172 257.999C136.906 257.999 136.68 257.91 136.492 257.733C136.305 257.556 136.211 257.337 136.211 257.077C136.211 256.811 136.305 256.587 136.492 256.405C136.68 256.222 136.906 256.131 137.172 256.131C137.438 256.131 137.664 256.222 137.852 256.405C138.039 256.587 138.133 256.811 138.133 257.077ZM136.453 267.538V259.584H137.891V267.538H136.453ZM147.32 263.428C147.32 264.647 146.969 265.655 146.266 266.452C145.547 267.269 144.609 267.678 143.453 267.678C141.073 267.678 139.883 266.329 139.883 263.631C139.883 262.433 140.229 261.444 140.922 260.663C141.641 259.85 142.586 259.444 143.758 259.444C144.841 259.444 145.69 259.749 146.305 260.358C146.982 261.04 147.32 262.064 147.32 263.428ZM145.836 263.506C145.836 261.595 145.099 260.639 143.625 260.639C143 260.639 142.482 260.868 142.07 261.327C141.602 261.842 141.367 262.564 141.367 263.491C141.367 265.475 142.12 266.467 143.625 266.467C144.26 266.467 144.776 266.228 145.172 265.749C145.615 265.217 145.836 264.47 145.836 263.506ZM154.242 267.538V262.42C154.242 261.222 153.789 260.624 152.883 260.624C152.232 260.624 151.693 260.92 151.266 261.514C150.839 262.108 150.625 262.847 150.625 263.733V267.538H149.188V259.584H150.578C150.578 260.277 150.536 260.837 150.453 261.264H150.484C151 260.051 151.932 259.444 153.281 259.444C154.88 259.444 155.68 260.29 155.68 261.983V267.538H154.242ZM162.953 265.139C162.953 265.879 162.651 266.486 162.047 266.959C161.432 267.439 160.615 267.678 159.594 267.678C158.896 267.678 158.307 267.611 157.828 267.475L157.961 266.194C158.482 266.407 159.068 266.514 159.719 266.514C160.234 266.514 160.651 266.405 160.969 266.186C161.286 265.967 161.445 265.67 161.445 265.295C161.445 264.905 161.253 264.603 160.867 264.389C160.727 264.316 160.305 264.165 159.602 263.936C159.018 263.754 158.594 263.54 158.328 263.295C157.943 262.946 157.75 262.457 157.75 261.827C157.75 261.118 158.013 260.551 158.539 260.124C159.107 259.67 159.901 259.444 160.922 259.444C161.411 259.444 161.922 259.496 162.453 259.6L162.344 260.788C161.828 260.626 161.31 260.545 160.789 260.545C159.753 260.545 159.234 260.923 159.234 261.678C159.234 262.064 159.43 262.366 159.82 262.584C159.966 262.668 160.391 262.824 161.094 263.053C162.333 263.465 162.953 264.16 162.953 265.139ZM166.562 266.686C166.562 266.962 166.466 267.196 166.273 267.389C166.081 267.582 165.846 267.678 165.57 267.678C165.299 267.678 165.065 267.582 164.867 267.389C164.674 267.196 164.578 266.962 164.578 266.686C164.578 266.415 164.674 266.183 164.867 265.991C165.065 265.793 165.299 265.694 165.57 265.694C165.846 265.694 166.081 265.793 166.273 265.991C166.466 266.183 166.562 266.415 166.562 266.686Z" fill="#5A6367"/>
<rect y="148.556" width="247" height="0.1235" fill="#EBEBEB"/>
<rect x="205.891" y="156.504" width="16.3613" height="0.1235" fill="#EBEBEB"/>
<rect x="159.33" y="157.848" width="4.29286" height="0.1235" fill="#EBEBEB"/>
<rect x="195.916" y="151.92" width="9.47986" height="0.1235" fill="#EBEBEB"/>
<rect x="25.917" y="152.75" width="21.3359" height="0.1235" fill="#EBEBEB"/>
<rect x="51.6523" y="152.75" width="3.12702" height="0.1235" fill="#EBEBEB"/>
<rect x="64.9453" y="154.834" width="46.2779" height="0.1235" fill="#EBEBEB"/>
<rect x="177.341" y="23.875" width="6.99998" height="21.7903" fill="#E6E6E6"/>
<path d="M203.315 45.6654H180.087L176.58 20.1602H199.808L203.315 45.6654V45.6654Z" fill="#F0F0F0"/>
<path d="M205.829 45.6654H181.84L178.333 20.1602H202.322L205.829 45.6654V45.6654Z" fill="#F5F5F5"/>
<path d="M183.576 43.655L180.622 22.1709H200.59L203.549 43.655H183.576V43.655Z" fill="white"/>
<path d="M187.523 37.1489L186.411 29.0868C186.344 28.6561 186.47 28.2179 186.756 27.8886C187.041 27.5593 187.457 27.3724 187.893 27.3775H195.15C195.902 27.3718 196.539 27.9304 196.632 28.6768L197.739 36.7438C197.804 37.1737 197.677 37.6105 197.392 37.9386C197.106 38.2667 196.691 38.453 196.257 38.4481H189.01C188.256 38.4563 187.616 37.8972 187.523 37.1489Z" fill="#F5F5F5"/>
<rect x="36.1406" width="104.624" height="64.5411" fill="#E6E6E6"/>
<rect x="37.3955" width="106.057" height="64.5411" fill="#F0F0F0"/>
<rect x="36.1406" y="64.5459" width="104.624" height="4.99434" fill="#E6E6E6"/>
<rect x="41.8721" y="64.5459" width="106.057" height="4.99434" fill="#F0F0F0"/>
<path d="M139.689 3.76465V60.7821L41.1612 60.7821V3.76465L139.689 3.76465Z" fill="#FAFAFA"/>
<path d="M48.3926 60.7821L70.4793 3.76465H80.9027L58.816 60.7821H48.3926V60.7821Z" fill="white"/>
<path d="M61.0576 60.7821L83.1444 3.76465H87.205L65.1183 60.7821H61.0576V60.7821Z" fill="white"/>
<path d="M99.6992 60.7821L121.786 3.76465H125.847L103.765 60.7821H99.6992V60.7821Z" fill="white"/>
<path d="M139.684 3.76465V60.7821H139.205V3.76465H139.684Z" fill="#E6E6E6"/>
<rect x="197.925" y="45.6655" width="22.151" height="102.89" fill="#E6E6E6"/>
<path d="M217.848 148.556H220.076V142.218H215.512L217.848 148.556V148.556Z" fill="#F0F0F0"/>
<rect x="159.114" y="45.6655" width="22.151" height="102.89" fill="#E6E6E6"/>
<rect x="179.316" y="45.6655" width="40.7599" height="99.0025" fill="#F0F0F0"/>
<path d="M181.544 148.556H179.316V142.218H183.881L181.544 148.556V148.556Z" fill="#F0F0F0"/>
<rect x="181.046" y="47.478" width="37.3019" height="46.7028" fill="#E6E6E6"/>
<path d="M203.734 51.1146H195.657C192.148 51.1143 188.793 49.6709 186.38 47.123H213.011C210.599 49.6724 207.244 51.116 203.734 51.1146V51.1146Z" fill="#F0F0F0"/>
<rect x="181.046" y="96.0732" width="37.3019" height="46.7028" fill="#E6E6E6"/>
<path d="M203.734 99.7093H195.657C192.148 99.709 188.793 98.2656 186.38 95.7178H213.011C210.599 98.2671 207.244 99.7107 203.734 99.7093V99.7093Z" fill="#F0F0F0"/>
<path d="M63.9736 78.1562H100.836L106.181 99.9268H69.3138L63.9736 78.1562V78.1562Z" fill="#E6E6E6"/>
<path d="M69.3125 99.9268L69.4656 101.127H106.328L106.18 99.9268H69.3125V99.9268Z" fill="#E6E6E6"/>
<path d="M65.1094 78.1562H101.972L107.317 99.9268H70.4495L65.1094 78.1562V78.1562Z" fill="#F0F0F0"/>
<path d="M71.2291 98.9287L66.373 79.1489H101.19L106.046 98.9287H71.2291V98.9287Z" fill="white"/>
<path d="M80.0586 99.9268L80.2068 101.127H120.799L120.651 99.9268H80.0586V99.9268Z" fill="#F0F0F0"/>
<rect x="125.645" y="101.127" width="4.41636" height="47.424" fill="#E6E6E6"/>
<rect x="128.392" y="101.127" width="3.06774" height="47.424" fill="#F0F0F0"/>
<rect x="132.412" y="106.556" width="56.9137" height="5.42906" transform="rotate(180 132.412 106.556)" fill="#F0F0F0"/>
<rect x="69.1006" y="106.556" width="4.41636" height="41.9949" fill="#E6E6E6"/>
<rect x="71.8418" y="106.556" width="3.06774" height="41.9949" fill="#F0F0F0"/>
<rect x="41.1445" y="106.556" width="4.41636" height="41.9949" fill="#E6E6E6"/>
<rect x="43.8916" y="106.556" width="3.06774" height="41.9949" fill="#F0F0F0"/>
<rect x="97.6943" y="106.556" width="4.41636" height="41.9949" fill="#E6E6E6"/>
<rect x="100.436" y="106.556" width="3.06774" height="41.9949" fill="#F0F0F0"/>
<rect x="41.1445" y="101.127" width="34.3478" height="5.42906" fill="#E6E6E6"/>
<path d="M144.417 148.556H143.345L140.297 133.42L139.758 130.767L136.379 114.272H123.535L116.585 148.556H115.498L122.592 113.64C122.638 113.402 122.843 113.227 123.086 113.22H136.839C137.085 113.217 137.296 113.397 137.333 113.64L140.297 128.124L140.791 130.772L144.417 148.556Z" fill="#F0F0F0"/>
<path d="M165.04 148.556H163.963L156.997 114.272H144.153L140.789 130.772L140.295 133.42L137.217 148.556H136.146L139.757 130.772L140.29 128.129L143.254 113.645C143.302 113.408 143.506 113.234 143.748 113.225H157.457C157.699 113.232 157.905 113.407 157.951 113.645L165.04 148.556Z" fill="#F0F0F0"/>
<path d="M133.38 113.744H156.983C161.488 113.744 163.988 110.681 165.263 105.632L165.885 102.747C166.311 100.979 165.902 99.1137 164.775 97.6863C163.648 96.2589 161.929 95.4276 160.11 95.4312H145.29C142.227 95.4312 141.417 96.1623 139.298 100.776C137.179 105.39 133.38 113.744 133.38 113.744Z" fill="#F0F0F0"/>
<path d="M146.248 113.744H121.094C120.442 113.744 119.913 113.215 119.913 112.563V112.455C119.913 111.598 120.253 110.776 120.859 110.17C121.465 109.564 122.287 109.224 123.144 109.224H146.248V113.749V113.744Z" fill="#F0F0F0"/>
<ellipse cx="123.499" cy="165.273" rx="95.7817" ry="5.59208" fill="#F5F5F5"/>
<path d="M142.582 13.8273H70.7889C69.2385 13.8167 67.7528 14.4474 66.6835 15.57C65.6142 16.6926 65.0565 18.2073 65.1424 19.7553L71.8757 159.345C72.0746 162.644 74.7857 165.23 78.0902 165.273H149.883C151.433 165.284 152.918 164.653 153.987 163.53C155.055 162.407 155.612 160.892 155.525 159.345L148.796 19.7553C148.597 16.4565 145.886 13.8705 142.582 13.8273Z" fill="#262626"/>
<path d="M145.235 13.8273H73.4219C71.872 13.8166 70.3867 14.4475 69.3181 15.5703C68.2496 16.6931 67.6931 18.2078 67.7804 19.7553L74.5087 159.345C74.7077 162.644 77.4187 165.23 80.7232 165.273H152.516C154.066 165.284 155.551 164.653 156.62 163.53C157.689 162.407 158.245 160.892 158.158 159.345L151.429 19.7553C151.231 16.464 148.531 13.8807 145.235 13.8273Z" fill="#262626"/>
<path d="M80.5198 161.32C79.4241 161.293 78.5285 160.438 78.45 159.344L71.7316 19.7548C71.7073 19.24 71.8947 18.7376 72.2501 18.3644C72.6056 17.9912 73.0983 17.7796 73.6137 17.7788H145.407C146.504 17.8019 147.403 18.6594 147.477 19.7548L154.205 159.344C154.229 159.858 154.042 160.36 153.688 160.733C153.334 161.106 152.842 161.318 152.328 161.32H80.5198Z" fill="#EDEDED"/>
<path opacity="0.1" d="M80.486 160.333C79.9396 160.314 79.4935 159.89 79.4486 159.345L72.7204 19.7551C72.711 19.4988 72.8053 19.2496 72.9819 19.0637C73.1585 18.8778 73.4026 18.7709 73.659 18.7671H145.452C145.999 18.7831 146.447 19.2091 146.489 19.7551L153.218 159.345C153.227 159.601 153.133 159.85 152.956 160.036C152.779 160.222 152.535 160.329 152.279 160.333H80.486Z" fill="white"/>
<path d="M94.8447 18.0659H124.766" stroke="#262626" stroke-width="4" stroke-linecap="round" stroke-linejoin="round"/>
<g filter="url(#filter0_d_793_13710)">
<path d="M48.9487 77.1157H142.17C143.086 77.1157 143.964 77.4795 144.612 78.127C145.259 78.7745 145.623 79.6527 145.623 80.5684V97.8316C145.623 98.7473 145.259 99.6255 144.612 100.273C143.964 100.92 143.086 101.284 142.17 101.284H48.9487C48.033 101.284 47.1548 100.92 46.5074 100.273C45.8599 99.6255 45.4961 98.7473 45.4961 97.8316V80.5684C45.4961 79.6527 45.8599 78.7745 46.5074 78.127C47.1548 77.4795 48.033 77.1157 48.9487 77.1157V77.1157Z" fill="white"/>
</g>
<path d="M100.051 82.6401H82.097C80.9529 82.6401 80.0254 83.5676 80.0254 84.7117C80.0254 85.8558 80.9529 86.7833 82.097 86.7833H100.051C101.195 86.7833 102.122 85.8558 102.122 84.7117C102.122 83.5676 101.195 82.6401 100.051 82.6401Z" fill="#A7E4CF"/>
<path d="M112.48 91.6172H82.097C80.9529 91.6172 80.0254 92.5447 80.0254 93.6888C80.0254 94.8329 80.9529 95.7604 82.097 95.7604H112.48C113.624 95.7604 114.552 94.8329 114.552 93.6888C114.552 92.5447 113.624 91.6172 112.48 91.6172Z" fill="#E8E8E8"/>
<path d="M66.9063 96.4497C70.72 96.4497 73.8116 93.3581 73.8116 89.5445C73.8116 85.7308 70.72 82.6392 66.9063 82.6392C63.0926 82.6392 60.001 85.7308 60.001 89.5445C60.001 93.3581 63.0926 96.4497 66.9063 96.4497Z" fill="#4EC89E"/>
<g clip-path="url(#clip0_793_13710)">
<path d="M65.5898 92.1333C65.7014 92.3898 65.8854 92.6081 66.1193 92.7614C66.3532 92.9148 66.6268 92.9964 66.9065 92.9964C67.1861 92.9964 67.4597 92.9148 67.6936 92.7614C67.9275 92.6081 68.1115 92.3898 68.2231 92.1333H65.5898Z" fill="white"/>
<path d="M69.8966 89.7021L69.3971 88.0555C69.2372 87.4796 68.8894 86.9736 68.409 86.6179C67.9287 86.2622 67.3433 86.0771 66.7457 86.0922C66.1482 86.1072 65.5728 86.3214 65.1109 86.7007C64.649 87.0801 64.3271 87.6029 64.1963 88.1861L63.8084 89.7792C63.7569 89.9909 63.7541 90.2115 63.8003 90.4245C63.8464 90.6374 63.9404 90.8371 64.075 91.0084C64.2096 91.1797 64.3813 91.3182 64.5773 91.4135C64.7733 91.5087 64.9883 91.5582 65.2062 91.5582H68.5198C68.7445 91.5582 68.966 91.5056 69.1666 91.4046C69.3673 91.3036 69.5415 91.157 69.6753 90.9766C69.8092 90.7962 69.8989 90.587 69.9373 90.3656C69.9757 90.1443 69.9618 89.9171 69.8966 89.7021Z" fill="white"/>
</g>
<g filter="url(#filter1_d_793_13710)">
<path d="M19.2622 106.808H112.484C113.399 106.808 114.278 107.171 114.925 107.819C115.573 108.466 115.936 109.345 115.936 110.26V127.523C115.936 128.439 115.573 129.317 114.925 129.965C114.278 130.612 113.399 130.976 112.484 130.976H19.2622C18.3465 130.976 17.4683 130.612 16.8208 129.965C16.1733 129.317 15.8096 128.439 15.8096 127.523V110.26C15.8096 109.345 16.1733 108.466 16.8208 107.819C17.4683 107.171 18.3465 106.808 19.2622 106.808V106.808Z" fill="white"/>
</g>
<path d="M70.3574 112.332H52.4036C51.2595 112.332 50.332 113.259 50.332 114.403C50.332 115.547 51.2595 116.475 52.4036 116.475H70.3574C71.5015 116.475 72.429 115.547 72.429 114.403C72.429 113.259 71.5015 112.332 70.3574 112.332Z" fill="#A7E4CF"/>
<path d="M82.7869 121.308H52.4036C51.2595 121.308 50.332 122.236 50.332 123.38C50.332 124.524 51.2595 125.451 52.4036 125.451H82.7869C83.931 125.451 84.8585 124.524 84.8585 123.38C84.8585 122.236 83.931 121.308 82.7869 121.308Z" fill="#E8E8E8"/>
<path d="M27.5518 126.141C31.3655 126.141 34.4571 123.05 34.4571 119.236C34.4571 115.422 31.3655 112.331 27.5518 112.331C23.7381 112.331 20.6465 115.422 20.6465 119.236C20.6465 123.05 23.7381 126.141 27.5518 126.141Z" fill="#4EC89E"/>
<g clip-path="url(#clip1_793_13710)">
<path d="M26.2354 121.825C26.3469 122.081 26.5309 122.299 26.7648 122.453C26.9987 122.606 27.2723 122.688 27.552 122.688C27.8316 122.688 28.1052 122.606 28.3391 122.453C28.573 122.299 28.757 122.081 28.8686 121.825H26.2354Z" fill="white"/>
<path d="M30.5421 119.394L30.0426 117.747C29.8827 117.171 29.5349 116.665 29.0545 116.309C28.5742 115.954 27.9888 115.769 27.3912 115.784C26.7937 115.799 26.2183 116.013 25.7564 116.392C25.2945 116.771 24.9726 117.294 24.8418 117.878L24.4539 119.471C24.4024 119.682 24.3996 119.903 24.4458 120.116C24.4919 120.329 24.5859 120.528 24.7205 120.7C24.8551 120.871 25.0269 121.01 25.2228 121.105C25.4188 121.2 25.6338 121.25 25.8517 121.25H29.1654C29.39 121.25 29.6115 121.197 29.8122 121.096C30.0128 120.995 30.187 120.848 30.3208 120.668C30.4547 120.488 30.5444 120.278 30.5828 120.057C30.6212 119.836 30.6073 119.608 30.5421 119.394Z" fill="white"/>
</g>
<g filter="url(#filter2_d_793_13710)">
<path d="M132.807 46.2935H39.5855C37.6786 46.2935 36.1328 47.8393 36.1328 49.7461V67.0093C36.1328 68.9162 37.6786 70.462 39.5855 70.462H132.807C134.714 70.462 136.26 68.9162 136.26 67.0093V49.7461C136.26 47.8393 134.714 46.2935 132.807 46.2935Z" fill="white"/>
</g>
<path d="M89.3027 51.8174H71.3489C70.2048 51.8174 69.2773 52.7449 69.2773 53.889C69.2773 55.0331 70.2048 55.9606 71.3489 55.9606H89.3027C90.4468 55.9606 91.3743 55.0331 91.3743 53.889C91.3743 52.7449 90.4468 51.8174 89.3027 51.8174Z" fill="#A7E4CF"/>
<path d="M101.732 60.7939H71.3489C70.2048 60.7939 69.2773 61.7214 69.2773 62.8655C69.2773 64.0096 70.2048 64.9371 71.3489 64.9371H101.732C102.876 64.9371 103.804 64.0096 103.804 62.8655C103.804 61.7214 102.876 60.7939 101.732 60.7939Z" fill="#E8E8E8"/>
<path d="M57.5381 65.628C61.3518 65.628 64.4434 62.5364 64.4434 58.7227C64.4434 54.909 61.3518 51.8174 57.5381 51.8174C53.7244 51.8174 50.6328 54.909 50.6328 58.7227C50.6328 62.5364 53.7244 65.628 57.5381 65.628Z" fill="#4EC89E"/>
<g clip-path="url(#clip2_793_13710)">
<path d="M56.2217 61.3115C56.3332 61.568 56.5172 61.7863 56.7511 61.9396C56.985 62.093 57.2586 62.1747 57.5383 62.1747C57.818 62.1747 58.0916 62.093 58.3254 61.9396C58.5593 61.7863 58.7434 61.568 58.8549 61.3115H56.2217Z" fill="white"/>
<path d="M60.5284 58.8803L60.0289 57.2337C59.869 56.6578 59.5212 56.1518 59.0409 55.7961C58.5605 55.4404 57.9751 55.2554 57.3776 55.2704C56.78 55.2854 56.2047 55.4996 55.7428 55.8789C55.2809 56.2583 54.9589 56.7811 54.8281 57.3643L54.4403 58.9574C54.3887 59.1691 54.3859 59.3898 54.4321 59.6027C54.4783 59.8156 54.5722 60.0153 54.7068 60.1866C54.8414 60.3579 55.0132 60.4964 55.2091 60.5917C55.4051 60.6869 55.6201 60.7364 55.838 60.7364H59.1517C59.3763 60.7364 59.5978 60.6838 59.7985 60.5828C59.9991 60.4818 60.1733 60.3353 60.3072 60.1549C60.441 59.9744 60.5307 59.7652 60.5691 59.5439C60.6076 59.3225 60.5936 59.0953 60.5284 58.8803Z" fill="white"/>
</g>
<path d="M174.088 160.634H170.462L170.097 152.227H173.728L174.088 160.634Z" fill="#FFC3BD"/>
<path opacity="0.2" d="M170.104 152.232L170.286 156.564H173.917L173.729 152.232H170.104Z" fill="#262626"/>
<path d="M204.979 150.784L201.531 151.911L197.188 144.486L200.642 143.359L204.979 150.784Z" fill="#FFC3BD"/>
<path opacity="0.2" d="M200.642 143.359L197.188 144.486L199.431 148.314L202.879 147.188L200.642 143.359Z" fill="#262626"/>
<path d="M186.361 39.1997C186.811 39.748 187.191 40.2371 187.581 40.7756C187.972 41.314 188.342 41.8278 188.713 42.3613C189.444 43.4333 190.145 44.53 190.802 45.6612C192.169 47.9564 193.284 50.3928 194.127 52.928L194.211 53.175L194.25 53.3034L194.305 53.5059L194.403 53.911L194.458 54.2815C194.516 54.7252 194.534 55.1733 194.512 55.6203C194.466 56.374 194.357 57.1226 194.186 57.8581C193.873 59.1759 193.459 60.4675 192.946 61.7212C191.969 64.1244 190.786 66.4384 189.409 68.6372L186.939 67.4565C187.68 65.1396 188.421 62.7684 188.964 60.4615C189.247 59.3493 189.462 58.2209 189.607 57.0825C189.668 56.591 189.686 56.0951 189.661 55.6005C189.654 55.4242 189.63 55.249 189.592 55.0769L189.567 54.9879C189.558 54.972 189.55 54.9555 189.542 54.9385L189.503 54.8447L189.424 54.652L189.093 53.8764L188.722 53.1058C188.475 52.6118 188.204 52.0783 187.932 51.5645C187.369 50.5469 186.761 49.5342 186.129 48.5264C185.497 47.5187 184.825 46.5504 184.153 45.5624C183.481 44.5744 182.745 43.5864 182.078 42.6923L186.361 39.1997Z" fill="#FFC3BD"/>
<path d="M187.166 66.8437L185.748 69.9806H189.804C189.804 69.9806 190.451 67.5995 188.979 66.6362L187.166 66.8437Z" fill="#FFC3BD"/>
<path d="M186.222 73.5081L189.987 72.7819L189.804 69.981H185.748L186.222 73.5081Z" fill="#FFC3BD"/>
<path d="M177.839 26.6519C177.315 29.3096 176.797 34.1755 178.654 35.944C178.654 35.944 177.928 38.6363 172.998 38.6363C167.564 38.6363 170.404 35.944 170.404 35.944C173.368 35.2376 173.289 33.0442 172.77 30.9793L177.839 26.6519Z" fill="#FFC3BD"/>
<path d="M179.366 36.8679C179.756 36.0182 180.186 35.0401 179.296 34.7338C178.308 34.3979 172.993 34.057 171.15 34.6894C170.661 34.825 170.246 35.1512 169.999 35.595C169.752 36.0389 169.693 36.5632 169.836 37.0507L179.366 36.8679Z" fill="#262626"/>
<path fill-rule="evenodd" clip-rule="evenodd" d="M199.989 153.205C200.217 153.239 200.518 153.032 200.785 152.775C201.014 152.553 201.219 152.308 201.397 152.044C201.416 152.016 201.416 151.978 201.397 151.95C201.378 151.924 201.346 151.911 201.313 151.915C201.249 151.92 200.064 152.118 199.767 152.577C199.699 152.673 199.677 152.795 199.708 152.908C199.73 153.057 199.842 153.175 199.989 153.205ZM199.911 152.666C199.932 152.638 199.955 152.611 199.981 152.587C200.327 152.349 200.722 152.191 201.136 152.123C200.805 152.538 200.267 153.072 200.015 153.032C199.99 153.032 199.916 153.017 199.877 152.864C199.858 152.796 199.871 152.724 199.911 152.666Z" fill="#4EC89E"/>
<path fill-rule="evenodd" clip-rule="evenodd" d="M201.337 152.084L201.377 152.059C201.388 152.049 201.395 152.035 201.397 152.019C201.406 151.989 201.396 151.956 201.372 151.935C201.371 151.935 201.369 151.933 201.367 151.931C201.295 151.868 200.537 151.21 200.008 151.249C199.876 151.258 199.753 151.321 199.668 151.422C199.575 151.517 199.558 151.664 199.628 151.777C199.855 152.123 200.927 152.192 201.337 152.084ZM199.801 151.535L199.831 151.506H199.841C199.89 151.457 199.955 151.427 200.024 151.422C200.432 151.486 200.813 151.668 201.12 151.945C200.656 152 199.905 151.886 199.772 151.684C199.771 151.683 199.771 151.681 199.77 151.68C199.759 151.659 199.736 151.615 199.801 151.535Z" fill="#4EC89E"/>
<path fill-rule="evenodd" clip-rule="evenodd" d="M167.939 160.546C168.087 160.753 168.536 160.817 169.001 160.817C169.373 160.816 169.745 160.783 170.112 160.719C170.146 160.711 170.171 160.684 170.177 160.65C170.185 160.614 170.169 160.578 170.137 160.561C170.083 160.526 168.813 159.805 168.21 159.968C168.096 159.995 167.998 160.068 167.939 160.17C167.856 160.282 167.856 160.434 167.939 160.546ZM168.261 160.116C168.317 160.108 168.373 160.108 168.429 160.116C168.928 160.174 169.411 160.328 169.852 160.571C169.18 160.665 168.261 160.66 168.093 160.427C168.053 160.398 168.034 160.343 168.093 160.235C168.13 160.173 168.191 160.13 168.261 160.116Z" fill="#4EC89E"/>
<path fill-rule="evenodd" clip-rule="evenodd" d="M170.065 160.719H170.099C170.121 160.724 170.144 160.721 170.163 160.709C170.188 160.69 170.202 160.661 170.203 160.63C170.203 160.629 170.203 160.627 170.202 160.624C170.192 160.531 170.085 159.601 169.64 159.232C169.502 159.117 169.324 159.064 169.146 159.084C168.909 159.108 168.825 159.227 168.825 159.326C168.76 159.731 169.63 160.521 170.065 160.719ZM169.165 159.237H169.215V159.247C169.315 159.248 169.413 159.283 169.491 159.345C169.77 159.656 169.943 160.047 169.985 160.462C169.546 160.195 168.958 159.578 168.997 159.331C168.997 159.311 169.007 159.237 169.165 159.237Z" fill="#4EC89E"/>
<path d="M201.229 151.51L204.193 148.69C204.3 148.585 204.465 148.57 204.588 148.655L207.335 150.493C207.47 150.584 207.555 150.731 207.567 150.893C207.578 151.055 207.515 151.214 207.394 151.323C206.352 152.311 205.794 152.711 204.5 153.946C203.699 154.712 201.318 157.305 200.217 158.362C199.115 159.419 197.929 158.461 198.285 157.932C199.886 155.556 200.883 153.279 200.972 152.079C200.988 151.865 201.079 151.664 201.229 151.51Z" fill="#262626"/>
<path d="M170.483 160.215H174.435C174.583 160.214 174.711 160.317 174.741 160.462L175.458 163.688C175.494 163.845 175.456 164.01 175.355 164.135C175.254 164.261 175.1 164.333 174.939 164.33C173.506 164.33 171.441 164.226 169.643 164.226C167.544 164.226 165.731 164.34 163.266 164.34C161.784 164.34 161.364 162.833 161.986 162.695C164.822 162.077 167.144 162.008 169.594 160.496C169.858 160.321 170.166 160.224 170.483 160.215Z" fill="#262626"/>
<path d="M165.315 44.1793C163.872 46.3035 162.385 48.2893 160.785 50.2505C159.178 52.2357 157.461 54.129 155.642 55.9216L154.941 56.6034L154.763 56.7713L154.634 56.8899L154.447 57.0233C154.214 57.2108 153.964 57.3762 153.701 57.5173C152.867 57.9572 151.949 58.2148 151.008 58.2731C149.573 58.358 148.132 58.2383 146.73 57.9174C144.19 57.3571 141.727 56.4913 139.395 55.3387L140.303 52.7699C142.617 53.2324 144.956 53.5524 147.308 53.7283C148.342 53.81 149.382 53.7668 150.406 53.5998C150.7 53.5559 150.98 53.4461 151.226 53.2787C151.251 53.2787 151.226 53.2491 151.226 53.2491L151.265 53.2096L151.409 53.0466L151.996 52.4044C153.538 50.6457 155.035 48.7685 156.487 46.8518C157.939 44.9351 159.397 42.969 160.785 41.0522L165.315 44.1793Z" fill="#FFC3BD"/>
<path d="M185.154 36.769C188.553 37.5495 192.456 46.8219 192.456 46.8219L185.624 51.505C183.927 49.0667 182.422 46.5 181.123 43.8282C179.098 39.5848 181.677 35.9687 185.154 36.769Z" fill="#4EC89E"/>
<path opacity="0.3" d="M182.713 42.6973L185.944 51.2978L185.623 51.5201C185.623 51.5201 184.225 49.5441 182.713 46.9111L182.713 42.6973Z" fill="#262626"/>
<path d="M164.822 36.9521C164.822 36.9521 160.959 41.3141 164.609 68.3211H184.019C184.152 65.3571 182.28 50.8039 185.155 36.7644C183.008 36.3514 180.836 36.0775 178.654 35.9443C175.906 35.7861 173.152 35.7861 170.404 35.9443C168.52 36.1342 166.653 36.4711 164.822 36.9521Z" fill="#4EC89E"/>
<path opacity="0.3" d="M166.976 44.7617C166.471 47.8264 165.146 50.6975 163.142 53.0708C163.063 51.3319 163.034 49.7709 163.039 48.3729L166.976 44.7617Z" fill="#262626"/>
<path d="M168.651 39.896C169.145 43.3293 162.357 52.1077 162.357 52.1077L155.555 47.4245C155.555 47.4245 157.442 42.5883 160.618 39.4168C164.249 35.781 168.132 36.1564 168.651 39.896Z" fill="#4EC89E"/>
<path d="M140.774 53.0714L138.111 50.3198L135.271 53.9804C135.271 53.9804 137.434 56.07 140.008 55.4624L140.774 53.0714Z" fill="#FFC3BD"/>
<path d="M134.456 48.7881L133.235 52.6314L135.271 53.9652L138.111 50.3047L134.456 48.7881Z" fill="#FFC3BD"/>
<path d="M178.16 22.6603C177.938 26.2516 177.992 28.3709 176.184 30.2135C173.452 32.9898 169.016 31.3448 168.161 27.7435C167.386 24.5128 167.88 19.1776 171.397 17.7499C172.972 17.1026 174.77 17.3177 176.148 18.3183C177.527 19.3189 178.288 20.962 178.16 22.6603Z" fill="#FFC3BD"/>
<path d="M181.286 15.1567C182.392 16.1743 181.923 17.3105 181.345 17.5229C183.138 17.8934 183.4 19.3211 182.457 22.3345C181.557 25.2195 179.379 29.0875 176.657 29.3246C172.567 29.6803 171.371 25.4171 171.342 21.1884C169.03 21.3317 170.027 19.2816 167.187 19.7558C164.717 20.1658 165.646 18.2392 163.546 17.3994C161.111 16.4114 161.6 12.6817 163.872 13.7537C163.872 13.7537 162.82 14.4453 164.045 15.0974C165.27 15.7495 165.152 14.2428 167.577 14.06C170.003 13.8772 170.284 15.952 173.12 14.7022C176.677 13.1313 179.013 13.0572 181.286 15.1567Z" fill="#262626"/>
<path d="M179.924 17.5035C180.255 16.9723 180.896 16.7213 181.5 16.886C182.611 17.1231 182.7 17.6122 183.397 17.5479C184.093 17.4837 183.841 18.2247 183.841 18.2247C183.841 18.2247 183.654 17.6665 182.814 17.9777C181.974 18.2889 181.426 17.5282 181.065 17.869C180.704 18.2099 179.924 17.5035 179.924 17.5035Z" fill="#262626"/>
<path d="M173.278 23.6389C173.12 24.5196 172.674 25.3226 172.009 25.9212C171.129 26.7017 170.369 26.0743 170.339 25.0073C170.339 24.044 170.749 22.4731 171.762 22.0976C172.774 21.7222 173.461 22.5719 173.278 23.6389Z" fill="#FFC3BD"/>
<path d="M171.49 68.321C171.49 68.321 175.61 96.0492 177.873 106.423C180.343 117.785 197.559 148.018 197.559 148.018L203.882 145.963C203.882 145.963 190.173 118.724 188.76 107.456C187.224 95.2292 184.018 68.3013 184.018 68.3013L171.49 68.321Z" fill="#A7E4CF"/>
<path d="M195.791 146.042C195.767 146.042 197.239 148.255 197.239 148.255L204.342 145.943L203.508 143.819L195.791 146.042Z" fill="#4EC89E"/>
<path opacity="0.3" d="M174.092 78.201C178.855 79.1347 178.351 96.894 177.778 106.028C176.404 99.5715 174.394 87.1474 173.021 78.3295C173.353 78.1658 173.731 78.1205 174.092 78.201Z" fill="#262626"/>
<path d="M164.61 68.3208C164.61 68.3208 164.116 95.4562 164.501 106.522C164.912 118.032 168.947 155.724 168.947 155.724H175.098C175.098 155.724 175.32 118.704 175.592 107.401C175.888 95.0511 177.375 68.3208 177.375 68.3208L164.61 68.3208Z" fill="#A7E4CF"/>
<path d="M167.752 153.274C167.722 153.274 168.097 155.828 168.097 155.828H175.577L175.779 153.551L167.752 153.274Z" fill="#4EC89E"/>
<defs>
<filter id="filter0_d_793_13710" x="39.4961" y="74.1157" width="112.127" height="36.1685" filterUnits="userSpaceOnUse" color-interpolation-filters="sRGB">
<feFlood flood-opacity="0" result="BackgroundImageFix"/>
<feColorMatrix in="SourceAlpha" type="matrix" values="0 0 0 0 0 0 0 0 0 0 0 0 0 0 0 0 0 0 127 0" result="hardAlpha"/>
<feOffset dy="3"/>
<feGaussianBlur stdDeviation="3"/>
<feColorMatrix type="matrix" values="0 0 0 0 0 0 0 0 0 0 0 0 0 0 0 0 0 0 0.161 0"/>
<feBlend mode="normal" in2="BackgroundImageFix" result="effect1_dropShadow_793_13710"/>
<feBlend mode="normal" in="SourceGraphic" in2="effect1_dropShadow_793_13710" result="shape"/>
</filter>
<filter id="filter1_d_793_13710" x="9.80957" y="103.808" width="112.127" height="36.1685" filterUnits="userSpaceOnUse" color-interpolation-filters="sRGB">
<feFlood flood-opacity="0" result="BackgroundImageFix"/>
<feColorMatrix in="SourceAlpha" type="matrix" values="0 0 0 0 0 0 0 0 0 0 0 0 0 0 0 0 0 0 127 0" result="hardAlpha"/>
<feOffset dy="3"/>
<feGaussianBlur stdDeviation="3"/>
<feColorMatrix type="matrix" values="0 0 0 0 0 0 0 0 0 0 0 0 0 0 0 0 0 0 0.161 0"/>
<feBlend mode="normal" in2="BackgroundImageFix" result="effect1_dropShadow_793_13710"/>
<feBlend mode="normal" in="SourceGraphic" in2="effect1_dropShadow_793_13710" result="shape"/>
</filter>
<filter id="filter2_d_793_13710" x="30.1328" y="43.2935" width="112.127" height="36.1685" filterUnits="userSpaceOnUse" color-interpolation-filters="sRGB">
<feFlood flood-opacity="0" result="BackgroundImageFix"/>
<feColorMatrix in="SourceAlpha" type="matrix" values="0 0 0 0 0 0 0 0 0 0 0 0 0 0 0 0 0 0 127 0" result="hardAlpha"/>
<feOffset dy="3"/>
<feGaussianBlur stdDeviation="3"/>
<feColorMatrix type="matrix" values="0 0 0 0 0 0 0 0 0 0 0 0 0 0 0 0 0 0 0.161 0"/>
<feBlend mode="normal" in2="BackgroundImageFix" result="effect1_dropShadow_793_13710"/>
<feBlend mode="normal" in="SourceGraphic" in2="effect1_dropShadow_793_13710" result="shape"/>
</filter>
<clipPath id="clip0_793_13710">
<rect width="6.90529" height="6.90529" fill="white" transform="translate(63.4541 86.0913)"/>
</clipPath>
<clipPath id="clip1_793_13710">
<rect width="6.90529" height="6.90529" fill="white" transform="translate(24.0996 115.783)"/>
</clipPath>
<clipPath id="clip2_793_13710">
<rect width="6.90529" height="6.90529" fill="white" transform="translate(54.0859 55.2695)"/>
</clipPath>
</defs>
</svg>
