<svg width="39" height="38" viewBox="0 0 39 38" fill="none" xmlns="http://www.w3.org/2000/svg">
<circle opacity="0.1" cx="19.5" cy="19" r="19" fill="#6653FF"/>
<path d="M22.1667 11.2C22.6372 11.3613 23.0653 11.6265 23.4193 11.976L24.5233 13.0813C24.8732 13.4349 25.1387 13.8628 25.3 14.3333H22.1667V11.2ZM25.5 15.6667V23.6667C25.4989 24.5504 25.1474 25.3976 24.5225 26.0225C23.8976 26.6474 23.0504 26.9989 22.1667 27H16.8333C15.9496 26.9989 15.1024 26.6474 14.4775 26.0225C13.8526 25.3976 13.5011 24.5504 13.5 23.6667V14.3333C13.5011 13.4496 13.8526 12.6024 14.4775 11.9775C15.1024 11.3526 15.9496 11.0011 16.8333 11H20.8333V14.3333C20.8333 14.687 20.9738 15.0261 21.2239 15.2761C21.4739 15.5262 21.813 15.6667 22.1667 15.6667H25.5ZM22.7053 22.6087C22.6539 22.5375 22.5889 22.4772 22.5141 22.4312C22.4393 22.3852 22.3561 22.3545 22.2694 22.3407C22.1827 22.327 22.0941 22.3305 22.0087 22.3511C21.9234 22.3717 21.8429 22.4089 21.772 22.4607C21.3241 22.7725 20.8009 22.9587 20.2567 23C20.0434 22.9942 19.8393 22.9126 19.6807 22.77C19.3327 22.4939 18.9034 22.3404 18.4593 22.3333C17.7198 22.4029 17.0154 22.6818 16.4287 23.1373C16.3559 23.1892 16.2942 23.2553 16.2475 23.3315C16.2007 23.4077 16.1697 23.4925 16.1564 23.581C16.1431 23.6694 16.1477 23.7596 16.17 23.8462C16.1922 23.9328 16.2317 24.014 16.286 24.0851C16.3403 24.1561 16.4084 24.2155 16.4861 24.2597C16.5638 24.3039 16.6497 24.332 16.7385 24.3424C16.8273 24.3527 16.9173 24.3451 17.0031 24.32C17.0889 24.2948 17.1688 24.2527 17.238 24.196C17.5931 23.9179 18.0136 23.7356 18.4593 23.6667C18.6233 23.6667 18.7067 23.7187 18.926 23.8667C19.3059 24.1667 19.7753 24.331 20.2593 24.3333C21.0879 24.2955 21.8879 24.0193 22.5633 23.538C22.705 23.4333 22.7994 23.2768 22.826 23.1026C22.8526 22.9285 22.8092 22.7509 22.7053 22.6087ZM22.8333 20.3333C22.8333 20.1565 22.7631 19.987 22.6381 19.8619C22.513 19.7369 22.3435 19.6667 22.1667 19.6667H16.8333C16.6565 19.6667 16.487 19.7369 16.3619 19.8619C16.2369 19.987 16.1667 20.1565 16.1667 20.3333C16.1667 20.5101 16.2369 20.6797 16.3619 20.8047C16.487 20.9298 16.6565 21 16.8333 21H22.1667C22.3435 21 22.513 20.9298 22.6381 20.8047C22.7631 20.6797 22.8333 20.5101 22.8333 20.3333ZM22.8333 17.6667C22.8333 17.4899 22.7631 17.3203 22.6381 17.1953C22.513 17.0702 22.3435 17 22.1667 17H16.8333C16.6565 17 16.487 17.0702 16.3619 17.1953C16.2369 17.3203 16.1667 17.4899 16.1667 17.6667C16.1667 17.8435 16.2369 18.013 16.3619 18.1381C16.487 18.2631 16.6565 18.3333 16.8333 18.3333H22.1667C22.3435 18.3333 22.513 18.2631 22.6381 18.1381C22.7631 18.013 22.8333 17.8435 22.8333 17.6667Z" fill="#6653FF"/>
</svg>
