<svg width="39" height="38" viewBox="0 0 39 38" fill="none" xmlns="http://www.w3.org/2000/svg">
<circle opacity="0.1" cx="19.5" cy="19" r="19" fill="#D55353"/>
<path d="M28.7222 13.7354L25.4085 11.0213C25.3916 11.0076 25.3704 11 25.3486 11H21.7286C21.679 11 21.6377 11.0384 21.6341 11.0878C21.5565 12.1711 20.7152 13.0198 19.6284 13.0198C18.5416 13.0198 17.7002 12.1709 17.6227 11.0878C17.6193 11.0384 17.578 11 17.5282 11H13.9086C13.8867 11 13.8654 11.0076 13.8486 11.0213L10.5347 13.7354C10.5047 13.7597 10.4928 13.8 10.5043 13.8368L11.7036 17.6868C11.7122 17.7144 11.7331 17.7367 11.7601 17.7471C11.7871 17.7574 11.8175 17.7548 11.8423 17.7399L13.8136 16.5632V26.9054C13.8136 26.9577 13.856 27 13.9082 27H25.348C25.4002 27 25.4426 26.9577 25.4426 26.9054V16.5632L27.4138 17.7399C27.4387 17.7547 27.469 17.7574 27.4961 17.7471C27.5231 17.7367 27.5439 17.7144 27.5526 17.6868L28.7518 13.8368C28.7639 13.8 28.7518 13.7598 28.7221 13.7354H28.7222Z" fill="#D55353"/>
</svg>
