<svg width="38" height="38" viewBox="0 0 38 38" fill="none" xmlns="http://www.w3.org/2000/svg">
<circle opacity="0.1" cx="19" cy="19" r="19" fill="#4EC89E"/>
<path d="M19.0751 20.45C20.4608 20.45 21.7898 19.8995 22.7698 18.9197C23.7496 17.9398 24.3001 16.6109 24.3001 15.225C24.3001 13.8393 23.7496 12.5103 22.7698 11.5305C21.7898 10.5505 20.4608 10 19.0751 10C17.6894 10 16.3604 10.5505 15.3804 11.5305C14.4006 12.5103 13.8501 13.8393 13.8501 15.225C13.8516 16.6104 14.4025 17.9385 15.382 18.9181C16.3617 19.8976 17.6898 20.4485 19.0751 20.45ZM19.5106 15.6605H18.6396C18.173 15.6605 17.7417 15.4115 17.5085 15.0074C17.2751 14.6033 17.2751 14.1053 17.5085 13.7012C17.7417 13.297 18.173 13.048 18.6396 13.048V12.6126C18.6396 12.3722 18.8345 12.1773 19.0751 12.1773C19.3155 12.1773 19.5106 12.3722 19.5106 12.6126V13.048H20.3813C20.6217 13.048 20.8168 13.243 20.8168 13.4835C20.8168 13.7239 20.6217 13.9188 20.3813 13.9188H18.6396C18.3992 13.9188 18.2043 14.1139 18.2043 14.3543C18.2043 14.5947 18.3992 14.7898 18.6396 14.7898H19.5106C19.9772 14.7898 20.4085 15.0386 20.6417 15.4429C20.8751 15.847 20.8751 16.3449 20.6417 16.7491C20.4085 17.1532 19.9772 17.4023 19.5106 17.4023V17.8377V17.8376C19.5106 18.0781 19.3155 18.273 19.0751 18.273C18.8345 18.273 18.6396 18.0781 18.6396 17.8376V17.4021H17.7688V17.4023C17.5283 17.4023 17.3334 17.2072 17.3334 16.9668C17.3334 16.7264 17.5283 16.5313 17.7688 16.5313H19.5106C19.751 16.5313 19.9459 16.3364 19.9459 16.096C19.9459 15.8555 19.751 15.6605 19.5106 15.6605Z" fill="#4EC89E"/>
<path d="M11.475 22.3501H12.425C12.6872 22.3501 12.9 22.6124 12.9 22.8251V28.5251C12.9 28.7873 12.6874 29.0001 12.425 29.0001H11.475C11.2128 29.0001 11 28.7378 11 28.5251V22.8251C11 22.5629 11.2126 22.3501 11.475 22.3501Z" fill="#4EC89E"/>
<path d="M26.8531 24.2214C26.0966 23.151 24.8495 24.2224 24.4171 24.492L22.2915 26.024C22.1574 26.104 22.0066 26.1461 21.8532 26.1463H18.7044C18.4607 26.1463 18.2632 25.9339 18.2632 25.6719C18.2632 25.4097 18.4607 25.1973 18.7044 25.1973H20.4698C20.9428 25.1973 21.3799 24.9259 21.6164 24.4855C21.8529 24.0451 21.8529 23.5023 21.6164 23.0619C21.3799 22.6215 20.9428 22.3501 20.4698 22.3501H15.6338C15.1609 22.3506 14.7076 22.5528 14.3732 22.9122C14.0388 23.2718 13.8507 23.7592 13.8501 24.2676V27.0759C13.8507 27.5843 14.0388 28.0718 14.3732 28.4313C14.7076 28.7907 15.1609 28.993 15.6338 28.9934H22.1899C22.795 29.0389 23.3953 28.8506 23.8828 28.4624L26.2071 26.8137C26.9794 26.3242 27.5102 25.1513 26.8532 24.2214L26.8531 24.2214Z" fill="#4EC89E"/>
</svg>
