<svg width="39" height="38" viewBox="0 0 39 38" fill="none" xmlns="http://www.w3.org/2000/svg">
<circle opacity="0.1" cx="19.5" cy="19" r="19" fill="#FA9B0F"/>
<g clip-path="url(#clip0_786_9553)">
<path fill-rule="evenodd" clip-rule="evenodd" d="M24.5 11C23.9696 11 23.4609 11.2107 23.0858 11.5858C22.7107 11.9609 22.5 12.4696 22.5 13V25C22.5 25.5304 22.7107 26.0391 23.0858 26.4142C23.4609 26.7893 23.9696 27 24.5 27C25.0304 27 25.5391 26.7893 25.9142 26.4142C26.2893 26.0391 26.5 25.5304 26.5 25V13C26.5 12.4696 26.2893 11.9609 25.9142 11.5858C25.5391 11.2107 25.0304 11 24.5 11ZM18.5 15C17.9696 15 17.4609 15.2107 17.0858 15.5858C16.7107 15.9609 16.5 16.4696 16.5 17V25C16.5 25.5304 16.7107 26.0391 17.0858 26.4142C17.4609 26.7893 17.9696 27 18.5 27C19.0304 27 19.5391 26.7893 19.9142 26.4142C20.2893 26.0391 20.5 25.5304 20.5 25V17C20.5 16.4696 20.2893 15.9609 19.9142 15.5858C19.5391 15.2107 19.0304 15 18.5 15ZM11.0858 19.5858C11.4609 19.2107 11.9696 19 12.5 19C13.0304 19 13.5391 19.2107 13.9142 19.5858C14.2893 19.9609 14.5 20.4696 14.5 21V25C14.5 25.5304 14.2893 26.0391 13.9142 26.4142C13.5391 26.7893 13.0304 27 12.5 27C11.9696 27 11.4609 26.7893 11.0858 26.4142C10.7107 26.0391 10.5 25.5304 10.5 25V21C10.5 20.4696 10.7107 19.9609 11.0858 19.5858Z" fill="#FA9B0F"/>
</g>
<defs>
<clipPath id="clip0_786_9553">
<rect width="16" height="16" fill="white" transform="translate(10.5 11)"/>
</clipPath>
</defs>
</svg>
