<svg width="38" height="38" viewBox="0 0 38 38" fill="none" xmlns="http://www.w3.org/2000/svg">
<circle opacity="0.1" cx="19" cy="19" r="19" fill="#4EC89E"/>
<path d="M24.8025 17.3387C24.2912 16.8209 23.7046 16.3835 23.0625 16.0412C22.8946 15.9472 22.7218 15.8621 22.545 15.7862C22.1885 15.625 21.8199 15.492 21.4425 15.3887L21.0825 15.3062C20.82 15.2537 20.565 15.2162 20.3325 15.1862H19.98H19.8C19.6078 15.1713 19.4147 15.1713 19.2225 15.1862H19.0575H18.78H18.675C18.4229 15.2078 18.1724 15.2454 17.925 15.2987L17.5725 15.3812C17.1984 15.4842 16.8324 15.6145 16.4775 15.7712C16.2975 15.8537 16.1175 15.9362 15.9525 16.0262C14.758 16.6675 13.7596 17.6205 13.0637 18.784C12.3677 19.9475 12.0001 21.2779 12 22.6337V24.8837C12 25.8782 12.3951 26.8321 13.0983 27.5353C13.8016 28.2386 14.7554 28.6337 15.75 28.6337H23.25C24.2446 28.6337 25.1984 28.2386 25.9017 27.5353C26.6049 26.8321 27 25.8782 27 24.8837V22.6337C27.0046 21.6493 26.8126 20.6738 26.4352 19.7646C26.0579 18.8553 25.5028 18.0306 24.8025 17.3387ZM19.125 21.1337H19.875C20.3723 21.084 20.8689 21.2338 21.2557 21.5503C21.6425 21.8667 21.8878 22.3239 21.9375 22.8212C21.9872 23.3185 21.8374 23.8151 21.5209 24.2019C21.2044 24.5887 20.7473 24.834 20.25 24.8837C20.25 25.0826 20.171 25.2734 20.0303 25.414C19.8897 25.5547 19.6989 25.6337 19.5 25.6337C19.3011 25.6337 19.1103 25.5547 18.9697 25.414C18.829 25.2734 18.75 25.0826 18.75 24.8837H18C17.8011 24.8837 17.6103 24.8047 17.4697 24.664C17.329 24.5234 17.25 24.3326 17.25 24.1337C17.25 23.9348 17.329 23.744 17.4697 23.6034C17.6103 23.4627 17.8011 23.3837 18 23.3837H19.875C19.9745 23.3837 20.0698 23.3442 20.1402 23.2738C20.2105 23.2035 20.25 23.1081 20.25 23.0087C20.25 22.9092 20.2105 22.8138 20.1402 22.7435C20.0698 22.6732 19.9745 22.6337 19.875 22.6337H19.125C18.66 22.6342 18.2115 22.4618 17.8664 22.1502C17.5213 21.8385 17.3043 21.4097 17.2576 20.9471C17.2109 20.4845 17.3377 20.021 17.6135 19.6466C17.8893 19.2723 18.2943 19.0137 18.75 18.9212V18.8837C18.75 18.6848 18.829 18.494 18.9697 18.3534C19.1103 18.2127 19.3011 18.1337 19.5 18.1337C19.6989 18.1337 19.8897 18.2127 20.0303 18.3534C20.171 18.494 20.25 18.6848 20.25 18.8837H21C21.1989 18.8837 21.3897 18.9627 21.5303 19.1034C21.671 19.244 21.75 19.4348 21.75 19.6337C21.75 19.8326 21.671 20.0234 21.5303 20.164C21.3897 20.3047 21.1989 20.3837 21 20.3837H19.125C19.0255 20.3837 18.9302 20.4232 18.8598 20.4935C18.7895 20.5638 18.75 20.6592 18.75 20.7587C18.75 20.8581 18.7895 20.9535 18.8598 21.0238C18.9302 21.0942 19.0255 21.1337 19.125 21.1337Z" fill="#4EC89E"/>
<rect x="16" y="18" width="7" height="8" fill="#4EC89E"/>
<path d="M17.8181 23.0609C17.8181 23.3326 17.7162 23.556 17.5123 23.7311C17.3043 23.9104 17.036 24 16.7073 24C16.4563 24 16.2344 23.9741 16.0416 23.9223L16.1019 23.3845C16.2989 23.4671 16.5076 23.5084 16.7281 23.5084C17.0498 23.5084 17.2107 23.3824 17.2107 23.1303C17.2107 23.0098 17.1476 22.9111 17.0214 22.834C16.9881 22.8144 16.8494 22.7535 16.6053 22.6513C16.2018 22.4846 16 22.2255 16 21.8739C16 21.6106 16.0943 21.4006 16.2829 21.2437C16.4771 21.0812 16.7447 21 17.0859 21C17.2579 21 17.4312 21.0189 17.6059 21.0567L17.556 21.5462C17.3896 21.4916 17.2246 21.4643 17.0609 21.4643C16.7461 21.4643 16.5887 21.5805 16.5887 21.813C16.5887 21.9251 16.6525 22.0196 16.7801 22.0966C16.8078 22.1134 16.9493 22.1765 17.2045 22.2857C17.6136 22.4622 17.8181 22.7206 17.8181 23.0609Z" fill="white"/>
<path d="M20.0232 23.9517L19.8276 23.3571H18.7376L18.5358 23.9517H17.9783L18.9706 21.0483H19.6238L20.6368 23.9517H20.0232ZM19.3929 22.0504C19.3429 21.8978 19.3048 21.764 19.2785 21.6492H19.2743C19.2285 21.8214 19.1911 21.9552 19.162 22.0504L18.8686 22.9139H19.6862L19.3929 22.0504Z" fill="white"/>
<path d="M22.3156 23.9517L21.5397 22.7521H21.4918V23.9517H20.9385V21.0483C21.1396 21.0357 21.4149 21.0294 21.7643 21.0294C22.4605 21.0294 22.8086 21.3025 22.8086 21.8487C22.8086 22.0588 22.7407 22.2388 22.6048 22.3887C22.4744 22.5315 22.3066 22.6211 22.1013 22.6576C22.2095 22.8004 22.2865 22.9062 22.3322 22.9748L23 23.9517H22.3156ZM22.2303 21.9034C22.2303 21.6246 22.057 21.4853 21.7103 21.4853C21.6201 21.4853 21.5473 21.4902 21.4918 21.5V22.3382C21.5431 22.3438 21.6097 22.3466 21.6915 22.3466C21.8579 22.3466 21.989 22.3067 22.0847 22.2269C22.1818 22.1471 22.2303 22.0392 22.2303 21.9034Z" fill="white"/>
<path d="M23.5949 12.5911L23.3024 14.4811L23.1599 14.3836C22.7431 14.1942 22.3117 14.0387 21.8699 13.9186C21.0959 13.7196 20.299 13.6237 19.4999 13.6336C18.6996 13.6362 17.9031 13.742 17.1299 13.9486C16.6937 14.0708 16.2674 14.2263 15.8549 14.4136L15.6974 14.4886L15.4049 12.5911C15.3448 12.1989 15.3894 11.7979 15.5342 11.4285C15.6791 11.0592 15.919 10.7347 16.2297 10.488C16.5404 10.2413 16.9107 10.0811 17.3033 10.0237C17.6958 9.96627 18.0966 10.0137 18.4649 10.1611L19.2149 10.4611C19.3931 10.532 19.5917 10.532 19.7699 10.4611L20.5199 10.1611C20.8882 10.0137 21.289 9.96627 21.6815 10.0237C22.0741 10.0811 22.4445 10.2413 22.7551 10.488C23.0658 10.7347 23.3057 11.0592 23.4506 11.4285C23.5954 11.7979 23.64 12.1989 23.5799 12.5911H23.5949Z" fill="#4EC89E"/>
</svg>
