<svg width="39" height="38" viewBox="0 0 39 38" fill="none" xmlns="http://www.w3.org/2000/svg">
<circle opacity="0.1" cx="19.5" cy="19" r="19" fill="#AA52FF"/>
<path d="M23.8333 11C22.9493 11 22.1014 11.3512 21.4763 11.9763C20.8512 12.6014 20.5 13.4493 20.5 14.3333V15.6667C20.4998 16.4351 20.7652 17.18 21.2511 17.7753C21.7371 18.3705 22.4138 18.7796 23.1667 18.9333V20.4533C22.7776 20.5909 22.4407 20.8454 22.202 21.182C21.9633 21.5185 21.8345 21.9207 21.8333 22.3333V25C21.8333 25.5304 22.044 26.0391 22.4191 26.4142C22.7942 26.7893 23.3029 27 23.8333 27C24.3638 27 24.8725 26.7893 25.2475 26.4142C25.6226 26.0391 25.8333 25.5304 25.8333 25V22.3333C25.8322 21.9207 25.7034 21.5185 25.4647 21.182C25.226 20.8454 24.889 20.5909 24.5 20.4533V18.9333C25.2529 18.7796 25.9296 18.3705 26.4155 17.7753C26.9015 17.18 27.1668 16.4351 27.1667 15.6667V14.3333C27.1667 13.4493 26.8155 12.6014 26.1904 11.9763C25.5652 11.3512 24.7174 11 23.8333 11Z" fill="#AA52FF"/>
<path d="M18.5 11C18.3232 11 18.1536 11.0702 18.0286 11.1953C17.9036 11.3203 17.8333 11.4899 17.8333 11.6667V14.3333C17.8333 14.5101 17.7631 14.6797 17.6381 14.8047C17.513 14.9298 17.3435 15 17.1667 15C16.9899 15 16.8203 14.9298 16.6953 14.8047C16.5702 14.6797 16.5 14.5101 16.5 14.3333V11.6667C16.5 11.4899 16.4298 11.3203 16.3047 11.1953C16.1797 11.0702 16.0101 11 15.8333 11C15.6565 11 15.487 11.0702 15.3619 11.1953C15.2369 11.3203 15.1667 11.4899 15.1667 11.6667V14.3333C15.1667 14.5101 15.0964 14.6797 14.9714 14.8047C14.8464 14.9298 14.6768 15 14.5 15C14.3232 15 14.1536 14.9298 14.0286 14.8047C13.9036 14.6797 13.8333 14.5101 13.8333 14.3333V11.6667C13.8333 11.4899 13.7631 11.3203 13.6381 11.1953C13.513 11.0702 13.3435 11 13.1667 11C12.9899 11 12.8203 11.0702 12.6953 11.1953C12.5702 11.3203 12.5 11.4899 12.5 11.6667V15.6667C12.4998 16.4351 12.7652 17.18 13.2511 17.7753C13.7371 18.3705 14.4138 18.7796 15.1667 18.9333V20.4533C14.7776 20.5909 14.4407 20.8454 14.202 21.182C13.9633 21.5185 13.8345 21.9207 13.8333 22.3333V25C13.8333 25.5304 14.044 26.0391 14.4191 26.4142C14.7942 26.7893 15.3029 27 15.8333 27C16.3638 27 16.8725 26.7893 17.2475 26.4142C17.6226 26.0391 17.8333 25.5304 17.8333 25V22.3333C17.8322 21.9207 17.7034 21.5185 17.4647 21.182C17.226 20.8454 16.889 20.5909 16.5 20.4533V18.9333C17.2529 18.7796 17.9296 18.3705 18.4155 17.7753C18.9015 17.18 19.1668 16.4351 19.1667 15.6667V11.6667C19.1667 11.4899 19.0964 11.3203 18.9714 11.1953C18.8464 11.0702 18.6768 11 18.5 11Z" fill="#AA52FF"/>
</svg>
