<svg width="39" height="38" viewBox="0 0 39 38" fill="none" xmlns="http://www.w3.org/2000/svg">
<circle opacity="0.1" cx="19.5" cy="19" r="19" fill="#4EC89E"/>
<path d="M25.9065 22.125H14.094H13.8184L14.3434 24.75C14.4946 25.4911 14.8974 26.1573 15.4833 26.6356C16.0693 27.114 16.8026 27.3752 17.559 27.375H22.4415C23.1979 27.3752 23.9312 27.114 24.5171 26.6356C25.1031 26.1573 25.5058 25.4911 25.6571 24.75L26.1821 22.125H25.9065ZM19.344 25.4062C19.344 25.5803 19.2748 25.7472 19.1518 25.8703C19.0287 25.9934 18.8618 26.0625 18.6877 26.0625C18.5137 26.0625 18.3468 25.9934 18.2237 25.8703C18.1006 25.7472 18.0315 25.5803 18.0315 25.4062V24.0938C18.0315 23.9197 18.1006 23.7528 18.2237 23.6297C18.3468 23.5066 18.5137 23.4375 18.6877 23.4375C18.8618 23.4375 19.0287 23.5066 19.1518 23.6297C19.2748 23.7528 19.344 23.9197 19.344 24.0938V25.4062ZM21.969 25.4062C21.969 25.5803 21.8998 25.7472 21.7768 25.8703C21.6537 25.9934 21.4868 26.0625 21.3127 26.0625C21.1387 26.0625 20.9718 25.9934 20.8487 25.8703C20.7256 25.7472 20.6565 25.5803 20.6565 25.4062V24.0938C20.6565 23.9197 20.7256 23.7528 20.8487 23.6297C20.9718 23.5066 21.1387 23.4375 21.3127 23.4375C21.4868 23.4375 21.6537 23.5066 21.7768 23.6297C21.8998 23.7528 21.969 23.9197 21.969 24.0938V25.4062Z" fill="#4EC89E"/>
<path d="M25.9062 15.5625H24.5938V14.9062C24.5938 14.4754 24.5089 14.0487 24.344 13.6506C24.1791 13.2525 23.9374 12.8907 23.6327 12.5861C23.328 12.2814 22.9663 12.0397 22.5682 11.8748C22.1701 11.7099 21.7434 11.625 21.3125 11.625H18.6875C17.8173 11.625 16.9827 11.9707 16.3673 12.5861C15.752 13.2014 15.4062 14.036 15.4062 14.9062V15.5625H14.0938C13.5716 15.5625 13.0708 15.7699 12.7016 16.1391C12.3324 16.5083 12.125 17.0091 12.125 17.5312V18.8438C12.125 19.3659 12.3324 19.8667 12.7016 20.2359C13.0708 20.6051 13.5716 20.8125 14.0938 20.8125H25.9062C26.4284 20.8125 26.9292 20.6051 27.2984 20.2359C27.6676 19.8667 27.875 19.3659 27.875 18.8438V17.5312C27.875 17.0091 27.6676 16.5083 27.2984 16.1391C26.9292 15.7699 26.4284 15.5625 25.9062 15.5625ZM16.7188 14.9062C16.7188 14.3841 16.9262 13.8833 17.2954 13.5141C17.6646 13.1449 18.1654 12.9375 18.6875 12.9375H21.3125C21.8346 12.9375 22.3354 13.1449 22.7046 13.5141C23.0738 13.8833 23.2812 14.3841 23.2812 14.9062V15.5625H16.7188V14.9062Z" fill="#4EC89E"/>
</svg>
