<svg width="39" height="38" viewBox="0 0 39 38" fill="none" xmlns="http://www.w3.org/2000/svg">
<circle opacity="0.1" cx="19.5" cy="19" r="19" fill="#FA9B0F"/>
<g clip-path="url(#clip0_786_9596)">
<path d="M26.642 13.718C26.4545 13.493 26.2197 13.312 25.9544 13.1879C25.689 13.0638 25.3996 12.9996 25.1067 13H14.328L14.3 12.766C14.2427 12.2796 14.0089 11.8312 13.643 11.5057C13.2771 11.1801 12.8044 11.0002 12.3147 11H12.1667C11.9899 11 11.8203 11.0702 11.6953 11.1953C11.5702 11.3203 11.5 11.4899 11.5 11.6667C11.5 11.8435 11.5702 12.013 11.6953 12.1381C11.8203 12.2631 11.9899 12.3333 12.1667 12.3333H12.3147C12.478 12.3334 12.6356 12.3933 12.7576 12.5018C12.8796 12.6103 12.9576 12.7598 12.9767 12.922L13.894 20.722C13.9892 21.5332 14.379 22.2812 14.9893 22.824C15.5996 23.3668 16.3879 23.6667 17.2047 23.6667H24.1667C24.3435 23.6667 24.513 23.5964 24.6381 23.4714C24.7631 23.3464 24.8333 23.1768 24.8333 23C24.8333 22.8232 24.7631 22.6536 24.6381 22.5286C24.513 22.4036 24.3435 22.3333 24.1667 22.3333H17.2047C16.792 22.3322 16.3899 22.2034 16.0533 21.9647C15.7167 21.726 15.4622 21.389 15.3247 21H23.2713C24.0529 21 24.8096 20.7255 25.4092 20.2243C26.0089 19.7231 26.4134 19.0271 26.552 18.258L27.0753 15.3553C27.1276 15.0673 27.1158 14.7714 27.0409 14.4884C26.9661 14.2055 26.8299 13.9425 26.642 13.718Z" fill="#FA9B0F"/>
<path d="M16.1668 26.9999C16.9032 26.9999 17.5002 26.403 17.5002 25.6666C17.5002 24.9302 16.9032 24.3333 16.1668 24.3333C15.4304 24.3333 14.8335 24.9302 14.8335 25.6666C14.8335 26.403 15.4304 26.9999 16.1668 26.9999Z" fill="#FA9B0F"/>
<path d="M22.8333 26.9999C23.5697 26.9999 24.1667 26.403 24.1667 25.6666C24.1667 24.9302 23.5697 24.3333 22.8333 24.3333C22.097 24.3333 21.5 24.9302 21.5 25.6666C21.5 26.403 22.097 26.9999 22.8333 26.9999Z" fill="#FA9B0F"/>
</g>
<defs>
<clipPath id="clip0_786_9596">
<rect width="16" height="16" fill="white" transform="translate(11.5 11)"/>
</clipPath>
</defs>
</svg>
