<svg width="19" height="22" viewBox="0 0 19 22" fill="none" xmlns="http://www.w3.org/2000/svg">
<path d="M13.8648 12.7462C13.8648 12.9777 13.7728 13.1998 13.6091 13.3635C13.4453 13.5272 13.2233 13.6192 12.9918 13.6192H6.00763C5.77609 13.6192 5.55403 13.5272 5.39031 13.3635C5.22659 13.1998 5.13461 12.9777 5.13461 12.7462C5.13461 12.5146 5.22659 12.2926 5.39031 12.1289C5.55403 11.9651 5.77609 11.8732 6.00763 11.8732H12.9918C13.2233 11.8732 13.4453 11.9651 13.6091 12.1289C13.7728 12.2926 13.8648 12.5146 13.8648 12.7462ZM10.3727 15.3652H6.00763C5.77609 15.3652 5.55403 15.4572 5.39031 15.6209C5.22659 15.7846 5.13461 16.0067 5.13461 16.2382C5.13461 16.4698 5.22659 16.6918 5.39031 16.8555C5.55403 17.0193 5.77609 17.1112 6.00763 17.1112H10.3727C10.6042 17.1112 10.8263 17.0193 10.99 16.8555C11.1537 16.6918 11.2457 16.4698 11.2457 16.2382C11.2457 16.0067 11.1537 15.7846 10.99 15.6209C10.8263 15.4572 10.6042 15.3652 10.3727 15.3652ZM18.2298 9.67752V17.1112C18.2285 18.2685 17.7681 19.378 16.9498 20.1963C16.1315 21.0146 15.022 21.4749 13.8648 21.4763H5.13461C3.97734 21.4749 2.86788 21.0146 2.04956 20.1963C1.23125 19.378 0.770917 18.2685 0.769531 17.1112V4.88903C0.770917 3.73176 1.23125 2.62229 2.04956 1.80398C2.86788 0.985668 3.97734 0.525332 5.13461 0.523946H9.07628C9.87912 0.52188 10.6744 0.678983 11.4162 0.986172C12.1579 1.29336 12.8314 1.74454 13.3977 2.31363L16.4393 5.35696C17.0087 5.92289 17.4602 6.59617 17.7675 7.33781C18.0749 8.07945 18.232 8.87471 18.2298 9.67752ZM12.1633 3.54807C11.8885 3.28194 11.58 3.05301 11.2457 2.86712V6.63506C11.2457 6.8666 11.3377 7.08865 11.5014 7.25237C11.6651 7.41609 11.8872 7.50807 12.1187 7.50807H15.8867C15.7007 7.17387 15.4714 6.86566 15.2048 6.59141L12.1633 3.54807ZM16.4838 9.67752C16.4838 9.53347 16.4559 9.39553 16.4428 9.25411H12.1187C11.4241 9.25411 10.758 8.97817 10.2668 8.487C9.77562 7.99584 9.49969 7.32967 9.49969 6.63506V2.31101C9.35826 2.29791 9.21945 2.26998 9.07628 2.26998H5.13461C4.44 2.26998 3.77383 2.54591 3.28266 3.03708C2.7915 3.52825 2.51556 4.19441 2.51556 4.88903V17.1112C2.51556 17.8059 2.7915 18.472 3.28266 18.9632C3.77383 19.4544 4.44 19.7303 5.13461 19.7303H13.8648C14.5594 19.7303 15.2255 19.4544 15.7167 18.9632C16.2079 18.472 16.4838 17.8059 16.4838 17.1112V9.67752Z" fill="#262626"/>
</svg>
