<svg width="21" height="18" viewBox="0 0 21 18" fill="none" xmlns="http://www.w3.org/2000/svg">
<path d="M18.0068 18C18.6891 18 19.3434 17.729 19.8258 17.2466C20.3082 16.7642 20.5792 16.1098 20.5792 15.4276V8.07788C20.5792 7.25921 20.2539 6.47413 19.675 5.89529C19.0962 5.3162 18.3111 4.99113 17.4922 4.99113H3.52127C3.14236 4.99137 2.77813 4.84456 2.50502 4.58146C2.23214 4.3186 2.07205 3.95996 2.05806 3.58126C2.07181 3.17695 2.2403 2.79338 2.52879 2.50977C2.81728 2.2264 3.20362 2.06445 3.60821 2.05792H17.4921C17.7649 2.05792 18.0269 2.16628 18.2198 2.35923C18.4128 2.55219 18.5211 2.81388 18.5211 3.08674V3.4342C18.5211 3.80192 18.7171 4.14142 19.0357 4.32534C19.354 4.5092 19.7462 4.5092 20.0645 4.32534C20.3828 4.14148 20.579 3.80195 20.579 3.4342V3.08674C20.579 2.26808 20.2537 1.483 19.6749 0.904154C19.096 0.325068 18.311 0 17.4921 0H3.5211C2.58778 0.00163119 1.69317 0.373318 1.03325 1.03325C0.373331 1.69318 0.00184935 2.58784 0 3.5211V13.884C0 14.9756 0.433673 16.0226 1.20548 16.7944C1.97728 17.5661 3.02428 17.9998 4.11582 17.9998L18.0068 18ZM18.5213 12.167L14.9666 12.1672C14.6842 12.1635 14.4558 11.9353 14.4523 11.6527V11.0512C14.4523 10.7671 14.6825 10.5369 14.9666 10.5369H18.5278L18.5213 12.167ZM2.0579 13.8842V6.72839C2.51627 6.94115 3.01592 7.05067 3.52109 7.04904H17.492C17.7649 7.04904 18.0268 7.1574 18.2198 7.35036C18.4127 7.54331 18.5211 7.805 18.5211 8.07787V8.47216H14.9664C14.2836 8.47402 13.6293 8.74644 13.1471 9.22998C12.665 9.71329 12.3942 10.3683 12.3942 11.0511V11.6726C12.4012 12.3507 12.675 12.999 13.1564 13.4767C13.6379 13.9545 14.2883 14.2232 14.9664 14.225H18.5276V15.4277L18.5278 15.4275C18.5278 15.7118 18.2974 15.942 18.0133 15.942H4.11573C3.56997 15.942 3.04657 15.7253 2.66065 15.3393C2.27451 14.9534 2.05782 14.4298 2.05782 13.884L2.0579 13.8842Z" fill="#262626"/>
</svg>
