<svg width="21" height="20" viewBox="0 0 21 20" fill="none" xmlns="http://www.w3.org/2000/svg">
<path fill-rule="evenodd" clip-rule="evenodd" d="M18.0916 3.53447C19.2781 4.93331 20.057 6.63153 20.343 8.44333L20.3397 8.4425C20.5381 9.76205 20.4703 11.108 20.1405 12.4009C19.8106 13.6939 19.2254 14.9078 18.4191 15.9711C17.6129 17.0344 16.602 17.9255 15.4461 18.5921C14.2901 19.2586 13.0124 19.6871 11.6883 19.8522C10.3641 20.0174 9.02036 19.9158 7.73609 19.5536C6.45182 19.1913 5.25304 18.5757 4.21037 17.743C3.16769 16.9103 2.30222 15.8773 1.66494 14.7049C1.02766 13.5326 0.63146 12.2445 0.49968 10.9167C0.488917 10.8006 0.502444 10.6836 0.5394 10.5731C0.576356 10.4625 0.63593 10.3609 0.714327 10.2747C0.792725 10.1884 0.888226 10.1195 0.994746 10.0722C1.10127 10.0249 1.21647 10.0003 1.33301 10C1.53727 9.99677 1.73534 10.0701 1.8883 10.2054C2.04127 10.3408 2.13807 10.5285 2.15968 10.7317C2.3245 12.6222 3.13026 14.3996 4.44346 15.7696C5.75666 17.1395 7.49848 18.0196 9.38033 18.2642C11.2622 18.5088 13.1711 18.1031 14.7908 17.1143C16.4106 16.1255 17.6439 14.6131 18.2865 12.8275C18.929 11.0419 18.9423 9.09041 18.324 7.29628C17.7057 5.50214 16.493 3.97309 14.8869 2.96245C13.2807 1.9518 11.3774 1.52024 9.49244 1.73924C7.60745 1.95825 5.85385 2.81469 4.52218 4.16667H6.81468C7.03569 4.16667 7.24766 4.25446 7.40394 4.41074C7.56022 4.56703 7.64801 4.77899 7.64801 5C7.64801 5.22101 7.56022 5.43298 7.40394 5.58926C7.24766 5.74554 7.03569 5.83333 6.81468 5.83333H3.48135C3.03932 5.83333 2.6154 5.65774 2.30284 5.34518C1.99028 5.03262 1.81468 4.60869 1.81468 4.16667V0.833333C1.81468 0.61232 1.90248 0.400358 2.05876 0.244078C2.21504 0.0877974 2.427 0 2.64801 0C2.86903 0 3.08099 0.0877974 3.23727 0.244078C3.39355 0.400358 3.48135 0.61232 3.48135 0.833333V2.84583C4.79413 1.56479 6.43396 0.669496 8.22143 0.257902C10.0089 -0.153693 11.8751 -0.0657305 13.616 0.512166C15.3568 1.09006 16.9052 2.13563 18.0916 3.53447ZM9.9104 5.24408C10.0667 5.0878 10.2786 5 10.4997 5C10.7207 5 10.9326 5.0878 11.0889 5.24408C11.2452 5.40036 11.333 5.61232 11.333 5.83333V9.655L13.5888 11.9108C13.7406 12.068 13.8246 12.2785 13.8227 12.497C13.8208 12.7155 13.7332 12.9245 13.5787 13.079C13.4242 13.2335 13.2152 13.3212 12.9967 13.3231C12.7782 13.325 12.5677 13.241 12.4105 13.0892L9.91049 10.5892C9.7542 10.4329 9.66637 10.221 9.66632 10V5.83333C9.66632 5.61232 9.75412 5.40036 9.9104 5.24408Z" fill="#262626"/>
</svg>
