<svg width="21" height="20" viewBox="0 0 21 20" fill="none" xmlns="http://www.w3.org/2000/svg">
<path d="M5.89387 0H1.4217C1.17729 0 0.942759 0.0971113 0.769923 0.269933C0.597104 0.442759 0.5 0.677306 0.5 0.921738V5.39407C0.5 5.72326 0.675617 6.02759 0.960868 6.19235C1.24593 6.35694 1.59731 6.35694 1.88256 6.19235C2.16763 6.02758 2.34343 5.72324 2.34343 5.39407V1.84359H5.89411C6.22345 1.84359 6.5276 1.66781 6.69235 1.38271C6.85694 1.09747 6.85694 0.746072 6.69235 0.460979C6.5276 0.175738 6.22343 9.27452e-05 5.89411 9.27452e-05L5.89387 0Z" fill="#262626"/>
<path d="M20.1486 0.921751C20.1486 0.677324 20.0514 0.442782 19.8786 0.269937C19.7058 0.0971085 19.4713 0 19.2268 0H14.7547C14.4253 0 14.1212 0.175626 13.9564 0.460893C13.7919 0.745974 13.7919 1.09737 13.9564 1.38264C14.1212 1.66772 14.4254 1.84353 14.7547 1.84353H18.3054V5.39406C18.3054 5.72326 18.4811 6.02759 18.7662 6.19234C19.0515 6.35694 19.4028 6.35694 19.6879 6.19234C19.9732 6.02758 20.1488 5.72323 20.1488 5.39406L20.1486 0.921751Z" fill="#262626"/>
<path d="M0.500244 19.0784C0.500244 19.3228 0.597352 19.5573 0.770167 19.7302C0.942986 19.903 1.17752 20.0001 1.42195 20.0001H5.89411C6.22345 20.0001 6.5276 19.8245 6.69235 19.5392C6.85694 19.2541 6.85694 18.9027 6.69235 18.6175C6.5276 18.3324 6.22343 18.1566 5.89411 18.1566H2.34343V14.6061C2.34343 14.2769 2.16765 13.9725 1.88256 13.8078C1.59733 13.6432 1.24595 13.6432 0.960868 13.8078C0.675638 13.9725 0.5 14.2769 0.5 14.6061L0.500244 19.0784Z" fill="#262626"/>
<path d="M20.1488 14.6061C20.1488 14.2769 19.9732 13.9725 19.6879 13.8078C19.4029 13.6432 19.0515 13.6432 18.7662 13.8078C18.4812 13.9725 18.3054 14.2769 18.3054 14.6061V18.1566H14.7547C14.4253 18.1566 14.1212 18.3324 13.9564 18.6175C13.7919 18.9027 13.7919 19.2541 13.9564 19.5392C14.1212 19.8245 14.4254 20.0001 14.7547 20.0001H19.2268C19.4713 20.0001 19.7058 19.903 19.8786 19.7302C20.0515 19.5573 20.1486 19.3228 20.1486 19.0784L20.1488 14.6061Z" fill="#262626"/>
<path d="M2.60547 10C2.60547 10.2326 2.7019 10.4558 2.87397 10.6203C3.04588 10.7848 3.27902 10.8772 3.52232 10.8772H17.1272C17.4548 10.8772 17.7576 10.7101 17.9213 10.4386C18.085 10.1671 18.085 9.83288 17.9213 9.56141C17.7576 9.28994 17.4548 9.1228 17.1272 9.1228H3.52232C3.27903 9.1228 3.0459 9.21522 2.87397 9.37969C2.7019 9.54416 2.60547 9.76737 2.60547 9.99998V10Z" fill="#262626"/>
</svg>
