<svg width="24" height="26" viewBox="0 0 24 26" fill="none" xmlns="http://www.w3.org/2000/svg">
<g clip-path="url(#clip0_337_20849)">
<path d="M22.5555 15.6622L20.6555 8.82618C20.0986 6.82351 18.8882 5.06447 17.2168 3.82865C15.5454 2.59283 13.5089 1.95117 11.4309 2.00565C9.35299 2.06013 7.35288 2.80763 5.74853 4.12933C4.14419 5.45103 3.02767 7.27108 2.57647 9.30018L1.10547 15.9152C0.942986 16.6461 0.946742 17.4042 1.11646 18.1335C1.28618 18.8628 1.61753 19.5446 2.08605 20.1287C2.55457 20.7128 3.14829 21.1842 3.82338 21.5081C4.49847 21.832 5.23769 22.0002 5.98647 22.0002H7.10047C7.32999 23.1305 7.9432 24.1467 8.83621 24.8766C9.72922 25.6065 10.8471 26.0052 12.0005 26.0052C13.1538 26.0052 14.2717 25.6065 15.1647 24.8766C16.0577 24.1467 16.671 23.1305 16.9005 22.0002H17.7385C18.5093 22.0002 19.2697 21.8221 19.9602 21.4796C20.6508 21.1372 21.2528 20.6397 21.7193 20.026C22.1858 19.4124 22.504 18.6992 22.6493 17.9422C22.7945 17.1852 22.7627 16.4049 22.5565 15.6622H22.5555ZM12.0005 24.0002C11.3822 23.9976 10.7798 23.8041 10.2758 23.4461C9.7717 23.0881 9.39055 22.5831 9.18447 22.0002H14.8165C14.6104 22.5831 14.2292 23.0881 13.7252 23.4461C13.2211 23.8041 12.6187 23.9976 12.0005 24.0002ZM20.1265 18.8152C19.8478 19.1848 19.4868 19.4844 19.0721 19.6901C18.6574 19.8958 18.2004 20.002 17.7375 20.0002H5.98647C5.53725 20.0001 5.09379 19.8991 4.68881 19.7048C4.28383 19.5104 3.92768 19.2275 3.64663 18.8771C3.36559 18.5266 3.16683 18.1176 3.06503 17.68C2.96323 17.2425 2.96099 16.7877 3.05847 16.3492L4.52847 9.73318C4.88282 8.13939 5.75978 6.70978 7.01993 5.67163C8.28008 4.63347 9.85109 4.04635 11.4832 4.00359C13.1154 3.96083 14.715 4.4649 16.0278 5.43565C17.3406 6.4064 18.2912 7.78813 18.7285 9.36118L20.6285 16.1972C20.754 16.6425 20.774 17.1111 20.6869 17.5655C20.5997 18.02 20.4079 18.4478 20.1265 18.8152Z" fill="#262626"/>
</g>
<circle cx="17" cy="6" r="6" fill="#4EC89E"/>
<defs>
<clipPath id="clip0_337_20849">
<rect width="24" height="24" fill="white" transform="translate(0 2)"/>
</clipPath>
</defs>
</svg>
