<svg width="271" height="187" viewBox="0 0 271 187" fill="none" xmlns="http://www.w3.org/2000/svg">
<rect y="162.584" width="270.325" height="0.135162" fill="#EBEBEB"/>
<rect x="225.332" y="171.283" width="17.9063" height="0.135162" fill="#EBEBEB"/>
<rect x="174.375" y="172.754" width="4.69824" height="0.135162" fill="#EBEBEB"/>
<rect x="214.416" y="166.266" width="10.3751" height="0.135162" fill="#EBEBEB"/>
<rect x="28.3633" y="167.175" width="23.3507" height="0.135162" fill="#EBEBEB"/>
<rect x="56.5293" y="167.175" width="3.42231" height="0.135162" fill="#EBEBEB"/>
<rect x="71.0781" y="169.456" width="50.6481" height="0.135162" fill="#EBEBEB"/>
<rect x="194.088" y="26.1294" width="7.661" height="23.8481" fill="#E6E6E6"/>
<path d="M222.514 49.9777H197.093L193.254 22.064H218.675L222.514 49.9777Z" fill="#F0F0F0"/>
<path d="M225.266 49.9777H199.012L195.174 22.064H221.428L225.266 49.9777Z" fill="#F5F5F5"/>
<path d="M200.911 47.7775L197.678 24.2646H219.531L222.769 47.7775H200.911Z" fill="white"/>
<path d="M205.23 40.6571L204.013 31.8337C203.94 31.3623 204.078 30.8827 204.391 30.5223C204.703 30.1619 205.158 29.9574 205.635 29.963H213.577C214.401 29.9567 215.098 30.568 215.199 31.3849L216.41 40.2137C216.482 40.6842 216.343 41.1623 216.031 41.5214C215.719 41.8805 215.264 42.0843 214.788 42.079H206.857C206.032 42.088 205.332 41.476 205.23 40.6571Z" fill="#F5F5F5"/>
<rect x="39.5527" width="114.504" height="70.6359" fill="#E6E6E6"/>
<rect x="40.9258" width="116.072" height="70.6359" fill="#F0F0F0"/>
<rect x="39.5527" y="70.6411" width="114.504" height="5.46597" fill="#E6E6E6"/>
<rect x="45.8262" y="70.6411" width="116.072" height="5.46597" fill="#F0F0F0"/>
<path d="M152.881 4.12012V66.5219H45.0483V4.12012L152.881 4.12012Z" fill="#FAFAFA"/>
<path d="M52.9629 66.5219L77.1353 4.12012H88.543L64.3706 66.5219H52.9629Z" fill="white"/>
<path d="M66.8242 66.5219L90.9967 4.12012H95.4408L71.2684 66.5219H66.8242Z" fill="white"/>
<path d="M109.113 66.5219L133.286 4.12012H137.73L113.563 66.5219H109.113Z" fill="white"/>
<path d="M152.874 4.12012V66.5219H152.35V4.12012H152.874Z" fill="#E6E6E6"/>
<rect x="216.615" y="49.9775" width="24.2427" height="112.606" fill="#E6E6E6"/>
<path d="M238.421 162.584H240.859V155.648H235.863L238.421 162.584Z" fill="#F0F0F0"/>
<rect x="174.139" y="49.9775" width="24.2427" height="112.606" fill="#E6E6E6"/>
<rect x="196.25" y="49.9775" width="44.609" height="108.352" fill="#F0F0F0"/>
<path d="M198.688 162.584H196.25V155.648H201.246L198.688 162.584Z" fill="#F0F0F0"/>
<rect x="198.143" y="51.9619" width="40.8244" height="51.113" fill="#E6E6E6"/>
<path d="M222.973 55.9417H214.134C210.293 55.9414 206.622 54.3617 203.98 51.5732H233.127C230.487 54.3633 226.815 55.9433 222.973 55.9417Z" fill="#F0F0F0"/>
<rect x="198.143" y="105.146" width="40.8244" height="51.113" fill="#E6E6E6"/>
<path d="M222.973 109.125H214.134C210.293 109.125 206.622 107.545 203.98 104.757H233.127C230.487 107.547 226.815 109.127 222.973 109.125Z" fill="#F0F0F0"/>
<path d="M70.0137 85.5366H110.357L116.207 109.363H75.8581L70.0137 85.5366Z" fill="#E6E6E6"/>
<path d="M75.8574 109.363L76.025 110.677H116.368L116.206 109.363H75.8574Z" fill="#E6E6E6"/>
<path d="M71.2578 85.5366H111.601L117.451 109.363H77.1022L71.2578 85.5366Z" fill="#F0F0F0"/>
<path d="M77.9552 108.271L72.6406 86.623H110.746L116.06 108.271H77.9552Z" fill="white"/>
<path d="M87.6191 109.363L87.7813 110.677H132.207L132.044 109.363H87.6191Z" fill="#F0F0F0"/>
<rect x="137.51" y="110.676" width="4.83341" height="51.9024" fill="#E6E6E6"/>
<rect x="140.516" y="110.676" width="3.35743" height="51.9024" fill="#F0F0F0"/>
<rect x="144.916" y="116.619" width="62.2882" height="5.94174" transform="rotate(180 144.916 116.619)" fill="#F0F0F0"/>
<rect x="75.625" y="116.619" width="4.83341" height="45.9606" fill="#E6E6E6"/>
<rect x="78.625" y="116.619" width="3.35743" height="45.9606" fill="#F0F0F0"/>
<rect x="45.0293" y="116.619" width="4.83341" height="45.9606" fill="#E6E6E6"/>
<rect x="48.0371" y="116.619" width="3.35743" height="45.9606" fill="#F0F0F0"/>
<rect x="106.92" y="116.619" width="4.83341" height="45.9606" fill="#E6E6E6"/>
<rect x="109.92" y="116.619" width="3.35743" height="45.9606" fill="#F0F0F0"/>
<rect x="45.0293" y="110.676" width="37.5914" height="5.94174" fill="#E6E6E6"/>
<path d="M158.054 162.584H156.881L153.545 146.019L152.956 143.116L149.258 125.063H135.201L127.594 162.584H126.404L134.168 124.371C134.219 124.11 134.443 123.919 134.709 123.912H149.76C150.03 123.909 150.261 124.105 150.301 124.371L153.545 140.223L154.086 143.121L158.054 162.584Z" fill="#F0F0F0"/>
<path d="M180.625 162.584H179.446L171.823 125.063H157.766L154.084 143.121L153.543 146.019L150.175 162.584H149.002L152.954 143.121L153.538 140.228L156.782 124.377C156.834 124.117 157.058 123.927 157.323 123.917H172.326C172.591 123.925 172.816 124.116 172.866 124.377L180.625 162.584Z" fill="#F0F0F0"/>
<path d="M145.977 124.485H171.809C176.74 124.485 179.475 121.133 180.87 115.607L181.551 112.45C182.017 110.515 181.57 108.473 180.336 106.911C179.103 105.349 177.221 104.439 175.231 104.443H159.012C155.66 104.443 154.773 105.243 152.454 110.293C150.134 115.342 145.977 124.485 145.977 124.485Z" fill="#F0F0F0"/>
<path d="M160.059 124.485H132.529C131.815 124.485 131.237 123.906 131.237 123.193V123.074C131.237 122.136 131.609 121.237 132.272 120.574C132.935 119.91 133.835 119.538 134.772 119.538H160.059V124.49V124.485Z" fill="#F0F0F0"/>
<ellipse cx="135.162" cy="180.88" rx="104.827" ry="6.12015" fill="#F5F5F5"/>
<path d="M156.047 15.133H77.4742C75.7775 15.1214 74.1515 15.8117 72.9812 17.0403C71.8109 18.2689 71.2006 19.9266 71.2946 21.6208L78.6637 174.392C78.8814 178.002 81.8485 180.833 85.465 180.88H164.038C165.734 180.892 167.36 180.201 168.529 178.972C169.698 177.743 170.307 176.086 170.212 174.392L162.848 21.6208C162.63 18.0105 159.663 15.1802 156.047 15.133Z" fill="#527066"/>
<path d="M158.95 15.133H80.3559C78.6596 15.1213 77.034 15.8117 75.8646 17.0405C74.6952 18.2694 74.086 19.9271 74.1816 21.6208L81.5453 174.392C81.7631 178.002 84.7302 180.833 88.3467 180.88H166.919C168.616 180.892 170.241 180.201 171.411 178.972C172.58 177.743 173.189 176.086 173.093 174.392L165.73 21.6208C165.513 18.0187 162.558 15.1914 158.95 15.133Z" fill="#527066"/>
<path d="M88.1244 176.555C86.9252 176.524 85.9449 175.588 85.859 174.392L78.5062 21.6206C78.4796 21.0571 78.6847 20.5073 79.0737 20.0989C79.4628 19.6904 80.002 19.4589 80.5661 19.458H159.139C160.34 19.4833 161.323 20.4218 161.404 21.6206L168.768 174.392C168.794 174.954 168.59 175.503 168.202 175.912C167.814 176.32 167.276 176.552 166.713 176.555H88.1244Z" fill="#4EC89E"/>
<path opacity="0.1" d="M88.0876 175.473C87.4895 175.453 87.0013 174.988 86.9522 174.392L79.5886 21.6204C79.5784 21.3399 79.6816 21.0672 79.8748 20.8637C80.0681 20.6603 80.3352 20.5432 80.6158 20.5391H159.188C159.788 20.5566 160.277 21.0228 160.324 21.6204L167.687 174.392C167.698 174.672 167.594 174.945 167.401 175.148C167.208 175.352 166.941 175.469 166.66 175.473H88.0876Z" fill="white"/>
<g filter="url(#filter0_d_884_10896)">
<path d="M56.4526 128H149.674C150.59 128 151.468 128.364 152.115 129.011C152.763 129.659 153.127 130.537 153.127 131.453V148.716C153.127 149.632 152.763 150.51 152.115 151.157C151.468 151.805 150.59 152.169 149.674 152.169H56.4526C55.5369 152.169 54.6588 151.805 54.0113 151.157C53.3638 150.51 53 149.632 53 148.716V131.453C53 130.537 53.3638 129.659 54.0113 129.011C54.6588 128.364 55.5369 128 56.4526 128V128Z" fill="white"/>
<path d="M81.7798 142.678C81.0864 142.958 80.3166 143.098 79.4702 143.098C78.3765 143.098 77.5317 142.805 76.936 142.219C76.3533 141.646 76.062 140.85 76.062 139.831C76.062 138.711 76.3826 137.824 77.0239 137.17C77.688 136.49 78.6173 136.149 79.812 136.149C80.4728 136.149 81.1092 136.247 81.7212 136.442L81.4624 137.629C80.9448 137.417 80.3686 137.312 79.7339 137.312C78.9754 137.312 78.3976 137.543 78.0005 138.005C77.6489 138.418 77.4731 138.97 77.4731 139.66C77.4731 140.38 77.6554 140.936 78.02 141.33C78.3944 141.73 78.9282 141.931 79.6216 141.931C79.9341 141.931 80.2205 141.89 80.4809 141.809V139.46H81.7798V142.678ZM86.1548 143C86.1548 142.616 86.1743 142.32 86.2134 142.111H86.2036C85.8618 142.769 85.2987 143.098 84.5142 143.098C83.5278 143.098 83.0347 142.572 83.0347 141.521V138.029H84.3042V141.208C84.3042 141.755 84.5109 142.028 84.9243 142.028C85.2466 142.028 85.52 141.87 85.7446 141.555C85.966 141.245 86.0767 140.871 86.0767 140.432V138.029H87.3559V143H86.1548ZM92.8052 140.041C92.8052 140.337 92.7889 140.576 92.7563 140.759H89.685C89.685 141.654 90.1424 142.102 91.0571 142.102C91.5389 142.102 92.019 142.004 92.4975 141.809L92.6343 142.78C92.0581 142.992 91.4591 143.098 90.8374 143.098C89.2033 143.098 88.3862 142.251 88.3862 140.559C88.3862 139.794 88.5946 139.17 89.0112 138.688C89.4442 138.184 90.022 137.932 90.7446 137.932C91.4347 137.932 91.9604 138.135 92.3218 138.542C92.644 138.91 92.8052 139.41 92.8052 140.041ZM91.5356 139.909C91.5552 139.216 91.2687 138.869 90.6763 138.869C90.0968 138.869 89.7697 139.216 89.6948 139.909H91.5356ZM96.9409 141.452C96.9409 141.947 96.7407 142.346 96.3403 142.648C95.9399 142.948 95.411 143.098 94.7534 143.098C94.3205 143.098 93.9494 143.055 93.6401 142.971L93.7329 141.901C94.0389 142.035 94.3921 142.102 94.7925 142.102C95.3263 142.102 95.5933 141.921 95.5933 141.56C95.5933 141.371 95.4875 141.219 95.2759 141.105C95.2563 141.096 95.0252 141.006 94.5825 140.837C93.9087 140.583 93.5718 140.14 93.5718 139.509C93.5718 139.043 93.7427 138.669 94.0845 138.386C94.4621 138.076 94.9943 137.922 95.6811 137.922C95.9709 137.922 96.2703 137.954 96.5796 138.02L96.521 139.021C96.228 138.933 95.9285 138.889 95.6225 138.889C95.1343 138.889 94.8901 139.06 94.8901 139.401C94.8901 139.58 94.9975 139.729 95.2124 139.846L95.9155 140.129C96.5991 140.399 96.9409 140.84 96.9409 141.452ZM100.754 142.961C100.383 143.052 100.024 143.098 99.6753 143.098C99.1284 143.098 98.7508 142.984 98.5425 142.756C98.3374 142.528 98.2349 142.123 98.2349 141.54V139.021H97.3755V138.029H98.2349V136.501L99.5044 136.159V138.029H100.715V139.021H99.5044V141.198C99.5044 141.517 99.5483 141.734 99.6362 141.848C99.7209 141.962 99.8739 142.019 100.095 142.019C100.317 142.019 100.507 141.996 100.666 141.95L100.754 142.961ZM110.168 143L109.675 139.738C109.604 139.25 109.534 138.687 109.465 138.049H109.446C109.312 138.69 109.187 139.204 109.07 139.592L107.976 143H106.716L105.676 139.831C105.491 139.226 105.344 138.632 105.237 138.049H105.217C105.165 138.684 105.105 139.284 105.037 139.851L104.646 143H103.337L104.368 136.252H105.896L107.039 139.738C107.188 140.227 107.312 140.7 107.41 141.159H107.429C107.569 140.563 107.691 140.096 107.795 139.758L108.948 136.252H110.466L111.516 143H110.168ZM116.838 140.422C116.838 141.2 116.601 141.841 116.125 142.346C115.647 142.847 115.038 143.098 114.299 143.098C112.747 143.098 111.97 142.264 111.97 140.598C111.97 139.82 112.205 139.182 112.673 138.684C113.149 138.182 113.761 137.932 114.509 137.932C115.242 137.932 115.808 138.132 116.208 138.532C116.628 138.959 116.838 139.589 116.838 140.422ZM115.52 140.49C115.52 139.504 115.154 139.011 114.421 139.011C114.109 139.011 113.848 139.126 113.64 139.357C113.406 139.621 113.289 139.992 113.289 140.471C113.289 141.496 113.66 142.009 114.402 142.009C114.731 142.009 114.996 141.882 115.198 141.628C115.413 141.358 115.52 140.979 115.52 140.49ZM120.935 143C120.935 142.717 120.955 142.44 120.994 142.17H120.974C120.678 142.798 120.155 143.112 119.407 143.112C118.814 143.112 118.36 142.901 118.044 142.478C117.745 142.074 117.595 141.507 117.595 140.778C117.595 139.929 117.828 139.247 118.293 138.732C118.769 138.205 119.413 137.941 120.227 137.941C120.452 137.941 120.662 137.954 120.857 137.98V135.7H122.126V143H120.935ZM120.857 139.03C120.61 138.978 120.385 138.952 120.183 138.952C119.35 138.952 118.933 139.515 118.933 140.642C118.933 141.579 119.218 142.048 119.788 142.048C120.11 142.048 120.372 141.883 120.574 141.555C120.763 141.245 120.857 140.868 120.857 140.422V139.03ZM127.581 140.041C127.581 140.337 127.564 140.576 127.532 140.759H124.46C124.46 141.654 124.918 142.102 125.833 142.102C126.314 142.102 126.794 142.004 127.273 141.809L127.41 142.78C126.833 142.992 126.235 143.098 125.613 143.098C123.979 143.098 123.162 142.251 123.162 140.559C123.162 139.794 123.37 139.17 123.787 138.688C124.22 138.184 124.797 137.932 125.52 137.932C126.21 137.932 126.736 138.135 127.097 138.542C127.419 138.91 127.581 139.41 127.581 140.041ZM126.311 139.909C126.331 139.216 126.044 138.869 125.452 138.869C124.872 138.869 124.545 139.216 124.47 139.909H126.311Z" fill="#4EC89E"/>
</g>
<g filter="url(#filter1_d_884_10896)">
<circle cx="126" cy="63" r="24" fill="white"/>
</g>
<g filter="url(#filter2_d_884_10896)">
<circle cx="128" cy="62" r="24" fill="white"/>
</g>
<g clip-path="url(#clip0_884_10896)">
<path d="M120.043 57.7347C120.5 50.5424 124.706 50.0249 124.9 50.0058C124.933 50.0021 124.967 50.0002 125 50C125.867 50.033 126.705 50.3049 127.415 50.783C127.586 50.8989 127.791 50.9611 128 50.9611C128.21 50.9611 128.415 50.8989 128.586 50.783C129.295 50.3048 130.133 50.033 131 50C131.035 50 131.07 50.0019 131.105 50.0058C131.294 50.0249 135.505 50.5424 135.957 57.7347C135.967 57.8824 135.929 58.0295 135.847 58.1549C135.764 58.2804 135.643 58.3778 135.5 58.4333C133.098 59.2652 130.553 59.6553 128 59.5833C125.447 59.6552 122.902 59.2651 120.5 58.4333C120.357 58.3778 120.236 58.2804 120.153 58.1549C120.071 58.0295 120.033 57.8824 120.043 57.7347ZM138.693 59.5728C138.543 59.4723 138.367 59.4156 138.184 59.4097C138.002 59.4037 137.821 59.4487 137.665 59.5393C136.564 60.1583 133.538 61.5 128 61.5C122.462 61.5 119.437 60.1583 118.335 59.5393C118.179 59.4487 117.998 59.4037 117.816 59.4097C117.633 59.4156 117.457 59.4723 117.307 59.5728C116.945 59.7718 116.638 60.0504 116.411 60.3854C116.184 60.7205 116.043 61.1025 116 61.5C116 65.0363 122.194 65.3333 128 65.3333C133.806 65.3333 140 65.0363 140 61.5C139.957 61.1025 139.816 60.7205 139.589 60.3854C139.362 60.0504 139.055 59.7718 138.693 59.5728ZM132.5 66.2917C131.806 66.2924 131.128 66.4909 130.552 66.8619C129.976 67.2329 129.528 67.7596 129.265 68.3751C128.438 68.1527 127.562 68.1527 126.735 68.3751C126.416 67.6334 125.829 67.0262 125.082 66.664C124.335 66.3018 123.477 66.2088 122.665 66.4018C121.852 66.5948 121.139 67.061 120.654 67.7156C120.17 68.3702 119.947 69.1696 120.027 69.9683C120.106 70.7671 120.482 71.512 121.086 72.0676C121.69 72.6232 122.482 72.9525 123.318 72.9955C124.154 73.0385 124.978 72.7924 125.641 72.302C126.303 71.8115 126.76 71.1094 126.928 70.3234C127.272 70.2042 127.634 70.1373 128 70.125C128.366 70.1372 128.728 70.2041 129.072 70.3234C129.206 70.9447 129.521 71.5169 129.98 71.9736C130.439 72.4303 131.024 72.7528 131.667 72.9037C132.31 73.0546 132.985 73.0277 133.612 72.8261C134.24 72.6244 134.795 72.2564 135.213 71.7646C135.631 71.2728 135.895 70.6775 135.975 70.0477C136.054 69.4179 135.945 68.7795 135.661 68.2065C135.377 67.6335 134.929 67.1495 134.37 66.8105C133.81 66.4716 133.162 66.2917 132.5 66.2917Z" fill="#4EC89E"/>
</g>
<path d="M192.882 176.825H188.914L188.514 167.623H192.487L192.882 176.825Z" fill="#FFC3BD"/>
<path opacity="0.2" d="M188.521 167.628L188.722 172.37H192.695L192.49 167.628H188.521Z" fill="#262626"/>
<path d="M226.69 166.044L222.916 167.277L218.164 159.151L221.943 157.918L226.69 166.044Z" fill="#FFC3BD"/>
<path opacity="0.2" d="M221.943 157.918L218.164 159.151L220.619 163.341L224.392 162.108L221.943 157.918Z" fill="#262626"/>
<path d="M206.314 43.9224C206.806 44.5225 207.223 45.0577 207.65 45.647C208.077 46.2363 208.482 46.7986 208.888 47.3825C209.688 48.5557 210.456 49.756 211.175 50.9941C212.671 53.5059 213.891 56.1725 214.813 58.947L214.905 59.2173L214.949 59.3579L215.008 59.5796L215.116 60.0229L215.176 60.4284C215.24 60.914 215.26 61.4044 215.235 61.8936C215.185 62.7185 215.065 63.5377 214.878 64.3427C214.536 65.785 214.082 67.1985 213.521 68.5706C212.452 71.2008 211.157 73.7333 209.65 76.1397L206.947 74.8475C207.758 72.3119 208.569 69.7168 209.164 67.1919C209.473 65.9748 209.708 64.7398 209.866 63.4939C209.933 62.956 209.953 62.4133 209.926 61.8719C209.918 61.679 209.892 61.4872 209.85 61.2988L209.823 61.2015C209.813 61.1841 209.804 61.166 209.796 61.1475L209.753 61.0447L209.666 60.8339L209.304 59.9851L208.899 59.1416C208.628 58.601 208.331 58.0171 208.034 57.4548C207.417 56.3411 206.752 55.2328 206.06 54.1298C205.368 53.0269 204.633 51.9672 203.898 50.8859C203.162 49.8046 202.357 48.7233 201.627 47.7448L206.314 43.9224Z" fill="#FFC3BD"/>
<path d="M207.194 74.1768L205.643 77.6099H210.081C210.081 77.6099 210.79 75.004 209.178 73.9497L207.194 74.1768Z" fill="#FFC3BD"/>
<path d="M206.162 81.4706L210.281 80.6758L210.081 77.6104H205.643L206.162 81.4706Z" fill="#FFC3BD"/>
<path d="M196.988 30.1899C196.415 33.0986 195.847 38.424 197.88 40.3596C197.88 40.3596 197.085 43.3061 191.69 43.3061C185.742 43.3061 188.851 40.3596 188.851 40.3596C192.095 39.5864 192.009 37.1859 191.441 34.926L196.988 30.1899Z" fill="#FFC3BD"/>
<path d="M198.657 41.3703C199.084 40.4404 199.555 39.3699 198.582 39.0347C197.5 38.667 191.683 38.294 189.666 38.986C189.131 39.1344 188.677 39.4915 188.407 39.9772C188.136 40.463 188.072 41.0368 188.228 41.5703L198.657 41.3703Z" fill="#262626"/>
<path fill-rule="evenodd" clip-rule="evenodd" d="M221.229 168.693C221.478 168.731 221.808 168.504 222.1 168.223C222.35 167.98 222.575 167.712 222.77 167.423C222.791 167.392 222.791 167.351 222.77 167.32C222.749 167.292 222.713 167.277 222.678 167.282C222.608 167.288 221.31 167.504 220.986 168.007C220.911 168.112 220.888 168.245 220.921 168.369C220.945 168.531 221.068 168.661 221.229 168.693ZM221.144 168.104C221.166 168.073 221.191 168.044 221.219 168.018C221.598 167.757 222.031 167.583 222.485 167.509C222.122 167.963 221.533 168.547 221.257 168.504C221.23 168.504 221.149 168.488 221.106 168.32C221.086 168.246 221.1 168.167 221.144 168.104Z" fill="#4EC89E"/>
<path fill-rule="evenodd" clip-rule="evenodd" d="M222.705 167.466L222.748 167.439C222.761 167.428 222.768 167.412 222.77 167.395C222.78 167.362 222.769 167.326 222.743 167.304C222.742 167.303 222.74 167.301 222.738 167.299C222.658 167.23 221.829 166.51 221.251 166.552C221.106 166.563 220.971 166.631 220.877 166.741C220.776 166.846 220.758 167.006 220.834 167.131C221.083 167.509 222.256 167.585 222.705 167.466ZM221.024 166.866L221.056 166.833H221.067C221.121 166.78 221.192 166.747 221.267 166.742C221.715 166.812 222.132 167.011 222.468 167.315C221.959 167.374 221.138 167.25 220.992 167.028C220.991 167.027 220.99 167.026 220.99 167.024C220.978 167.001 220.952 166.953 221.024 166.866Z" fill="#4EC89E"/>
<path fill-rule="evenodd" clip-rule="evenodd" d="M186.152 176.728C186.314 176.955 186.806 177.025 187.314 177.025C187.722 177.023 188.129 176.987 188.53 176.917C188.567 176.908 188.595 176.878 188.601 176.841C188.61 176.803 188.593 176.763 188.557 176.744C188.498 176.706 187.109 175.917 186.449 176.095C186.324 176.125 186.216 176.205 186.152 176.317C186.061 176.439 186.061 176.605 186.152 176.728ZM186.504 176.258C186.565 176.249 186.627 176.249 186.688 176.258C187.234 176.321 187.763 176.49 188.245 176.755C187.51 176.858 186.504 176.852 186.32 176.598C186.277 176.566 186.256 176.506 186.32 176.387C186.36 176.32 186.427 176.273 186.504 176.258Z" fill="#4EC89E"/>
<path fill-rule="evenodd" clip-rule="evenodd" d="M188.478 176.917H188.516C188.54 176.923 188.565 176.919 188.586 176.906C188.613 176.885 188.628 176.853 188.629 176.82C188.629 176.818 188.629 176.816 188.628 176.813C188.617 176.711 188.5 175.693 188.013 175.289C187.862 175.164 187.667 175.105 187.472 175.127C187.213 175.154 187.121 175.284 187.121 175.392C187.051 175.836 188.002 176.701 188.478 176.917ZM187.494 175.295H187.548V175.305C187.658 175.307 187.764 175.345 187.85 175.414C188.155 175.754 188.344 176.181 188.391 176.635C187.91 176.343 187.266 175.668 187.31 175.397C187.31 175.376 187.32 175.295 187.494 175.295Z" fill="#4EC89E"/>
<path d="M222.588 166.839L225.831 163.752C225.948 163.637 226.129 163.621 226.264 163.714L229.27 165.725C229.417 165.825 229.511 165.986 229.524 166.164C229.536 166.341 229.467 166.514 229.335 166.634C228.194 167.715 227.583 168.153 226.167 169.504C225.291 170.342 222.685 173.181 221.479 174.338C220.274 175.495 218.976 174.446 219.365 173.867C221.117 171.267 222.209 168.775 222.306 167.461C222.324 167.227 222.424 167.007 222.588 166.839Z" fill="#262626"/>
<path d="M188.938 176.365H193.263C193.425 176.364 193.565 176.477 193.598 176.636L194.382 180.166C194.422 180.338 194.381 180.519 194.27 180.656C194.159 180.793 193.991 180.872 193.814 180.869C192.246 180.869 189.987 180.755 188.019 180.755C185.721 180.755 183.737 180.88 181.039 180.88C179.417 180.88 178.957 179.231 179.639 179.079C182.742 178.403 185.283 178.328 187.965 176.673C188.254 176.482 188.591 176.375 188.938 176.365Z" fill="#262626"/>
<path d="M183.28 49.372C181.701 51.6968 180.074 53.8702 178.322 56.0166C176.564 58.1892 174.685 60.2613 172.694 62.2233L171.926 62.9694L171.732 63.1532L171.591 63.2829L171.386 63.4289C171.131 63.6342 170.858 63.8152 170.569 63.9696C169.657 64.451 168.652 64.733 167.623 64.7967C166.052 64.8897 164.475 64.7587 162.941 64.4075C160.16 63.7943 157.465 62.8467 154.912 61.5853L155.907 58.7739C158.439 59.28 160.999 59.6303 163.573 59.8228C164.705 59.9122 165.843 59.865 166.963 59.6822C167.285 59.6341 167.592 59.5139 167.861 59.3308C167.888 59.3308 167.861 59.2983 167.861 59.2983L167.904 59.2551L168.061 59.0767L168.704 58.3738C170.391 56.4491 172.029 54.3947 173.619 52.2969C175.208 50.1992 176.803 48.0474 178.322 45.9497L183.28 49.372Z" fill="#FFC3BD"/>
<path d="M204.994 41.2624C208.714 42.1167 212.985 52.2647 212.985 52.2647L205.508 57.39C203.65 54.7214 202.004 51.9124 200.582 48.9883C198.366 44.3442 201.188 40.3866 204.994 41.2624Z" fill="#4EC89E"/>
<path opacity="0.3" d="M202.322 47.75L205.858 57.1627L205.507 57.406C205.507 57.406 203.977 55.2434 202.322 52.3617L202.322 47.75Z" fill="#262626"/>
<path d="M182.741 41.4623C182.741 41.4623 178.513 46.2362 182.508 75.7935H203.751C203.897 72.5496 201.847 56.6221 204.994 41.2568C202.644 40.8049 200.268 40.5051 197.879 40.3593C194.872 40.1862 191.857 40.1862 188.85 40.3593C186.788 40.5671 184.745 40.9359 182.741 41.4623Z" fill="#4EC89E"/>
<path opacity="0.3" d="M185.099 50.0098C184.546 53.3639 183.096 56.5061 180.903 59.1035C180.817 57.2004 180.784 55.492 180.79 53.9619L185.099 50.0098Z" fill="#262626"/>
<path d="M186.932 44.6841C187.473 48.4416 180.044 58.0489 180.044 58.0489L172.6 52.9236C172.6 52.9236 174.665 47.6306 178.141 44.1597C182.115 40.1805 186.365 40.5914 186.932 44.6841Z" fill="#4EC89E"/>
<path d="M156.423 59.1037L153.509 56.0923L150.4 60.0985C150.4 60.0985 152.768 62.3854 155.585 61.7204L156.423 59.1037Z" fill="#FFC3BD"/>
<path d="M149.507 54.4165L148.172 58.6228L150.399 60.0825L153.508 56.0763L149.507 54.4165Z" fill="#FFC3BD"/>
<path d="M197.34 25.8213C197.097 29.7519 197.156 32.0713 195.177 34.0879C192.188 37.1263 187.333 35.326 186.397 31.3846C185.549 27.8488 186.089 22.0098 189.939 20.4473C191.663 19.7389 193.63 19.9743 195.139 21.0694C196.647 22.1644 197.48 23.9628 197.34 25.8213Z" fill="#FFC3BD"/>
<path d="M200.759 17.6088C201.97 18.7225 201.456 19.966 200.824 20.1985C202.786 20.6039 203.073 22.1664 202.04 25.4644C201.056 28.6218 198.672 32.8551 195.693 33.1146C191.217 33.5038 189.908 28.838 189.876 24.2101C187.345 24.3669 188.438 22.1232 185.329 22.6422C182.626 23.0909 183.642 20.9824 181.344 20.0633C178.679 18.982 179.214 14.9001 181.701 16.0733C181.701 16.0733 180.55 16.8302 181.89 17.5439C183.231 18.2575 183.101 16.6085 185.756 16.4085C188.411 16.2085 188.719 18.4792 191.822 17.1114C195.715 15.3921 198.272 15.311 200.759 17.6088Z" fill="#262626"/>
<path d="M199.27 20.1769C199.632 19.5955 200.333 19.3208 200.994 19.5011C202.211 19.7606 202.308 20.2958 203.07 20.2255C203.833 20.1552 203.557 20.9662 203.557 20.9662C203.557 20.9662 203.351 20.3553 202.432 20.6959C201.513 21.0365 200.913 20.2039 200.518 20.5769C200.124 20.95 199.27 20.1769 199.27 20.1769Z" fill="#262626"/>
<path d="M191.996 26.8921C191.823 27.856 191.335 28.7348 190.607 29.3899C189.644 30.2441 188.812 29.5575 188.779 28.3897C188.779 27.3354 189.228 25.6162 190.336 25.2053C191.445 24.7944 192.196 25.7243 191.996 26.8921Z" fill="#FFC3BD"/>
<path d="M190.039 75.7936C190.039 75.7936 194.548 106.14 197.024 117.494C199.728 129.929 218.569 163.017 218.569 163.017L225.489 160.767C225.489 160.767 210.486 130.956 208.94 118.624C207.259 105.243 203.75 75.772 203.75 75.772L190.039 75.7936Z" fill="#A7E4CF"/>
<path d="M216.635 160.854C216.608 160.854 218.219 163.276 218.219 163.276L225.994 160.746L225.08 158.421L216.635 160.854Z" fill="#4EC89E"/>
<path opacity="0.3" d="M192.888 86.6066C198.1 87.6284 197.548 107.065 196.921 117.061C195.418 109.995 193.218 96.3977 191.715 86.7471C192.078 86.568 192.492 86.5184 192.888 86.6066Z" fill="#262626"/>
<path d="M182.51 75.7935C182.51 75.7935 181.97 105.491 182.391 117.602C182.84 130.199 187.257 171.451 187.257 171.451H193.988C193.988 171.451 194.232 130.934 194.529 118.564C194.853 105.048 196.481 75.7935 196.481 75.7935L182.51 75.7935Z" fill="#A7E4CF"/>
<path d="M185.949 168.769C185.917 168.769 186.328 171.564 186.328 171.564H194.513L194.735 169.072L185.949 168.769Z" fill="#4EC89E"/>
<path d="M103.801 19.7715H136.548" stroke="#527066" stroke-width="4" stroke-linecap="round" stroke-linejoin="round"/>
<defs>
<filter id="filter0_d_884_10896" x="47" y="125" width="112.127" height="36.1685" filterUnits="userSpaceOnUse" color-interpolation-filters="sRGB">
<feFlood flood-opacity="0" result="BackgroundImageFix"/>
<feColorMatrix in="SourceAlpha" type="matrix" values="0 0 0 0 0 0 0 0 0 0 0 0 0 0 0 0 0 0 127 0" result="hardAlpha"/>
<feOffset dy="3"/>
<feGaussianBlur stdDeviation="3"/>
<feColorMatrix type="matrix" values="0 0 0 0 0 0 0 0 0 0 0 0 0 0 0 0 0 0 0.161 0"/>
<feBlend mode="normal" in2="BackgroundImageFix" result="effect1_dropShadow_884_10896"/>
<feBlend mode="normal" in="SourceGraphic" in2="effect1_dropShadow_884_10896" result="shape"/>
</filter>
<filter id="filter1_d_884_10896" x="96" y="36" width="60" height="60" filterUnits="userSpaceOnUse" color-interpolation-filters="sRGB">
<feFlood flood-opacity="0" result="BackgroundImageFix"/>
<feColorMatrix in="SourceAlpha" type="matrix" values="0 0 0 0 0 0 0 0 0 0 0 0 0 0 0 0 0 0 127 0" result="hardAlpha"/>
<feOffset dy="3"/>
<feGaussianBlur stdDeviation="3"/>
<feColorMatrix type="matrix" values="0 0 0 0 0 0 0 0 0 0 0 0 0 0 0 0 0 0 0.161 0"/>
<feBlend mode="normal" in2="BackgroundImageFix" result="effect1_dropShadow_884_10896"/>
<feBlend mode="normal" in="SourceGraphic" in2="effect1_dropShadow_884_10896" result="shape"/>
</filter>
<filter id="filter2_d_884_10896" x="98" y="35" width="60" height="60" filterUnits="userSpaceOnUse" color-interpolation-filters="sRGB">
<feFlood flood-opacity="0" result="BackgroundImageFix"/>
<feColorMatrix in="SourceAlpha" type="matrix" values="0 0 0 0 0 0 0 0 0 0 0 0 0 0 0 0 0 0 127 0" result="hardAlpha"/>
<feOffset dy="3"/>
<feGaussianBlur stdDeviation="3"/>
<feColorMatrix type="matrix" values="0 0 0 0 0 0 0 0 0 0 0 0 0 0 0 0 0 0 0.161 0"/>
<feBlend mode="normal" in2="BackgroundImageFix" result="effect1_dropShadow_884_10896"/>
<feBlend mode="normal" in="SourceGraphic" in2="effect1_dropShadow_884_10896" result="shape"/>
</filter>
<clipPath id="clip0_884_10896">
<rect width="24" height="23" fill="white" transform="translate(116 50)"/>
</clipPath>
</defs>
</svg>
