<svg width="16" height="16" viewBox="0 0 16 16" fill="none" xmlns="http://www.w3.org/2000/svg">
<g clip-path="url(#clip0_337_27063)">
<path d="M15.6247 6.99136L9.95933 0.866693C9.70965 0.596547 9.40678 0.380981 9.06976 0.23355C8.73274 0.0861183 8.36886 0.0100098 8.001 0.0100098C7.63314 0.0100098 7.26926 0.0861183 6.93224 0.23355C6.59522 0.380981 6.29235 0.596547 6.04267 0.866693L0.387333 6.98936C0.139142 7.23924 -0.00010367 7.57717 5.7911e-08 7.92936V14C5.7911e-08 14.5305 0.210714 15.0392 0.585786 15.4142C0.960859 15.7893 1.46957 16 2 16H4.66667V12C4.6689 11.4012 4.83288 10.8141 5.14128 10.3009C5.44967 9.78758 5.89102 9.36715 6.41867 9.08403C6.452 9.06536 6.48533 9.04669 6.52 9.02869C6.64447 8.96669 6.77273 8.91258 6.904 8.86669C6.994 8.83403 7.08533 8.80603 7.17933 8.78136C7.27333 8.75669 7.38667 8.73469 7.49333 8.71469C7.552 8.70536 7.60667 8.68536 7.66667 8.67936C7.76933 8.66936 7.86667 8.66736 7.97 8.66669C7.98067 8.66669 7.99 8.66336 8 8.66336H8.012C8.21837 8.66495 8.42414 8.68571 8.62667 8.72536C8.64933 8.73003 8.672 8.73203 8.69333 8.73669C8.88336 8.77819 9.0694 8.83619 9.24933 8.91003C9.27467 8.92003 9.3 8.92936 9.32533 8.94069C9.49749 9.0154 9.66297 9.10461 9.82 9.20736L9.894 9.25669C10.0464 9.36264 10.1898 9.48105 10.3227 9.61069C10.344 9.63136 10.364 9.65203 10.3847 9.67336C10.5148 9.80702 10.6339 9.95105 10.7407 10.104L10.786 10.1707C10.8909 10.33 10.9821 10.498 11.0587 10.6727C11.0673 10.694 11.0747 10.7154 11.0833 10.7394C11.1595 10.9236 11.2189 11.1144 11.2607 11.3094C11.2607 11.324 11.2653 11.3394 11.268 11.354C11.3109 11.5667 11.3327 11.7831 11.3333 12V16H14C14.5304 16 15.0391 15.7893 15.4142 15.4142C15.7893 15.0392 16 14.5305 16 14V7.91936C16.0002 7.57302 15.8656 7.24021 15.6247 6.99136Z" fill="#4EC89E"/>
<path d="M8 10C7.46957 10 6.96086 10.2107 6.58579 10.5858C6.21071 10.9609 6 11.4696 6 12V16H10V12C10 11.4696 9.78929 10.9609 9.41421 10.5858C9.03914 10.2107 8.53043 10 8 10Z" fill="#4EC89E"/>
</g>
<defs>
<clipPath id="clip0_337_27063">
<rect width="16" height="16" fill="white"/>
</clipPath>
</defs>
</svg>
