<svg width="38" height="38" viewBox="0 0 38 38" fill="none" xmlns="http://www.w3.org/2000/svg">
<path opacity="0.1" d="M0.744964 12.562C2.12034 6.69857 6.69857 2.12034 12.562 0.744962C16.7965 -0.24832 21.2035 -0.248321 25.438 0.744961C31.3014 2.12034 35.8797 6.69858 37.255 12.562C38.2483 16.7965 38.2483 21.2035 37.255 25.438C35.8797 31.3014 31.3014 35.8797 25.438 37.255C21.2035 38.2483 16.7965 38.2483 12.562 37.255C6.69858 35.8797 2.12034 31.3014 0.744964 25.438C-0.248321 21.2035 -0.248321 16.7965 0.744964 12.562Z" fill="#4EC89E"/>
<g clip-path="url(#clip0_884_10494)">
<path d="M26.6247 17.9914L20.9593 11.8667C20.7097 11.5965 20.4068 11.381 20.0698 11.2335C19.7327 11.0861 19.3689 11.01 19.001 11.01C18.6331 11.01 18.2693 11.0861 17.9322 11.2335C17.5952 11.381 17.2923 11.5965 17.0427 11.8667L11.3873 17.9894C11.1391 18.2392 10.9999 18.5772 11 18.9294V25C11 25.5305 11.2107 26.0392 11.5858 26.4142C11.9609 26.7893 12.4696 27 13 27H15.6667V23C15.6689 22.4012 15.8329 21.8141 16.1413 21.3009C16.4497 20.7876 16.891 20.3671 17.4187 20.084C17.452 20.0654 17.4853 20.0467 17.52 20.0287C17.6445 19.9667 17.7727 19.9126 17.904 19.8667C17.994 19.834 18.0853 19.806 18.1793 19.7814C18.2733 19.7567 18.3867 19.7347 18.4933 19.7147C18.552 19.7054 18.6067 19.6854 18.6667 19.6794C18.7693 19.6694 18.8667 19.6674 18.97 19.6667C18.9807 19.6667 18.99 19.6634 19 19.6634H19.012C19.2184 19.665 19.4241 19.6857 19.6267 19.7254C19.6493 19.73 19.672 19.732 19.6933 19.7367C19.8834 19.7782 20.0694 19.8362 20.2493 19.91C20.2747 19.92 20.3 19.9294 20.3253 19.9407C20.4975 20.0154 20.663 20.1046 20.82 20.2074L20.894 20.2567C21.0464 20.3626 21.1898 20.481 21.3227 20.6107C21.344 20.6314 21.364 20.652 21.3847 20.6734C21.5148 20.807 21.6339 20.9511 21.7407 21.104L21.786 21.1707C21.8909 21.33 21.9821 21.498 22.0587 21.6727C22.0673 21.694 22.0747 21.7154 22.0833 21.7394C22.1595 21.9236 22.2189 22.1144 22.2607 22.3094C22.2607 22.324 22.2653 22.3394 22.268 22.354C22.3109 22.5667 22.3327 22.7831 22.3333 23V27H25C25.5304 27 26.0391 26.7893 26.4142 26.4142C26.7893 26.0392 27 25.5305 27 25V18.9194C27.0002 18.573 26.8656 18.2402 26.6247 17.9914Z" fill="#4EC89E"/>
<path d="M19 21C18.4696 21 17.9609 21.2107 17.5858 21.5858C17.2107 21.9609 17 22.4696 17 23V27H21V23C21 22.4696 20.7893 21.9609 20.4142 21.5858C20.0391 21.2107 19.5304 21 19 21Z" fill="#4EC89E"/>
</g>
<defs>
<clipPath id="clip0_884_10494">
<rect width="16" height="16" fill="white" transform="translate(11 11)"/>
</clipPath>
</defs>
</svg>
