<svg width="17" height="17" viewBox="0 0 17 17" fill="none" xmlns="http://www.w3.org/2000/svg">
<g clip-path="url(#clip0_884_10610)">
<path d="M3.19533 5.9544C3.5 0.951064 6.304 0.591064 6.43333 0.57773C6.45547 0.575193 6.47772 0.573857 6.5 0.57373C7.07787 0.596702 7.63687 0.785811 8.11 1.1184C8.22419 1.19903 8.36054 1.24233 8.50033 1.24233C8.64012 1.24233 8.77648 1.19903 8.89067 1.1184C9.36354 0.785796 9.92233 0.596679 10.5 0.57373C10.5234 0.573734 10.5468 0.575069 10.57 0.57773C10.696 0.591064 13.5033 0.951064 13.8047 5.9544C13.8115 6.05716 13.7857 6.15946 13.731 6.24672C13.6763 6.33398 13.5955 6.40176 13.5 6.4404C11.8985 7.01908 10.2021 7.29049 8.5 7.2404C6.79786 7.29042 5.10156 7.01901 3.5 6.4404C3.40453 6.40176 3.32369 6.33398 3.26899 6.24672C3.21429 6.15946 3.18851 6.05716 3.19533 5.9544ZM15.6287 7.23306C15.529 7.16316 15.4111 7.12374 15.2895 7.1196C15.1678 7.11546 15.0475 7.14677 14.9433 7.20973C14.2093 7.6404 12.192 8.57373 8.5 8.57373C4.808 8.57373 2.79133 7.6404 2.05667 7.20973C1.95246 7.14677 1.83221 7.11546 1.71053 7.1196C1.58886 7.12374 1.47101 7.16316 1.37133 7.23306C1.13028 7.37153 0.925574 7.56529 0.774083 7.79838C0.622592 8.03147 0.528651 8.29722 0.5 8.57373C0.5 11.0337 4.62933 11.2404 8.5 11.2404C12.3707 11.2404 16.5 11.0337 16.5 8.57373C16.4713 8.29722 16.3774 8.03147 16.2259 7.79838C16.0744 7.56529 15.8697 7.37153 15.6287 7.23306ZM11.5 11.9071C11.0373 11.9076 10.5853 12.0457 10.2013 12.3037C9.81724 12.5618 9.51862 12.9282 9.34333 13.3564C8.79175 13.2017 8.20825 13.2017 7.65667 13.3564C7.44384 12.8404 7.05281 12.418 6.55477 12.1661C6.05672 11.9141 5.48476 11.8494 4.943 11.9837C4.40124 12.1179 3.92571 12.4422 3.60295 12.8976C3.28019 13.353 3.13166 13.9091 3.18441 14.4647C3.23716 15.0204 3.48768 15.5386 3.89036 15.9251C4.29304 16.3116 4.82111 16.5407 5.37846 16.5706C5.9358 16.6005 6.48536 16.4293 6.9271 16.0881C7.36884 15.747 7.6734 15.2585 7.78533 14.7117C8.01493 14.6288 8.25605 14.5823 8.5 14.5737C8.74396 14.5822 8.98509 14.6288 9.21467 14.7117C9.30381 15.1439 9.51368 15.542 9.81994 15.8597C10.1262 16.1774 10.5163 16.4018 10.9449 16.5068C11.3735 16.6117 11.8231 16.593 12.2415 16.4527C12.66 16.3125 13.03 16.0564 13.3088 15.7143C13.5875 15.3722 13.7636 14.9581 13.8164 14.52C13.8693 14.0818 13.7968 13.6377 13.6075 13.2391C13.4181 12.8405 13.1196 12.5038 12.7466 12.268C12.3735 12.0322 11.9413 11.9071 11.5 11.9071Z" fill="white"/>
</g>
<defs>
<clipPath id="clip0_884_10610">
<rect width="16" height="16" fill="white" transform="translate(0.5 0.57373)"/>
</clipPath>
</defs>
</svg>
