<svg width="38" height="38" viewBox="0 0 38 38" fill="none" xmlns="http://www.w3.org/2000/svg">
<path opacity="0.1" d="M0.744964 12.562C2.12034 6.69857 6.69857 2.12034 12.562 0.744962C16.7965 -0.24832 21.2035 -0.248321 25.438 0.744961C31.3014 2.12034 35.8797 6.69858 37.255 12.562C38.2483 16.7965 38.2483 21.2035 37.255 25.438C35.8797 31.3014 31.3014 35.8797 25.438 37.255C21.2035 38.2483 16.7965 38.2483 12.562 37.255C6.69858 35.8797 2.12034 31.3014 0.744964 25.438C-0.248321 21.2035 -0.248321 16.7965 0.744964 12.562Z" fill="#30E0A1"/>
<g clip-path="url(#clip0_884_10456)">
<path d="M19 10.9998C17.4178 10.9998 15.871 11.4689 14.5554 12.348C13.2398 13.2271 12.2145 14.4765 11.609 15.9383C11.0035 17.4001 10.845 19.0086 11.1537 20.5605C11.4624 22.1123 12.2243 23.5378 13.3431 24.6566C14.462 25.7754 15.8874 26.5374 17.4393 26.846C18.9911 27.1547 20.5997 26.9963 22.0615 26.3908C23.5233 25.7853 24.7727 24.7599 25.6518 23.4443C26.5308 22.1287 27 20.582 27 18.9998C26.9977 16.8787 26.1541 14.8452 24.6543 13.3454C23.1545 11.8456 21.121 11.002 19 10.9998V10.9998ZM19 25.6664C17.6815 25.6664 16.3925 25.2754 15.2962 24.5429C14.1999 23.8103 13.3454 22.7692 12.8408 21.551C12.3362 20.3328 12.2042 18.9924 12.4614 17.6992C12.7187 16.4059 13.3536 15.2181 14.286 14.2857C15.2183 13.3534 16.4062 12.7184 17.6994 12.4612C18.9926 12.204 20.3331 12.336 21.5512 12.8406C22.7694 13.3451 23.8106 14.1996 24.5431 15.296C25.2757 16.3923 25.6667 17.6812 25.6667 18.9998C25.6647 20.7673 24.9617 22.4618 23.7119 23.7117C22.4621 24.9615 20.7675 25.6645 19 25.6664ZM22.3333 18.9998C22.3333 19.1766 22.2631 19.3461 22.1381 19.4712C22.0131 19.5962 21.8435 19.6664 21.6667 19.6664H19.6667V21.6664C19.6667 21.8432 19.5964 22.0128 19.4714 22.1378C19.3464 22.2629 19.1768 22.3331 19 22.3331C18.8232 22.3331 18.6536 22.2629 18.5286 22.1378C18.4036 22.0128 18.3333 21.8432 18.3333 21.6664V19.6664H16.3333C16.1565 19.6664 15.987 19.5962 15.8619 19.4712C15.7369 19.3461 15.6667 19.1766 15.6667 18.9998C15.6667 18.8229 15.7369 18.6534 15.8619 18.5284C15.987 18.4033 16.1565 18.3331 16.3333 18.3331H18.3333V16.3331C18.3333 16.1563 18.4036 15.9867 18.5286 15.8617C18.6536 15.7367 18.8232 15.6664 19 15.6664C19.1768 15.6664 19.3464 15.7367 19.4714 15.8617C19.5964 15.9867 19.6667 16.1563 19.6667 16.3331V18.3331H21.6667C21.8435 18.3331 22.0131 18.4033 22.1381 18.5284C22.2631 18.6534 22.3333 18.8229 22.3333 18.9998Z" fill="#30E0A1"/>
</g>
<defs>
<clipPath id="clip0_884_10456">
<rect width="16" height="16" fill="white" transform="translate(11 10.9998)"/>
</clipPath>
</defs>
</svg>
