<svg width="38" height="38" viewBox="0 0 38 38" fill="none" xmlns="http://www.w3.org/2000/svg">
<circle cx="19" cy="19" r="19" fill="#EB001B" fill-opacity="0.1"/>
<g opacity="0.01">
<rect x="5.58984" y="10.0576" width="26.1534" height="17.059" fill="white"/>
</g>
<rect x="15.2168" y="13.0303" width="6.89912" height="11.1129" fill="#FF5F00"/>
<path fill-rule="evenodd" clip-rule="evenodd" d="M15.927 18.5879C15.9253 16.4197 16.9346 14.3711 18.664 13.0324C15.726 10.7553 11.5068 11.087 8.97167 13.7944C6.43653 16.5018 6.43653 20.6759 8.97167 23.3833C11.5068 26.0907 15.726 26.4224 18.664 24.1453C16.934 22.8062 15.9247 20.7568 15.927 18.5879Z" fill="#EB001B"/>
<path fill-rule="evenodd" clip-rule="evenodd" d="M29.5925 22.7879V23.2497H29.5443V22.7879H29.4414V22.6924H29.702V22.7879H29.5925ZM30.0961 22.6924V23.2497H30.0413V22.8277L29.956 23.19H29.8968L29.8114 22.8277V23.2497H29.7545V22.6924H29.8333L29.9253 23.0905L30.0173 22.6924H30.0961Z" fill="#F79E1B"/>
<path fill-rule="evenodd" clip-rule="evenodd" d="M30.2588 18.5874C30.2588 21.2932 28.6922 23.7614 26.2244 24.9438C23.7566 26.1262 20.8209 25.8152 18.6641 24.1429C20.3927 22.8031 21.4021 20.7548 21.4021 18.5864C21.4021 16.4181 20.3927 14.3698 18.6641 13.03C20.8209 11.3577 23.7566 11.0467 26.2244 12.2291C28.6922 13.4115 30.2588 15.8797 30.2588 18.5855V18.5874Z" fill="#F79E1B"/>
</svg>
