<svg width="16" height="16" viewBox="0 0 16 16" fill="none" xmlns="http://www.w3.org/2000/svg">
<path d="M7.99935 2.66667C8.73573 2.66667 9.33268 2.06971 9.33268 1.33333C9.33268 0.596954 8.73573 0 7.99935 0C7.26297 0 6.66602 0.596954 6.66602 1.33333C6.66602 2.06971 7.26297 2.66667 7.99935 2.66667Z" fill="#262626"/>
<path d="M7.99935 9.33341C8.73573 9.33341 9.33268 8.73646 9.33268 8.00008C9.33268 7.2637 8.73573 6.66675 7.99935 6.66675C7.26297 6.66675 6.66602 7.2637 6.66602 8.00008C6.66602 8.73646 7.26297 9.33341 7.99935 9.33341Z" fill="#262626"/>
<path d="M7.99935 15.9999C8.73573 15.9999 9.33268 15.403 9.33268 14.6666C9.33268 13.9302 8.73573 13.3333 7.99935 13.3333C7.26297 13.3333 6.66602 13.9302 6.66602 14.6666C6.66602 15.403 7.26297 15.9999 7.99935 15.9999Z" fill="#262626"/>
</svg>
