<svg width="38" height="38" viewBox="0 0 38 38" fill="none" xmlns="http://www.w3.org/2000/svg">
<path opacity="0.1" d="M0.744964 12.562C2.12034 6.69857 6.69857 2.12034 12.562 0.744962C16.7965 -0.24832 21.2035 -0.248321 25.438 0.744961C31.3014 2.12034 35.8797 6.69858 37.255 12.562C38.2483 16.7965 38.2483 21.2035 37.255 25.438C35.8797 31.3014 31.3014 35.8797 25.438 37.255C21.2035 38.2483 16.7965 38.2483 12.562 37.255C6.69858 35.8797 2.12034 31.3014 0.744964 25.438C-0.248321 21.2035 -0.248321 16.7965 0.744964 12.562Z" fill="#158CEA"/>
<path d="M15.8431 11.9998H12.6567C12.4826 11.9998 12.3155 12.0677 12.1923 12.1887C12.0692 12.3097 12 12.4739 12 12.645V15.7756C12 16.006 12.1251 16.2191 12.3284 16.3344C12.5315 16.4496 12.7818 16.4496 12.9851 16.3344C13.1882 16.2191 13.3134 16.006 13.3134 15.7756V13.2903H15.8433C16.078 13.2903 16.2947 13.1672 16.412 12.9677C16.5293 12.768 16.5293 12.522 16.412 12.3224C16.2947 12.1228 16.0779 11.9998 15.8433 11.9998L15.8431 11.9998Z" fill="#158CEA"/>
<path d="M25.9998 12.645C25.9998 12.4739 25.9306 12.3097 25.8075 12.1887C25.6844 12.0677 25.5173 11.9998 25.3431 11.9998H22.1567C21.922 11.9998 21.7053 12.1227 21.588 12.3224C21.4707 12.5219 21.4707 12.7679 21.588 12.9676C21.7053 13.1672 21.9221 13.2902 22.1567 13.2902H24.6866V15.7756C24.6866 16.006 24.8118 16.2191 25.0149 16.3344C25.2182 16.4496 25.4685 16.4496 25.6716 16.3344C25.8749 16.2191 26 16.006 26 15.7756L25.9998 12.645Z" fill="#158CEA"/>
<path d="M12.0002 25.3542C12.0002 25.5253 12.0694 25.6895 12.1925 25.8105C12.3156 25.9314 12.4827 25.9994 12.6569 25.9994H15.8433C16.078 25.9994 16.2947 25.8765 16.412 25.6768C16.5293 25.4772 16.5293 25.2313 16.412 25.0316C16.2947 24.832 16.0779 24.709 15.8433 24.709H13.3134V22.2236C13.3134 21.9931 13.1882 21.7801 12.9851 21.6648C12.7818 21.5496 12.5315 21.5496 12.3284 21.6648C12.1251 21.7801 12 21.9932 12 22.2236L12.0002 25.3542Z" fill="#158CEA"/>
<path d="M26 22.2236C26 21.9931 25.8749 21.7801 25.6716 21.6648C25.4685 21.5496 25.2182 21.5496 25.0149 21.6648C24.8118 21.7801 24.6866 21.9932 24.6866 22.2236V24.709H22.1567C21.922 24.709 21.7053 24.832 21.588 25.0316C21.4707 25.2312 21.4707 25.4772 21.588 25.6768C21.7053 25.8765 21.9221 25.9994 22.1567 25.9994H25.3431C25.5173 25.9994 25.6844 25.9314 25.8075 25.8105C25.9306 25.6895 25.9998 25.5253 25.9998 25.3542L26 22.2236Z" fill="#158CEA"/>
<path d="M13.5 19.0003C13.5 19.1631 13.5687 19.3193 13.6913 19.4345C13.8138 19.5496 13.9799 19.6143 14.1533 19.6143H23.8468C24.0802 19.6143 24.2959 19.4973 24.4125 19.3073C24.5292 19.1172 24.5292 18.8833 24.4125 18.6933C24.2959 18.5032 24.0802 18.3862 23.8468 18.3862H14.1533C13.9799 18.3862 13.8138 18.4509 13.6913 18.566C13.5687 18.6812 13.5 18.8374 13.5 19.0003V19.0003Z" fill="#158CEA"/>
</svg>
