<svg width="38" height="38" viewBox="0 0 38 38" fill="none" xmlns="http://www.w3.org/2000/svg">
<circle cx="19" cy="19" r="19" fill="#0742A6" fill-opacity="0.1"/>
<path fill-rule="evenodd" clip-rule="evenodd" d="M17.1036 23.1028H14.7949L16.2389 14.4072H18.5475L17.1036 23.1028Z" fill="#0742A6"/>
<path fill-rule="evenodd" clip-rule="evenodd" d="M25.4684 14.6202C25.0131 14.4443 24.2908 14.25 23.3977 14.25C21.1178 14.25 19.5123 15.434 19.5025 17.1268C19.4835 18.3758 20.6519 19.0695 21.5258 19.4859C22.419 19.9114 22.7227 20.1892 22.7227 20.5685C22.7136 21.151 22.0009 21.4195 21.3362 21.4195C20.4145 21.4195 19.9206 21.2811 19.17 20.957L18.866 20.8181L18.543 22.77C19.0844 23.0103 20.0821 23.2235 21.1178 23.2328C23.5402 23.2328 25.1173 22.0671 25.136 20.2632C25.1452 19.2733 24.5283 18.5148 23.1981 17.895C22.3906 17.4971 21.8961 17.2289 21.8961 16.8218C21.9056 16.4517 22.3144 16.0726 23.2259 16.0726C23.9764 16.0541 24.5279 16.2298 24.9456 16.4056L25.1545 16.4979L25.4684 14.6202V14.6202V14.6202Z" fill="#0742A6"/>
<path fill-rule="evenodd" clip-rule="evenodd" d="M29.5969 14.4077H31.3827L33.2452 23.1032H31.1076C31.1076 23.1032 30.8984 22.1041 30.8321 21.7988H27.8679C27.7822 22.03 27.3834 23.1032 27.3834 23.1032H24.9609L28.3902 15.1292C28.6278 14.5648 29.0462 14.4077 29.5969 14.4077ZM29.4534 17.5901C29.4534 17.5901 28.7218 19.5235 28.5317 20.0231H30.4507C30.3557 19.5883 29.9185 17.5069 29.9185 17.5069L29.7572 16.7576C29.6892 16.9506 29.591 17.2158 29.5247 17.3947C29.4798 17.516 29.4495 17.5976 29.4534 17.5901Z" fill="#0742A6"/>
<path fill-rule="evenodd" clip-rule="evenodd" d="M12.864 14.4072L10.6031 20.3368L10.356 19.1342C9.93798 17.7466 8.62703 16.239 7.16406 15.4893L9.23504 23.0936H11.6764L15.3053 14.4072H12.864V14.4072V14.4072Z" fill="#0742A6"/>
<path fill-rule="evenodd" clip-rule="evenodd" d="M8.50247 14.4072H4.788L4.75 14.5829C7.64752 15.3045 9.56649 17.0439 10.3549 19.1346L9.54743 15.1382C9.41449 14.5828 9.00595 14.4255 8.50247 14.4072V14.4072Z" fill="#0742A6"/>
</svg>
