<svg width="32" height="32" viewBox="0 0 32 32" fill="none" xmlns="http://www.w3.org/2000/svg">
<path opacity="0.1" d="M0.627338 10.5785C1.78555 5.6409 5.6409 1.78555 10.5785 0.627337C14.1445 -0.209112 17.8555 -0.209112 21.4215 0.627336C26.3591 1.78555 30.2145 5.64091 31.3727 10.5786C32.2091 14.1445 32.2091 17.8555 31.3727 21.4214C30.2145 26.3591 26.3591 30.2144 21.4215 31.3727C17.8555 32.2091 14.1445 32.2091 10.5786 31.3727C5.64091 30.2145 1.78555 26.3591 0.627338 21.4215C-0.209113 17.8556 -0.209113 14.1445 0.627338 10.5785Z" fill="#4EC89E"/>
<g clip-path="url(#clip0_686_263321)">
<path d="M19.9704 18.9266C21.024 17.8609 21.6149 16.4227 21.6149 14.9241C21.6149 13.4255 21.024 11.9873 19.9704 10.9216C19.4514 10.3962 18.8333 9.97911 18.1518 9.69444C17.4704 9.40977 16.7393 9.26318 16.0008 9.26318C15.2623 9.26318 14.5311 9.40977 13.8497 9.69444C13.1683 9.97911 12.5501 10.3962 12.0311 10.9216C10.975 11.9897 10.384 13.432 10.3867 14.9341C10.3895 16.4362 10.9858 17.8763 12.0457 18.9406L14.0577 20.8152C14.573 21.3246 15.2679 21.6112 15.9925 21.6131C16.7171 21.615 17.4135 21.332 17.9314 20.8253L19.9704 18.9266ZM16.7542 17.4872C16.52 17.6031 16.2623 17.6634 16.001 17.6634C15.7398 17.6634 15.482 17.6031 15.2479 17.4872L14.1251 16.9258C13.8446 16.7866 13.6087 16.5717 13.4441 16.3054C13.2795 16.0391 13.1928 15.732 13.1937 15.419V13.7544C13.1926 13.4413 13.2792 13.1341 13.4438 12.8677C13.6083 12.6013 13.8441 12.3863 14.1245 12.247L15.2474 11.6856C15.4814 11.5693 15.7391 11.5088 16.0005 11.5088C16.2618 11.5088 16.5196 11.5693 16.7536 11.6856L17.8764 12.247C18.157 12.3862 18.3929 12.6012 18.5575 12.8676C18.7221 13.134 18.8088 13.4412 18.8078 13.7544V15.4195C18.8088 15.7325 18.7221 16.0396 18.5576 16.3059C18.3931 16.5722 18.1573 16.7871 17.877 16.9263L16.7542 17.4872ZM17.6563 13.5826C17.6748 13.638 17.6844 13.696 17.685 13.7544V15.4195C17.6854 15.5239 17.6565 15.6264 17.6017 15.7152C17.5468 15.804 17.4681 15.8757 17.3745 15.922L16.2517 16.4834C16.1736 16.5222 16.0876 16.5423 16.0005 16.5423C15.9133 16.5423 15.8273 16.5222 15.7492 16.4834L14.6264 15.922C14.5329 15.8755 14.4542 15.8038 14.3995 15.7148C14.3447 15.6259 14.316 15.5234 14.3165 15.419V13.7544C14.3174 13.6971 14.3271 13.6403 14.3452 13.586L15.569 14.1979C15.7031 14.2649 15.8509 14.2998 16.0008 14.2998C16.1506 14.2998 16.2984 14.2649 16.4325 14.1979L17.6563 13.5826ZM20.492 22.1754C20.492 22.3243 20.4328 22.4671 20.3276 22.5724C20.2223 22.6777 20.0795 22.7369 19.9306 22.7369H12.0709C11.922 22.7369 11.7792 22.6777 11.674 22.5724C11.5687 22.4671 11.5095 22.3243 11.5095 22.1754C11.5095 22.0266 11.5687 21.8838 11.674 21.7785C11.7792 21.6732 11.922 21.614 12.0709 21.614H19.9306C20.0795 21.614 20.2223 21.6732 20.3276 21.7785C20.4328 21.8838 20.492 22.0266 20.492 22.1754Z" fill="#4EC89E"/>
</g>
<defs>
<clipPath id="clip0_686_263321">
<rect width="13.4737" height="13.4737" fill="white" transform="translate(9.26367 9.26318)"/>
</clipPath>
</defs>
</svg>
