<svg width="20" height="20" viewBox="0 0 20 20" fill="none" xmlns="http://www.w3.org/2000/svg">
<path fill-rule="evenodd" clip-rule="evenodd" d="M17.4993 3.33333H14.916C14.7226 2.39284 14.2109 1.54779 13.4671 0.940598C12.7233 0.333408 11.7929 0.0012121 10.8327 0H9.16602C8.20585 0.0012121 7.27545 0.333408 6.53164 0.940598C5.78783 1.54779 5.2761 2.39284 5.08268 3.33333H2.49935C2.27834 3.33333 2.06637 3.42113 1.91009 3.57741C1.75381 3.73369 1.66602 3.94565 1.66602 4.16667C1.66602 4.38768 1.75381 4.59964 1.91009 4.75592C2.06637 4.9122 2.27834 5 2.49935 5H3.33268V15.8333C3.33401 16.938 3.77342 17.997 4.55453 18.7782C5.33565 19.5593 6.39469 19.9987 7.49935 20H12.4993C13.604 19.9987 14.6631 19.5593 15.4442 18.7782C16.2253 17.997 16.6647 16.938 16.666 15.8333V5H17.4993C17.7204 5 17.9323 4.9122 18.0886 4.75592C18.2449 4.59964 18.3327 4.38768 18.3327 4.16667C18.3327 3.94565 18.2449 3.73369 18.0886 3.57741C17.9323 3.42113 17.7204 3.33333 17.4993 3.33333ZM9.16602 1.66667H10.8327C11.3496 1.6673 11.8536 1.82781 12.2757 2.1262C12.6978 2.42459 13.0172 2.84624 13.1902 3.33333H6.80852C6.9815 2.84624 7.30093 2.42459 7.72301 2.1262C8.14508 1.82781 8.64912 1.6673 9.16602 1.66667ZM14.9993 15.8333C14.9993 16.4964 14.736 17.1323 14.2671 17.6011C13.7983 18.0699 13.1624 18.3333 12.4993 18.3333H7.49935C6.83631 18.3333 6.20042 18.0699 5.73158 17.6011C5.26274 17.1323 4.99935 16.4964 4.99935 15.8333V5H14.9993V15.8333ZM8.33268 15C8.5537 15 8.76566 14.9122 8.92194 14.7559C9.07822 14.5996 9.16602 14.3877 9.16602 14.1667V9.16667C9.16602 8.94565 9.07822 8.73369 8.92194 8.57741C8.76566 8.42113 8.5537 8.33333 8.33268 8.33333C8.11167 8.33333 7.89971 8.42113 7.74343 8.57741C7.58715 8.73369 7.49935 8.94565 7.49935 9.16667V14.1667C7.49935 14.3877 7.58715 14.5996 7.74343 14.7559C7.89971 14.9122 8.11167 15 8.33268 15ZM12.2553 14.7559C12.099 14.9122 11.887 15 11.666 15C11.445 15 11.233 14.9122 11.0768 14.7559C10.9205 14.5996 10.8327 14.3877 10.8327 14.1667V9.16667C10.8327 8.94565 10.9205 8.73369 11.0768 8.57741C11.233 8.42113 11.445 8.33333 11.666 8.33333C11.887 8.33333 12.099 8.42113 12.2553 8.57741C12.4116 8.73369 12.4993 8.94565 12.4993 9.16667V14.1667C12.4993 14.3877 12.4116 14.5996 12.2553 14.7559Z" fill="#D55353"/>
</svg>
