<svg width="18" height="12" viewBox="0 0 18 12" fill="none" xmlns="http://www.w3.org/2000/svg">
<path d="M3.70724 1.20447L0.767987 4.14372C0.290706 4.64387 0.0244141 5.30864 0.0244141 5.99997C0.0244141 6.69131 0.290706 7.35608 0.767987 7.85622L3.70724 10.7955C3.81101 10.9029 3.93515 10.9886 4.07241 11.0476C4.20966 11.1065 4.35728 11.1376 4.50666 11.1389C4.65604 11.1402 4.80418 11.1117 4.94244 11.0551C5.08069 10.9986 5.2063 10.915 5.31193 10.8094C5.41756 10.7038 5.5011 10.5782 5.55766 10.4399C5.61423 10.3017 5.64269 10.1535 5.64139 10.0041C5.6401 9.85477 5.60906 9.70715 5.5501 9.56989C5.49114 9.43264 5.40544 9.3085 5.29799 9.20472L3.21374 7.11897L16.9012 7.10172C17.1996 7.10172 17.4858 6.9832 17.6967 6.77222C17.9077 6.56124 18.0262 6.27509 18.0262 5.97672C18.0262 5.67835 17.9077 5.39221 17.6967 5.18123C17.4858 4.97025 17.1996 4.85172 16.9012 4.85172L3.22499 4.86897L5.29799 2.79522C5.50291 2.58305 5.61631 2.29887 5.61375 2.0039C5.61118 1.70893 5.49287 1.42676 5.28428 1.21818C5.0757 1.00959 4.79353 0.891278 4.49856 0.888714C4.20359 0.886151 3.91941 0.999545 3.70724 1.20447Z" fill="#14142B"/>
</svg>
