<svg width="14" height="14" viewBox="0 0 14 14" fill="none" xmlns="http://www.w3.org/2000/svg">
<g clip-path="url(#clip0_686_97430)">
<path fill-rule="evenodd" clip-rule="evenodd" d="M3.11101 1.17971C4.26216 0.410543 5.61553 0 7 0C8.8559 0.0020073 10.6352 0.74015 11.9475 2.05247C13.2599 3.36479 13.998 5.1441 14 7C14 8.38447 13.5895 9.73785 12.8203 10.889C12.0511 12.0401 10.9579 12.9373 9.67879 13.4672C8.3997 13.997 6.99224 14.1356 5.63437 13.8655C4.2765 13.5954 3.02922 12.9287 2.05026 11.9497C1.07129 10.9708 0.404603 9.7235 0.134506 8.36563C-0.13559 7.00776 0.003033 5.6003 0.532846 4.32122C1.06266 3.04213 1.95987 1.94888 3.11101 1.17971ZM3.75918 11.8502C4.71846 12.4912 5.84628 12.8333 7 12.8333C8.54658 12.8316 10.0293 12.2165 11.1229 11.1229C12.2165 10.0293 12.8316 8.54657 12.8333 7C12.8333 5.84628 12.4912 4.71846 11.8502 3.75917C11.2093 2.79989 10.2982 2.05221 9.23232 1.6107C8.16642 1.16919 6.99353 1.05367 5.86198 1.27875C4.73042 1.50383 3.69102 2.0594 2.87521 2.87521C2.05941 3.69102 1.50384 4.73042 1.27876 5.86197C1.05368 6.99353 1.16919 8.16642 1.61071 9.23232C2.05222 10.2982 2.79989 11.2093 3.75918 11.8502ZM8.92089 4.49587C9.07557 4.49587 9.22391 4.55731 9.3333 4.66667C9.44266 4.77606 9.5041 4.9244 9.5041 5.07908C9.5041 5.23376 9.44266 5.38211 9.3333 5.4915L7.8248 7L9.3333 8.5085C9.43956 8.61852 9.49836 8.76587 9.49703 8.91882C9.4957 9.07177 9.43435 9.21807 9.3262 9.32623C9.21804 9.43438 9.07174 9.49573 8.91879 9.49706C8.76584 9.49839 8.61849 9.43959 8.50847 9.33333L6.99997 7.82483L5.49147 9.33333C5.38145 9.43959 5.2341 9.49839 5.08115 9.49706C4.92821 9.49573 4.7819 9.43438 4.67374 9.32623C4.56559 9.21807 4.50424 9.07177 4.50291 8.91882C4.50158 8.76587 4.56038 8.61852 4.66664 8.5085L6.17514 7L4.66664 5.4915C4.56038 5.38148 4.50158 5.23413 4.50291 5.08118C4.50424 4.92824 4.56559 4.78193 4.67374 4.67377C4.7819 4.56562 4.92821 4.50427 5.08115 4.50294C5.2341 4.50161 5.38145 4.56041 5.49147 4.66667L6.99997 6.17517L8.50847 4.66667C8.61786 4.55731 8.76621 4.49587 8.92089 4.49587Z" fill="#2E3B4C"/>
</g>
<defs>
<clipPath id="clip0_686_97430">
<rect width="14" height="14" fill="white"/>
</clipPath>
</defs>
</svg>
