<svg xmlns="http://www.w3.org/2000/svg" width="121" height="121" viewBox="0 0 121 121">
  <g id="Group_56689" data-name="Group 56689" transform="translate(6668 10565)">
    <circle id="Ellipse_654" data-name="Ellipse 654" cx="60.5" cy="60.5" r="60.5" transform="translate(-6668 -10565)" fill="#24bf95" opacity="0.199"/>
    <g id="picture" transform="translate(-6639.539 -10536.539)">
      <path id="Path_17091" data-name="Path 17091" d="M50.729,0H13.35A13.366,13.366,0,0,0,0,13.35V50.729a13.366,13.366,0,0,0,13.35,13.35H50.729a13.366,13.366,0,0,0,13.35-13.35V13.35A13.366,13.366,0,0,0,50.729,0ZM13.35,5.34H50.729a8.01,8.01,0,0,1,8.01,8.01V50.729a7.879,7.879,0,0,1-.8,3.431L33.473,29.7a13.35,13.35,0,0,0-18.882,0L5.34,38.944V13.35a8.01,8.01,0,0,1,8.01-8.01Zm0,53.4a8.01,8.01,0,0,1-8.01-8.01V46.494L18.364,33.47a8.01,8.01,0,0,1,11.331,0L54.16,57.938a7.879,7.879,0,0,1-3.431.8Z" fill="#24bf95"/>
      <path id="Path_17092" data-name="Path 17092" d="M21.845,22.19A9.345,9.345,0,1,0,12.5,12.845a9.345,9.345,0,0,0,9.345,9.345Zm0-13.35a4,4,0,1,1-4,4A4,4,0,0,1,21.845,8.84Z" transform="translate(20.874 5.845)" fill="#24bf95"/>
    </g>
  </g>
</svg>
