<svg width="14" height="14" viewBox="0 0 14 14" fill="none" xmlns="http://www.w3.org/2000/svg">
<g clip-path="url(#clip0_339_5856)">
<path d="M1.30092 10.747C0.906083 11.1417 0.684201 11.6771 0.684082 12.2354L0.684082 13.3159H1.76461C2.32291 13.3158 2.85831 13.0939 3.25303 12.6991L10.2757 5.67647L8.32356 3.72437L1.30092 10.747Z" fill="#262626"/>
<path d="M12.8658 1.13444C12.7376 1.00614 12.5854 0.904362 12.4179 0.83492C12.2504 0.765479 12.0708 0.729736 11.8895 0.729736C11.7081 0.729736 11.5285 0.765479 11.361 0.83492C11.1935 0.904362 11.0413 1.00614 10.9131 1.13444L9.06787 2.98023L11.02 4.93233L12.8658 3.08707C12.9941 2.95891 13.0958 2.80671 13.1653 2.63919C13.2347 2.47167 13.2705 2.2921 13.2705 2.11075C13.2705 1.92941 13.2347 1.74984 13.1653 1.58232C13.0958 1.4148 12.9941 1.2626 12.8658 1.13444Z" fill="#262626"/>
</g>
<defs>
<clipPath id="clip0_339_5856">
<rect width="12.6316" height="12.6316" fill="white" transform="translate(0.684082 0.684326)"/>
</clipPath>
</defs>
</svg>
