<svg width="14" height="14" viewBox="0 0 14 14" fill="none" xmlns="http://www.w3.org/2000/svg">
<g clip-path="url(#clip0_339_5862)">
<path d="M11.7368 2.78959H10.1052C9.98308 2.1956 9.65988 1.66188 9.19011 1.27839C8.72033 0.8949 8.13271 0.685092 7.52629 0.684326L6.47366 0.684326C5.86724 0.685092 5.27962 0.8949 4.80984 1.27839C4.34007 1.66188 4.01687 2.1956 3.89471 2.78959H2.26313C2.12354 2.78959 1.98967 2.84504 1.89097 2.94374C1.79227 3.04245 1.73682 3.17632 1.73682 3.31591C1.73682 3.45549 1.79227 3.58936 1.89097 3.68807C1.98967 3.78677 2.12354 3.84222 2.26313 3.84222H2.78945V10.6843C2.79028 11.382 3.06781 12.0509 3.56114 12.5442C4.05448 13.0375 4.72335 13.3151 5.42103 13.3159H8.57892C9.2766 13.3151 9.94547 13.0375 10.4388 12.5442C10.9321 12.0509 11.2097 11.382 11.2105 10.6843V3.84222H11.7368C11.8764 3.84222 12.0103 3.78677 12.109 3.68807C12.2077 3.58936 12.2631 3.45549 12.2631 3.31591C12.2631 3.17632 12.2077 3.04245 12.109 2.94374C12.0103 2.84504 11.8764 2.78959 11.7368 2.78959ZM6.47366 9.63169C6.47366 9.77128 6.41821 9.90515 6.3195 10.0039C6.2208 10.1026 6.08693 10.158 5.94734 10.158C5.80776 10.158 5.67388 10.1026 5.57518 10.0039C5.47648 9.90515 5.42103 9.77128 5.42103 9.63169V6.4738C5.42103 6.33421 5.47648 6.20034 5.57518 6.10164C5.67388 6.00294 5.80776 5.94748 5.94734 5.94748C6.08693 5.94748 6.2208 6.00294 6.3195 6.10164C6.41821 6.20034 6.47366 6.33421 6.47366 6.4738V9.63169ZM8.57892 9.63169C8.57892 9.77128 8.52347 9.90515 8.42477 10.0039C8.32606 10.1026 8.19219 10.158 8.05261 10.158C7.91302 10.158 7.77915 10.1026 7.68044 10.0039C7.58174 9.90515 7.52629 9.77128 7.52629 9.63169V6.4738C7.52629 6.33421 7.58174 6.20034 7.68044 6.10164C7.77915 6.00294 7.91302 5.94748 8.05261 5.94748C8.19219 5.94748 8.32606 6.00294 8.42477 6.10164C8.52347 6.20034 8.57892 6.33421 8.57892 6.4738V9.63169ZM4.98471 2.78959C5.09397 2.48195 5.29571 2.21565 5.56228 2.02719C5.82886 1.83873 6.1472 1.73736 6.47366 1.73696H7.52629C7.85275 1.73736 8.17109 1.83873 8.43767 2.02719C8.70424 2.21565 8.90598 2.48195 9.01524 2.78959H4.98471Z" fill="#262626"/>
</g>
<defs>
<clipPath id="clip0_339_5862">
<rect width="12.6316" height="12.6316" fill="white" transform="translate(0.684082 0.684326)"/>
</clipPath>
</defs>
</svg>
